<?xml version="1.0" ?><!-- Uploaded to: SVG Repo, www.svgrepo.com, Generator: SVG Repo Mixer Tools -->
<svg fill="#000000" width="800px" height="800px" viewBox="0 0 512 512" id="icon" version="1.1" xml:space="preserve" xmlns="http://www.w3.org/2000/svg" xmlns:xlink="http://www.w3.org/1999/xlink"><path d="M459.2944946,402.5668945c-1.2029114-1.5882874-3.2104187-2.3851013-5.1610107-2.0177917  c-0.2204895,0.0389099-4.9554749,0.8291016-12.8052063,1.4067078v-54.2267151c0-1.6141052-0.7348022-3.1405029-1.9971008-4.144104  l-18.5973816-14.8078003v-50.5381775c0-1.5678101-0.6934204-3.0527039-1.8936157-4.0615234l-18.1149902-15.1826782  l-15.6163025-104.8717194c-0.1628113-1.0812988-0.6543884-2.0851898-1.40979-2.8768921l-20.5635071-21.5281982  c-1.6271057-1.7126007-4.1907043-2.1369019-6.278595-1.0400085l-21.5594177,11.2324066  c-1.7512817,0.9107056-2.8507996,2.7212067-2.8507996,4.6977997v57.1584015l-31.2260742-26.1721039L286.510498,88.4975967  c-0.2120056-1.2675934-0.8794861-2.4111938-1.8779907-3.2233963l-25.2872009-20.5917969  c-1.6533203-1.350605-3.9504089-1.5628052-5.8338165-0.5691071l-19.3501892,10.2959061  c-1.7280121,0.9210968-2.8092957,2.716095-2.8092957,4.6772003v60.2237015H127.1321945  c-2.9259949,0-5.2981949,2.3701019-5.2981949,5.2980957v40.5686035H104.752594c-2.9259949,0-5.2982941,2.3694-5.2982941,5.297699  v26.2662048c-25.0578995-6.5018005-40.9808998-6.3320007-42.6585007-6.2896118  c-2.8738976,0.0774994-5.1634979,2.4263-5.1634979,5.2978973c0,94.1748047,55.6475983,163.5769043,69.9378967,179.843811  l-37.3294983,44.195282c-1.3298035,1.5779114-1.6246033,3.7820129-0.7580032,5.6497192  c0.8692017,1.8725891,2.7448044,3.0678101,4.8066025,3.0678101h348.5557861c2.0281067,0,3.8778992-1.1587219,4.7626038-2.9798279  l18.2247925-37.4434814C460.7070007,406.2922058,460.4973755,404.1604004,459.2944946,402.5668945z M343.0427856,147.8211975  l15.1802063-7.9057922l16.6520996,17.4309998l13.6068115,91.3864899l-45.4391174-38.0847015V147.8211975z M241.947998,82.2683029  l13.4340057-7.1504059l21.0136871,17.1150055l12.3084106,72.8711014l-29.2994995-24.5570984  c-0.9544983-0.7970123-2.1600037-1.2368011-3.4044189-1.2368011H241.947998V82.2683029z M132.430191,149.9060059h121.6427002  l156.0647125,130.8059998v39.6290894L241.8237915,186.330307c-0.9389954-0.744812-2.1031952-1.1535034-3.3009033-1.1535034  H132.430191V149.9060059z M110.050499,195.7725067h126.6200943l194.0614929,154.5128021v52.1891785  c-8.3276062,0.2127991-18.4512939,0.0059204-29.6539917-1.1260986v-30.2176819c0-1.6455994-0.7632141-3.1925049-2.0643921-4.196106  l-152.577301-117.6228027c-1.5988007-1.2366028-3.7564087-1.4434052-5.5725098-0.5588989  c-1.8105927,0.8901978-2.959198,2.736908-2.959198,4.7552032v42.4072113  c-8.1560059-7.4082031-16.2133942-14.1878052-24.1362-20.3682251v-22.0389862c0-2.9286041-2.3721924-5.2980957-5.2980042-5.2980957  h-32.8618927c-0.496994,0-0.9450989,0.1544952-1.4013062,0.2826996  c-24.1390991-14.2396088-45.9954987-23.1576996-64.1567917-28.7351074V195.7725067z M390.4820862,373.7380066v26.2858887  c-8.2901917-1.237793-16.9899902-3.0097046-25.8796082-5.5267944V353.786499L390.4820862,373.7380066z M354.0062866,345.6181946  v45.5101013c-9.7583008-3.3941956-19.5952759-7.7420959-29.2167969-13.2781067V323.093811L354.0062866,345.6181946z   M314.1932983,314.9242859v56.263916c-9.6975098-6.650116-19.0092163-14.6870117-27.6237183-24.3164978  c0.0004272-0.028595,0.0160217-0.0513,0.0160217-0.07901v-53.1517944L314.1932983,314.9242859z M275.9893799,285.4718933v49.3045044  c-9.2236938-10.4989929-18.4014893-20.1159973-27.4886932-28.916687v-41.5797119L275.9893799,285.4718933z M203.1723938,258.8059082  v8.7463989c-4.2164001-3.0652161-8.3955994-6.0013123-12.5140991-8.7463989H203.1723938z M433.531189,437.9099121H99.7002029  l32.9600906-39.0216064c1.7463074-2.069397,1.6504974-5.1219177-0.2198944-7.0829163  c-0.6880035-0.7191772-67.7052994-72.0045776-70.1445999-170.5514832  c22.9200974,1.6089935,117.3382034,15.2110901,213.0521851,128.9484863  c12.5079956,14.8651123,26.5603027,26.2893982,41.1525879,35.0768127c0.3642273,0.2566833,0.7194214,0.5105896,1.1429138,0.6694946  c12.8522949,7.6028137,26.0951843,13.1766052,39.0732117,17.2088013c0.6870728,0.394989,1.4403076,0.656189,2.276886,0.7077026  c12.0935059,3.601593,23.9147034,5.9024963,34.9076843,7.3046875c0.587616,0.2238159,1.2123108,0.3789063,1.8788147,0.3789063  c0.1801147,0,0.3320923-0.0853882,0.5075989-0.1019897c15.387207,1.8029785,29.0335999,1.8959961,39.3843079,1.4371033  c0.1246948,0.0086975,0.2310791,0.071991,0.3580933,0.071991c0.1929932,0,0.3569031-0.0896912,0.5447083-0.1097107  c3.5997925-0.1732788,6.7844849-0.4086914,9.4747009-0.6558838L433.531189,437.9099121z"/></svg>