<?xml version="1.0" ?><!-- Uploaded to: SVG Repo, www.svgrepo.com, Generator: SVG Repo Mixer Tools -->
<svg fill="#000000" width="800px" height="800px" viewBox="0 0 32 32" id="template" xmlns="http://www.w3.org/2000/svg"><title/><path d="M21.266,8.589H10.734a.355.355,0,1,0,0,.709H21.266a.355.355,0,1,0,0-.709Z"/><path d="M21.266,11H10.734a.355.355,0,1,0,0,.709H21.266a.355.355,0,1,0,0-.709Z"/><path d="M21.266,13.416H10.734a.355.355,0,1,0,0,.709H21.266a.355.355,0,1,0,0-.709Z"/><path d="M21.266,15.829H10.734a.355.355,0,1,0,0,.709H21.266a.355.355,0,1,0,0-.709Z"/><path d="M21.266,18.241H10.734a.355.355,0,1,0,0,.709H21.266a.355.355,0,1,0,0-.709Z"/><path d="M21.266,20.654H10.734a.355.355,0,1,0,0,.709H21.266a.355.355,0,1,0,0-.709Z"/><path d="M21.266,23.067H10.734a.355.355,0,1,0,0,.709H21.266a.355.355,0,1,0,0-.709Z"/><path d="M30,25.812H28.158V11.34a2.922,2.922,0,0,0-2.919-2.918H23.247V8.4a2.922,2.922,0,0,0-2.918-2.918H11.671A2.922,2.922,0,0,0,8.753,8.4v.025H6.761A2.922,2.922,0,0,0,3.842,11.34V25.812H2a.355.355,0,0,0,0,.709H30a.355.355,0,0,0,0-.709Zm-21.247,0h-4.2V11.34a2.212,2.212,0,0,1,2.21-2.209H8.753ZM22.538,8.776V25.812H9.462V8.4a2.212,2.212,0,0,1,2.209-2.209h8.658A2.212,2.212,0,0,1,22.538,8.4Zm4.911,17.036h-4.2V9.131h1.992a2.212,2.212,0,0,1,2.21,2.209Z"/></svg>