<?xml version="1.0" encoding="iso-8859-1"?>
<!-- Uploaded to: SVG Repo, www.svgrepo.com, Generator: SVG Repo Mixer Tools -->
<svg fill="#000000" height="800px" width="800px" version="1.1" id="Layer_1" xmlns="http://www.w3.org/2000/svg" xmlns:xlink="http://www.w3.org/1999/xlink" 
	 viewBox="0 0 503.749 503.749" xml:space="preserve">
<g>
	<g>
		<g>
			<path d="M403.028,285.398V153c0-10.318-8.366-18.684-18.684-18.684H119.548c-10.318,0-18.684,8.366-18.684,18.684v132.398v16.787
				v33.574h0.003v14.89c0,10.317,8.357,18.684,18.675,18.684h264.805c10.318,0,18.684-8.366,18.684-18.684v-31.677h-0.003v-16.787
				V285.398z M117.651,153c0-1.047,0.85-1.897,1.897-1.897h264.796c1.047,0,1.897,0.85,1.897,1.897v132.398h-268.59V153z
				 M386.244,350.649c0,1.047-0.85,1.897-1.897,1.897H119.543c-1.043,0-1.888-0.846-1.888-1.897v-14.89h268.59V350.649z
				 M386.241,318.972h-268.59v-16.787h268.59V318.972z"/>
			<path d="M503.749,251.821c0-138.847-112.957-251.803-251.803-251.803c-59.024,0-114.931,20.516-159.475,57.081V8.415
				c0-4.636-3.758-8.393-8.393-8.393s-8.393,3.758-8.393,8.393v75.541h6.82c1.041,0.198,2.112,0.199,3.155,0h65.566
				c4.636,0,8.393-3.758,8.393-8.393c0-4.636-3.758-8.393-8.393-8.393H106.72c40.971-32.314,91.717-50.364,145.226-50.364
				c129.576,0,235.016,105.441,235.016,235.016c0,0.001,0,0.001,0,0.002s0,0.001,0,0.002v8.393c0,4.636,3.758,8.393,8.393,8.393
				s8.393-3.758,8.393-8.393v-8.393c0-0.001,0-0.001,0-0.002S503.749,251.822,503.749,251.821z"/>
			<path d="M65.499,394.738l-5.114-6.655c-2.824-3.676-8.094-4.366-11.77-1.541s-4.366,8.094-1.541,11.77l5.114,6.655
				c2.824,3.676,8.094,4.366,11.77,1.541C67.634,403.684,68.324,398.414,65.499,394.738z"/>
			<path d="M51.605,374.574l-4.397-7.149c-2.429-3.948-7.598-5.181-11.547-2.752c-3.948,2.429-5.181,7.598-2.752,11.547l4.397,7.149
				c2.429,3.948,7.598,5.181,11.547,2.752S54.033,378.522,51.605,374.574z"/>
			<path d="M118.017,444.845l-6.889-4.795c-3.805-2.648-9.036-1.711-11.684,2.094c-2.648,3.805-1.711,9.036,2.094,11.684
				l6.889,4.795c3.805,2.648,9.036,1.711,11.684-2.094C122.759,452.724,121.822,447.493,118.017,444.845z"/>
			<path d="M35.919,364.233c4.18-2.003,5.945-7.016,3.942-11.197l-3.628-7.569c-2.003-4.18-7.016-5.945-11.197-3.942
				s-5.945,7.016-3.942,11.197l3.627,7.569C26.726,364.472,31.739,366.236,35.919,364.233z"/>
			<path d="M11.755,292.302c4.595-0.609,7.827-4.828,7.218-9.424l-1.103-8.321c-0.452-3.412-2.897-6.069-6.006-6.963
				c3.141-1.296,5.31-4.429,5.193-8.026l-0.273-8.389c-0.151-4.633-4.029-8.267-8.662-8.116s-8.267,4.029-8.116,8.662l0.273,8.389
				c0.121,3.734,2.666,6.816,6.074,7.794c-3.436,1.415-5.635,4.998-5.124,8.855l1.103,8.321
				C2.94,289.68,7.159,292.911,11.755,292.302z"/>
			<path d="M99.414,441.566c3.03-3.509,2.641-8.809-0.867-11.838l-6.353-5.486c-2.78-2.4-6.68-2.647-9.689-0.905
				c1.846-3.141,1.49-7.242-1.141-10.019l-5.772-6.094c-3.188-3.365-8.5-3.509-11.866-0.321c-3.365,3.188-3.509,8.5-0.321,11.866
				l5.772,6.094c2.729,2.881,7.011,3.393,10.299,1.484c-2.018,3.427-1.371,7.91,1.746,10.602l6.353,5.486
				C91.084,445.463,96.385,445.074,99.414,441.566z"/>
			<path d="M25.334,341.094c4.367-1.554,6.649-6.354,5.095-10.721l-2.813-7.908c-1.554-4.367-6.354-6.649-10.721-5.095
				c-4.367,1.554-6.649,6.353-5.095,10.721l2.813,7.908C16.166,340.366,20.966,342.647,25.334,341.094z"/>
			<path d="M17.216,316.895c4.507-1.084,7.282-5.616,6.198-10.123l-1.962-8.161c-1.084-4.507-5.616-7.282-10.123-6.199
				c-4.507,1.084-7.282,5.616-6.199,10.123l1.962,8.161C8.177,315.204,12.709,317.979,17.216,316.895z"/>
			<path d="M391.759,440.614l-6.739,5.004c-3.722,2.764-4.498,8.021-1.735,11.743c2.764,3.722,8.021,4.498,11.743,1.734l6.739-5.004
				c3.722-2.764,4.498-8.021,1.734-11.743C400.738,438.627,395.481,437.85,391.759,440.614z"/>
			<path d="M467.467,365.195c-4.022-2.305-9.151-0.913-11.456,3.109l-4.174,7.282c-2.305,4.022-0.913,9.151,3.109,11.456
				c4.022,2.305,9.151,0.913,11.456-3.109l4.174-7.282C472.881,372.629,471.489,367.5,467.467,365.195z"/>
			<path d="M454.435,387.026c-3.76-2.711-9.006-1.859-11.717,1.901l-4.908,6.809c-2.711,3.76-1.859,9.006,1.901,11.717
				s9.006,1.859,11.717-1.901l4.908-6.809C459.047,394.983,458.196,389.737,454.435,387.026z"/>
			<path d="M439.373,407.186c-3.463-3.081-8.768-2.772-11.85,0.691l-5.58,6.27c-2.633,2.96-2.782,7.261-0.611,10.373
				c-3.169-2.39-7.685-2.263-10.716,0.516l-6.187,5.672c-3.417,3.133-3.647,8.442-0.514,11.859
				c3.133,3.417,8.442,3.647,11.859,0.514l6.187-5.672c3.139-2.878,3.58-7.589,1.204-10.986c3.455,2.61,8.39,2.174,11.319-1.117
				l5.58-6.27C443.145,415.573,442.836,410.268,439.373,407.186z"/>
			<path d="M491.898,293.703c-4.537-0.953-8.987,1.952-9.939,6.489l-1.725,8.214c-0.953,4.537,1.952,8.987,6.489,9.939
				c4.537,0.953,8.987-1.952,9.94-6.489l1.725-8.214C499.34,299.106,496.435,294.656,491.898,293.703z"/>
			<path d="M138.852,457.793l-7.35-4.053c-4.059-2.238-9.165-0.762-11.403,3.297c-2.238,4.059-0.762,9.165,3.297,11.403l7.35,4.053
				c4.059,2.238,9.165,0.762,11.403-3.297C144.388,465.137,142.912,460.031,138.852,457.793z"/>
			<path d="M371.375,454.17l-7.221,4.279c-3.988,2.363-5.305,7.512-2.942,11.5c2.363,3.988,7.512,5.305,11.5,2.942l7.221-4.279
				c3.988-2.363,5.305-7.512,2.942-11.5C380.512,453.124,375.363,451.807,371.375,454.17z"/>
			<path d="M486.234,318.465c-4.411-1.424-9.142,0.997-10.566,5.409l-2.579,7.987c-1.251,3.874,0.466,7.993,3.89,9.904
				c-3.95-1.099-8.211,0.827-9.917,4.688l-3.391,7.678c-1.873,4.24,0.046,9.196,4.287,11.069c4.24,1.873,9.196-0.046,11.069-4.287
				l3.391-7.678c1.768-4.002,0.155-8.638-3.596-10.721c4.317,1.207,8.852-1.192,10.242-5.496l2.579-7.987
				C493.067,324.62,490.646,319.889,486.234,318.465z"/>
			<path d="M494.927,268.625c-4.611-0.476-8.735,2.877-9.21,7.488l-0.861,8.349c-0.476,4.611,2.877,8.735,7.488,9.21
				c4.611,0.475,8.735-2.877,9.21-7.488l0.861-8.349C502.891,273.224,499.538,269.101,494.927,268.625z"/>
			<path d="M349.647,465.557l-7.628,3.502c-4.213,1.934-6.06,6.917-4.127,11.13c1.934,4.213,6.917,6.06,11.13,4.127l7.628-3.502
				c4.213-1.934,6.06-6.917,4.127-11.13C358.843,465.471,353.86,463.623,349.647,465.557z"/>
			<path d="M183.599,476.708l-8.029-2.445c-3.92-1.194-8.035,0.624-9.871,4.125c1.08-3.99-0.918-8.262-4.832-9.914l-7.733-3.264
				c-4.271-1.803-9.194,0.198-10.997,4.469s0.198,9.194,4.469,10.997l7.733,3.264c4.055,1.711,8.692-0.01,10.694-3.842
				c-1.184,4.359,1.295,8.899,5.647,10.224l8.029,2.445c4.434,1.351,9.124-1.149,10.475-5.584
				C190.533,482.748,188.033,478.058,183.599,476.708z"/>
			<path d="M231.502,485.96l-8.362-0.724c-4.618-0.4-8.686,3.02-9.086,7.638c-0.4,4.618,3.02,8.686,7.638,9.086l8.362,0.724
				c4.618,0.4,8.686-3.02,9.086-7.638C239.54,490.428,236.12,486.36,231.502,485.96z"/>
			<path d="M207.366,482.6l-8.242-1.589c-4.552-0.878-8.953,2.101-9.831,6.653c-0.878,4.552,2.101,8.953,6.653,9.831l8.242,1.589
				c4.552,0.878,8.953-2.101,9.831-6.653C214.896,487.879,211.918,483.478,207.366,482.6z"/>
			<path d="M326.797,474.622l-7.954,2.68c-4.393,1.48-6.754,6.241-5.274,10.634c1.48,4.393,6.241,6.754,10.634,5.274l7.954-2.68
				c4.393-1.48,6.754-6.241,5.274-10.634C335.951,475.504,331.19,473.142,326.797,474.622z"/>
			<path d="M303.101,481.234l-8.192,1.826c-3.72,0.829-6.303,4.009-6.546,7.627c-1.304-3.568-4.916-5.915-8.853-5.453l-8.336,0.978
				c-3.636,0.427-6.446,3.12-7.205,6.501c-1.076-3.469-4.333-5.966-8.148-5.904l-8.392,0.136c-4.635,0.075-8.331,3.894-8.256,8.529
				s3.894,8.331,8.529,8.256l8.392-0.136c3.957-0.064,7.221-2.86,8.047-6.56c1.172,3.791,4.907,6.33,8.99,5.851l8.336-0.978
				c4.084-0.479,7.131-3.816,7.392-7.777c1.42,3.901,5.541,6.242,9.702,5.315l8.193-1.826c4.525-1.008,7.375-5.494,6.367-10.018
				C312.111,483.076,307.625,480.226,303.101,481.234z"/>
			<path d="M251.946,167.89c-14.916,0-28.31,6.486-37.53,16.787h-79.978v67.148h79.978c9.221,10.3,22.614,16.787,37.53,16.787
				c14.916,0,28.31-6.486,37.53-16.787h79.974v-67.148h-79.974C280.256,174.376,266.862,167.89,251.946,167.89z M151.225,235.038
				v-33.574h53.236c-1.158,3.276-1.981,6.707-2.44,10.255c-0.009,0.065-0.016,0.13-0.025,0.195
				c-0.074,0.593-0.143,1.187-0.196,1.786c-0.03,0.329-0.051,0.661-0.075,0.991c-0.028,0.404-0.061,0.806-0.08,1.212
				c-0.037,0.78-0.059,1.563-0.059,2.349s0.022,1.569,0.059,2.349c0.019,0.406,0.052,0.808,0.08,1.212
				c0.024,0.331,0.045,0.662,0.075,0.991c0.054,0.599,0.122,1.193,0.196,1.785c0.008,0.065,0.016,0.13,0.025,0.195
				c0.46,3.547,1.283,6.979,2.44,10.255H151.225z M227.156,240.894l-1.898-2.517c-3.86-5.118-6.196-11.008-6.753-17.224
				c-0.017-0.198-0.032-0.397-0.045-0.597c-0.018-0.261-0.037-0.521-0.049-0.783c-0.023-0.505-0.039-1.012-0.039-1.523
				s0.016-1.017,0.039-1.523c0.012-0.262,0.031-0.522,0.049-0.783c0.013-0.199,0.028-0.398,0.045-0.596
				c0.557-6.216,2.893-12.107,6.753-17.225l1.898-2.517c6.138-6.717,14.97-10.93,24.789-10.93c9.802,0,18.618,4.199,24.755,10.894
				l1.933,2.558c3.887,5.146,6.229,11.081,6.763,17.352c0.005,0.056,0.008,0.112,0.013,0.169c0.031,0.394,0.057,0.79,0.074,1.187
				c0.007,0.159,0.008,0.319,0.012,0.478c0.009,0.312,0.019,0.623,0.019,0.936s-0.011,0.624-0.019,0.936
				c-0.004,0.159-0.005,0.32-0.012,0.478c-0.017,0.397-0.043,0.792-0.074,1.187c-0.004,0.056-0.008,0.113-0.013,0.169
				c-0.534,6.271-2.877,12.206-6.763,17.352l-1.932,2.558c-6.137,6.695-14.953,10.894-24.755,10.894
				C242.126,251.824,233.295,247.611,227.156,240.894z M352.663,201.464v33.574h-53.232c1.384-3.916,2.295-8.054,2.67-12.347
				c0.015-0.166,0.025-0.333,0.038-0.499c0.044-0.562,0.086-1.125,0.111-1.692c0.015-0.337,0.017-0.676,0.026-1.014
				c0.01-0.412,0.031-0.82,0.031-1.234c0-0.414-0.021-0.823-0.031-1.235c-0.008-0.338-0.01-0.677-0.026-1.014
				c-0.025-0.568-0.068-1.13-0.111-1.693c-0.013-0.166-0.023-0.333-0.038-0.499c-0.375-4.293-1.286-8.431-2.67-12.347H352.663z"/>
		</g>
	</g>
</g>
</svg>