<svg width="18" height="18" viewBox="0 0 18 18" fill="none" xmlns="http://www.w3.org/2000/svg">
                                            <path d="M11.88 9C11.88 9.56961 11.7111 10.1264 11.3946 10.6C11.0782 11.0737 10.6284 11.4428 10.1021 11.6608C9.57588 11.8788 8.99681 11.9358 8.43814 11.8247C7.87948 11.7135 7.36631 11.4392 6.96353 11.0365C6.56076 10.6337 6.28646 10.1205 6.17534 9.56186C6.06421 9.00319 6.12125 8.42412 6.33923 7.89787C6.55721 7.37162 6.92634 6.92183 7.39996 6.60537C7.87357 6.28891 8.43039 6.12 9 6.12C9.76356 6.12087 10.4956 6.42458 11.0355 6.9645C11.5754 7.50441 11.8791 8.23644 11.88 9ZM18 5.04V12.96C17.9985 14.2962 17.467 15.5773 16.5221 16.5221C15.5773 17.467 14.2962 17.9985 12.96 18H5.04C3.70377 17.9985 2.42271 17.467 1.47785 16.5221C0.532998 15.5773 0.00151333 14.2962 0 12.96V5.04C0.00151333 3.70377 0.532998 2.42271 1.47785 1.47785C2.42271 0.532998 3.70377 0.00151333 5.04 0H12.96C14.2962 0.00151333 15.5773 0.532998 16.5221 1.47785C17.467 2.42271 17.9985 3.70377 18 5.04ZM13.32 9C13.32 8.14559 13.0666 7.31036 12.5919 6.59994C12.1173 5.88952 11.4426 5.33581 10.6532 5.00884C9.86382 4.68187 8.99521 4.59632 8.15721 4.76301C7.31921 4.9297 6.54946 5.34114 5.9453 5.9453C5.34114 6.54946 4.9297 7.31921 4.76301 8.15721C4.59632 8.99521 4.68187 9.86382 5.00884 10.6532C5.33581 11.4426 5.88952 12.1173 6.59994 12.5919C7.31036 13.0666 8.14559 13.32 9 13.32C10.1453 13.3187 11.2434 12.8631 12.0533 12.0533C12.8631 11.2434 13.3187 10.1453 13.32 9ZM14.76 4.32C14.76 4.1064 14.6967 3.89759 14.578 3.71998C14.4593 3.54238 14.2906 3.40395 14.0933 3.32221C13.896 3.24047 13.6788 3.21908 13.4693 3.26075C13.2598 3.30242 13.0674 3.40528 12.9163 3.55632C12.7653 3.70737 12.6624 3.8998 12.6208 4.1093C12.5791 4.3188 12.6005 4.53595 12.6822 4.7333C12.764 4.93064 12.9024 5.09932 13.08 5.21799C13.2576 5.33666 13.4664 5.4 13.68 5.4C13.9664 5.4 14.2411 5.28621 14.4437 5.08368C14.6462 4.88114 14.76 4.60643 14.76 4.32Z"></path>
                                        </svg>