<svg xmlns="http://www.w3.org/2000/svg" width="23" height="23" viewBox="0 0 23 23">
                                                <path d="M9.33914 13.9644C9.34058 13.9645 9.34192 13.9649 9.34332 13.965C9.34619 13.9651 9.34907 13.9662 9.35194 13.9662L9.35225 13.9661L9.35257 13.9662C9.35441 13.9662 9.35621 13.9654 9.35805 13.9654C9.3656 13.9655 9.37287 13.9666 9.38042 13.9666H9.3806C11.6686 13.9666 13.53 12.1052 13.53 9.81708C13.53 7.52898 11.6686 5.6676 9.3806 5.6676C9.37629 5.6676 9.37211 5.66823 9.3678 5.66827C9.36263 5.668 9.35742 5.66877 9.35221 5.66877C9.34225 5.6688 9.3323 5.66931 9.32238 5.6703C9.31668 5.67083 9.31093 5.67057 9.30522 5.67142C7.05221 5.71221 5.23112 7.55441 5.23112 9.81708C5.23112 12.0912 7.07036 13.9418 9.33914 13.9644ZM6.15292 11.2357H7.09569C7.31469 11.9507 7.69706 12.6037 8.21969 13.1447C7.29533 12.8211 6.54558 12.1255 6.15292 11.2357ZM12.9084 9.81703C12.9084 10.0915 12.8737 10.3575 12.8142 10.6141H11.7527C11.7963 10.3513 11.821 10.0828 11.821 9.80935C11.821 9.54153 11.7968 9.27829 11.7543 9.02021H12.8142C12.8738 9.27676 12.9084 9.5427 12.9084 9.81703ZM11.1994 9.82476C11.1994 10.0933 11.1736 10.3572 11.1246 10.6141H9.69128V9.02025H11.1233C11.174 9.28542 11.1994 9.55479 11.1994 9.82476ZM7.75236 11.2357H9.0697V13.0789C8.46074 12.5924 8.00999 11.9556 7.75236 11.2357ZM9.69128 13.031V11.2357H10.9538C10.7046 11.9311 10.2725 12.5499 9.69128 13.031ZM9.69128 8.39863V6.60319C10.2713 7.08336 10.7028 7.70153 10.9522 8.39863H9.69128ZM9.0697 6.55526V8.39863H7.75066C8.00797 7.68041 8.45934 7.04266 9.0697 6.55526ZM9.0697 9.02021V10.6141H7.58117C7.53049 10.3488 7.50503 10.0794 7.50511 9.80935C7.50511 9.54094 7.53085 9.27707 7.57977 9.02021H9.0697ZM6.95028 10.6141H5.94691C5.88734 10.3575 5.85271 10.0915 5.85271 9.81703C5.85271 9.54265 5.8873 9.27671 5.94686 9.02021H6.95177C6.90828 9.28291 6.88357 9.55132 6.88357 9.82472C6.88357 10.0926 6.90779 10.356 6.95028 10.6141ZM10.4502 13.1781C10.987 12.6335 11.3839 11.967 11.6071 11.2357H12.6081C12.2025 12.1549 11.4169 12.8697 10.4502 13.1781ZM12.6082 8.39863H11.6089C11.3852 7.66716 10.9878 7.00071 10.4506 6.45616C11.4172 6.76464 12.2027 7.47939 12.6082 8.39863ZM8.22 6.48936C7.6985 7.02945 7.31662 7.68199 7.09731 8.39863H6.15283C6.54549 7.50863 7.29542 6.81288 8.22 6.48936ZM20.322 4.08038C20.109 3.66759 19.7494 3.36306 19.3095 3.22264L9.47548 0.0826881C9.03578 -0.058142 8.56612 -0.0180717 8.15338 0.195172C7.74068 0.408057 7.43607 0.767612 7.29564 1.20749L6.64297 3.25139H4.21899C3.26251 3.25139 2.48438 4.02961 2.48438 4.98609V21.2655C2.48438 22.222 3.26251 23 4.21899 23H14.5421C15.4986 23 16.2767 22.222 16.2767 21.2655V18.4241L20.4343 5.40252C20.5748 4.96282 20.5349 4.49316 20.322 4.08038ZM15.6551 21.2655C15.6551 21.8792 15.1558 22.3784 14.5421 22.3784H4.21899C3.60527 22.3784 3.106 21.8792 3.106 21.2655V4.98609C3.106 4.37237 3.60531 3.87302 4.21899 3.87302H14.5421C15.1558 3.87302 15.6551 4.37241 15.6551 4.98609V21.2655ZM19.8423 5.21353L16.2767 16.3807V4.98609C16.2767 4.02961 15.4986 3.25139 14.5421 3.25139H7.29533L7.88767 1.39652C7.9776 1.11486 8.17319 0.884364 8.43836 0.747397C8.70345 0.61061 9.00452 0.584915 9.28649 0.674758L19.1205 3.81475C19.4022 3.90478 19.6328 4.10028 19.7695 4.36554C19.9063 4.63058 19.9322 4.93187 19.8423 5.21353ZM13.5729 16.3694C13.5729 16.4518 13.5402 16.5309 13.4819 16.5891C13.4236 16.6474 13.3446 16.6802 13.2621 16.6802H5.49881C5.41729 16.6788 5.33958 16.6455 5.28243 16.5873C5.22527 16.5292 5.19324 16.4509 5.19324 16.3694C5.19324 16.2879 5.22527 16.2096 5.28243 16.1514C5.33958 16.0933 5.41729 16.06 5.49881 16.0586H13.2622C13.303 16.0586 13.3434 16.0666 13.3811 16.0822C13.4188 16.0978 13.4531 16.1207 13.4819 16.1496C13.5108 16.1785 13.5337 16.2127 13.5493 16.2504C13.5649 16.2882 13.5729 16.3286 13.5729 16.3694ZM13.5729 18.5634C13.5729 18.6458 13.5402 18.7248 13.4819 18.7831C13.4236 18.8414 13.3446 18.8742 13.2621 18.8742H5.49881C5.41729 18.8728 5.33958 18.8394 5.28243 18.7813C5.22527 18.7232 5.19324 18.6449 5.19324 18.5634C5.19324 18.4818 5.22527 18.4036 5.28243 18.3454C5.33958 18.2873 5.41729 18.2539 5.49881 18.2526H13.2622C13.3446 18.2526 13.4236 18.2853 13.4819 18.3436C13.5402 18.4019 13.5729 18.4809 13.5729 18.5634ZM11.8121 20.7574C11.8121 20.8398 11.7794 20.9189 11.7211 20.9772C11.6628 21.0354 11.5837 21.0682 11.5013 21.0682H7.25966C7.17814 21.0668 7.10043 21.0335 7.04327 20.9753C6.98611 20.9172 6.95408 20.8389 6.95408 20.7574C6.95408 20.6759 6.98611 20.5976 7.04327 20.5395C7.10043 20.4813 7.17814 20.448 7.25966 20.4466H11.5013C11.5838 20.4466 11.6628 20.4793 11.7211 20.5376C11.7794 20.5959 11.8121 20.675 11.8121 20.7574Z"></path>
                                            </svg>