<svg width="16" height="16" viewBox="0 0 16 16" fill="none" xmlns="http://www.w3.org/2000/svg">
                                                        <path d="M8.27763 5.86084V5.54165C8.27763 5.48374 8.30063 5.42819 8.34159 5.38724C8.38254 5.34628 8.43808 5.32328 8.496 5.32328C8.55392 5.32328 8.60946 5.34628 8.65041 5.38724C8.69137 5.42819 8.71437 5.48374 8.71437 5.54165V5.86084C8.71437 5.91876 8.69137 5.9743 8.65041 6.01525C8.60946 6.05621 8.55392 6.07922 8.496 6.07922C8.43808 6.07922 8.38254 6.05621 8.34159 6.01525C8.30063 5.9743 8.27763 5.91876 8.27763 5.86084ZM8.49597 11.68C8.43805 11.68 8.38251 11.703 8.34155 11.744C8.3006 11.7849 8.27759 11.8405 8.27759 11.8984V12.2176C8.27759 12.2755 8.3006 12.331 8.34155 12.372C8.38251 12.4129 8.43805 12.4359 8.49597 12.4359C8.55389 12.4359 8.60943 12.4129 8.65038 12.372C8.69134 12.331 8.71434 12.2755 8.71434 12.2176V11.8984C8.71434 11.8405 8.69134 11.7849 8.65038 11.744C8.60943 11.703 8.55389 11.68 8.49597 11.68ZM10.6302 6.96334C10.6588 6.96337 10.6872 6.95777 10.7136 6.94685C10.7401 6.93593 10.7641 6.9199 10.7843 6.89968L11.0107 6.67425C11.0508 6.63318 11.0731 6.57797 11.0729 6.52056C11.0726 6.46315 11.0497 6.40816 11.0092 6.36749C10.9687 6.32682 10.9138 6.30374 10.8564 6.30323C10.799 6.30273 10.7437 6.32485 10.7024 6.36481L10.4761 6.59025C10.4455 6.62076 10.4246 6.65967 10.4161 6.70205C10.4076 6.74443 10.4119 6.78837 10.4284 6.82832C10.4449 6.86827 10.4729 6.90242 10.5088 6.92646C10.5448 6.95049 10.587 6.96333 10.6302 6.96334ZM6.20616 10.8602L5.98072 11.0865C5.95991 11.1067 5.94334 11.1309 5.93195 11.1575C5.92057 11.1842 5.91461 11.2128 5.91442 11.2418C5.91424 11.2708 5.91982 11.2996 5.93086 11.3264C5.94189 11.3532 5.95815 11.3775 5.97869 11.398C5.99924 11.4185 6.02365 11.4346 6.0505 11.4456C6.07735 11.4565 6.10612 11.462 6.13511 11.4617C6.1641 11.4613 6.19274 11.4553 6.21936 11.4438C6.24598 11.4323 6.27005 11.4156 6.29016 11.3947L6.51559 11.1684C6.5364 11.1482 6.55298 11.1241 6.56436 11.0974C6.57574 11.0707 6.5817 11.0421 6.58189 11.0131C6.58208 10.9841 6.57649 10.9554 6.56546 10.9285C6.55442 10.9017 6.53816 10.8774 6.51762 10.8569C6.49708 10.8365 6.47267 10.8203 6.44581 10.8094C6.41896 10.7984 6.3902 10.793 6.36121 10.7933C6.33221 10.7936 6.30357 10.7997 6.27695 10.8111C6.25033 10.8226 6.22627 10.8393 6.20616 10.8602ZM5.47675 8.66168H5.15759C5.09968 8.66168 5.04413 8.68469 5.00318 8.72564C4.96223 8.7666 4.93922 8.82214 4.93922 8.88006C4.93922 8.93798 4.96223 8.99352 5.00318 9.03447C5.04413 9.07543 5.09968 9.09843 5.15759 9.09843H5.47675C5.53467 9.09843 5.59021 9.07543 5.63116 9.03447C5.67212 8.99352 5.69513 8.93798 5.69513 8.88006C5.69513 8.82214 5.67212 8.7666 5.63116 8.72564C5.59021 8.68469 5.53467 8.66168 5.47675 8.66168ZM6.20647 6.89937C6.24913 6.94203 6.305 6.96334 6.36088 6.96334C6.41675 6.96334 6.47266 6.94203 6.51528 6.89937C6.55623 6.85841 6.57924 6.80287 6.57924 6.74495C6.57924 6.68703 6.55623 6.63149 6.51528 6.59053L6.28984 6.36509C6.24865 6.32529 6.19348 6.30326 6.1362 6.30375C6.07892 6.30424 6.02413 6.32721 5.98363 6.36772C5.94313 6.40822 5.92016 6.46302 5.91967 6.52029C5.91919 6.57757 5.94122 6.63275 5.98103 6.67393L6.20647 6.89937ZM9.34363 7.05165L8.90272 8.34162C9.06531 8.46506 9.17059 8.66047 9.17059 8.88006C9.17059 9.25203 8.86797 9.55465 8.49603 9.55465C8.12359 9.55465 7.82056 9.25203 7.82056 8.88006C7.82056 8.51034 8.11922 8.20918 8.48794 8.20484L8.93038 6.9104C8.94995 6.8567 8.9898 6.81281 9.04137 6.78816C9.09294 6.76351 9.15212 6.76005 9.20621 6.77854C9.2603 6.79703 9.30498 6.83598 9.33067 6.88704C9.35637 6.9381 9.36101 6.9972 9.34363 7.05165ZM8.73381 8.88006C8.73381 8.74843 8.62712 8.6414 8.49597 8.6414C8.36434 8.6414 8.25725 8.74847 8.25725 8.88006C8.25725 9.01122 8.36434 9.11787 8.49597 9.11787C8.62712 9.11787 8.73381 9.01122 8.73381 8.88006ZM15.9844 10.8764C15.9844 11.0693 15.9685 11.2627 15.9373 11.4514C15.9288 11.5024 15.9025 11.5488 15.863 11.5823C15.8236 11.6157 15.7735 11.6341 15.7218 11.6341H15.2098C15.1489 11.8534 15.0613 12.0644 14.9491 12.2624L15.3112 12.6246C15.3478 12.6611 15.3702 12.7095 15.3745 12.761C15.3787 12.8125 15.3646 12.8639 15.3345 12.906C15.1102 13.22 14.8357 13.4948 14.522 13.7195C14.4799 13.7496 14.4285 13.7639 14.3769 13.7596C14.3253 13.7554 14.2769 13.733 14.2403 13.6964L13.8779 13.334C13.6797 13.4463 13.4684 13.534 13.2489 13.5949V14.1069C13.2489 14.1586 13.2306 14.2086 13.1972 14.2481C13.1637 14.2875 13.1174 14.3138 13.0664 14.3223C12.8763 14.3538 12.6839 14.3696 12.4912 14.3695C12.2986 14.3695 12.1063 14.3537 11.9162 14.3223C11.8652 14.3139 11.8188 14.2876 11.7853 14.2481C11.7519 14.2087 11.7335 14.1586 11.7335 14.1069V13.5949C11.6274 13.5654 11.5231 13.5296 11.4212 13.4878C10.5467 14.0441 9.53797 14.3377 8.49591 14.3377C6.43781 14.3377 4.64241 13.1924 3.71284 11.5059H1.47175C1.41383 11.5059 1.35829 11.4829 1.31734 11.4419C1.27638 11.401 1.25338 11.3454 1.25338 11.2875C1.25338 11.2296 1.27638 11.174 1.31734 11.1331C1.35829 11.0921 1.41383 11.0691 1.47175 11.0691H3.49719C3.39962 10.8474 3.31704 10.6194 3.25 10.3866H1.13312C1.07521 10.3866 1.01966 10.3636 0.978711 10.3227C0.937757 10.2817 0.91475 10.2262 0.91475 10.1682C0.91475 10.1103 0.937757 10.0548 0.978711 10.0138C1.01966 9.97288 1.07521 9.94987 1.13312 9.94987H3.14394C3.09901 9.72453 3.06839 9.49658 3.05228 9.26737H0.234C0.176083 9.26737 0.120539 9.24436 0.0795856 9.20341C0.0386323 9.16246 0.015625 9.10691 0.015625 9.049C0.015625 8.99108 0.0386323 8.93553 0.0795856 8.89458C0.120539 8.85363 0.176083 8.83062 0.234 8.83062H3.03903C3.04109 8.59978 3.0575 8.37228 3.0875 8.14903H1.13312C1.07521 8.14903 1.01966 8.12602 0.978711 8.08507C0.937757 8.04411 0.91475 7.98857 0.91475 7.93065C0.91475 7.87274 0.937757 7.81719 0.978711 7.77624C1.01966 7.73528 1.07521 7.71228 1.13312 7.71228H3.16456C3.21517 7.48071 3.28095 7.25272 3.36147 7.02978H1.47175C1.41383 7.02978 1.35829 7.00677 1.31734 6.96582C1.27638 6.92486 1.25338 6.86932 1.25338 6.8114C1.25338 6.75349 1.27638 6.69794 1.31734 6.65699C1.35829 6.61603 1.41383 6.59303 1.47175 6.59303H3.54131C3.86466 5.89512 4.33106 5.27656 4.90284 4.77531L4.40384 4.08962L4.00422 4.38068C3.96695 4.40791 3.92199 4.42257 3.87584 4.42256C3.82973 4.42261 3.78478 4.40806 3.74744 4.381C3.7101 4.35394 3.68229 4.31574 3.668 4.2719C3.6537 4.22806 3.65366 4.18081 3.66787 4.13694C3.68208 4.09307 3.70981 4.05482 3.74709 4.02768L4.89909 3.18868C4.9459 3.15459 5.00434 3.14048 5.06155 3.14947C5.11876 3.15846 5.17006 3.18981 5.20416 3.23662C5.23825 3.28343 5.25236 3.34187 5.24337 3.39908C5.23438 3.45629 5.20303 3.50759 5.15622 3.54168L4.75691 3.83253L5.24281 4.50022C5.93944 3.98128 6.7635 3.6244 7.65875 3.48596V2.97865H7.077C7.01908 2.97865 6.96354 2.95565 6.92259 2.91469C6.88163 2.87374 6.85862 2.81819 6.85862 2.76028V1.84875C6.85862 1.79083 6.88163 1.73528 6.92259 1.69433C6.96354 1.65338 7.01908 1.63037 7.077 1.63037H9.91409C9.97201 1.63037 10.0276 1.65338 10.0685 1.69433C10.1095 1.73528 10.1325 1.79083 10.1325 1.84875V2.76028C10.1325 2.81819 10.1095 2.87374 10.0685 2.91469C10.0276 2.95565 9.97201 2.97865 9.91409 2.97865H9.33322V3.4859C11.773 3.8624 13.6954 5.85812 13.9296 8.36625L14.2395 8.05637C14.276 8.01982 14.3244 7.99742 14.3759 7.99316C14.4274 7.9889 14.4788 8.00306 14.5208 8.03312C14.8366 8.25884 15.1104 8.53231 15.3345 8.8459C15.3646 8.88797 15.3787 8.93934 15.3745 8.99087C15.3702 9.0424 15.3478 9.09075 15.3112 9.12731L14.9489 9.48965C15.0612 9.68789 15.1489 9.89914 15.2098 10.1187H15.7218C15.7735 10.1187 15.8235 10.137 15.863 10.1705C15.9024 10.2039 15.9287 10.2502 15.9372 10.3012C15.9687 10.4913 15.9845 10.6837 15.9844 10.8764ZM7.29537 2.54187H9.69575V2.06712H7.29537V2.54187ZM8.09547 3.43634C8.22775 3.42671 8.36128 3.42159 8.49597 3.42159C8.63062 3.42159 8.76416 3.42653 8.89647 3.43615V2.97865H8.09547V3.43634ZM8.49597 13.9009C9.10987 13.9009 9.71103 13.7899 10.2753 13.5759C10.0927 13.426 9.92572 13.2579 9.77703 13.0742C9.36325 13.2003 8.93309 13.2644 8.49597 13.2644C6.07797 13.2644 4.11081 11.2976 4.11081 8.88003C4.11081 6.46203 6.07797 4.49484 8.49597 4.49484C9.44244 4.49484 10.3437 4.79165 11.1024 5.35318C11.8035 5.87212 12.3255 6.57228 12.6197 7.38506C12.7683 7.39065 12.918 7.40565 13.0665 7.4304C13.1175 7.4389 13.1638 7.46521 13.1972 7.50466C13.2306 7.5441 13.2489 7.59412 13.2489 7.64581V8.15693C13.3255 8.17825 13.401 8.20282 13.4755 8.23059C13.1558 5.751 11.0354 3.85831 8.49597 3.85831C5.72747 3.85831 3.47513 6.11103 3.47513 8.88003C3.47513 11.6486 5.7275 13.9009 8.49597 13.9009ZM9.648 8.8459C9.87216 8.53228 10.1459 8.25881 10.4617 8.03312C10.5037 8.00304 10.5551 7.98887 10.6066 7.99313C10.6582 7.99739 10.7065 8.0198 10.7431 8.05637L11.1045 8.41784C11.3028 8.30552 11.514 8.21791 11.7336 8.15696V7.64584C11.7336 7.59412 11.7519 7.54408 11.7854 7.50463C11.8188 7.46518 11.8652 7.43887 11.9162 7.4304C11.9965 7.41709 12.077 7.40718 12.1573 7.39937C11.5578 5.91228 10.1208 4.93162 8.49597 4.93162C6.31881 4.93162 4.54753 6.70287 4.54753 8.88003C4.54753 11.0567 6.31878 12.8276 8.49597 12.8276C8.88787 12.8276 9.27338 12.7704 9.64416 12.658C9.65203 12.6462 9.66088 12.6349 9.67125 12.6245L10.0335 12.2623C9.92118 12.0644 9.83363 11.8534 9.77278 11.6341H9.26072C9.20899 11.634 9.15895 11.6157 9.1195 11.5822C9.08005 11.5488 9.05375 11.5024 9.04528 11.4514C9.01389 11.2613 8.99813 11.069 8.99816 10.8764C8.99816 10.6826 9.01403 10.489 9.04531 10.3012C9.05381 10.2502 9.08012 10.2038 9.11956 10.1704C9.15901 10.137 9.20902 10.1187 9.26072 10.1187H9.77272C9.83366 9.89912 9.92127 9.68788 10.0336 9.48965L9.67125 9.12728C9.6347 9.09072 9.6123 9.04238 9.60804 8.99085C9.60378 8.93933 9.61794 8.88797 9.648 8.8459ZM15.5476 10.8764C15.5476 10.7692 15.5421 10.6621 15.531 10.5555H15.0384C14.9883 10.5555 14.9397 10.5382 14.9008 10.5067C14.8619 10.4751 14.835 10.4311 14.8247 10.3821C14.7643 10.0949 14.6509 9.82146 14.4903 9.57584C14.463 9.53387 14.4509 9.48377 14.456 9.43393C14.4612 9.38409 14.4834 9.33756 14.5188 9.30212L14.8676 8.95334C14.7325 8.78672 14.5803 8.63477 14.4135 8.5L14.0655 8.848C14.0301 8.88341 13.9836 8.90557 13.9337 8.91075C13.8839 8.91594 13.8338 8.90383 13.7918 8.87647C13.5462 8.71588 13.2728 8.60249 12.9856 8.54212C12.9365 8.53179 12.8926 8.50492 12.861 8.46602C12.8294 8.42711 12.8122 8.37853 12.8122 8.32843V7.83637C12.5988 7.8135 12.3837 7.81353 12.1703 7.83646V8.32843C12.1703 8.37853 12.1531 8.42711 12.1215 8.46602C12.0899 8.50492 12.046 8.53179 11.9969 8.54212C11.7097 8.60248 11.4363 8.71587 11.1907 8.87647C11.1487 8.90384 11.0986 8.91596 11.0488 8.91077C10.9989 8.90559 10.9524 8.88342 10.917 8.848L10.569 8.5C10.4021 8.63476 10.2499 8.78671 10.1149 8.95334L10.4637 9.30212C10.4991 9.33755 10.5213 9.38409 10.5265 9.43393C10.5317 9.48376 10.5196 9.53387 10.4922 9.57584C10.3316 9.82146 10.2182 10.0949 10.1578 10.3821C10.1475 10.4311 10.1207 10.4751 10.0817 10.5066C10.0428 10.5382 9.99426 10.5555 9.94416 10.5555H9.4515C9.42934 10.7688 9.42936 10.9839 9.45156 11.1973H9.94416C9.99424 11.1973 10.0428 11.2145 10.0817 11.2461C10.1206 11.2776 10.1475 11.3216 10.1578 11.3706C10.218 11.6575 10.3314 11.9306 10.492 12.1758C10.5195 12.2178 10.5317 12.2679 10.5265 12.3178C10.5213 12.3677 10.4992 12.4143 10.4637 12.4498L10.1149 12.7986C10.2499 12.9655 10.4021 13.1177 10.5689 13.2527L10.9168 12.9041C10.9523 12.8686 10.9988 12.8464 11.0487 12.8412C11.0986 12.8359 11.1487 12.8481 11.1907 12.8755C11.2839 12.9363 11.3813 12.9905 11.4822 13.0377C11.485 13.0389 11.4878 13.0402 11.4907 13.0415C11.6525 13.1166 11.8224 13.1731 11.9969 13.2098C12.046 13.2202 12.0899 13.247 12.1215 13.2859C12.1531 13.3249 12.1703 13.3734 12.1703 13.4235V13.9161C12.3837 13.9383 12.5988 13.9383 12.8122 13.9162V13.4235C12.8122 13.3734 12.8294 13.3249 12.861 13.2859C12.8926 13.247 12.9365 13.2202 12.9856 13.2098C13.2728 13.1495 13.5462 13.0361 13.7918 12.8755C13.8338 12.8481 13.8839 12.836 13.9337 12.8411C13.9836 12.8463 14.0301 12.8685 14.0655 12.904L14.4142 13.2526C14.5807 13.1175 14.7327 12.9654 14.8676 12.7987L14.5188 12.4498C14.4833 12.4144 14.4612 12.3678 14.456 12.3179C14.4508 12.268 14.463 12.2178 14.4905 12.1758C14.6511 11.9306 14.7644 11.6575 14.8247 11.3706C14.835 11.3216 14.8619 11.2777 14.9008 11.2461C14.9397 11.2146 14.9883 11.1973 15.0383 11.1973H15.5309C15.542 11.091 15.5476 10.9836 15.5476 10.8764ZM14.286 10.8764C14.286 11.866 13.4809 12.6712 12.4913 12.6712C11.5017 12.6712 10.6965 11.866 10.6965 10.8764C10.6965 9.88678 11.5017 9.08165 12.4913 9.08165C13.4809 9.08165 14.286 9.88678 14.286 10.8764ZM13.8492 10.8764C13.8492 10.1276 13.2401 9.5184 12.4913 9.5184C11.7424 9.5184 11.1333 10.1276 11.1333 10.8764C11.1333 11.6252 11.7424 12.2344 12.4913 12.2344C13.2401 12.2344 13.8492 11.6252 13.8492 10.8764Z" fill="#111111" fill-opacity="0.5"></path>
                                                    </svg>