<svg width="28" height="28" viewBox="0 0 28 28" fill="none" xmlns="http://www.w3.org/2000/svg">
                                        <path d="M16.1878 0.218357C16.2286 0.229178 16.2694 0.239999 16.3114 0.251148C17.8629 0.676726 19.1712 1.48072 20.344 2.56992C20.3968 2.61729 20.3968 2.61729 20.4506 2.66562C21.9203 4.04598 22.945 6.28256 23.0325 8.29603C23.0533 10.2568 23.0533 10.2568 22.8596 11.0465C22.8433 11.1146 22.8433 11.1146 22.8267 11.1841C22.5144 12.4543 21.9383 13.5708 21.2073 14.6475C21.0282 14.9124 20.857 15.1822 20.6858 15.4522C20.6534 15.5033 20.621 15.5544 20.5876 15.607C20.5212 15.7117 20.4549 15.8164 20.3885 15.9212C20.2282 16.1741 20.0674 16.4267 19.9065 16.6793C19.8437 16.778 19.7809 16.8767 19.7181 16.9754C19.3981 17.4782 19.0781 17.9811 18.7581 18.484C18.8043 18.4899 18.8505 18.4958 18.8982 18.5019C19.3733 18.5658 19.8362 18.654 20.303 18.7643C20.338 18.7725 20.373 18.7808 20.4091 18.7893C22.2813 19.2327 24.8291 19.8973 25.9221 21.6559C26.3055 22.3425 26.4041 22.9819 26.2731 23.7588C25.9488 24.8665 24.9618 25.5696 24.0039 26.1101C22.2226 27.0719 20.1747 27.4908 18.1873 27.7706C18.1493 27.776 18.1114 27.7815 18.0723 27.7871C16.7688 27.971 15.4632 28.0204 14.1484 28.017C14.0291 28.0167 13.9099 28.0166 13.7906 28.0164C12.6138 28.0147 11.45 27.9851 10.2815 27.8355C10.1823 27.8237 10.1823 27.8237 10.0811 27.8116C7.77266 27.5329 5.08064 27.0213 3.17213 25.5934C3.09484 25.5361 3.09484 25.5361 3.01598 25.4778C2.38702 24.9894 1.86659 24.3673 1.69557 23.5699C1.61144 22.608 1.81942 21.9372 2.43727 21.1944C4.0498 19.4417 6.82414 18.8613 9.07838 18.484C9.13252 18.484 9.18667 18.484 9.24245 18.484C8.835 17.8377 8.4261 17.1924 8.01561 16.5481C7.88706 16.3463 7.75875 16.1444 7.63066 15.9423C7.5675 15.8427 7.50434 15.7432 7.44118 15.6436C7.4099 15.5943 7.37863 15.5449 7.34641 15.4941C7.18131 15.2343 7.01418 14.9762 6.84367 14.7199C5.39251 12.5367 4.56601 10.0748 5.06911 7.43027C5.10678 7.24896 5.1495 7.06957 5.19557 6.89023C5.20581 6.84874 5.21605 6.80726 5.2266 6.76451C5.374 6.17849 5.58886 5.62892 5.85182 5.08554C5.86867 5.05072 5.88552 5.01589 5.90288 4.98001C6.99322 2.76313 8.95545 1.17559 11.2678 0.371872C11.4477 0.313289 11.6294 0.264725 11.8128 0.218357C11.8735 0.20239 11.8735 0.20239 11.9355 0.1861C13.279 -0.152893 14.8501 -0.137354 16.1878 0.218357ZM12.2503 1.85898C12.1837 1.8775 12.1837 1.8775 12.1157 1.89639C10.1319 2.46779 8.52269 3.74913 7.51141 5.55355C7.1128 6.29023 6.88006 7.05406 6.72682 7.87461C6.71721 7.9255 6.70759 7.97639 6.69769 8.02883C6.56858 8.9074 6.59685 9.97234 6.8362 10.8277C6.85428 10.8933 6.85428 10.8933 6.87273 10.9603C7.14911 11.9306 7.5924 12.7859 8.16237 13.6142C8.3422 13.8763 8.51183 14.1447 8.6819 14.4132C8.71439 14.4644 8.74688 14.5156 8.78035 14.5684C8.84681 14.6732 8.91324 14.778 8.97964 14.8828C9.13757 15.1321 9.29595 15.381 9.45436 15.63C9.50128 15.7037 9.50128 15.7037 9.54916 15.779C9.79263 16.1615 10.037 16.5435 10.2815 16.9254C10.6523 17.5044 11.0218 18.0841 11.3907 18.6644C11.5495 18.9142 11.7085 19.1639 11.8674 19.4137C11.9312 19.5139 11.9951 19.6142 12.0589 19.7144C12.0904 19.7641 12.122 19.8137 12.1546 19.8648C12.2503 20.0152 12.346 20.1656 12.4417 20.316C12.4733 20.3657 12.5049 20.4154 12.5375 20.4666C12.6008 20.5661 12.6641 20.6656 12.7275 20.7651C12.8943 21.0274 13.0613 21.2897 13.2284 21.5518C13.2632 21.6064 13.298 21.661 13.3339 21.7173C13.4005 21.8218 13.4671 21.9264 13.5338 22.0309C13.5789 22.1017 13.5789 22.1017 13.6249 22.1739C13.6513 22.2152 13.6776 22.2565 13.7048 22.2991C13.7612 22.3891 13.8147 22.4809 13.8665 22.5737C13.8926 22.6137 13.9187 22.6537 13.9456 22.6949C13.9817 22.6949 14.0178 22.6949 14.0549 22.6949C14.1345 22.5917 14.1345 22.5917 14.2143 22.4559C14.2465 22.4037 14.2786 22.3515 14.3117 22.2978C14.364 22.2118 14.364 22.2118 14.4173 22.1241C14.492 22.0027 14.5669 21.8814 14.6418 21.7601C14.6707 21.7131 14.6707 21.7131 14.7002 21.6652C14.8996 21.3419 15.104 21.0219 15.3093 20.7022C15.3455 20.6459 15.3817 20.5895 15.4189 20.5314C15.4924 20.4168 15.566 20.3023 15.6395 20.1877C15.8248 19.8991 16.0097 19.6103 16.1946 19.3214C16.2309 19.2647 16.2672 19.208 16.3046 19.1496C16.6677 18.582 17.0294 18.0135 17.3909 17.4449C17.8278 16.7576 18.2656 16.0709 18.7049 15.3851C18.9798 14.9559 19.2539 14.5261 19.5265 14.0955C19.669 13.8708 19.8125 13.6471 19.9612 13.4265C20.8539 12.097 21.3511 10.6858 21.3489 9.07431C21.3489 9.0374 21.3488 9.00049 21.3488 8.96247C21.3417 7.0393 20.5737 5.36 19.3049 3.93711C19.253 3.87821 19.253 3.87821 19.2001 3.81812C18.0574 2.59977 16.282 1.77913 14.6245 1.68362C14.4209 1.67837 14.2177 1.6769 14.0139 1.67783C13.978 1.67797 13.942 1.6781 13.905 1.67824C13.3362 1.68156 12.7998 1.70588 12.2503 1.85898ZM3.62801 22.4431C3.42965 22.6814 3.34885 22.9114 3.36226 23.2187C3.47096 23.7217 3.92475 24.0631 4.33344 24.3296C6.16787 25.4823 8.41603 25.9041 10.5379 26.1539C10.5764 26.1585 10.615 26.163 10.6548 26.1677C11.4458 26.2596 12.234 26.3125 13.0306 26.3154C13.1021 26.3158 13.1737 26.3162 13.2474 26.3166C13.4767 26.3176 13.706 26.3179 13.9353 26.318C13.9744 26.318 14.0135 26.318 14.0538 26.318C15.2465 26.3184 16.4258 26.3013 17.6096 26.1402C17.6838 26.1305 17.7579 26.1207 17.832 26.1109C18.8106 25.98 19.7732 25.7964 20.7268 25.5387C20.7756 25.5256 20.8243 25.5126 20.8745 25.4992C22.0946 25.1679 23.4689 24.6977 24.3362 23.734C24.3616 23.7061 24.3871 23.6781 24.4133 23.6494C24.592 23.4323 24.6507 23.2607 24.6321 22.9788C24.5452 22.5149 24.1498 22.1828 23.7874 21.9169C22.2607 20.8742 19.5838 19.8687 17.719 20.0699C17.609 20.1684 17.609 20.1684 17.5295 20.3083C17.4813 20.3836 17.4813 20.3836 17.4321 20.4603C17.4005 20.512 17.3688 20.5636 17.3362 20.6168C17.2769 20.7083 17.2176 20.7997 17.1582 20.8911C17.0978 20.9864 17.0375 21.0818 16.9773 21.1773C16.91 21.2836 16.8427 21.3898 16.7754 21.4961C16.7414 21.5498 16.7075 21.6036 16.6724 21.659C16.5114 21.9134 16.3496 22.1675 16.1878 22.4215C15.9923 22.7285 15.7969 23.0356 15.602 23.3431C15.4151 23.6378 15.2274 23.9321 15.0393 24.2262C15.0035 24.2823 15.0035 24.2823 14.967 24.3396C14.9072 24.4331 14.8469 24.5262 14.7864 24.6192C14.7397 24.6915 14.7397 24.6915 14.692 24.7651C14.5551 24.9433 14.4316 25.0303 14.219 25.1012C13.9031 25.1219 13.7322 25.1033 13.4534 24.9371C13.127 24.5911 12.8929 24.1414 12.6479 23.7356C12.4779 23.4539 12.3035 23.1757 12.1238 22.9C11.8924 22.5449 11.6638 22.1881 11.4368 21.8302C11.1755 21.4188 10.9126 21.0085 10.6472 20.5997C10.6168 20.5527 10.5863 20.5056 10.5549 20.4571C10.5269 20.4142 10.4989 20.3712 10.4701 20.3269C10.4332 20.2701 10.4332 20.2701 10.3955 20.2121C10.3414 20.1264 10.3414 20.1264 10.2815 20.0699C8.21865 19.9814 5.06329 20.9132 3.62801 22.4431Z" fill="white"></path>
                                        <path d="M16.4468 5.70364C16.6474 5.86775 16.8279 6.04795 17.0078 6.23433C17.0481 6.27296 17.0885 6.31159 17.13 6.3514C17.8378 7.07018 18.1192 8.09581 18.1289 9.07808C18.1181 10.1674 17.7723 11.168 16.9916 11.9432C16.9428 11.9903 16.894 12.0374 16.8438 12.0859C16.8051 12.1262 16.7665 12.1665 16.7267 12.2081C16.0079 12.9159 14.9823 13.1973 14 13.207C12.9107 13.1962 11.9101 12.8503 11.1349 12.0697C11.0878 12.0209 11.0407 11.9721 10.9922 11.9218C10.9519 11.8832 10.9115 11.8446 10.87 11.8048C10.1622 11.086 9.88082 10.0603 9.87109 9.07808C9.88188 7.98878 10.2277 6.98816 11.0084 6.21297C11.0572 6.16588 11.106 6.11879 11.1562 6.07027C11.1949 6.02994 11.2335 5.98962 11.2733 5.94808C12.5965 4.64507 14.9902 4.61931 16.4468 5.70364ZM12.3047 7.32808C12.2699 7.36065 12.235 7.39322 12.1992 7.42677C11.735 7.90686 11.5754 8.52805 11.5727 9.17729C11.5843 9.80691 11.8215 10.3163 12.25 10.7734C12.2989 10.8256 12.2989 10.8256 12.3487 10.8789C12.8288 11.3431 13.45 11.5027 14.0992 11.5054C14.7288 11.4938 15.2382 11.2565 15.6953 10.8281C15.7475 10.7792 15.7475 10.7792 15.8008 10.7294C16.265 10.2493 16.4246 9.62812 16.4273 8.97887C16.4157 8.34925 16.1785 7.83991 15.75 7.38277C15.7011 7.33053 15.7011 7.33053 15.6513 7.27724C15.1712 6.81308 14.55 6.65344 13.9008 6.65077C13.2712 6.66236 12.7618 6.89962 12.3047 7.32808Z" fill="white"></path>
                                    </svg>