<svg width="40" height="40" viewBox="0 0 40 40" fill="none" xmlns="http://www.w3.org/2000/svg">
                                    <path d="M1.57614 28.1983C1.49601 28.1984 1.41665 28.1829 1.34263 28.1525C1.26861 28.1221 1.20138 28.0776 1.14481 28.0214C0.0259793 26.9139 -0.296507 25.4267 0.282484 24.0433C0.834957 22.7231 2.09002 21.8359 3.40553 21.8359C3.74254 21.8359 4.01538 22.1063 4.01538 22.4395C4.01541 22.5188 3.99966 22.5973 3.96902 22.6706C3.93839 22.7439 3.89347 22.8104 3.83683 22.8665C3.78019 22.9225 3.71295 22.967 3.63895 22.9973C3.56494 23.0277 3.48563 23.0433 3.40553 23.0432C2.57745 23.0432 1.77526 23.6307 1.40929 24.5054C1.22524 24.9455 0.914828 26.0862 2.00746 27.1678C2.12177 27.281 2.18598 27.4345 2.18598 27.5946C2.18598 27.7547 2.12177 27.9082 2.00746 28.0214C1.95091 28.0776 1.88369 28.1222 1.80966 28.1525C1.73564 28.1829 1.65627 28.1985 1.57614 28.1983Z" fill="#CC0B4B"></path>
                                    <path d="M40.0001 18.7539V28.0858C40.0001 28.6647 39.5259 29.1344 38.9408 29.1344H35.781C35.115 30.3136 34.2799 31.4057 33.3017 32.3869V37.8565C33.3017 39.0406 32.3326 40.0001 31.1374 40.0001H28.3929C27.1976 40.0001 26.2277 39.0406 26.2277 37.8565V36.651C24.3739 37.2465 22.3703 37.5718 20.2797 37.5718C18.2412 37.5718 16.285 37.2611 14.4685 36.6935V37.8566C14.4685 39.0403 13.4989 40.0001 12.3031 40.0001H9.55886C8.36362 40.0001 7.39435 39.0409 7.39435 37.8574V32.5212C4.66158 29.8451 2.99951 26.3124 2.99951 22.44C2.99951 14.0832 10.7363 7.30859 20.2797 7.30859C27.9353 7.30859 34.4272 11.6677 36.6966 17.705H38.9408C39.5259 17.7053 40.0001 18.1746 40.0001 18.7539Z" fill="#EA4455"></path>
                                    <path d="M28.098 37.8571V36.1552C28.098 36.1555 28.0977 36.1555 28.0974 36.1555L28.0977 36.1552V34.6349C21.1863 37.8333 10.5583 32.0198 10.5583 20.3826C10.5583 12.3012 12.1044 7.7575 21.2121 7.33086C20.9016 7.31622 20.5907 7.3088 20.2798 7.30859C10.7358 7.30859 2.99902 14.0832 2.99902 22.44C2.99902 26.3126 4.66141 29.8451 7.39418 32.5214V37.8571C7.39418 39.0406 8.36337 40.0001 9.55908 40.0001H11.4292C10.2336 40.0001 9.2643 39.0406 9.2643 37.8571V34.2866C11.6595 36.0337 14.468 36.6938 14.468 36.6938C16.2846 37.2611 18.241 37.5718 20.2795 37.5718C22.3701 37.5718 24.3734 37.2465 26.2276 36.6511V37.653L26.2278 37.6527V37.8571C26.2278 39.0406 27.1972 40.0001 28.3927 40.0001H30.2628C29.0673 40.0001 28.0979 39.0406 28.0979 37.8571H28.098ZM36.5941 26.6875H39.9999V28.0858C39.9999 28.665 39.5257 29.1344 38.9406 29.1344H35.7808L36.5941 26.6875Z" fill="#CC0B4B"></path>
                                    <path d="M23.5453 10.0307C22.4851 9.82721 21.3922 9.72346 20.2798 9.72346C18.3951 9.72346 16.5907 10.0259 14.9305 10.578C14.6399 10.3018 14.3791 9.99654 14.1523 9.66705C12.3276 7.02441 13.0122 3.4187 15.6818 1.61233C18.351 -0.193724 21.9938 0.484651 23.8183 3.12635C25.3096 5.28765 25.1234 8.09256 23.5453 10.0308V10.0307Z" fill="#FFE261"></path>
                                    <path d="M14.9306 11.1819C14.7731 11.182 14.6216 11.1216 14.5082 11.0134C14.1877 10.7082 13.8998 10.3712 13.649 10.0076C12.6748 8.59635 12.3138 6.89436 12.6325 5.21464C12.9516 3.53491 13.9123 2.07863 15.3379 1.11392C18.2799 -0.876755 22.3104 -0.126972 24.3223 2.78567C25.1211 3.94351 25.5083 5.2937 25.4423 6.69022C25.3786 8.04095 24.8735 9.36176 24.0201 10.4094C23.809 10.6692 23.4252 10.7098 23.1628 10.5007C23.0369 10.4002 22.9565 10.2544 22.9392 10.0952C22.9219 9.93609 22.9692 9.77665 23.0707 9.652C24.5088 7.88587 24.6094 5.34253 23.3151 3.46686C21.6833 1.10384 18.4132 0.495621 16.026 2.11058C14.8693 2.8931 14.0899 4.07477 13.8312 5.43745C13.5725 6.80037 13.8654 8.18127 14.6559 9.32606C14.8594 9.62114 15.093 9.89473 15.353 10.1425C15.4108 10.1974 15.4571 10.263 15.4892 10.3356C15.5214 10.4082 15.5387 10.4864 15.5404 10.5657C15.542 10.6449 15.5278 10.7237 15.4987 10.7976C15.4696 10.8714 15.426 10.9388 15.3705 10.996C15.3137 11.0548 15.2454 11.1016 15.1698 11.1335C15.0942 11.1655 15.0128 11.1819 14.9306 11.1819Z" fill="#F2A918"></path>
                                    <path d="M22.0274 7.92754L21.7225 7.70902C22.1069 6.86603 21.8898 6.07258 21.1179 5.5196C20.2457 4.89489 19.4947 5.18881 18.8127 5.6246L17.6292 4.77684C17.7904 4.62418 17.939 4.54731 18.0621 4.48356C18.1718 4.42652 18.2667 4.37762 18.328 4.29308C18.5261 4.02237 18.2948 3.67815 18.1332 3.56252C17.7707 3.30244 17.2093 3.71932 16.8069 4.18777L16.5646 4.01417C16.4726 3.94859 16.3581 3.92176 16.2461 3.93955C16.1341 3.95734 16.0338 4.0183 15.9672 4.10909C15.9008 4.20017 15.8737 4.31356 15.8916 4.42442C15.9096 4.53528 15.9713 4.63456 16.0631 4.70051L16.3306 4.89216C15.9015 5.74788 16.0597 6.52493 16.7721 7.03518C17.6581 7.66996 18.4289 7.19627 19.0045 6.80752L20.3986 7.80637C20.1279 8.05293 19.8585 8.11825 19.6375 8.17169C19.4654 8.21348 19.3171 8.24919 19.2314 8.36669C19.1525 8.47412 19.1371 8.62092 19.1876 8.78022C19.2302 8.91506 19.3159 9.03835 19.4164 9.11038C19.5188 9.18398 19.655 9.22085 19.8117 9.22085C20.2303 9.22085 20.796 8.95717 21.2569 8.4213L21.5254 8.61349C21.6174 8.67922 21.7319 8.70617 21.8439 8.68845C21.9559 8.67073 22.0562 8.60978 22.1229 8.51896C22.1893 8.42796 22.2166 8.31458 22.1987 8.2037C22.1808 8.09282 22.1192 7.9935 22.0274 7.92754ZM20.8472 7.08221L19.8094 6.33875C20.0981 6.2261 20.3265 6.25571 20.566 6.42727C20.805 6.59814 20.899 6.81822 20.8472 7.08221ZM18.047 6.12141C17.779 6.2643 17.5629 6.29875 17.3304 6.13242C17.2503 6.07476 17.0209 5.91054 17.1637 5.48881L18.047 6.12141Z" fill="#F2A918"></path>
                                    <path d="M12.66 12.1349C12.5483 12.135 12.4387 12.1047 12.3433 12.0473C12.2478 11.9899 12.1701 11.9077 12.1186 11.8095C12.0816 11.7392 12.059 11.6623 12.0521 11.5833C12.0452 11.5043 12.054 11.4247 12.0782 11.3491C12.1023 11.2735 12.1413 11.2033 12.1928 11.1426C12.2444 11.0819 12.3075 11.0318 12.3786 10.9953C13.1374 10.6052 13.9257 10.2743 14.7365 10.0056C16.5039 9.41784 18.3691 9.11963 20.2793 9.11963C21.4229 9.11963 22.5605 9.22682 23.6611 9.438C24.3707 9.57394 25.0709 9.75465 25.7573 9.97902C25.9108 10.0294 26.0378 10.1381 26.1104 10.2812C26.183 10.4242 26.1953 10.59 26.1445 10.742C26.0936 10.894 25.9838 11.0197 25.8392 11.0916C25.6947 11.1635 25.5272 11.1756 25.3737 11.1253C24.7369 10.9171 24.0874 10.7495 23.429 10.6233C22.4045 10.4268 21.3448 10.327 20.2793 10.327C18.5014 10.327 16.7669 10.6038 15.1243 11.1504C14.3735 11.3992 13.6435 11.7056 12.9409 12.0668C12.8542 12.1115 12.7578 12.1349 12.66 12.1349Z" fill="#2F353F"></path>
                                    <path d="M35.447 7.29009L33.2516 15.9023L30.5993 14.0334L28.4541 12.5218C31.2187 6.16303 35.447 7.29009 35.447 7.29009Z" fill="#EA4455"></path>
                                    <path d="M35.447 7.29009C35.447 7.29009 31.4098 9.64116 30.5993 14.0334L28.4541 12.5218C31.2187 6.16303 35.447 7.29009 35.447 7.29009Z" fill="#CC0B4B"></path>
                                    <path d="M35.8127 20.2482C35.8127 20.9373 35.2485 21.4957 34.5523 21.4957C33.8562 21.4957 33.292 20.9373 33.292 20.2482C33.292 19.5591 33.8562 19.0005 34.5524 19.0005C35.2485 19.0005 35.8127 19.5591 35.8127 20.2482Z" fill="#2F353F"></path>
                                </svg>