<svg width="40" height="40" viewBox="0 0 40 40" fill="none" xmlns="http://www.w3.org/2000/svg">
                                    <path fill-rule="evenodd" clip-rule="evenodd" d="M18.9902 36.626L19.2848 36.8518L19.2936 36.8452L19.0234 36.6504L18.9902 36.626Z" fill="white"></path>
                                    <path fill-rule="evenodd" clip-rule="evenodd" d="M34.5763 28.82V19.9681H29.9102L24.1213 19.1066C23.2155 18.9715 22.3873 19.1863 21.6587 19.7421L19.9734 21.0288L14.127 25.4957L16.7534 28.563L28.4884 27.5952L30.8602 29.3027C31.0086 29.4112 31.126 29.5485 31.2057 29.6991L31.8523 29.2385C32.2532 28.955 32.6762 28.82 33.1678 28.82H34.5763Z" fill="#EEB991"></path>
                                    <path fill-rule="evenodd" clip-rule="evenodd" d="M34.576 27.3339V19.9681H29.9099L24.121 19.1066C23.2152 18.9715 22.387 19.1863 21.6584 19.7421L19.9731 21.0288L14.895 24.9088L16.7531 27.0792L23.8973 27.4003L24.6126 27.9141L28.4881 27.5951L30.1512 28.7932L31.852 27.7546C32.2728 27.4999 32.6758 27.3338 33.1674 27.3338H34.5759L34.576 27.3339Z" fill="#FBC79A"></path>
                                    <path fill-rule="evenodd" clip-rule="evenodd" d="M24.2917 24.3596L28.4884 27.5952L30.8602 29.3026C32.1955 30.2637 30.1958 32.8704 29.0132 32.0178C30.4483 33.052 28.4485 35.6564 27.1663 34.7329L26.513 34.2634C27.824 35.2068 25.9062 37.871 24.5952 36.9276L24.0327 36.5223C25.3415 37.4657 23.4259 40.13 22.1148 39.1865L19.7408 37.479L8.15195 29.2384C7.75109 28.9527 7.33031 28.8199 6.83867 28.8199H5.42578V19.968H10.0919L15.852 19.1131C16.7621 18.978 17.597 19.1951 18.3256 19.7576L19.9733 21.0288L17.1896 23.1571C15.6505 24.3309 18.0377 27.4579 19.5769 26.2819L21.1514 25.0794L22.0992 24.3552C22.757 23.8525 23.6384 23.8547 24.2916 24.3597L24.2917 24.3596Z" fill="#FCD69C"></path>
                                    <path fill-rule="evenodd" clip-rule="evenodd" d="M16.9416 35.4904L15.9096 33.2868L8.15195 27.7546C7.75109 27.4689 7.33031 27.3338 6.83867 27.3338H5.42578V19.968H10.0919L15.852 19.1131C16.7621 18.978 17.597 19.1951 18.3256 19.7576L19.9733 21.0288L17.1896 23.1571C15.6505 24.3309 18.0377 27.4579 19.5769 26.2819L21.1514 25.0794L22.0992 24.3552C22.1103 24.3463 22.1214 24.3398 22.1302 24.3309C22.7835 23.8547 23.6273 23.8923 24.2916 24.3596L28.4883 27.5952L30.8601 29.3026C32.1955 30.2637 30.1957 32.8704 29.0131 32.0178C30.4482 33.052 28.4484 35.6564 27.1662 34.7329L26.5129 34.2634C27.8239 35.2068 25.9061 37.871 24.5951 36.9276L24.0326 36.5223C25.3414 37.4657 23.4258 40.13 22.1148 39.1865L19.7407 37.479L16.9415 35.4903L16.9416 35.4904Z" fill="#FEE0B4"></path>
                                    <path fill-rule="evenodd" clip-rule="evenodd" d="M10.0254 33.1159L11.3918 31.7494C12.5345 30.6089 10.2115 28.2858 9.07093 29.4285L7.70453 30.795C6.53085 31.9687 8.8871 34.2542 10.0254 33.1159Z" fill="#FBC79A"></path>
                                    <path fill-rule="evenodd" clip-rule="evenodd" d="M12.2246 35.5589L15.1368 32.6466C16.2795 31.5038 13.9586 29.1829 12.816 30.3257L9.90377 33.238C8.76111 34.3807 11.082 36.7016 12.2246 35.5589Z" fill="#FBC79A"></path>
                                    <path fill-rule="evenodd" clip-rule="evenodd" d="M14.2463 30.1995C13.7879 29.9647 13.2807 29.9315 12.891 30.2571L12.3285 30.8196L9.83707 33.3111C9.50488 33.7053 9.54473 34.2213 9.78387 34.6842L12.9884 31.4818L14.1732 30.2947C14.2014 30.2661 14.2259 30.2341 14.2463 30.1995Z" fill="#EEB991"></path>
                                    <path fill-rule="evenodd" clip-rule="evenodd" d="M15.1148 37.3127L17.46 34.9674C18.6005 33.8246 16.2797 31.5037 15.1369 32.6465L12.7939 34.9918C11.6512 36.1345 13.9721 38.4555 15.1148 37.3127Z" fill="#FBC79A"></path>
                                    <path fill-rule="evenodd" clip-rule="evenodd" d="M16.5298 32.5001C16.0958 32.2919 15.6219 32.2609 15.2476 32.5489L12.6964 35.1023C12.3952 35.4921 12.4417 35.9904 12.6765 36.4399L16.4081 32.7083C16.4678 32.6485 16.5099 32.5776 16.5298 32.5001V32.5001Z" fill="#EEB991"></path>
                                    <path fill-rule="evenodd" clip-rule="evenodd" d="M17.9272 39.1418L19.2936 37.7753C20.4341 36.6348 18.1133 34.3116 16.9705 35.4544L15.6064 36.8208C14.4637 37.9636 16.7845 40.2845 17.9272 39.1418Z" fill="#FBC79A"></path>
                                    <path d="M0.782227 19.0356H5.42613V29.7523H0.782227V19.0356Z" fill="#83CCFC"></path>
                                    <path d="M0.782227 19.0356H5.42613V27.3338H0.782227V19.0356Z" fill="#91D3FF"></path>
                                    <path d="M34.5762 19.0356H39.2201V29.7523H34.5762V19.0356Z" fill="#FFAB5C"></path>
                                    <path d="M16.9792 35.4481L15.6018 36.8256C15.2032 37.2265 15.2319 37.7735 15.4844 38.2629L18.4121 35.3352C17.9249 35.0827 17.3801 35.0539 16.9793 35.4482L16.9792 35.4481ZM9.07097 29.4287L7.70456 30.7951C7.29269 31.207 7.3148 31.7585 7.56949 32.2502L10.5104 29.307C10.0188 29.0545 9.47183 29.0279 9.07097 29.4288V29.4287Z" fill="#EEB991"></path>
                                    <path d="M34.5762 27.3335H39.2201V29.7518H34.5762V27.3335Z" fill="#F8A04C"></path>
                                    <path fill-rule="evenodd" clip-rule="evenodd" d="M19.9865 6.33545L21.4968 10.0295L25.4786 10.324L22.4313 12.9018L23.3814 16.7796L19.9865 14.6779L16.5938 16.7796L17.5438 12.9018L14.4966 10.324L18.4784 10.0295L19.9865 6.33545Z" fill="#FFE100"></path>
                                    <path d="M28.7541 9.15209C28.7177 9.03314 28.7299 8.90461 28.788 8.79462C28.8461 8.68463 28.9454 8.60214 29.0642 8.56521L30.4395 8.13779C30.6875 8.06029 30.9488 8.19982 31.0285 8.44787C31.065 8.5668 31.0528 8.69534 30.9947 8.80534C30.9366 8.91533 30.8373 8.99782 30.7185 9.03475L29.341 9.46217C29.2945 9.47764 29.2502 9.48209 29.2015 9.48209C29.0022 9.48209 28.8162 9.35365 28.7541 9.15209ZM25.2773 3.79287L26.1277 2.62584C26.2782 2.41545 26.5705 2.36896 26.7809 2.52178C26.9913 2.67459 27.0401 2.96912 26.8873 3.17725L26.0369 4.34436C25.9439 4.4706 25.8044 4.53701 25.6582 4.53701C25.559 4.53696 25.4622 4.50599 25.3814 4.44842C25.2813 4.3748 25.2143 4.26472 25.1948 4.14202C25.1753 4.01932 25.2049 3.89388 25.2773 3.79287ZM8.97359 8.35928C9.05336 8.1135 9.31688 7.97615 9.56485 8.05584L10.9379 8.49209C11.1859 8.57178 11.3233 8.83537 11.2457 9.08334C11.1792 9.28264 10.9933 9.41107 10.7962 9.41107C10.7472 9.41037 10.6987 9.40215 10.6522 9.3867L9.27914 8.95045C9.03109 8.87068 8.89383 8.60717 8.97352 8.35912L8.97359 8.35928ZM12.8446 3.37646C12.6874 3.17053 12.7251 2.876 12.931 2.71873C13.1348 2.55928 13.4293 2.59693 13.5887 2.80287L14.4701 3.94561C14.6273 4.15154 14.5897 4.44607 14.3838 4.60334C14.3018 4.66982 14.1977 4.70303 14.098 4.70303C14.0261 4.70294 13.9551 4.68632 13.8906 4.65444C13.8261 4.62257 13.7698 4.5763 13.726 4.5192L12.8446 3.37646ZM19.5149 2.22709V0.785449C19.5149 0.526387 19.7253 0.315918 19.9866 0.315918C20.1111 0.316001 20.2305 0.365496 20.3186 0.453532C20.4066 0.541568 20.4561 0.660947 20.4562 0.785449V2.22717C20.4561 2.35166 20.4066 2.47103 20.3186 2.55906C20.2305 2.64708 20.1111 2.69656 19.9866 2.69662C19.7253 2.69662 19.5149 2.48623 19.5149 2.22717V2.22709ZM18.5095 10.2637C18.5967 10.2576 18.6804 10.2271 18.7513 10.1759C18.8221 10.1246 18.8772 10.0546 18.9103 9.97365L19.9866 7.34271L21.0606 9.97365C21.0945 10.0545 21.1501 10.1244 21.2212 10.1756C21.2923 10.2268 21.3763 10.2573 21.4637 10.2637L24.3005 10.4741L22.128 12.3078C21.9908 12.4251 21.9309 12.6068 21.973 12.7795L22.6507 15.5411L20.2346 14.044C20.0841 13.9511 19.8913 13.9511 19.7385 14.044L17.3224 15.5411L18.0001 12.7795C18.0212 12.6946 18.0178 12.6054 17.9904 12.5224C17.963 12.4393 17.9126 12.3656 17.8451 12.31L15.677 10.4741L18.5095 10.2637ZM14.0494 9.94482C14.0213 10.0335 14.02 10.1285 14.0456 10.2179C14.0712 10.3073 14.1225 10.3872 14.1933 10.4476L17.0191 12.8393L16.1399 16.4335C16.0934 16.6195 16.1621 16.8144 16.3171 16.9251C16.4013 16.9849 16.4965 17.0159 16.5939 17.0159C16.6802 17.0159 16.7645 16.9915 16.842 16.9451L19.9866 14.9962L23.1335 16.9451C23.2127 16.9941 23.3048 17.0184 23.3979 17.0148C23.491 17.0113 23.5809 16.98 23.6562 16.9251C23.8112 16.8144 23.8798 16.6195 23.8355 16.4335L22.9541 12.8393L25.7821 10.4476C25.9283 10.3258 25.9837 10.1265 25.9238 9.94482C25.8663 9.76326 25.7045 9.63701 25.5141 9.62146L21.8225 9.34904L20.4207 5.92311C20.385 5.83732 20.3248 5.764 20.2476 5.71239C20.1703 5.66077 20.0795 5.63316 19.9866 5.63303C19.8937 5.63286 19.8028 5.66035 19.7255 5.712C19.6482 5.76366 19.588 5.83714 19.5526 5.92311L18.153 9.34904L14.4635 9.62146C14.2709 9.63693 14.1091 9.76318 14.0494 9.94482ZM38.7529 29.0477H35.0457V19.2704H38.7529V29.0477ZM33.17 28.1176C32.5765 28.1176 32.0583 28.2815 31.5799 28.6225L31.2965 28.8218C31.2455 28.7734 31.1915 28.7283 31.1348 28.6867L28.7674 26.9837L24.5775 23.7549C23.7515 23.1194 22.6398 23.1149 21.8138 23.7483L19.2913 25.675C18.7554 26.0847 18.0401 25.6528 17.6016 25.0793C17.1654 24.5079 16.9373 23.704 17.4709 23.2965L20.2591 21.1683L21.9421 19.8817C22.5688 19.4056 23.2775 19.2218 24.0526 19.3369L29.8415 20.1984C29.8659 20.2029 29.8858 20.2051 29.9102 20.2051H34.1045V28.1177H33.17V28.1176ZM30.8292 30.0442C30.7739 30.5646 30.3198 31.1891 29.8305 31.4083C29.5049 31.5567 29.341 31.4438 29.2901 31.4039L24.407 27.8384C24.3571 27.8021 24.3006 27.7759 24.2407 27.7615C24.1807 27.747 24.1185 27.7446 24.0576 27.7542C23.9966 27.7639 23.9382 27.7855 23.8857 27.8178C23.8332 27.8501 23.7875 27.8925 23.7514 27.9425C23.5986 28.1507 23.6429 28.4452 23.8533 28.598L28.7364 32.1635C28.7379 32.1635 28.7386 32.1642 28.7386 32.1657C29.2701 32.5488 28.9844 33.2464 28.7298 33.5963C28.3998 34.0591 27.8306 34.4002 27.4387 34.119L26.7877 33.6494V33.6472L22.0529 30.1903C21.9524 30.1171 21.8269 30.0867 21.7041 30.1058C21.5812 30.1249 21.4709 30.1919 21.3973 30.2922C21.3607 30.3419 21.3341 30.3983 21.3193 30.4583C21.3045 30.5183 21.3016 30.5806 21.3108 30.6417C21.3201 30.7028 21.3413 30.7614 21.3733 30.8143C21.4052 30.8672 21.4473 30.9133 21.497 30.9499L26.2384 34.409V34.4112C26.7167 34.7522 26.3934 35.4654 26.1586 35.7954C25.9216 36.1231 25.3459 36.6569 24.872 36.3114L24.3073 35.9105L20.2148 32.9186C20.1649 32.8823 20.1084 32.8562 20.0485 32.8417C19.9885 32.8273 19.9263 32.8248 19.8654 32.8345C19.8045 32.8441 19.7461 32.8658 19.6935 32.8981C19.641 32.9304 19.5953 32.9727 19.5592 33.0227C19.4064 33.2309 19.4507 33.5254 19.6611 33.6783L23.7514 36.6679H23.7559V36.6701H23.7603C23.829 36.7211 24.0349 36.8739 23.9929 37.2725C23.942 37.7929 23.5123 38.3908 23.0362 38.6057C22.6641 38.7718 22.4559 38.6211 22.3851 38.5702L20.0664 36.9004C20.078 36.7093 20.0571 36.5176 20.0045 36.3335C19.7874 35.5119 19.0034 34.7279 18.1796 34.5065C18.1693 34.504 18.159 34.5018 18.1487 34.4998C18.2416 34.234 18.2594 33.9395 18.1974 33.634C18.1088 33.1954 17.8541 32.7526 17.4844 32.385C17.1212 32.0173 16.676 31.7627 16.2398 31.6719C16.1318 31.6505 16.0221 31.6387 15.912 31.6365C15.8988 31.0762 15.5998 30.4982 15.1657 30.0641C14.426 29.3222 13.2656 28.979 12.4838 29.7607L12.063 30.1815C11.9368 29.8094 11.7087 29.4573 11.4164 29.165C10.6812 28.4276 9.52734 28.0865 8.75008 28.8527L8.4268 28.6224C7.94844 28.2814 7.42805 28.1175 6.83891 28.1175H5.89547V20.2048H10.0877C10.112 20.2048 10.1364 20.2026 10.1563 20.1982L15.923 19.3433C16.7003 19.2282 17.4134 19.4142 18.0401 19.8947L19.2027 20.7939L16.9041 22.5501C15.9009 23.3141 16.1223 24.6871 16.8553 25.6483C17.5884 26.6116 18.8573 27.1874 19.8627 26.4212L22.3829 24.4944C22.8679 24.1246 23.5212 24.1246 24.004 24.4967L28.1984 27.7322C28.2028 27.7366 28.2072 27.7388 28.2138 27.7433L30.5856 29.4507C30.7739 29.5858 30.8558 29.7807 30.8292 30.0442ZM18.957 37.2105L17.595 38.5769C17.1831 38.9911 16.5276 38.5592 16.242 38.2736C15.9541 37.9857 15.5222 37.3346 15.9363 36.9183L17.3027 35.5519C17.3603 35.4921 17.5463 35.3104 17.9361 35.4146C18.441 35.5497 18.9614 36.0723 19.0988 36.5751C19.2028 36.967 19.019 37.1487 18.957 37.2106L18.957 37.2105ZM14.2045 36.8983C13.9476 36.8451 13.6641 36.679 13.4294 36.4421C13.1924 36.2051 13.0241 35.9217 12.9732 35.667C12.9245 35.4301 12.9732 35.2418 13.1238 35.0912L15.469 32.7438C15.6196 32.5933 15.8078 32.5423 16.047 32.5933C16.3038 32.6464 16.5873 32.8125 16.8243 33.0472C17.11 33.3351 17.5396 33.9862 17.1277 34.4026L15.2719 36.2561V36.2583L14.7802 36.7478C14.6274 36.8983 14.4392 36.9471 14.2045 36.8983V36.8983ZM10.5394 34.6881C10.2537 34.4025 9.81961 33.7514 10.2359 33.335L10.3577 33.2154V33.2132L11.7241 31.8468H11.7263L13.1481 30.4228C13.2611 30.3098 13.3962 30.2522 13.5578 30.2522C13.6131 30.2522 13.6685 30.2589 13.7261 30.27C13.9808 30.3253 14.2642 30.4914 14.5012 30.7284C14.7868 31.0141 15.2209 31.6651 14.8045 32.0815L11.8923 34.9937C11.4782 35.4079 10.8249 34.976 10.5393 34.6881H10.5394ZM8.03688 30.8923L9.39883 29.5259C9.81734 29.1118 10.4663 29.5436 10.7563 29.8293C11.042 30.1172 11.476 30.7683 11.0597 31.1846L9.69555 32.551H9.69336C9.29922 32.9429 8.6525 32.582 8.31594 32.2432C8.0325 31.9619 7.61391 31.3175 8.03688 30.8923ZM4.95641 29.0476H1.25367V19.2702H4.95648L4.95641 29.0476ZM39.2202 18.3312H34.5763C34.3149 18.3312 34.1045 18.5416 34.1045 18.8008V19.2658H29.9434L24.1899 18.4088C23.158 18.2538 22.2079 18.4996 21.3752 19.1352L19.9734 20.2026L18.6137 19.1529C17.7766 18.5085 16.8243 18.2604 15.7857 18.4155L10.0544 19.2659H5.89539V18.8008C5.89547 18.739 5.88331 18.6777 5.85961 18.6206C5.83591 18.5634 5.80113 18.5115 5.75728 18.4679C5.71343 18.4242 5.66138 18.3897 5.60412 18.3662C5.54687 18.3428 5.48554 18.3309 5.42367 18.3313H0.782031C0.657529 18.3314 0.53815 18.3809 0.450114 18.4689C0.362078 18.557 0.312583 18.6763 0.3125 18.8008V29.5171C0.3125 29.7784 0.522891 29.9888 0.782031 29.9888H5.42375C5.48579 29.9891 5.54727 29.9771 5.60465 29.9536C5.66202 29.93 5.71415 29.8952 5.75802 29.8514C5.80189 29.8075 5.83662 29.7554 5.86022 29.698C5.88381 29.6406 5.89579 29.5791 5.89547 29.5171V29.0565H6.83891C7.23094 29.0565 7.56313 29.1605 7.87977 29.3865L8.07469 29.526L7.37266 30.2302C6.66625 30.9344 6.78141 32.0351 7.65172 32.9076C8.06141 33.3173 8.59734 33.6052 9.12883 33.654C9.12144 33.8054 9.1326 33.9571 9.16203 34.1058C9.25508 34.542 9.5075 34.985 9.87516 35.3526C10.3225 35.7999 10.9182 36.1011 11.4918 36.1011C11.6955 36.1011 11.8948 36.0612 12.0853 35.9815C12.1938 36.3757 12.433 36.7721 12.7652 37.1065C13.2103 37.5516 13.8083 37.855 14.3841 37.855C14.5568 37.855 14.7251 37.824 14.8868 37.7664C14.9975 38.1938 15.2478 38.6057 15.5777 38.9379C16.0251 39.383 16.6208 39.6842 17.1966 39.6842C17.5774 39.6842 17.9495 39.5513 18.2595 39.239L19.6215 37.8749C19.6503 37.8483 19.6747 37.8218 19.699 37.7929L21.8383 39.3343C22.104 39.5247 22.403 39.6222 22.7174 39.6222C22.9477 39.6222 23.1847 39.569 23.4216 39.4627C24.1967 39.1128 24.8434 38.2115 24.9298 37.3655C24.9298 37.3566 24.9298 37.3478 24.9342 37.339C25.6739 37.4719 26.4401 37.0068 26.9184 36.3424C27.1798 35.977 27.3591 35.5474 27.4079 35.1244C28.1763 35.3171 28.9957 34.841 29.494 34.1456C29.9214 33.5499 30.0653 32.9144 29.9413 32.3651C30.0353 32.339 30.1271 32.3057 30.2159 32.2654C31.0109 31.9088 31.6753 30.9942 31.7617 30.1372C31.7785 29.9771 31.7741 29.8155 31.7484 29.6566L32.1227 29.3865C32.4438 29.1606 32.7738 29.0565 33.1702 29.0565H34.1048V29.5171C34.1046 29.5791 34.1167 29.6405 34.1404 29.6978C34.1641 29.7551 34.1988 29.8071 34.2426 29.8509C34.2865 29.8948 34.3385 29.9295 34.3958 29.9532C34.4531 29.9768 34.5145 29.9889 34.5765 29.9888H39.2204C39.4795 29.9888 39.6877 29.7784 39.6877 29.5171V18.8008C39.6877 18.5418 39.4795 18.3313 39.2204 18.3313L39.2202 18.3312Z" fill="#070202"></path>
                                </svg>