<svg width="30" height="30" viewBox="0 0 30 30" fill="none" xmlns="http://www.w3.org/2000/svg">
                                    <path d="M27 14.5H28.5C29.328 14.4991 29.9991 13.828 30 13C29.9959 12.1733 29.3267 11.5041 28.5 11.5H25.3806C25.8219 8.25069 25.0637 5.39225 23.6829 3.74853C21.627 1.29638 18.6416 0 15.0498 0C15.0397 0 15.0298 0.00064453 15.0197 0.00064453L15 0C14.9682 0 14.9372 0.00281249 14.9055 0.00328124C11.3788 0.0378515 8.44508 1.32955 6.41722 3.748C4.21831 6.3655 3.59288 11.8344 6.31825 16.4999H3.50001C2.67197 16.5008 2.0009 17.1719 2.00002 17.9999C2.00412 18.8266 2.67332 19.4958 3.50001 19.4999H4.50003C4.63263 19.4999 4.75981 19.5526 4.85357 19.6463C4.94733 19.7401 5.00001 19.8673 5.00001 19.9999C5.00001 20.1325 4.94733 20.2597 4.85357 20.3534C4.75981 20.4472 4.63263 20.4999 4.50003 20.4999H1.50004C0.671992 20.5007 0.000919356 21.1718 4.04516e-05 21.9999C-0.00141641 22.1958 0.0364923 22.39 0.111518 22.571C0.186543 22.752 0.297157 22.9161 0.436797 23.0535C0.574776 23.1958 0.740096 23.3086 0.922815 23.3853C1.10553 23.462 1.30188 23.501 1.50004 23.4999H11.1169L11.5505 24.2225L12.5 26.5963V28.4999C12.5009 29.328 13.1719 29.9991 14 29.9999H16C16.828 29.9991 17.4991 29.328 17.5 28.4999V26.5964L18.4495 24.2226L19.9287 21.7573C19.9433 21.7306 19.9554 21.7026 19.9648 21.6737L20.1088 21.5229C21.0477 20.6029 21.8908 19.5901 22.6253 18.4999H27.5C28.328 18.4991 28.9991 17.828 29 16.9999C28.9959 16.1732 28.3267 15.5041 27.5 15.4999H27C26.7238 15.4999 26.5 15.2761 26.5 15C26.5 14.7238 26.7238 14.5 27 14.5ZM19.6126 4.14403C20.815 6.37645 20.7979 10.936 19.5679 15.498C19.023 17.4418 18.1968 19.2954 17.1154 21H16.405C16.7602 19.237 17.0197 17.4561 17.1824 15.665C17.6055 10.956 17.603 6.19528 17.1765 3.81837C17.0418 2.92931 16.7968 2.06052 16.447 1.23211C17.8413 1.75327 18.9771 2.79805 19.6126 4.14403ZM14.9823 1.00312C14.992 1.00306 15.0013 1.00183 15.0111 1.00183C15.0972 1.01912 15.6972 1.23908 16.1922 3.99515C16.6048 6.29249 16.6023 10.9463 16.1861 15.5781C16.0204 17.3988 15.7536 19.2089 15.3867 21H14.6133C14.2463 19.208 13.9794 17.3969 13.8137 15.5752C13.3977 10.9463 13.3952 6.29255 13.8079 3.99521C14.2363 1.60892 14.7843 1.03429 14.9823 1.00312ZM13.5529 1.23211C13.2032 2.06053 12.9582 2.92932 12.8235 3.81837C12.397 6.19534 12.3945 10.9561 12.8174 15.6621C12.98 17.4541 13.2396 19.236 13.595 21H12.8846C11.8019 19.2928 10.9749 17.4364 10.4299 15.4897C9.20217 10.936 9.18506 6.37645 10.3875 4.14403C11.0229 2.79805 12.1587 1.75326 13.5529 1.23211ZM1.50004 22.5C1.43342 22.5001 1.36747 22.4866 1.30626 22.4604C1.24504 22.4341 1.18985 22.3955 1.14408 22.3471C1.09794 22.3019 1.06141 22.2479 1.03666 22.1883C1.01191 22.1286 0.999461 22.0646 1.00006 22C1.00017 21.8674 1.05288 21.7403 1.14662 21.6466C1.24036 21.5528 1.36747 21.5001 1.50004 21.5H4.50003C5.32843 21.5 6.00003 20.8284 6.00003 20C6.00003 19.1716 5.32843 18.5 4.50003 18.5H3.50001C3.4334 18.5002 3.36745 18.4867 3.30624 18.4604C3.24502 18.4341 3.18983 18.3956 3.14406 18.3472C3.09792 18.302 3.06138 18.248 3.03663 18.1883C3.01189 18.1286 2.99944 18.0646 3.00003 18C3.00014 17.8675 3.05285 17.7403 3.1466 17.6466C3.24034 17.5529 3.36744 17.5002 3.50001 17.5H6.91116C8.3269 19.8551 8.71245 20.3468 10.0992 21.804L10.5169 22.5001L1.50004 22.5ZM10.7148 21C9.31907 19.5284 9.03284 19.1131 7.22979 16.084C4.66755 11.7803 5.1939 6.75924 7.18315 4.39107C8.17732 3.20932 9.45562 2.29973 10.8979 1.74779C10.3455 2.31906 9.87716 2.96608 9.50709 3.66937C8.17116 6.14981 8.15458 10.8915 9.46239 15.7421C9.96927 17.5906 10.7297 19.36 11.722 20.9999H10.7148V21ZM12.7386 24.5H14.5V26H13.3385L12.7386 24.5ZM16.5 28.4999C16.4999 28.6325 16.4471 28.7596 16.3534 28.8533C16.2597 28.9471 16.1326 28.9998 16 28.9999H14.0001C13.8675 28.9998 13.7404 28.9471 13.6466 28.8534C13.5529 28.7596 13.5002 28.6325 13.5001 28.4999V26.9999H16.5001L16.5 28.4999ZM16.6614 26H15.5V24.5H17.2614L16.6614 26ZM17.7168 23.5H12.2832L11.383 22H18.6169L17.7168 23.5ZM19.3862 20.832L19.2257 21H18.2779C19.269 19.3627 20.0286 17.5961 20.5354 15.7506C21.8454 10.8917 21.8288 6.14999 20.4929 3.66954C20.1096 2.94075 19.6198 2.27311 19.0398 1.68861C20.5472 2.2334 21.8845 3.16573 22.9169 4.39171C24.7297 6.54942 25.3247 11.3893 22.8567 16.108C21.9805 17.8707 20.8064 19.4689 19.3862 20.832ZM27 16.5H27.5C27.5666 16.4998 27.6325 16.5133 27.6937 16.5396C27.755 16.5658 27.8102 16.6044 27.8559 16.6528C27.9021 16.698 27.9386 16.752 27.9633 16.8117C27.9881 16.8713 28.0005 16.9354 27.9999 16.9999C27.9998 17.1325 27.9471 17.2596 27.8534 17.3534C27.7596 17.4471 27.6325 17.4998 27.5 17.4999H23.2356C23.4106 17.1938 23.5797 16.8843 23.7429 16.5717C24.4174 15.2887 24.9108 13.9184 25.2091 12.4999H28.5C28.5666 12.4997 28.6325 12.5132 28.6938 12.5395C28.755 12.5658 28.8102 12.6043 28.8559 12.6527C28.9021 12.6979 28.9386 12.7519 28.9634 12.8116C28.9881 12.8713 29.0006 12.9353 29 12.9999C28.9999 13.1324 28.9471 13.2596 28.8534 13.3533C28.7597 13.447 28.6326 13.4997 28.5 13.4999H27C26.1716 13.4999 25.5 14.1714 25.5 14.9999C25.5 15.8283 26.1715 16.5 27 16.5Z" fill="white"></path>
                                </svg>