<svg width="32" height="32" viewBox="0 0 32 32" fill="none" xmlns="http://www.w3.org/2000/svg">
                                        <path d="M17.8749 0.187602C17.9847 0.217331 17.9847 0.217331 18.0968 0.24766C19.1334 0.55636 20.0683 1.09621 20.8749 1.8126C20.9582 1.88656 20.9582 1.88656 21.0433 1.96202C22.2413 3.09617 23.1324 4.79673 23.1954 6.46395C23.1955 6.53703 23.1956 6.61011 23.1957 6.6854C23.1957 6.76633 23.1958 6.84726 23.1959 6.93064C23.1958 6.97225 23.1956 7.01386 23.1955 7.05673C23.1952 7.18316 23.1955 7.30958 23.1959 7.43602C23.1955 7.83804 23.1888 8.22789 23.1249 8.6251C23.4349 8.59955 23.5526 8.46696 23.7577 8.24229C24.0753 7.90809 24.4079 7.66255 24.8124 7.4376C24.863 7.40884 24.9137 7.38008 24.9659 7.35044C26.134 6.72582 27.3711 6.65755 28.6522 6.85948C28.7166 6.86928 28.7811 6.87908 28.8475 6.88917C29.3019 6.96638 29.6388 7.06764 29.9647 7.41026C30.1068 7.72285 30.1164 7.97549 30.0624 8.3126C29.9897 8.47499 29.9897 8.47499 29.8959 8.63731C29.8618 8.69708 29.8278 8.75686 29.7927 8.81845C29.7579 8.87839 29.7232 8.93834 29.6874 9.0001C29.626 9.10965 29.5648 9.21927 29.5038 9.32896C29.44 9.44204 29.3762 9.55508 29.3124 9.66807C29.2781 9.72876 29.2438 9.78944 29.2085 9.85197C28.903 10.3915 28.5907 10.9269 28.2753 11.4607C28.2401 11.5204 28.205 11.5802 28.1688 11.6417C28.1376 11.6944 28.1065 11.7471 28.0744 11.8014C27.9922 11.942 27.9922 11.942 27.9374 12.1251C28.0148 12.2578 28.0949 12.3791 28.1835 12.504C28.651 13.1958 29.1874 14.147 29.1874 15.0001C29.2666 14.9972 29.3458 14.9943 29.4274 14.9913C30.5148 14.963 30.5148 14.963 30.9374 15.2501C30.9798 15.2759 31.0223 15.3017 31.066 15.3282C31.5299 15.6369 31.8504 16.0902 31.9999 16.6251C32.0119 16.7878 32.0182 16.9437 32.018 17.1063C32.0187 17.1763 32.0187 17.1763 32.0193 17.2478C32.0205 17.4013 32.0207 17.5548 32.0209 17.7084C32.0213 17.8158 32.0217 17.9232 32.0221 18.0306C32.0229 18.2555 32.0231 18.4804 32.023 18.7053C32.023 18.9924 32.0247 19.2794 32.0269 19.5665C32.0283 19.7883 32.0285 20.0101 32.0285 20.2319C32.0286 20.3377 32.0291 20.4435 32.0301 20.5493C32.0389 21.6094 32.0389 21.6094 31.7499 22.0626C31.722 22.1073 31.6942 22.1521 31.6655 22.1981C31.3996 22.606 31.0089 22.9009 30.556 23.0743C30.2335 23.1415 29.9259 23.1385 29.5975 23.1329C29.5339 23.1323 29.4703 23.1318 29.4048 23.1312C29.249 23.1297 29.0932 23.1277 28.9374 23.1251C28.9225 23.1772 28.9076 23.2294 28.8922 23.2831C28.7995 23.535 28.6777 23.7465 28.535 23.9728C28.5076 24.0164 28.4802 24.06 28.4519 24.105C28.1711 24.5414 27.8458 24.9271 27.4999 25.3126C27.4501 25.37 27.4003 25.4273 27.349 25.4864C26.9213 25.9744 26.4534 26.3677 25.9374 26.7579C25.8958 26.7894 25.8543 26.8208 25.8115 26.8532C25.7705 26.8838 25.7296 26.9144 25.6874 26.9459C25.6513 26.9729 25.6152 26.9999 25.578 27.0277C25.4374 27.1251 25.4374 27.1251 25.3153 27.177C25.0898 27.2844 24.9637 27.3639 24.8775 27.605C24.8392 27.8231 24.816 28.0386 24.7972 28.2594C24.7839 28.3822 24.7706 28.505 24.7573 28.6278C24.7393 28.7994 24.7234 28.9711 24.7075 29.1429C24.6831 29.4014 24.6558 29.6596 24.6286 29.9178C24.6075 30.1189 24.587 30.32 24.5679 30.5213C24.4692 31.5278 24.4692 31.5278 24.0624 31.8751C23.8455 32.0197 23.7598 32.0164 23.5038 32.0183C23.3893 32.0195 23.3893 32.0195 23.2724 32.0207C23.189 32.0209 23.1055 32.021 23.0221 32.0211C22.9364 32.0215 22.8507 32.0219 22.7649 32.0224C22.5852 32.0231 22.4055 32.0233 22.2257 32.0233C21.996 32.0233 21.7664 32.025 21.5367 32.0271C21.3596 32.0285 21.1825 32.0288 21.0053 32.0287C20.8797 32.0289 20.754 32.0303 20.6283 32.0316C20.3134 32.0301 20.0653 32.0277 19.7731 31.9046C19.4503 31.5682 19.3275 31.1415 19.2001 30.702C19.1852 30.6518 19.1702 30.6017 19.1549 30.55C19.1238 30.4449 19.0929 30.3398 19.0623 30.2347C19.0153 30.0735 18.9675 29.9126 18.9195 29.7517C18.8893 29.6492 18.8591 29.5467 18.829 29.4442C18.8076 29.3721 18.8076 29.3721 18.7858 29.2986C18.731 29.1098 18.6874 28.9478 18.6874 28.7501C16.9136 28.7501 15.1399 28.7501 13.3124 28.7501C13.2711 28.9564 13.2299 29.1626 13.1874 29.3751C13.1428 29.5427 13.0971 29.7083 13.0472 29.8741C13.0341 29.9181 13.021 29.9621 13.0075 30.0075C12.98 30.0993 12.9524 30.1911 12.9246 30.2828C12.8826 30.4224 12.8415 30.5622 12.8004 30.702C12.7734 30.7919 12.7463 30.8819 12.7191 30.9718C12.7071 31.013 12.6951 31.0542 12.6828 31.0967C12.5812 31.4263 12.4555 31.708 12.1718 31.9154C11.9712 32.0142 11.8375 32.0242 11.6146 32.0254C11.5383 32.0261 11.4619 32.0269 11.3833 32.0278C11.3013 32.0276 11.2193 32.0274 11.1349 32.0272C11.0493 32.0275 10.9638 32.0278 10.8783 32.0282C10.6993 32.0288 10.5203 32.0286 10.3413 32.028C10.1126 32.0273 9.88391 32.0285 9.65518 32.0303C9.47861 32.0315 9.30205 32.0315 9.12548 32.0311C9.00036 32.0311 8.87525 32.0322 8.75014 32.0332C8.03147 32.0277 8.03147 32.0277 7.74986 31.7501C7.5826 31.5299 7.53207 31.3437 7.49815 31.0716C7.48416 30.9625 7.48416 30.9625 7.46988 30.8512C7.45572 30.7335 7.45572 30.7335 7.44127 30.6134C7.42487 30.4909 7.42487 30.4909 7.40814 30.366C7.34744 29.9071 7.30279 29.4501 7.27379 28.9881C7.26034 28.0143 7.26034 28.0143 6.86217 27.1844C6.67028 27.0419 6.46428 26.9491 6.24211 26.8633C6.0591 26.7842 5.92015 26.664 5.76939 26.5353C5.71501 26.4893 5.66063 26.4433 5.6046 26.3959C5.54941 26.3478 5.49422 26.2997 5.43736 26.2501C5.37637 26.1975 5.31539 26.1449 5.25255 26.0907C3.37675 24.4428 2.18649 22.0417 1.93736 19.5626C1.93048 19.3949 1.92573 19.2288 1.92467 19.0611C1.92424 19.0149 1.92381 18.9687 1.92336 18.921C1.9223 18.7729 1.9219 18.6248 1.92174 18.4767C1.92163 18.4263 1.92153 18.376 1.92142 18.3241C1.92131 17.458 1.95928 16.6389 2.24986 15.8126C2.2041 15.7962 2.15834 15.7799 2.11119 15.763C1.7062 15.5873 1.35979 15.2585 1.06236 14.9376C1.02917 14.9047 0.995976 14.8719 0.961777 14.838C0.300322 14.1473 -0.00938003 13.2343 -0.0274811 12.2931C-0.028886 12.2452 -0.0302908 12.1974 -0.0317383 12.1481C-0.0303426 11.821 0.0322288 11.6329 0.249863 11.3751C0.487263 11.1804 0.733526 11.104 1.03893 11.1251C1.35836 11.1802 1.59034 11.3067 1.786 11.5707C1.89742 11.7957 1.92748 12.0161 1.9608 12.2618C2.0642 12.9149 2.26725 13.4604 2.81236 13.8751C2.85361 13.8751 2.89486 13.8751 2.93736 13.8751C2.96621 13.8176 2.99505 13.7601 3.02477 13.7008C4.27842 11.2478 6.34942 9.63253 8.87486 8.6251C8.85988 8.52951 8.85988 8.52951 8.84459 8.43199C8.7212 7.43636 8.71069 6.2777 8.99986 5.3126C9.01968 5.23937 9.0395 5.16613 9.05992 5.09068C9.36862 4.05402 9.90847 3.11921 10.6249 2.3126C10.6742 2.25701 10.7235 2.20142 10.7743 2.14414C11.6917 1.17504 12.8491 0.547424 14.1249 0.187602C14.1912 0.167621 14.2576 0.147641 14.326 0.127055C15.4116 -0.146865 16.8034 -0.133455 17.8749 0.187602ZM12.232 3.44541C11.0442 4.70329 10.6906 6.12607 10.7384 7.80455C10.7618 8.20413 10.8592 8.56277 10.9999 8.9376C11.0225 9.00246 11.0451 9.06731 11.0685 9.13414C11.5651 10.4455 12.5909 11.439 13.8441 12.0314C15.2659 12.6421 16.6925 12.5985 18.1327 12.0509C19.4125 11.4884 20.408 10.4096 20.9374 9.1251C21.3503 7.94865 21.4439 6.62114 20.9999 5.4376C20.9772 5.37275 20.9546 5.30789 20.9313 5.24107C20.4347 3.92972 19.4088 2.93616 18.1556 2.34385C16.1356 1.4762 13.7987 1.89507 12.232 3.44541ZM24.8124 9.9376C24.6757 10.1146 24.5477 10.2931 24.4259 10.4806C24.2688 10.6805 24.1112 10.7891 23.8612 10.8419C23.444 10.8476 23.1182 10.7323 22.7364 10.5685C22.5644 10.4887 22.5644 10.4887 22.3749 10.5001C22.3327 10.5807 22.3327 10.5807 22.2897 10.6629C22.0217 11.1604 21.7194 11.5877 21.3446 12.0101C21.2032 12.1697 21.0698 12.3331 20.9374 12.5001C21.0116 12.5015 21.0116 12.5015 21.0873 12.5029C21.3121 12.5075 21.5368 12.5136 21.7616 12.5196C21.8394 12.521 21.9173 12.5225 21.9975 12.5239C22.0727 12.5261 22.1478 12.5283 22.2252 12.5306C22.2943 12.5323 22.3633 12.5339 22.4345 12.5356C22.7122 12.575 22.8783 12.6738 23.0492 12.8946C23.1365 13.0884 23.1499 13.2258 23.1483 13.4376C23.1488 13.5008 23.1493 13.5639 23.1498 13.629C23.113 13.8997 23.0232 14.058 22.8078 14.2264C22.5665 14.3401 22.3476 14.3386 22.0864 14.3364C22.0322 14.3367 21.9781 14.337 21.9223 14.3373C21.7408 14.338 21.5595 14.3375 21.378 14.3369C21.248 14.3371 21.1179 14.3375 20.9878 14.3379C20.6345 14.3387 20.2812 14.3384 19.9279 14.3378C19.5584 14.3373 19.1888 14.3378 18.8193 14.338C18.1987 14.3384 17.5781 14.3379 16.9574 14.337C16.2397 14.336 15.5219 14.3364 14.8042 14.3374C14.1882 14.3382 13.5722 14.3384 12.9562 14.3379C12.5882 14.3376 12.2202 14.3375 11.8522 14.3382C11.5062 14.3387 11.1603 14.3383 10.8143 14.3372C10.6873 14.337 10.5602 14.3371 10.4331 14.3375C10.2599 14.338 10.0866 14.3373 9.91336 14.3364C9.86293 14.3368 9.8125 14.3372 9.76054 14.3377C9.47481 14.3347 9.2894 14.3026 9.06236 14.1251C8.88519 13.8961 8.84923 13.7244 8.85143 13.4376C8.8507 13.3429 8.8507 13.3429 8.84996 13.2462C8.87897 13.0323 8.93053 12.9205 9.06236 12.7501C9.30303 12.5747 9.47907 12.5376 9.77452 12.5306C9.84965 12.5284 9.92478 12.5262 10.0022 12.5239C10.119 12.5218 10.119 12.5218 10.2381 12.5196C10.3172 12.5175 10.3963 12.5154 10.4778 12.5132C10.6726 12.508 10.8675 12.5037 11.0624 12.5001C11.0393 12.4734 11.0162 12.4467 10.9924 12.4192C10.4722 11.8154 9.97422 11.2224 9.62486 10.5001C8.24644 10.6332 6.74149 11.8783 5.87486 12.9051C5.08098 13.8783 4.45652 14.9717 4.12486 16.1876C4.11261 16.2307 4.10035 16.2737 4.08772 16.3181C3.70774 17.7016 3.73288 19.3107 4.12486 20.6876C4.13623 20.7293 4.1476 20.771 4.15932 20.8139C4.53381 22.1569 5.28377 23.3227 6.24986 24.3126C6.29844 24.3658 6.34703 24.4189 6.39708 24.4737C6.98344 25.0984 7.71524 25.5604 8.47154 25.9544C8.73591 26.1409 8.84574 26.3059 8.91463 26.6174C8.94991 26.8435 8.97789 27.0696 9.00377 27.297C9.01396 27.3801 9.02424 27.4633 9.03461 27.5464C9.06608 27.8017 9.09562 28.0571 9.12486 28.3126C9.13415 28.393 9.14343 28.4734 9.153 28.5562C9.22408 29.1731 9.22408 29.1731 9.25293 29.4384C9.25989 29.5015 9.26686 29.5647 9.27403 29.6297C9.27997 29.6849 9.28591 29.7401 9.29202 29.7969C9.30958 29.9477 9.30958 29.9477 9.37486 30.1251C9.86986 30.1251 10.3649 30.1251 10.8749 30.1251C11.0085 29.8132 11.1174 29.5215 11.2064 29.1976C11.2328 29.1045 11.2593 29.0113 11.2858 28.9182C11.3265 28.7736 11.3671 28.629 11.4071 28.4842C11.7585 27.2167 11.7585 27.2167 12.1148 26.9892C12.2724 26.929 12.3935 26.9215 12.5621 26.9209C12.625 26.9204 12.6879 26.9198 12.7528 26.9193C12.8557 26.9194 12.8557 26.9194 12.9608 26.9194C13.0334 26.919 13.1059 26.9186 13.1807 26.9182C13.4211 26.917 13.6614 26.9167 13.9017 26.9166C14.0264 26.9163 14.1512 26.916 14.2759 26.9157C14.6681 26.9147 15.0603 26.9143 15.4525 26.9144C15.8566 26.9145 16.2608 26.9132 16.6649 26.9112C17.0123 26.9096 17.3596 26.9089 17.707 26.909C17.9143 26.909 18.1216 26.9086 18.3289 26.9073C18.5602 26.9061 18.7915 26.9065 19.0228 26.9072C19.0912 26.9065 19.1596 26.9058 19.23 26.9051C19.6098 26.9083 19.8367 26.9315 20.1249 27.1876C20.2037 27.3079 20.2037 27.3079 20.2511 27.4432C20.2705 27.4981 20.29 27.5529 20.3101 27.6094C20.4546 28.0626 20.5943 28.517 20.7303 28.9728C20.7769 29.1284 20.8236 29.2841 20.8705 29.4397C20.8995 29.5359 20.9283 29.6322 20.9569 29.7285C21.0085 29.9441 21.0085 29.9441 21.1249 30.1251C21.2362 30.1306 21.3477 30.1318 21.4591 30.1312C21.5266 30.131 21.594 30.1308 21.6636 30.1306C21.7346 30.1301 21.8056 30.1295 21.8788 30.129C21.9857 30.1286 21.9857 30.1286 22.0947 30.1282C22.2714 30.1274 22.4481 30.1264 22.6249 30.1251C22.7105 29.6676 22.7717 29.2097 22.8238 28.7474C22.8302 28.6912 22.8366 28.6349 22.8432 28.577C22.8697 28.3423 22.896 28.1076 22.9216 27.8729C22.9405 27.6995 22.9603 27.5262 22.9801 27.3529C22.9856 27.3007 22.991 27.2486 22.9967 27.1948C23.044 26.7885 23.0984 26.3427 23.3927 26.0414C23.5806 25.9264 23.7705 25.8189 23.9647 25.7149C25.4808 24.8699 26.5904 23.562 27.3602 22.0259C27.3893 21.9694 27.4184 21.913 27.4483 21.8548C27.4734 21.8045 27.4985 21.7542 27.5244 21.7023C27.6599 21.5139 27.7956 21.4221 27.9999 21.3126C28.2048 21.2805 28.2048 21.2805 28.4242 21.2789C28.5036 21.2775 28.5831 21.276 28.6649 21.2745C28.7471 21.2742 28.8293 21.2739 28.9139 21.2735C29.0775 21.2722 29.2411 21.2699 29.4046 21.2672C29.513 21.2666 29.513 21.2666 29.6236 21.2661C29.8074 21.2505 29.9125 21.2311 30.0624 21.1251C30.1285 20.9266 30.1332 20.7846 30.1339 20.576C30.1343 20.5018 30.1347 20.4275 30.1352 20.351C30.1352 20.2707 30.1353 20.1905 30.1354 20.1078C30.1356 20.0254 30.1358 19.943 30.136 19.8581C30.1364 19.6838 30.1365 19.5094 30.1364 19.335C30.1364 19.1118 30.1373 18.8885 30.1384 18.6652C30.1392 18.4521 30.1392 18.2389 30.1393 18.0257C30.1399 17.9055 30.1399 17.9055 30.1406 17.7829C30.1404 17.7084 30.1402 17.634 30.14 17.5572C30.1402 17.459 30.1402 17.459 30.1403 17.3588C30.1245 17.1838 30.0996 17.0816 29.9999 16.9376C29.7912 16.868 29.6306 16.8662 29.4108 16.8641C29.2915 16.8619 29.2915 16.8619 29.1699 16.8596C29.0026 16.8567 28.8353 16.855 28.668 16.8537C28.5484 16.8511 28.5484 16.8511 28.4264 16.8485C28.3172 16.8471 28.3172 16.8471 28.2058 16.8457C27.9569 16.8057 27.8208 16.7187 27.6249 16.5626C27.4527 16.2965 27.4122 16.0705 27.3866 15.7579C27.2749 14.7197 26.7666 13.7975 26.128 12.9891C25.9054 12.6825 25.7647 12.4181 25.7844 12.0372C25.8167 11.8498 25.8808 11.7258 25.9752 11.5609C26.0262 11.4706 26.0262 11.4706 26.0783 11.3784C26.1143 11.3154 26.1503 11.2525 26.1874 11.1876C26.2576 11.0609 26.3278 10.9341 26.3978 10.8072C26.4708 10.6762 26.5439 10.5451 26.6171 10.4142C26.6552 10.3459 26.6933 10.2776 26.7326 10.2072C26.9722 9.78 27.2187 9.35956 27.4837 8.94761C27.5728 8.82064 27.5728 8.82064 27.5624 8.6876C26.4812 8.61217 25.5163 9.15529 24.8124 9.9376Z" fill="white"></path>
                                        <path d="M16.3749 3.74997C16.6613 3.88562 16.8093 4.02494 16.9374 4.31247C16.9662 4.55513 16.9652 4.7966 16.9645 5.04074C16.9649 5.11154 16.9652 5.18235 16.9655 5.2553C16.9659 5.40486 16.9658 5.55443 16.9653 5.70399C16.9648 5.93253 16.9666 6.16097 16.9686 6.38949C16.9687 6.53496 16.9686 6.68043 16.9684 6.82589C16.9691 6.89407 16.9698 6.96224 16.9706 7.03248C16.9672 7.40471 16.953 7.65222 16.6874 7.93747C16.3959 8.20394 16.0192 8.15307 15.6467 8.15207C15.5759 8.15239 15.5051 8.15272 15.4321 8.15306C15.2825 8.15346 15.133 8.15338 14.9834 8.15284C14.7549 8.15231 14.5264 8.15411 14.2979 8.15609C14.1524 8.15619 14.007 8.15616 13.8615 8.15597C13.7933 8.15667 13.7252 8.15738 13.6549 8.1581C13.2714 8.15459 13.0406 8.13373 12.7499 7.87497C12.4964 7.54855 12.5141 7.20913 12.5624 6.81247C12.6985 6.52517 12.8418 6.38759 13.1249 6.24997C13.3383 6.22868 13.3383 6.22868 13.5793 6.23166C13.6431 6.23205 13.6431 6.23205 13.7083 6.23246C13.8433 6.2335 13.9782 6.23586 14.1132 6.23825C14.2051 6.23919 14.2971 6.24004 14.389 6.24081C14.6135 6.24287 14.838 6.2461 15.0624 6.24997C15.0611 6.19324 15.0598 6.13651 15.0585 6.07806C15.0542 5.86629 15.0511 5.65457 15.0487 5.44278C15.0475 5.35136 15.0458 5.25995 15.0436 5.16855C15.0405 5.03666 15.0391 4.90483 15.038 4.77292C15.0367 4.69371 15.0354 4.6145 15.0341 4.53289C15.0751 4.21439 15.2094 4.01746 15.4611 3.82199C15.758 3.69149 16.0576 3.71127 16.3749 3.74997Z" fill="white"></path>
                                        <path d="M25.4376 15.3125C25.726 15.4491 25.8581 15.5935 26.0001 15.875C26.0519 16.2217 26.0453 16.5294 25.8946 16.8476C25.7007 17.052 25.5386 17.1724 25.2562 17.2146C24.8719 17.2151 24.6055 17.2154 24.3126 16.9375C24.0695 16.5974 24.0757 16.2801 24.1251 15.875C24.3976 15.2996 24.8533 15.2412 25.4376 15.3125Z" fill="white"></path>
                                    </svg>