<svg width="44" height="44" viewBox="0 0 44 44" fill="none" xmlns="http://www.w3.org/2000/svg">
                                            <path d="M30.0348 17.9735L30.7771 15.7105C30.7771 15.7105 32.083 15.3649 32.7718 16.7038C33.4606 18.0426 31.6581 20.7935 30.1033 21.0247C29.6723 19.9774 30.0348 17.9735 30.0348 17.9735ZM13.6849 17.9735L12.9426 15.7105C12.9426 15.7105 11.6367 15.3649 10.9479 16.7038C10.2591 18.0427 12.0616 20.7935 13.6164 21.0247C14.0475 19.9774 13.6849 17.9735 13.6849 17.9735Z" fill="#FFDBBD"></path>
                                            <path d="M39.0593 39.7064C39.0593 39.7064 38.7063 38.3532 38.3533 37.0587C37.353 32.9988 36.088 32.7046 34.4993 32.2633C32.9107 31.8221 27.7034 30.1451 26.3795 29.8804H17.6196C16.2958 30.1451 11.0885 31.8221 9.49989 32.2633C7.91124 32.7046 6.64624 32.9988 5.64601 37.0587C5.29297 38.3532 4.93994 39.7064 4.93994 39.7064C4.93994 39.7064 8.56533 43.8801 21.5363 43.9989C21.6548 44.0005 22.3446 44.0005 22.463 43.9989C35.434 43.8801 39.0593 39.7064 39.0593 39.7064Z" fill="#F4F4F4"></path>
                                            <path d="M26.6206 28.7555C26.0998 27.4289 25.98 25.9995 25.98 25.9995H17.9628C17.9628 25.9995 17.8431 27.4289 17.3223 28.7555C17.7642 29.5769 21.5717 31.7027 21.9361 32.0371H21.9724C22.3367 31.7027 26.1787 29.5769 26.6206 28.7555Z" fill="#FFDBBD"></path>
                                            <path d="M26.1413 27.05C26.0209 26.436 25.9842 25.9995 25.9842 25.9995H17.967C17.967 25.9995 17.9219 26.5355 17.7676 27.2553C18.4978 27.8561 20.3271 29.1989 22.0921 29.1989C23.8869 29.1989 25.529 27.6871 26.1413 27.05Z" fill="#EABEA0"></path>
                                            <path d="M21.9017 6.89204L21.9014 6.8916H21.8636L21.8633 6.89204C18.6713 6.91102 11.9984 9.33591 12.7979 17.4237C13.229 22.0607 16.5427 28.2781 21.8628 28.3082L21.8635 28.3089H21.9013L21.9021 28.3082C27.2222 28.2781 30.5359 22.0607 30.967 17.4237C31.7666 9.33591 25.0937 6.91102 21.9017 6.89204Z" fill="#FFDBBD"></path>
                                            <path d="M13.2422 19.809C13.4351 17.2113 13.725 13.5991 17.3223 13.1137C20.9196 12.6283 24.986 10.5397 25.509 9.23034C25.6414 10.5542 26.6122 12.6724 28.1567 14.0845C29.7012 15.4967 30.5954 16.6192 30.5234 19.809C30.8609 18.2581 32.2899 14.2611 29.8924 10.466C27.4949 6.67085 21.052 4.11137 15.4476 8.56841C13.7265 10.2012 11.3899 14.5452 13.2422 19.809Z" fill="#513E36"></path>
                                            <path d="M23.6912 33.3013C23.6912 33.3013 22.2181 32.0146 21.9819 32.0146L21.9815 32.0152L21.9812 32.0146C21.745 32.0146 20.2719 33.3013 20.2719 33.3013L19.9819 34.6873C19.9819 34.6873 21.0178 36.3592 21.9812 36.3592L21.9815 36.3589L21.9819 36.3592C22.9453 36.3592 23.9812 34.6873 23.9812 34.6873L23.6912 33.3013Z" fill="#2B3841"></path>
                                            <path d="M21.9812 35.4404H21.9805C21.3484 35.4406 20.9785 35.5828 20.8984 35.9732C20.8339 36.2877 19.3263 41.7644 18.7422 43.8832C19.6217 43.9354 20.5517 43.968 21.5364 43.977C21.6549 43.9788 22.3446 43.9788 22.4631 43.977C23.3377 43.9694 24.2119 43.9413 25.0852 43.8927C24.5868 41.9579 23.1301 36.2974 23.0638 35.9739C22.9837 35.5836 22.6132 35.4407 21.9812 35.4404Z" fill="#2B3841"></path>
                                            <path d="M17.3773 28.6006L15.9697 30.3157L19.1424 35.8157L21.9813 32.0206L17.3773 28.6006ZM26.6056 28.6006L28.0131 30.3157L24.8405 35.8157L21.9923 32.0206L26.6056 28.6006Z" fill="white"></path>
                                            <path d="M38.3535 37.0584C37.3532 32.9985 36.0881 32.7043 34.4995 32.263C33.515 31.9895 31.1413 31.2418 29.1629 30.6494C28.121 32.8142 25.396 37.811 22.0004 38.8718L21.9997 38.8755L21.9946 38.8738L21.9894 38.8755L21.9887 38.8718C18.5946 37.8115 15.8704 32.8184 14.8275 30.6521C12.8509 31.244 10.483 31.9899 9.49998 32.2629C7.91133 32.7042 6.64633 32.9984 5.64601 37.0583C5.29297 38.3528 4.93994 39.706 4.93994 39.706C4.93994 39.706 8.56532 43.8797 21.5363 43.9985C21.6548 44.0002 22.3446 44.0002 22.463 43.9985C35.434 43.8797 39.0593 39.706 39.0593 39.706C39.0593 39.706 38.7065 38.3529 38.3535 37.0584Z" fill="#333841"></path>
                                            <path d="M34.843 37.459C34.8332 38.5167 34.7313 41.2514 34.4996 42.2456C34.841 42.1233 35.058 42.0419 35.058 42.0419C35.1218 41.2357 35.2807 39.3514 34.843 37.459ZM9.13311 37.459C9.1429 38.5167 9.24484 41.2514 9.47652 42.2456C9.13513 42.1233 8.91811 42.0419 8.91811 42.0419C8.8543 41.2357 8.69534 39.3514 9.13311 37.459Z" fill="#3D454E"></path>
                                            <path d="M7.8042 5.99268H8.42951V13.6404H7.8042V5.99268Z" fill="#FBB342">
                                            </path>
                                            <path d="M9.29532 14.049C9.29532 13.3982 8.76772 12.8706 8.1169 12.8706C7.46608 12.8706 6.93848 13.3982 6.93848 14.049V22.2848H9.29532V14.049Z" fill="#FDD148"></path>
                                            <path d="M8.11712 12.3348C8.78857 12.3348 9.33288 11.771 9.33288 11.0756C9.33288 10.3802 8.78857 9.81641 8.11712 9.81641C7.44568 9.81641 6.90137 10.3802 6.90137 11.0756C6.90137 11.771 7.44568 12.3348 8.11712 12.3348Z" fill="#FDD148"></path>
                                            <path d="M21.9888 10.7983L38.7144 5.51146L21.9807 0L5.24707 5.51146L21.9727 10.7983L21.976 10.8024L21.9807 10.8009L21.9855 10.8024L21.9888 10.7983Z" fill="#333841"></path>
                                            <path d="M22.0477 3.89227L22.0382 3.89209H22.029L22.0196 3.89227C18.088 3.89509 14.9799 4.79215 12.8628 6.13676V12.7424C12.8628 12.7424 16.8277 11.1418 22.0257 13.1225L22.029 13.1272L22.0336 13.1255L22.0382 13.1272L22.0416 13.1225C27.2396 11.1418 31.2044 12.7424 31.2044 12.7424V6.13676C29.0874 4.79215 25.9793 3.89518 22.0477 3.89227Z" fill="#3D454E"></path>
                                        </svg>