<svg width="16" height="17" viewBox="0 0 16 17" fill="none" xmlns="http://www.w3.org/2000/svg">
                                            <path d="M7.75721 0.882189C7.8015 0.881858 7.8015 0.881858 7.84669 0.88152C9.07931 0.874398 9.07931 0.874398 9.59375 0.982286C9.62488 0.988661 9.65601 0.995036 9.68808 1.0016C10.8833 1.25278 11.9157 1.74135 12.8125 2.57604C12.8337 2.59553 12.8549 2.61503 12.8767 2.63512C13.8186 3.53543 14.2197 4.86607 14.2487 6.13803C14.2491 6.15882 14.2496 6.17962 14.25 6.20104C14.2513 6.24039 14.2525 6.27975 14.2538 6.3203C14.286 8.16912 13.668 9.99289 12.3789 11.3319C11.8687 11.8285 11.2409 12.1888 10.5566 12.3827C10.5352 12.3888 10.5137 12.3949 10.4915 12.4011C10.134 12.4961 9.77913 12.525 9.41016 12.5233C9.38958 12.5232 9.36899 12.5232 9.34779 12.5231C8.4768 12.5185 7.87232 12.1877 7.1803 11.6982C7.10104 11.6436 7.02065 11.5933 6.9375 11.5448C6.88361 11.6947 6.84939 11.8435 6.81836 11.9993C6.8074 12.0528 6.79641 12.1064 6.7854 12.1599C6.77964 12.188 6.77389 12.216 6.76797 12.2449C6.47555 13.661 6.10155 15.1817 5.125 16.2948C5.09135 16.3347 5.09135 16.3347 5.05701 16.3754C4.89108 16.5675 4.71079 16.7455 4.5 16.8885C4.46907 16.8885 4.43813 16.8885 4.40625 16.8885C4.39635 16.8046 4.38661 16.7206 4.37696 16.6366C4.37424 16.6137 4.37152 16.5908 4.36872 16.5672C4.32177 16.1551 4.30598 15.7443 4.30664 15.3299C4.30667 15.3061 4.3067 15.2823 4.30673 15.2578C4.31121 13.5613 4.73699 11.9424 5.16397 10.3121C5.24821 9.9901 5.33082 9.66773 5.41173 9.34489C5.42479 9.29283 5.43789 9.24079 5.45104 9.18876C5.50578 8.97205 5.56007 8.75512 5.60608 8.53636C5.61147 8.51099 5.61686 8.48562 5.62242 8.45948C5.62667 8.3429 5.57138 8.26196 5.51392 8.16368C5.45975 8.05856 5.42802 7.95161 5.39844 7.83776C5.38861 7.79997 5.37878 7.76218 5.36866 7.72325C5.18255 6.85659 5.34926 5.92497 5.80376 5.16867C6.04031 4.80559 6.37603 4.5235 6.79724 4.40917C7.23701 4.32594 7.65111 4.40738 8.02649 4.65013C8.28498 4.84576 8.41107 5.10964 8.45887 5.42528C8.54857 6.22596 8.22507 7.04657 7.98984 7.79876C7.56946 9.0107 7.56946 9.0107 7.72266 10.2421C7.89338 10.5517 8.17948 10.6965 8.50904 10.7939C9.07791 10.932 9.62073 10.8665 10.1261 10.5735C10.2706 10.48 10.4027 10.3778 10.5313 10.2635C10.5523 10.245 10.5734 10.2266 10.5951 10.2075C11.4624 9.39563 11.8824 8.00744 11.9409 6.8533C11.9426 6.78703 11.9434 6.72082 11.9439 6.65453C11.9442 6.61811 11.9442 6.61811 11.9445 6.58096C11.9549 5.83866 11.9549 5.83866 11.8438 5.10729C11.8375 5.08166 11.8313 5.05603 11.8249 5.02962C11.607 4.16549 11.1537 3.45501 10.3922 2.97521C10.2839 2.91123 10.1747 2.85154 10.0625 2.79479C10.0341 2.78029 10.0341 2.78029 10.0052 2.7655C9.02 2.27226 7.86845 2.28194 6.83631 2.61766C5.61844 3.03361 4.58049 3.87785 4.00319 5.0349C3.6293 5.82079 3.42328 6.89119 3.71875 7.73229C3.82009 7.97615 3.95037 8.20341 4.08594 8.42955C4.32154 8.82814 4.39317 9.20093 4.28418 9.65453C4.23053 9.82565 4.15804 9.98658 4.0625 10.1385C3.94066 10.1995 3.76623 10.1065 3.64112 10.0651C3.28647 9.94005 2.9659 9.76827 2.6875 9.51354C2.65554 9.48586 2.65554 9.48586 2.62293 9.45763C1.93202 8.82216 1.78679 7.82896 1.74672 6.94081C1.68889 5.34808 2.29093 3.93629 3.36354 2.78098C3.48563 2.65143 3.61129 2.53159 3.75 2.41979C3.78026 2.39461 3.81051 2.36943 3.84168 2.34349C4.93328 1.44879 6.33953 0.889266 7.75721 0.882189Z" fill="#111111"></path>
                                        </svg>