<svg width="18" height="18" viewBox="0 0 18 18" fill="none" xmlns="http://www.w3.org/2000/svg">
                                                        <path d="M7.5454 -0.0109665C7.59445 -0.0108704 7.59445 -0.0108704 7.64449 -0.0107723C8.11568 -0.00921606 8.57327 0.00458865 9.03515 0.105489C9.0795 0.114538 9.0795 0.114538 9.12476 0.12377C10.1409 0.332936 11.1059 0.734124 11.9531 1.33596C11.9762 1.35206 11.9993 1.36817 12.0231 1.38476C13.5844 2.47896 14.6893 4.17532 15.0543 6.04786C15.1323 6.50914 15.1668 6.96599 15.1655 7.43337C15.1655 7.47425 15.1655 7.47425 15.1655 7.51597C15.1597 9.30989 14.4838 11.0937 13.2539 12.4102C13.3009 12.5148 13.3521 12.5873 13.4341 12.6673C13.453 12.686 13.472 12.7047 13.4915 12.724C13.535 12.7642 13.5788 12.8041 13.624 12.8424C13.8373 13.0238 14.0338 13.2211 14.2308 13.4196C14.2934 13.4827 14.3562 13.5456 14.4189 13.6086C14.5747 13.7648 14.7303 13.9213 14.8859 14.0777C15.0178 14.2103 15.1497 14.3428 15.2818 14.4752C15.3432 14.5368 15.4044 14.5985 15.4657 14.6602C15.6365 14.8318 15.8083 14.9996 15.9925 15.157C16.1684 15.3134 16.3325 15.483 16.499 15.6494C16.5402 15.6904 16.5814 15.7315 16.6226 15.7726C16.7084 15.8582 16.7941 15.9439 16.8798 16.0296C16.9896 16.1394 17.0996 16.2489 17.2097 16.3583C17.2946 16.4429 17.3794 16.5276 17.4641 16.6123C17.5046 16.6528 17.5451 16.6932 17.5858 16.7335C17.6424 16.7898 17.6988 16.8463 17.7551 16.9029C17.7872 16.9349 17.8193 16.9669 17.8524 17C18.0028 17.1673 18.0158 17.2963 18.0108 17.5163C17.9939 17.6682 17.9552 17.739 17.8594 17.8594C17.6849 17.9982 17.5466 18.0161 17.3265 18.0187C17.0607 17.969 16.886 17.779 16.7048 17.5928C16.6793 17.5671 16.6538 17.5413 16.6275 17.5148C16.5464 17.4329 16.4657 17.3506 16.385 17.2683C16.3044 17.1865 16.2237 17.1047 16.1429 17.023C16.0928 16.9723 16.0428 16.9215 15.9929 16.8706C15.8835 16.7595 15.7732 16.6522 15.6545 16.5509C15.4687 16.3906 15.2975 16.2155 15.1247 16.0414C15.062 15.9783 14.9993 15.9153 14.9365 15.8524C14.7807 15.6962 14.6252 15.5397 14.4696 15.3833C14.3377 15.2507 14.2057 15.1182 14.0737 14.9858C14.0123 14.9242 13.951 14.8625 13.8898 14.8008C13.7148 14.6251 13.539 14.4527 13.3503 14.2916C13.2494 14.2038 13.1557 14.1093 13.0616 14.0143C13.0417 13.9944 13.0219 13.9744 13.0014 13.9539C12.939 13.8913 12.8767 13.8286 12.8144 13.7659C12.7717 13.723 12.7289 13.68 12.6862 13.6371C12.5824 13.5329 12.4786 13.4286 12.375 13.3242C12.2305 13.3792 12.1184 13.4467 11.9927 13.5374C11.1342 14.1426 10.1978 14.5337 9.17577 14.7656C9.14315 14.7732 9.11053 14.7807 9.07691 14.7885C8.14265 14.9954 7.05394 15.0024 6.11718 14.8008C6.08849 14.7951 6.05981 14.7895 6.03025 14.7837C4.15589 14.4113 2.43699 13.3082 1.33593 11.7422C1.32189 11.7224 1.30786 11.7025 1.29339 11.6821C0.518522 10.5803 0.00539729 9.20647 -0.00838394 7.84989C-0.00872826 7.82159 -0.00907257 7.7933 -0.00942732 7.76414C-0.0296865 5.6654 0.617899 3.79188 2.09234 2.26828C2.13306 2.22693 2.1739 2.18569 2.21484 2.14455C2.23439 2.12485 2.25395 2.10516 2.27409 2.08486C2.76374 1.59765 3.32567 1.21644 3.93044 0.886136C3.9788 0.859654 4.02698 0.832837 4.07487 0.805524C4.73725 0.427851 5.54177 0.185894 6.29296 0.0703323C6.34765 0.0612105 6.34765 0.0612105 6.40344 0.0519044C6.78471 -0.00629258 7.16042 -0.0125299 7.5454 -0.0109665ZM2.75317 3.30031C2.71367 3.3481 2.67496 3.39654 2.63671 3.44533C2.61468 3.47285 2.61468 3.47285 2.5922 3.50093C1.98233 4.26667 1.54603 5.12748 1.32934 6.08425C1.32117 6.12027 1.32117 6.12027 1.31283 6.15702C1.22201 6.58034 1.18159 6.99838 1.18212 7.43117C1.18212 7.45539 1.18211 7.47962 1.18211 7.50457C1.18325 7.96623 1.23582 8.40862 1.33593 8.8594C1.34119 8.88429 1.34644 8.90919 1.35186 8.93484C1.58269 10.007 2.18392 10.9773 2.92236 11.773C2.9421 11.7943 2.96184 11.8156 2.98218 11.8376C3.21655 12.0857 3.47339 12.2975 3.75073 12.4959C3.79233 12.5256 3.79233 12.5256 3.83477 12.556C5.26676 13.5719 6.99006 13.9213 8.71696 13.6497C9.65371 13.4875 10.5545 13.1171 11.3203 12.5508C11.3576 12.5234 11.3949 12.4961 11.4333 12.4679C11.7916 12.2007 12.1243 11.9112 12.4101 11.5664C12.4372 11.5354 12.4643 11.5044 12.4921 11.4725C13.0818 10.7877 13.4985 9.97232 13.7461 9.10549C13.7552 9.07438 13.7644 9.04327 13.7738 9.01122C14.1681 7.63006 13.9963 6.06164 13.3594 4.78127C13.3473 4.75677 13.3353 4.73228 13.3228 4.70704C12.9447 3.94599 12.4268 3.25823 11.7773 2.70705C11.7544 2.6876 11.7315 2.66816 11.7079 2.64812C9.10973 0.476242 5.3089 0.776258 2.75317 3.30031Z" fill="white"></path>
                                                    </svg>