<svg width="180" height="58" viewBox="0 0 180 58" fill="none" xmlns="http://www.w3.org/2000/svg">
                                    <path d="M13.3699 10.3631H24.6723V2.65024H13.3699V10.3631ZM26.0507 13.0134H12.026C11.2679 13.0134 10.6821 12.4357 10.6821 11.6882V1.32512C10.6821 0.611594 11.2679 0 12.026 0H26.0507C26.7743 0 27.3946 0.611594 27.3946 1.32512V11.6882C27.3946 12.4357 26.7743 13.0134 26.0507 13.0134Z" fill="#4DA627"></path>
                                    <path d="M7.02943 10.3633H31.0127C31.7708 10.3633 32.3566 10.9409 32.3566 11.6884C32.3566 14.0328 31.3917 16.1734 29.8411 17.7024C28.256 19.2654 26.1195 20.2167 23.7419 20.2167H14.3347C11.957 20.2167 9.78613 19.2654 8.23549 17.7024C6.65039 16.1734 5.68555 14.0328 5.68555 11.6884C5.68555 10.9409 6.3058 10.3633 7.02943 10.3633Z" fill="#4DA627"></path>
                                    <path d="M9.13149 0C8.40785 0 7.7876 0.611594 7.7876 1.32512C7.7876 2.07262 8.40785 2.65024 9.13149 2.65024H28.9108C29.6688 2.65024 30.2891 2.07262 30.2891 1.32512C30.2891 0.611594 29.6688 0 28.9108 0H9.13149Z" fill="#4DA627"></path>
                                    <path d="M12.4053 53.0732V54.4323C12.4053 56.3691 10.7857 58 8.7871 58C6.7885 58 5.16895 56.3691 5.16895 54.4323V53.0732H5.54799H12.4053Z" fill="#4DA627"></path>
                                    <path d="M32.9097 53.0732V54.4323C32.9097 56.3691 31.2556 58 29.2915 58C27.2929 58 25.6733 56.3691 25.6733 54.4323V53.0732H32.5306H32.9097Z" fill="#4DA627"></path>
                                    <path fill-rule="evenodd" clip-rule="evenodd" d="M6.20256 39.1416V31.3268C6.20256 30.5793 6.82281 30.0017 7.5809 30.0017H30.4959C31.254 30.0017 31.8398 30.5793 31.8398 31.3268V39.1416C31.8398 40.6366 31.2195 42.0297 30.2202 43.015C29.1865 44.0004 27.8081 44.612 26.292 44.612H11.7849C10.2687 44.612 8.85588 44.0004 7.85657 43.015C6.85727 42.0297 6.20256 40.6366 6.20256 39.1416ZM23.742 21.5413H14.3348C11.6815 21.5413 9.166 20.488 7.27078 18.6532C5.41001 16.8184 4.34179 14.3041 4.34179 11.6878C4.34179 11.2461 4.44517 10.8044 4.65192 10.4307C3.48032 10.6006 2.41211 11.1782 1.61956 11.9596C0.620256 12.979 0 14.3381 0 15.8331V46.2429C0 47.7719 0.620256 49.131 1.61956 50.1163C2.54994 51.0337 3.79045 51.6453 5.1688 51.7133C5.30663 51.7472 5.41001 51.7472 5.54784 51.7472H7.85657H9.68288H12.4051H25.6717H28.3595H30.1858H32.529C32.6324 51.7472 32.7702 51.7472 32.908 51.7133C34.2864 51.6453 35.5269 51.0337 36.4573 50.1163C37.4566 49.131 38.0768 47.7719 38.0768 46.2429V15.8331C38.0768 14.3381 37.4566 12.979 36.4573 11.9596C35.6303 11.1782 34.5965 10.6006 33.3904 10.4307C33.5972 10.8044 33.735 11.2461 33.735 11.6878C33.735 14.3041 32.6668 16.8184 30.806 18.6532C28.9108 20.488 26.3953 21.5413 23.742 21.5413Z" fill="#4DA627"></path>
                                    <path d="M169.047 28.3944L166.887 26.0051L175.145 17.2236H179.432L169.047 28.3944ZM165.649 32.7386V11.0176H169.206V32.7386H165.649ZM175.748 32.7386L170.159 24.7018L172.477 22.2815L179.972 32.7386H175.748Z" fill="white"></path>
                                    <path d="M158.679 32.7389L158.521 29.8221V24.7642C158.521 23.7092 158.404 22.83 158.171 22.1267C157.96 21.4026 157.6 20.8544 157.091 20.4821C156.605 20.089 155.948 19.8925 155.122 19.8925C154.36 19.8925 153.693 20.0477 153.122 20.358C152.55 20.6683 152.063 21.1544 151.661 21.8164L148.549 20.6993C148.887 20.0166 149.332 19.3857 149.882 18.8065C150.454 18.2065 151.163 17.7307 152.01 17.3791C152.878 17.0274 153.916 16.8516 155.122 16.8516C156.668 16.8516 157.96 17.1515 158.997 17.7514C160.034 18.3307 160.797 19.1685 161.284 20.2649C161.792 21.3613 162.046 22.6852 162.046 24.2367L161.95 32.7389H158.679ZM154.106 33.1113C152.201 33.1113 150.719 32.6976 149.66 31.8701C148.623 31.0426 148.104 29.8738 148.104 28.3637C148.104 26.7501 148.654 25.5193 149.755 24.6711C150.878 23.823 152.434 23.3989 154.424 23.3989H158.679V26.0675H155.567C154.149 26.0675 153.154 26.264 152.582 26.657C152.01 27.0294 151.724 27.5673 151.724 28.2706C151.724 28.8705 151.968 29.3463 152.455 29.698C152.963 30.029 153.662 30.1945 154.551 30.1945C155.355 30.1945 156.054 30.0186 156.647 29.667C157.24 29.3153 157.695 28.8498 158.012 28.2706C158.351 27.6914 158.521 27.0398 158.521 26.3157H159.569C159.569 28.4258 159.135 30.091 158.267 31.3116C157.398 32.5114 156.012 33.1113 154.106 33.1113Z" fill="white"></path>
                                    <path d="M138.584 33.1113C137.038 33.1113 135.662 32.77 134.455 32.0873C133.27 31.384 132.328 30.422 131.629 29.2015C130.952 27.981 130.613 26.5743 130.613 24.9814C130.613 23.3886 130.962 21.9819 131.661 20.7613C132.359 19.5408 133.312 18.5892 134.519 17.9066C135.747 17.2032 137.144 16.8516 138.711 16.8516C140.13 16.8516 141.41 17.2136 142.554 17.9376C143.697 18.641 144.597 19.665 145.253 21.0096C145.931 22.3542 146.269 23.9574 146.269 25.8192H133.789L134.265 25.3848C134.265 26.3364 134.477 27.1639 134.9 27.8672C135.324 28.5499 135.885 29.0774 136.583 29.4497C137.282 29.8221 138.055 30.0083 138.902 30.0083C139.875 30.0083 140.68 29.8014 141.315 29.3877C141.95 28.9533 142.448 28.3947 142.808 27.7121L145.952 29.0153C145.507 29.8428 144.936 30.5668 144.237 31.1874C143.559 31.808 142.744 32.2838 141.792 32.6148C140.86 32.9458 139.791 33.1113 138.584 33.1113ZM134.487 23.5851L133.979 23.1507H142.935L142.458 23.5851C142.458 22.7369 142.268 22.0439 141.887 21.5061C141.506 20.9475 141.019 20.5338 140.426 20.2649C139.854 19.9753 139.251 19.8304 138.616 19.8304C137.981 19.8304 137.345 19.9753 136.71 20.2649C136.075 20.5338 135.546 20.9475 135.122 21.5061C134.699 22.0439 134.487 22.7369 134.487 23.5851Z" fill="white"></path>
                                    <path d="M112.711 38.9449V17.2239H116.046L116.268 20.0787V38.9449H112.711ZM121.286 33.1113C119.952 33.1113 118.798 32.7803 117.824 32.1183C116.872 31.4357 116.141 30.4841 115.633 29.2636C115.125 28.0431 114.871 26.6157 114.871 24.9814C114.871 23.3265 115.125 21.8991 115.633 20.6993C116.141 19.4788 116.872 18.5375 117.824 17.8756C118.798 17.1929 119.952 16.8516 121.286 16.8516C122.726 16.8516 123.975 17.1929 125.033 17.8756C126.113 18.5375 126.95 19.4788 127.542 20.6993C128.156 21.8991 128.463 23.3265 128.463 24.9814C128.463 26.6157 128.156 28.0431 127.542 29.2636C126.95 30.4841 126.113 31.4357 125.033 32.1183C123.975 32.7803 122.726 33.1113 121.286 33.1113ZM120.397 29.9462C121.244 29.9462 121.995 29.7394 122.652 29.3256C123.308 28.8912 123.827 28.3016 124.208 27.5569C124.61 26.8122 124.811 25.9537 124.811 24.9814C124.811 24.0092 124.621 23.1507 124.24 22.4059C123.88 21.6612 123.371 21.082 122.715 20.6683C122.059 20.2545 121.297 20.0477 120.429 20.0477C119.624 20.0477 118.904 20.2545 118.269 20.6683C117.634 21.082 117.136 21.6612 116.776 22.4059C116.438 23.1507 116.268 24.0092 116.268 24.9814C116.268 25.9537 116.438 26.8122 116.776 27.5569C117.136 28.3016 117.623 28.8912 118.237 29.3256C118.872 29.7394 119.592 29.9462 120.397 29.9462Z" fill="white"></path>
                                    <path d="M103.366 24.4832C103.366 22.8076 103.694 21.432 104.35 20.3562C105.007 19.2805 105.853 18.4841 106.891 17.9669C107.949 17.4291 109.05 17.1602 110.194 17.1602V20.4804C109.22 20.4804 108.299 20.6148 107.431 20.8838C106.584 21.132 105.896 21.5457 105.366 22.125C104.837 22.7042 104.573 23.4696 104.573 24.4212L103.366 24.4832ZM101.016 32.7372V17.2222H104.573V32.7372H101.016Z" fill="white"></path>
                                    <path d="M93.7294 32.7386L93.5389 29.8839V17.2236H97.064V32.7386H93.7294ZM82.7412 25.1673V17.2236H86.2981V25.1673H82.7412ZM86.2981 25.1673C86.2981 26.3878 86.4463 27.3394 86.7427 28.0221C87.0391 28.7047 87.4414 29.1805 87.9495 29.4495C88.4788 29.7184 89.0822 29.8529 89.7597 29.8529C90.9665 29.8735 91.8981 29.4908 92.5544 28.7047C93.2107 27.9186 93.5389 26.7912 93.5389 25.3225H94.8727C94.8727 26.9567 94.6186 28.3634 94.1105 29.5426C93.6236 30.701 92.9249 31.5905 92.0145 32.2111C91.1253 32.811 90.0455 33.111 88.7752 33.111C87.5261 33.111 86.4463 32.8628 85.5359 32.3663C84.6467 31.8698 83.9586 31.0941 83.4716 30.039C82.9847 28.984 82.7412 27.629 82.7412 25.9741V25.1673H86.2981Z" fill="white"></path>
                                    <path d="M71.9411 33.1113C70.3532 33.1113 68.9347 32.77 67.6855 32.0873C66.4576 31.384 65.4942 30.422 64.7956 29.2015C64.0969 27.981 63.7476 26.5743 63.7476 24.9814C63.7476 23.3886 64.0863 21.9819 64.7638 20.7613C65.4625 19.5408 66.4258 18.5892 67.6538 17.9066C68.8817 17.2032 70.2897 16.8516 71.8776 16.8516C73.4655 16.8516 74.8734 17.2032 76.1014 17.9066C77.3293 18.5892 78.2821 19.5408 78.9596 20.7613C79.6582 21.9819 80.0076 23.3886 80.0076 24.9814C80.0076 26.5743 79.6688 27.981 78.9913 29.2015C78.3138 30.422 77.3611 31.384 76.1331 32.0873C74.9052 32.77 73.5078 33.1113 71.9411 33.1113ZM71.9411 29.9152C72.8091 29.9152 73.5819 29.7083 74.2594 29.2946C74.9369 28.8602 75.4662 28.281 75.8473 27.5569C76.2284 26.8122 76.4189 25.9537 76.4189 24.9814C76.4189 24.0092 76.2178 23.161 75.8155 22.437C75.4344 21.6922 74.9051 21.113 74.2276 20.6993C73.5501 20.2649 72.7668 20.0477 71.8776 20.0477C70.9883 20.0477 70.205 20.2545 69.5275 20.6683C68.85 21.082 68.3207 21.6612 67.9396 22.4059C67.5585 23.1507 67.368 24.0092 67.368 24.9814C67.368 25.9537 67.5585 26.8122 67.9396 27.5569C68.3419 28.281 68.8817 28.8602 69.5592 29.2946C70.2579 29.7083 71.0519 29.9152 71.9411 29.9152Z" fill="white"></path>
                                    <path d="M53.7816 32.7386V14.3068H46.9536V11.0176H64.2934V14.3068H57.4655V32.7386H53.7816Z" fill="white"></path>
                                    <rect x="112.174" y="12.0518" width="4.23438" height="4.13734" fill="#F38035"></rect>
                                    <g opacity="0.7">
                                        <path d="M177.306 51.9587C176.726 51.9587 176.214 51.8305 175.769 51.5743C175.324 51.3103 174.974 50.9492 174.72 50.4911C174.473 50.033 174.35 49.505 174.35 48.9071C174.35 48.3092 174.473 47.7812 174.72 47.323C174.974 46.8649 175.32 46.5077 175.757 46.2515C176.202 45.9875 176.71 45.8555 177.283 45.8555C177.839 45.8555 178.32 45.9914 178.725 46.2631C179.13 46.5271 179.444 46.8998 179.667 47.3813C179.889 47.8627 180 48.4295 180 49.0818H175.077L175.316 48.8838C175.316 49.3497 175.399 49.7495 175.566 50.0834C175.741 50.4173 175.983 50.6736 176.293 50.8522C176.603 51.023 176.957 51.1084 177.354 51.1084C177.775 51.1084 178.129 51.0113 178.415 50.8172C178.709 50.6231 178.936 50.3669 179.094 50.0485L179.917 50.4562C179.766 50.759 179.563 51.023 179.309 51.2482C179.063 51.4734 178.769 51.6481 178.427 51.7723C178.093 51.8965 177.72 51.9587 177.306 51.9587ZM175.375 48.4878L175.125 48.3014H179.237L178.987 48.4994C178.987 48.1267 178.912 47.8045 178.761 47.5327C178.61 47.2609 178.407 47.0513 178.153 46.9037C177.898 46.7562 177.604 46.6824 177.271 46.6824C176.945 46.6824 176.635 46.7562 176.341 46.9037C176.055 47.0513 175.82 47.2609 175.638 47.5327C175.463 47.7967 175.375 48.115 175.375 48.4878Z" fill="white"></path>
                                        <path d="M171.192 48.6622C171.192 48.0333 171.315 47.5247 171.561 47.1364C171.807 46.7404 172.121 46.4492 172.503 46.2629C172.892 46.0687 173.301 45.9717 173.731 45.9717V46.8452C173.381 46.8452 173.043 46.9035 172.717 47.0199C172.399 47.1286 172.137 47.3111 171.931 47.5674C171.724 47.8236 171.621 48.173 171.621 48.6156L171.192 48.6622ZM170.667 51.8186V45.995H171.621V51.8186H170.667Z" fill="white"></path>
                                        <path d="M168.109 51.8188L168.049 50.7472V45.9951H169.003V51.8188H168.109ZM163.865 48.9768V45.9951H164.819V48.9768H163.865ZM164.819 48.9768C164.819 49.5514 164.886 49.9901 165.022 50.293C165.157 50.5958 165.343 50.8055 165.582 50.9219C165.828 51.0306 166.102 51.085 166.404 51.085C166.921 51.085 167.322 50.9025 167.608 50.5376C167.902 50.1726 168.049 49.664 168.049 49.0118H168.514C168.514 49.6252 168.423 50.1532 168.24 50.5958C168.057 51.0384 167.791 51.3762 167.441 51.6091C167.1 51.8421 166.678 51.9585 166.178 51.9585C165.717 51.9585 165.312 51.8692 164.962 51.6906C164.612 51.5043 164.342 51.2131 164.151 50.8171C163.961 50.4133 163.865 49.8931 163.865 49.2564V48.9768H164.819Z" fill="white"></path>
                                        <path d="M161.756 51.9581C161.176 51.9581 160.727 51.8106 160.409 51.5155C160.091 51.2205 159.932 50.805 159.932 50.2693V44.1777H160.886V50.1761C160.886 50.4712 160.965 50.7002 161.124 50.8633C161.291 51.0186 161.521 51.0962 161.816 51.0962C161.911 51.0962 162.002 51.0846 162.09 51.0613C162.185 51.0302 162.308 50.9603 162.459 50.8516L162.829 51.6087C162.622 51.7407 162.435 51.83 162.269 51.8766C162.102 51.931 161.931 51.9581 161.756 51.9581ZM158.895 46.8217V45.9947H162.674V46.8217H158.895Z" fill="white"></path>
                                        <path d="M152.868 51.8189V45.9952H153.762L153.821 47.0668V51.8189H152.868ZM157.052 51.8189V48.8372H158.005V51.8189H157.052ZM157.052 48.8372C157.052 48.2626 156.984 47.8239 156.849 47.521C156.714 47.2182 156.527 47.0124 156.289 46.9037C156.05 46.7873 155.78 46.729 155.478 46.729C154.954 46.729 154.544 46.9115 154.25 47.2764C153.964 47.6336 153.821 48.1422 153.821 48.8022H153.356C153.356 48.1888 153.448 47.6608 153.631 47.2182C153.813 46.7756 154.08 46.4378 154.429 46.2049C154.779 45.9719 155.2 45.8555 155.693 45.8555C156.162 45.8555 156.567 45.9486 156.909 46.135C157.258 46.3136 157.529 46.6009 157.719 46.9969C157.918 47.3929 158.013 47.9132 158.005 48.5576V48.8372H157.052Z" fill="white"></path>
                                        <path d="M148.972 51.9587C148.392 51.9587 147.879 51.8305 147.434 51.5743C146.989 51.3103 146.639 50.9492 146.385 50.4911C146.139 50.033 146.016 49.505 146.016 48.9071C146.016 48.3092 146.139 47.7812 146.385 47.323C146.639 46.8649 146.985 46.5077 147.422 46.2515C147.867 45.9875 148.376 45.8555 148.948 45.8555C149.504 45.8555 149.985 45.9914 150.39 46.2631C150.796 46.5271 151.11 46.8998 151.332 47.3813C151.555 47.8627 151.666 48.4295 151.666 49.0818H146.743L146.981 48.8838C146.981 49.3497 147.065 49.7495 147.232 50.0834C147.406 50.4173 147.649 50.6736 147.959 50.8522C148.269 51.023 148.622 51.1084 149.02 51.1084C149.441 51.1084 149.794 51.0113 150.081 50.8172C150.375 50.6231 150.601 50.3669 150.76 50.0485L151.582 50.4562C151.432 50.759 151.229 51.023 150.975 51.2482C150.728 51.4734 150.434 51.6481 150.092 51.7723C149.759 51.8965 149.385 51.9587 148.972 51.9587ZM147.041 48.4878L146.79 48.3014H150.903L150.653 48.4994C150.653 48.1267 150.577 47.8045 150.426 47.5327C150.275 47.2609 150.073 47.0513 149.818 46.9037C149.564 46.7562 149.27 46.6824 148.936 46.6824C148.61 46.6824 148.3 46.7562 148.006 46.9037C147.72 47.0513 147.486 47.2609 147.303 47.5327C147.128 47.7967 147.041 48.115 147.041 48.4878Z" fill="white"></path>
                                        <path d="M142.131 51.8188L144.563 45.9951H145.564L143.073 51.8188H142.131ZM142.071 51.8188L139.58 45.9951H140.569L143.001 51.8188H142.071Z" fill="white"></path>
                                        <path d="M137.733 51.8191L137.686 50.7359V43.666H138.639V51.8191H137.733ZM135.671 51.9589C135.139 51.9589 134.67 51.8308 134.264 51.5745C133.859 51.3183 133.541 50.9611 133.311 50.503C133.088 50.0371 132.977 49.5052 132.977 48.9073C132.977 48.3016 133.088 47.7697 133.311 47.3116C133.541 46.8535 133.859 46.4963 134.264 46.2401C134.67 45.9838 135.139 45.8557 135.671 45.8557C136.172 45.8557 136.609 45.9838 136.982 46.2401C137.364 46.4963 137.658 46.8535 137.864 47.3116C138.071 47.7697 138.174 48.3016 138.174 48.9073C138.174 49.5052 138.071 50.0371 137.864 50.503C137.658 50.9611 137.364 51.3183 136.982 51.5745C136.609 51.8308 136.172 51.9589 135.671 51.9589ZM135.886 51.1086C136.235 51.1086 136.545 51.0155 136.815 50.8291C137.086 50.6427 137.296 50.3826 137.447 50.0487C137.606 49.7148 137.686 49.3344 137.686 48.9073C137.686 48.4802 137.606 48.0998 137.447 47.7659C137.296 47.432 137.086 47.1719 136.815 46.9855C136.545 46.7991 136.231 46.706 135.874 46.706C135.5 46.706 135.166 46.7991 134.872 46.9855C134.586 47.1719 134.36 47.432 134.193 47.7659C134.026 48.0998 133.943 48.4802 133.943 48.9073C133.943 49.3344 134.026 49.7148 134.193 50.0487C134.36 50.3826 134.59 50.6427 134.884 50.8291C135.178 51.0155 135.512 51.1086 135.886 51.1086Z" fill="white"></path>
                                        <path d="M131.393 51.8191L128.043 43.666H129.057L132.454 51.8191H131.393ZM124.61 51.8191L128.008 43.666H129.033L125.683 51.8191H124.61ZM126.22 49.5013V48.6161H130.857V49.5013H126.22Z" fill="white"></path>
                                        <path d="M119.598 47.3347L118.465 45.6459L118.99 45.2848L120.277 46.8572L119.598 47.3347ZM117.822 47.3697L117.13 46.8805L118.43 45.3081L118.954 45.6808L117.822 47.3697ZM118.584 45.7857L116.594 45.2499L116.856 44.4695L118.787 45.1916L118.584 45.7857ZM118.37 45.4945L118.263 43.4795H119.097L119.002 45.4945H118.37ZM118.775 45.7973L118.596 45.2033L120.528 44.4928L120.778 45.2615L118.775 45.7973Z" fill="white"></path>
                                        <path d="M111.088 51.8191V43.666H112.041V51.8191H111.088Z" fill="white"></path>
                                        <path d="M107.191 51.9587C106.611 51.9587 106.098 51.8305 105.653 51.5743C105.208 51.3103 104.859 50.9492 104.604 50.4911C104.358 50.033 104.235 49.505 104.235 48.9071C104.235 48.3092 104.358 47.7812 104.604 47.323C104.859 46.8649 105.204 46.5077 105.641 46.2515C106.087 45.9875 106.595 45.8555 107.167 45.8555C107.724 45.8555 108.204 45.9914 108.61 46.2631C109.015 46.5271 109.329 46.8998 109.551 47.3813C109.774 47.8627 109.885 48.4295 109.885 49.0818H104.962L105.2 48.8838C105.2 49.3497 105.284 49.7495 105.451 50.0834C105.626 50.4173 105.868 50.6736 106.178 50.8522C106.488 51.023 106.841 51.1084 107.239 51.1084C107.66 51.1084 108.014 51.0113 108.3 50.8172C108.594 50.6231 108.82 50.3669 108.979 50.0485L109.802 50.4562C109.651 50.759 109.448 51.023 109.194 51.2482C108.947 51.4734 108.653 51.6481 108.312 51.7723C107.978 51.8965 107.604 51.9587 107.191 51.9587ZM105.26 48.4878L105.01 48.3014H109.122L108.872 48.4994C108.872 48.1267 108.796 47.8045 108.645 47.5327C108.494 47.2609 108.292 47.0513 108.037 46.9037C107.783 46.7562 107.489 46.6824 107.155 46.6824C106.83 46.6824 106.52 46.7562 106.226 46.9037C105.939 47.0513 105.705 47.2609 105.522 47.5327C105.347 47.7967 105.26 48.115 105.26 48.4878Z" fill="white"></path>
                                        <path d="M100.351 51.8188L102.783 45.9951H103.784L101.293 51.8188H100.351ZM100.292 51.8188L97.8003 45.9951H98.7897L101.221 51.8188H100.292Z" fill="white"></path>
                                        <path d="M96.2154 51.8189L96.1678 50.8638V48.744C96.1678 48.2859 96.1161 47.9093 96.0128 47.6142C95.9095 47.3114 95.7466 47.0823 95.5241 46.927C95.3015 46.7717 95.0115 46.6941 94.6539 46.6941C94.328 46.6941 94.0459 46.7601 93.8075 46.8921C93.577 47.0163 93.3863 47.2182 93.2353 47.4977L92.377 47.1716C92.528 46.8998 92.7108 46.6669 92.9254 46.4728C93.14 46.2709 93.3903 46.1195 93.6764 46.0185C93.9625 45.9098 94.2883 45.8555 94.6539 45.8555C95.2102 45.8555 95.6671 45.9642 96.0247 46.1816C96.3903 46.3912 96.6645 46.7057 96.8472 47.125C97.03 47.5366 97.1174 48.049 97.1095 48.6625L97.0976 51.8189H96.2154ZM94.4274 51.9587C93.728 51.9587 93.1797 51.8034 92.7823 51.4928C92.3929 51.1744 92.1982 50.7357 92.1982 50.1766C92.1982 49.5865 92.3969 49.1361 92.7943 48.8255C93.1996 48.5072 93.7638 48.348 94.487 48.348H96.1916V49.1284H94.7015C94.1453 49.1284 93.7479 49.2177 93.5095 49.3962C93.279 49.5748 93.1638 49.8311 93.1638 50.165C93.1638 50.4678 93.279 50.7085 93.5095 50.8871C93.74 51.0579 94.0618 51.1433 94.4751 51.1433C94.8168 51.1433 95.1148 51.0735 95.3691 50.9337C95.6234 50.7862 95.8181 50.5804 95.9532 50.3164C96.0962 50.0446 96.1678 49.7263 96.1678 49.3613H96.5731C96.5731 50.1533 96.3903 50.7862 96.0247 51.2598C95.6592 51.7257 95.1267 51.9587 94.4274 51.9587Z" fill="white"></path>
                                        <path d="M89.0401 48.6622C89.0401 48.0333 89.1633 47.5247 89.4097 47.1364C89.656 46.7404 89.9699 46.4492 90.3514 46.2629C90.7408 46.0687 91.1501 45.9717 91.5792 45.9717V46.8452C91.2295 46.8452 90.8918 46.9035 90.5659 47.0199C90.2481 47.1286 89.9858 47.3111 89.7792 47.5674C89.5726 47.8236 89.4693 48.173 89.4693 48.6156L89.0401 48.6622ZM88.5156 51.8186V45.995H89.4693V51.8186H88.5156Z" fill="white"></path>
                                        <path d="M84.4522 51.8191V44.5629H81.7939V43.666H88.1118V44.5629H85.4535V51.8191H84.4522Z" fill="white"></path>
                                        <path d="M76.7584 47.3347L75.6259 45.6459L76.1504 45.2848L77.4378 46.8572L76.7584 47.3347ZM74.9822 47.3697L74.2908 46.8805L75.5902 45.3081L76.1147 45.6808L74.9822 47.3697ZM75.7451 45.7857L73.7544 45.2499L74.0166 44.4695L75.9478 45.1916L75.7451 45.7857ZM75.5305 45.4945L75.4233 43.4795H76.2577L76.1623 45.4945H75.5305ZM75.9358 45.7973L75.757 45.2033L77.6882 44.4928L77.9385 45.2615L75.9358 45.7973Z" fill="white"></path>
                                        <path d="M67.3648 48.6622C67.3648 48.0333 67.488 47.5247 67.7344 47.1364C67.9807 46.7404 68.2946 46.4492 68.6761 46.2629C69.0655 46.0687 69.4748 45.9717 69.9039 45.9717V46.8452C69.5542 46.8452 69.2165 46.9035 68.8907 47.0199C68.5728 47.1286 68.3105 47.3111 68.1039 47.5674C67.8973 47.8236 67.794 48.173 67.794 48.6156L67.3648 48.6622ZM66.8403 51.8186V45.995H67.794V51.8186H66.8403Z" fill="white"></path>
                                        <path d="M64.2818 51.8188L64.2222 50.7472V45.9951H65.1758V51.8188H64.2818ZM60.0381 48.9768V45.9951H60.9917V48.9768H60.0381ZM60.9917 48.9768C60.9917 49.5514 61.0593 49.9901 61.1944 50.293C61.3295 50.5958 61.5162 50.8055 61.7546 50.9219C62.001 51.0306 62.2752 51.085 62.5772 51.085C63.0937 51.085 63.495 50.9025 63.7811 50.5376C64.0752 50.1726 64.2222 49.664 64.2222 49.0118H64.6871C64.6871 49.6252 64.5957 50.1532 64.4129 50.5958C64.2301 51.0384 63.9639 51.3762 63.6142 51.6091C63.2725 51.8421 62.8513 51.9585 62.3507 51.9585C61.8897 51.9585 61.4844 51.8692 61.1348 51.6906C60.7851 51.5043 60.5149 51.2131 60.3242 50.8171C60.1335 50.4133 60.0381 49.8931 60.0381 49.2564V48.9768H60.9917Z" fill="white"></path>
                                        <path d="M55.9132 51.9587C55.3331 51.9587 54.8165 51.8305 54.3636 51.5743C53.9185 51.3103 53.5689 50.9492 53.3146 50.4911C53.0603 50.033 52.9331 49.505 52.9331 48.9071C52.9331 48.3092 53.0563 47.7812 53.3026 47.323C53.5569 46.8649 53.9066 46.5077 54.3516 46.2515C54.8046 45.9875 55.3172 45.8555 55.8894 45.8555C56.4775 45.8555 56.994 45.9875 57.4391 46.2515C57.892 46.5077 58.2417 46.8649 58.4881 47.323C58.7424 47.7812 58.8695 48.3092 58.8695 48.9071C58.8695 49.505 58.7424 50.033 58.4881 50.4911C58.2417 50.9492 57.896 51.3103 57.451 51.5743C57.0059 51.8305 56.4934 51.9587 55.9132 51.9587ZM55.9132 51.0968C56.3106 51.0968 56.6563 51.0036 56.9503 50.8172C57.2444 50.6309 57.4748 50.3746 57.6417 50.0485C57.8165 49.7224 57.904 49.3419 57.904 48.9071C57.904 48.4722 57.8165 48.0918 57.6417 47.7656C57.4748 47.4395 57.2404 47.1833 56.9384 46.9969C56.6364 46.8105 56.2867 46.7174 55.8894 46.7174C55.5 46.7174 55.1543 46.8105 54.8523 46.9969C54.5583 47.1833 54.3238 47.4395 54.149 47.7656C53.9821 48.0918 53.8987 48.4722 53.8987 48.9071C53.8987 49.3341 53.9821 49.7146 54.149 50.0485C54.3238 50.3746 54.5622 50.6309 54.8642 50.8172C55.1742 51.0036 55.5238 51.0968 55.9132 51.0968Z" fill="white"></path>
                                        <path d="M49.3892 51.8191V44.5629H46.731V43.666H53.0488V44.5629H50.3905V51.8191H49.3892Z" fill="white"></path>
                                    </g>
                                </svg>