<svg width="16" height="17" viewBox="0 0 16 17" fill="none" xmlns="http://www.w3.org/2000/svg">
                                            <path d="M10.2168 2.89381C10.248 2.89368 10.248 2.89368 10.28 2.89354C10.39 2.89308 10.5 2.89279 10.6101 2.89265C10.7232 2.89248 10.8363 2.89172 10.9494 2.89084C11.037 2.89025 11.1247 2.89009 11.2123 2.89004C11.2741 2.8899 11.336 2.88932 11.3979 2.88873C11.4356 2.88883 11.4734 2.88892 11.5123 2.88902C11.5454 2.8889 11.5784 2.88879 11.6125 2.88867C11.727 2.90266 11.7984 2.92915 11.894 2.99391C11.9558 3.12124 11.9645 3.2369 11.9651 3.37708C11.9654 3.41515 11.9657 3.45322 11.966 3.49244C11.9659 3.55353 11.9659 3.55353 11.9659 3.61585C11.966 3.6585 11.9662 3.70115 11.9663 3.7438C11.9665 3.83297 11.9665 3.92215 11.9664 4.01132C11.9662 4.12515 11.9667 4.23897 11.9674 4.3528C11.9679 4.44082 11.9679 4.52883 11.9678 4.61685C11.9679 4.67908 11.9683 4.7413 11.9687 4.80353C11.9669 5.16579 11.9669 5.16579 11.8628 5.33766C11.7662 5.40205 11.7447 5.40807 11.6352 5.40913C11.5948 5.40976 11.5948 5.40976 11.5536 5.4104C11.5245 5.41056 11.4954 5.41073 11.4654 5.4109C11.4352 5.41136 11.405 5.41181 11.3739 5.41228C11.2771 5.41374 11.1803 5.4148 11.0835 5.41578C10.4297 5.38578 10.4297 5.38578 9.8315 5.58766C9.72719 5.73294 9.70307 5.85627 9.70008 6.03227C9.69946 6.06479 9.69884 6.09732 9.69819 6.13083C9.69767 6.16572 9.69715 6.20062 9.69661 6.23658C9.69564 6.29042 9.69564 6.29042 9.69464 6.34534C9.6926 6.45997 9.69076 6.57459 9.68892 6.68922C9.68757 6.76694 9.68621 6.84466 9.68483 6.92237C9.68149 7.11288 9.67831 7.30339 9.67525 7.49391C9.7129 7.49339 9.7129 7.49339 9.75131 7.49285C9.9881 7.48972 10.2249 7.48734 10.4617 7.48581C10.5834 7.485 10.7051 7.48389 10.8269 7.48212C10.9444 7.48042 11.0619 7.47949 11.1794 7.47908C11.2242 7.47879 11.269 7.47823 11.3138 7.47739C11.3766 7.47625 11.4395 7.47619 11.5023 7.47617C11.538 7.47582 11.5738 7.47547 11.6106 7.47512C11.7392 7.50032 11.7842 7.54666 11.8628 7.65016C11.8979 7.77793 11.8981 7.9036 11.8985 8.0357C11.8987 8.07429 11.8989 8.11289 11.8991 8.15265C11.8992 8.19438 11.8992 8.23611 11.8992 8.27784C11.8993 8.32111 11.8995 8.36439 11.8996 8.40766C11.8998 8.49818 11.8998 8.58869 11.8998 8.67921C11.8998 8.79464 11.9002 8.91007 11.9008 9.02551C11.9011 9.11484 11.9012 9.20417 11.9011 9.2935C11.9012 9.35658 11.9015 9.41965 11.9019 9.48272C11.9014 9.68337 11.9005 9.86658 11.8315 10.0564C11.6874 10.1525 11.5591 10.1541 11.3888 10.1537C11.3506 10.1537 11.3125 10.1537 11.2732 10.1537C11.2323 10.1535 11.1914 10.1534 11.1492 10.1532C11.1067 10.1531 11.0642 10.1531 11.0217 10.1531C10.9102 10.153 10.7986 10.1526 10.6871 10.1523C10.5731 10.152 10.4592 10.1518 10.3452 10.1517C10.1219 10.1513 9.89858 10.1508 9.67525 10.1502C9.67531 10.1776 9.67537 10.2049 9.67542 10.2332C9.6768 10.8995 9.67784 11.5659 9.67849 12.2323C9.67881 12.5545 9.67925 12.8768 9.67997 13.199C9.68059 13.4799 9.68099 13.7607 9.68113 14.0416C9.68121 14.1903 9.6814 14.339 9.68186 14.4877C9.68228 14.6277 9.68241 14.7677 9.68232 14.9076C9.68234 14.959 9.68246 15.0104 9.6827 15.0618C9.68301 15.132 9.68294 15.2021 9.68277 15.2722C9.68282 15.3115 9.68288 15.3508 9.68294 15.3912C9.6754 15.4919 9.65837 15.5606 9.61275 15.6502C9.50765 15.7318 9.38559 15.7219 9.25802 15.7217C9.23509 15.7219 9.21216 15.7222 9.18853 15.7224C9.11285 15.723 9.03718 15.7231 8.9615 15.7232C8.90881 15.7234 8.85611 15.7236 8.80342 15.7238C8.69301 15.7242 8.5826 15.7243 8.47219 15.7242C8.33082 15.7242 8.18946 15.7251 8.04809 15.7262C7.93927 15.7269 7.83046 15.727 7.72164 15.7269C7.66952 15.727 7.6174 15.7273 7.56529 15.7278C7.49235 15.7284 7.41946 15.7282 7.34652 15.7278C7.32507 15.7282 7.30362 15.7285 7.28152 15.7289C7.17423 15.7275 7.11418 15.7135 7.02197 15.657C6.90613 15.5343 6.92137 15.4098 6.92149 15.2459C6.92147 15.2241 6.92144 15.2023 6.92141 15.1799C6.92136 15.1068 6.92153 15.0338 6.9217 14.9608C6.92171 14.9084 6.92171 14.8561 6.92169 14.8037C6.92168 14.6616 6.92186 14.5194 6.92208 14.3772C6.92228 14.2287 6.9223 14.0801 6.92233 13.9316C6.92243 13.6502 6.92269 13.3689 6.923 13.0876C6.92335 12.7673 6.92352 12.447 6.92368 12.1267C6.924 11.4679 6.92455 10.809 6.92525 10.1502C6.89347 10.1505 6.89347 10.1505 6.86105 10.1508C6.64054 10.1529 6.42003 10.1543 6.1995 10.1553C6.11721 10.1558 6.03491 10.1564 5.95262 10.1572C5.83432 10.1584 5.71604 10.1589 5.59774 10.1593C5.56095 10.1598 5.52416 10.1603 5.48625 10.1608C5.43465 10.1608 5.43465 10.1608 5.38201 10.1608C5.33673 10.1611 5.33673 10.1611 5.29054 10.1614C5.18959 10.1479 5.13129 10.1175 5.05025 10.0564C5.01387 9.94727 5.01413 9.86027 5.01297 9.74508C5.01272 9.72307 5.01246 9.70106 5.0122 9.67837C5.01142 9.60557 5.01091 9.53277 5.01046 9.45997C5.01029 9.43508 5.01012 9.4102 5.00995 9.38456C5.00912 9.25287 5.00851 9.12119 5.00806 8.98951C5.00764 8.88057 5.00677 8.77164 5.0055 8.6627C5.00396 8.53109 5.00318 8.39949 5.00296 8.26787C5.00275 8.21776 5.00227 8.16765 5.00152 8.11754C5.00054 8.04736 5.00053 7.97725 5.00077 7.90707C5.00051 7.86717 5.00026 7.82728 5 7.78617C5.02443 7.65149 5.06603 7.60587 5.17525 7.52516C5.26048 7.50637 5.26048 7.50637 5.35363 7.50742C5.38866 7.50743 5.42368 7.50744 5.45977 7.50745C5.49724 7.50826 5.53471 7.50907 5.57332 7.5099C5.61194 7.51012 5.65057 7.51034 5.69036 7.51057C5.79266 7.51129 5.89492 7.51269 5.99721 7.51443C6.10174 7.51603 6.20627 7.51673 6.31081 7.51753C6.51564 7.51925 6.72044 7.52186 6.92525 7.52516C6.92511 7.50605 6.92497 7.48694 6.92483 7.46725C6.92343 7.26543 6.9225 7.06361 6.92182 6.86178C6.92151 6.78681 6.92108 6.71184 6.92054 6.63687C6.91282 5.54969 6.91282 5.54969 7.05416 5.03687C7.06073 5.01259 7.0673 4.9883 7.07407 4.96327C7.18244 4.58704 7.37006 4.23813 7.61275 3.93141C7.63124 3.9078 7.64973 3.88419 7.66878 3.85987C8.1619 3.26813 8.92708 2.97861 9.67704 2.90664C9.85676 2.89397 10.0367 2.8944 10.2168 2.89381Z" fill="#111111"></path>
                                        </svg>