<svg width="18" height="18" viewBox="0 0 18 18" fill="none" xmlns="http://www.w3.org/2000/svg">
                                            <path fill-rule="evenodd" clip-rule="evenodd" d="M5.661 16.2006C12.4533 16.2006 16.1685 10.6598 16.1685 5.85543C16.1685 5.69771 16.1685 5.54117 16.1577 5.38522C16.8804 4.87128 17.5041 4.23317 18 3.50304C17.3268 3.79722 16.6113 3.99015 15.8796 4.07521C16.65 3.62064 17.2269 2.9065 17.5032 2.06383C16.7778 2.48738 15.9849 2.7863 15.1578 2.94669C13.7592 1.48287 11.4201 1.41194 9.9324 2.78893C8.9739 3.67679 8.5662 5.00057 8.8641 6.26324C5.895 6.11616 3.1284 4.73565 1.2528 2.46461C0.2727 4.12602 0.774 6.25064 2.3967 7.31749C1.809 7.30065 1.2339 7.14487 0.72 6.8631V6.90924C0.7209 8.63978 1.9602 10.1299 3.6828 10.4728C3.1392 10.619 2.5686 10.6402 2.016 10.5347C2.4993 12.0163 3.8862 13.031 5.4657 13.0603C4.158 14.0722 2.5425 14.6216 0.8793 14.6199C0.5859 14.619 0.2925 14.6021 0 14.5676C1.6893 15.6344 3.654 16.2006 5.661 16.198"></path>
                                        </svg>