<svg width="16" height="16" viewBox="0 0 16 16" fill="none" xmlns="http://www.w3.org/2000/svg">
                                                <path d="M8 0.000640077C3.58496 0.000640077 0 3.58539 0 8.0016C0 12.4172 3.58496 16 8 16C12.415 16 16 12.417 16 8.00096C16 3.58539 12.415 0 8 0V0.000640077ZM8 0.5007C12.145 0.5007 15.5 3.85614 15.5 8.0016C15.5 12.1471 12.145 15.5025 8 15.5025C3.85504 15.5025 0.5 12.1471 0.5 8.0016C0.5 3.85614 3.85504 0.5007 8 0.5007ZM8 1.6027C6.24688 1.6027 4.65808 2.31029 3.50256 3.45413C3.49319 3.46038 3.48444 3.46788 3.47631 3.476C3.46819 3.48476 3.46006 3.49351 3.45256 3.50351C2.30944 4.6599 1.60312 6.2488 1.60312 8.00085C1.60312 9.75482 2.31062 11.3444 3.45496 12.5001L3.45559 12.5007C3.46183 12.5095 3.46871 12.5176 3.47621 12.5251C3.48434 12.5326 3.49246 12.5395 3.50121 12.5464C4.65747 13.6909 6.24681 14.3984 7.99993 14.3984C9.75305 14.3984 11.3425 13.6915 12.4987 12.5476C12.508 12.5408 12.5168 12.5333 12.5249 12.5251C12.5343 12.5158 12.543 12.5058 12.5505 12.4951C13.6924 11.3394 14.398 9.75161 14.398 8.00084C14.398 6.25055 13.6931 4.66412 12.5524 3.50846C12.5443 3.49658 12.5349 3.48596 12.5249 3.47595C12.5162 3.4672 12.5068 3.4597 12.4968 3.4522C11.3406 2.30894 9.75186 1.60206 8.00002 1.60206L8 1.6027ZM7.75125 2.1084V2.7616C7.75125 2.89849 7.8625 3.00975 8 3.01038C8.06625 3.011 8.13 2.98475 8.17688 2.93787C8.22438 2.89099 8.25063 2.82786 8.25125 2.76159V2.10839C9.69188 2.1684 10.9988 2.7441 11.9913 3.65671L11.5288 4.11864L11.5281 4.11801C11.4813 4.16489 11.4544 4.22865 11.4544 4.29554C11.4544 4.36179 11.4813 4.42555 11.5281 4.47244C11.575 4.51994 11.6388 4.5462 11.7056 4.5462C11.7719 4.5462 11.8356 4.51994 11.8825 4.47244L12.3444 4.00988C13.2563 5.0025 13.8319 6.30888 13.8925 7.75033H13.2394C13.1731 7.75033 13.1094 7.77721 13.0625 7.82409C13.0163 7.8716 12.99 7.93473 12.99 8.00162C12.9906 8.13851 13.1019 8.24978 13.2394 8.2504H13.8925C13.8325 9.69182 13.2575 10.9982 12.345 11.9908L11.8825 11.5283V11.5289C11.8363 11.4814 11.7719 11.4545 11.7056 11.4545C11.6388 11.4545 11.575 11.4814 11.5281 11.5289C11.4813 11.5758 11.455 11.6389 11.455 11.7058C11.455 11.7721 11.4813 11.8358 11.5281 11.8827L11.9906 12.3453C10.9981 13.2573 9.69191 13.833 8.25063 13.893V13.2398L8.25125 13.2391C8.25063 13.1729 8.22438 13.1098 8.17688 13.0629C8.13 13.016 8.06625 12.9897 8 12.9904C7.8625 12.991 7.75124 13.1022 7.75124 13.2391V13.8923C6.31 13.8323 5.00372 13.2573 4.01124 12.3453L4.47374 11.8821L4.47312 11.8827C4.51999 11.8358 4.54687 11.7721 4.54687 11.7058C4.54687 11.6389 4.51999 11.5758 4.47312 11.5289C4.42624 11.4814 4.36249 11.4545 4.29561 11.4545C4.22936 11.4545 4.16561 11.4814 4.11936 11.5289L3.65624 11.9915C2.74436 10.9989 2.16936 9.69248 2.10936 8.25102H2.7606V8.2504C2.82685 8.2504 2.8906 8.22477 2.93748 8.17789C2.98498 8.13101 3.01123 8.06788 3.01186 8.00161C3.01186 7.93473 2.98561 7.87097 2.93873 7.82346C2.89123 7.77658 2.82748 7.75033 2.76061 7.75033H2.10936C2.16936 6.30953 2.74499 5.00248 3.65686 4.00988L4.11936 4.47243C4.16623 4.51931 4.22998 4.54619 4.29624 4.54619C4.36249 4.54619 4.42624 4.51931 4.47312 4.47243C4.52062 4.42555 4.54687 4.36179 4.54687 4.29553C4.54687 4.22865 4.52062 4.16489 4.47312 4.118L4.01062 3.65545C5.00312 2.74347 6.30934 2.16777 7.75062 2.10776L7.75125 2.1084ZM8 4.04544C7.8625 4.04607 7.75125 4.15796 7.75125 4.29547V8.00152C7.75125 8.06715 7.77812 8.13029 7.825 8.17655L9.54628 9.89867C9.64378 9.99556 9.80129 9.99556 9.89877 9.89867C9.99565 9.80116 9.99565 9.64364 9.89877 9.54614L8.25125 7.8965V4.29543C8.25063 4.22854 8.22438 4.16541 8.1775 4.11853C8.13 4.07164 8.06625 4.04544 8 4.04544Z" fill="#4DA627"></path>
                                            </svg>