<svg width="12" height="12" viewBox="0 0 12 12" fill="none" xmlns="http://www.w3.org/2000/svg">
                                <path d="M2.99995 0.914059C3.21033 1.09311 3.40473 1.29125 3.60026 1.48617C3.62206 1.50787 3.62206 1.50787 3.64431 1.53002C3.721 1.60636 3.79762 1.68277 3.87419 1.75923C3.95262 1.83753 4.03126 1.9156 4.10995 1.99363C4.17114 2.05438 4.23217 2.11529 4.29315 2.17624C4.32207 2.20508 4.35104 2.23387 4.38007 2.2626C4.70616 2.58544 4.94854 2.89728 4.9687 3.375C4.9418 3.92653 4.52089 4.29606 4.15425 4.66113C4.12194 4.69358 4.12194 4.69358 4.08897 4.72668C4.06809 4.74753 4.04722 4.76837 4.02571 4.78985C4.00704 4.80849 3.98838 4.82713 3.96915 4.84633C3.91401 4.89843 3.85671 4.94567 3.79683 4.99218C3.81051 5.11003 3.86415 5.20107 3.92134 5.30273C3.93165 5.32116 3.94196 5.33959 3.95259 5.35858C4.11596 5.64455 4.31163 5.91208 4.52339 6.16406C4.53803 6.18164 4.53803 6.18164 4.55297 6.19957C4.83777 6.54074 5.13804 6.88183 5.47599 7.17141C5.51777 7.20723 5.55914 7.2435 5.60032 7.27999C5.91309 7.55552 6.24711 7.80851 6.60933 8.01562C6.62281 8.02351 6.6363 8.03141 6.65019 8.03954C6.69155 8.06367 6.73314 8.08733 6.77485 8.11084C6.79929 8.12464 6.82374 8.13845 6.84892 8.15268C6.92132 8.18271 6.93687 8.18303 7.00776 8.15625C7.05021 8.12345 7.05021 8.12345 7.08999 8.08089C7.10565 8.065 7.12131 8.0491 7.13744 8.03273C7.16253 8.00677 7.16253 8.00677 7.18812 7.98028C7.20564 7.9625 7.22316 7.94471 7.24121 7.92639C7.3161 7.85035 7.39057 7.77392 7.46507 7.6975C7.51958 7.64171 7.5743 7.58614 7.62904 7.53057C7.6537 7.50504 7.6537 7.50504 7.67886 7.47899C7.83326 7.32236 8.00401 7.18548 8.2104 7.10449C8.23303 7.09536 8.25566 7.08624 8.27897 7.07684C8.57635 6.97505 8.89145 7.02249 9.16987 7.15576C9.27394 7.21753 9.36187 7.28955 9.44938 7.37246C9.4641 7.38632 9.47882 7.40017 9.49399 7.41444C9.73467 7.64281 9.96858 7.8783 10.2031 8.11291C10.2737 8.18352 10.3445 8.25396 10.4153 8.32436C10.4706 8.37942 10.5258 8.43459 10.581 8.48978C10.6071 8.51579 10.6331 8.54176 10.6593 8.5677C10.984 8.8904 11.2687 9.21023 11.2807 9.68701C11.2722 10.1929 10.9674 10.5312 10.6263 10.8745C10.6055 10.8956 10.5846 10.9166 10.5632 10.9383C10.5194 10.9824 10.4756 11.0264 10.4318 11.0703C10.3874 11.1149 10.3431 11.1596 10.2991 11.2044C9.82755 11.6844 9.82755 11.6844 9.56245 11.8125C9.53827 11.8242 9.5141 11.8359 9.48919 11.848C8.79306 12.1696 7.94126 11.9942 7.24214 11.7656C7.2218 11.759 7.20146 11.7523 7.18051 11.7455C5.79321 11.2838 4.48926 10.4361 3.42183 9.44531C3.39574 9.42138 3.36964 9.39746 3.34355 9.37353C2.74642 8.82367 2.74642 8.82367 2.50996 8.52172C2.45458 8.45312 2.39519 8.38895 2.33491 8.3247C2.19509 8.17434 2.06964 8.01477 1.94526 7.85156C1.93197 7.83427 1.91867 7.81699 1.90497 7.79918C1.36397 7.09525 0.900952 6.34278 0.539014 5.53125C0.527895 5.50693 0.516777 5.4826 0.505322 5.45755C0.112568 4.57492 -0.213128 3.51124 0.122998 2.56054C0.267723 2.20864 0.522607 1.95969 0.788174 1.69658C0.860046 1.62518 0.930705 1.55409 0.996045 1.47656C1.51785 0.863297 2.22987 0.376285 2.99995 0.914059ZM1.87495 1.61718C1.73715 1.74789 1.60273 1.88209 1.46799 2.01594C1.42488 2.05866 1.38166 2.10124 1.3383 2.1437C1.27513 2.20558 1.21237 2.26784 1.14967 2.3302C1.13048 2.34886 1.11128 2.36752 1.09151 2.38675C0.803976 2.67534 0.696684 3.01908 0.697297 3.42006C0.703134 3.80051 0.798417 4.16317 0.914014 4.52343C0.920947 4.54535 0.927881 4.56726 0.935025 4.58983C1.18816 5.37605 1.59245 6.1203 2.06245 6.79687C2.07241 6.81126 2.08237 6.82565 2.09263 6.84047C2.31789 7.16457 2.55848 7.47917 2.81245 7.78125C2.82778 7.79956 2.82778 7.79956 2.84342 7.81824C3.16603 8.20284 3.50736 8.58841 3.89112 8.91339C3.94937 8.96335 4.00552 9.01539 4.06196 9.06738C4.18873 9.18259 4.31857 9.29241 4.45308 9.39843C4.46943 9.41142 4.48579 9.4244 4.50264 9.43778C5.67421 10.3636 7.31846 11.4271 8.88276 11.2969C9.19675 11.2512 9.47609 11.0603 9.67625 10.8199C9.75635 10.7274 9.84176 10.6415 9.92884 10.5557C9.94299 10.5417 9.95713 10.5277 9.9717 10.5134C10.0308 10.4551 10.09 10.3969 10.1494 10.3389C10.1933 10.2961 10.2368 10.253 10.2804 10.21C10.2936 10.1972 10.3069 10.1844 10.3205 10.1712C10.4516 10.0409 10.5616 9.89922 10.5776 9.71045C10.5689 9.36881 10.1466 9.06413 9.91978 8.83529C9.90609 8.82148 9.8924 8.80766 9.87829 8.79342C9.80606 8.72057 9.73375 8.64781 9.66138 8.57509C9.60205 8.51546 9.54291 8.45565 9.4839 8.3957C9.41184 8.32247 9.33948 8.24954 9.26691 8.1768C9.2396 8.14933 9.21238 8.12176 9.18527 8.09408C8.95021 7.84249 8.95021 7.84249 8.63668 7.73067C8.4048 7.74077 8.25898 7.90401 8.1074 8.06085C8.06628 8.10263 8.02516 8.14441 7.98404 8.18618C7.91994 8.25173 7.85592 8.31736 7.79198 8.38306C7.72984 8.44676 7.66742 8.51016 7.60496 8.57354C7.57679 8.60277 7.57679 8.60277 7.54805 8.63259C7.41137 8.77103 7.26426 8.8985 7.07286 8.95001C6.83238 8.95067 6.65127 8.85505 6.44526 8.74218C6.41832 8.72769 6.41832 8.72769 6.39082 8.71291C5.89374 8.44368 5.44038 8.09825 5.0251 7.71551C4.97767 7.67224 4.92953 7.63025 4.8809 7.58834C4.77646 7.49717 4.67826 7.40051 4.58052 7.30224C4.56373 7.28555 4.54695 7.26886 4.52966 7.25166C4.42116 7.14296 4.31874 7.03054 4.2187 6.91406C4.19701 6.88949 4.17528 6.86495 4.15351 6.84045C3.04287 5.57664 3.04287 5.57664 3.03437 4.89376C3.06688 4.72237 3.16335 4.604 3.28706 4.48681C3.30587 4.46835 3.30587 4.46835 3.32505 4.4495C3.39303 4.38339 3.46298 4.3202 3.5348 4.2583C3.6474 4.1605 3.75289 4.05606 3.85835 3.95068C3.87756 3.93175 3.89678 3.91282 3.91658 3.89332C4.16822 3.65127 4.16822 3.65127 4.26558 3.32812C4.23214 3.02185 3.86766 2.762 3.66105 2.55478C3.64591 2.53956 3.63076 2.52435 3.61516 2.50868C3.53528 2.42845 3.45533 2.34828 3.37532 2.26818C3.29297 2.18569 3.21084 2.103 3.12875 2.02025C3.06523 1.95629 3.00156 1.89249 2.93784 1.82873C2.90747 1.7983 2.87717 1.76781 2.84693 1.73726C2.80471 1.69464 2.76228 1.65225 2.71978 1.60991C2.70747 1.59738 2.69516 1.58485 2.68247 1.57195C2.39906 1.29169 2.13498 1.37495 1.87495 1.61718Z" fill="white"></path>
                                <path d="M7.07963 0.0615176C7.10514 0.0679302 7.13065 0.0743427 7.15694 0.0809496C8.14522 0.33366 9.04676 0.783886 9.82035 1.45312C9.84017 1.46992 9.85999 1.48672 9.88041 1.50402C10.1717 1.75795 10.4531 2.03616 10.6875 2.34374C10.7058 2.36662 10.7242 2.38949 10.743 2.41305C11.1142 2.87897 11.4036 3.40053 11.626 3.95207C11.6459 4.00153 11.6664 4.05072 11.687 4.09991C11.8404 4.4827 12.0642 5.04299 12 5.46093C11.9447 5.57383 11.8786 5.63992 11.7657 5.69531C11.6333 5.71645 11.5268 5.70097 11.4141 5.62499C11.3378 5.54224 11.3053 5.47709 11.2819 5.36746C11.2758 5.34006 11.2696 5.31266 11.2633 5.28444C11.257 5.25518 11.2507 5.22593 11.2442 5.1958C11.059 4.38241 10.7405 3.61119 10.2277 2.94808C10.1948 2.90556 10.1624 2.86271 10.1301 2.81982C9.99881 2.64753 9.86008 2.49343 9.70316 2.34374C9.64804 2.28913 9.59334 2.23432 9.53992 2.17803C8.83454 1.44331 7.78827 0.949627 6.79893 0.749536C6.77996 0.745645 6.76099 0.741753 6.74144 0.737743C6.70541 0.730528 6.6693 0.723697 6.63311 0.717339C6.50906 0.692816 6.44177 0.651857 6.3516 0.562494C6.28932 0.45601 6.26974 0.375431 6.29127 0.255976C6.32048 0.158181 6.36996 0.0907716 6.45222 0.0317286C6.6408 -0.0626043 6.88598 0.0114481 7.07963 0.0615176Z" fill="white"></path>
                                <path d="M8.35089 2.92145C8.50694 3.0459 8.64809 3.18717 8.78905 3.32813C8.80337 3.34136 8.81769 3.35459 8.83245 3.36823C9.35412 3.85772 9.80395 4.72762 9.83056 5.44776C9.8272 5.56336 9.80843 5.63245 9.72655 5.71875C9.63769 5.7884 9.55745 5.8066 9.4453 5.8125C9.33174 5.78933 9.23672 5.73998 9.16405 5.64844C9.13032 5.57279 9.11262 5.49453 9.09374 5.41407C8.93108 4.76984 8.66274 4.25128 8.20311 3.77344C8.18861 3.75719 8.17411 3.74093 8.15917 3.72419C7.75151 3.28195 7.14287 3.01873 6.56575 2.89341C6.41961 2.86159 6.3184 2.83781 6.23079 2.71134C6.18379 2.61797 6.18049 2.54069 6.18749 2.4375C6.23185 2.31429 6.29358 2.25309 6.39843 2.17969C6.99367 2.00962 7.90054 2.57734 8.35089 2.92145Z" fill="white"></path>
                            </svg>