<svg width="16" height="16" viewBox="0 0 16 16" fill="none" xmlns="http://www.w3.org/2000/svg">
                                                                    <path d="M7.59555 8.82782C8.96462 8.82782 10.0783 7.71413 10.0783 6.34506C10.0783 4.97599 8.96462 3.8623 7.59555 3.8623C6.22659 3.8623 5.11279 4.97599 5.11279 6.34506C5.11279 7.71413 6.22659 8.82782 7.59555 8.82782ZM7.59555 4.41403C8.66021 4.41403 9.52659 5.28041 9.52659 6.34506C9.52659 7.40972 8.66021 8.2761 7.59555 8.2761C6.53072 8.2761 5.66452 7.40972 5.66452 6.34506C5.66452 5.28041 6.53072 4.41403 7.59555 4.41403Z" fill="#111111" fill-opacity="0.5"></path>
                                                                    <path d="M14.825 6.56359C14.5887 6.32731 14.2743 6.19721 13.9403 6.19721C13.6062 6.19721 13.2918 6.32731 13.0556 6.56359L9.6881 9.93103H5.50276L2.13531 6.56359C1.89903 6.32731 1.58479 6.19721 1.25062 6.19721C0.916414 6.19721 0.602172 6.32731 0.365897 6.56359C-0.121966 7.05145 -0.121966 7.8451 0.365897 8.33297L4.2851 12.2521V15.7241C4.2851 15.8766 4.40862 16 4.56097 16H10.3541C10.5065 16 10.6299 15.8766 10.6299 15.7241V12.2576L14.825 8.33297C15.3128 7.8451 15.3128 7.05145 14.825 6.56359ZM4.83683 15.4483V14.8966H10.0782V15.4483H4.83683ZM14.4413 7.93641L10.1654 11.9364C10.1379 11.9623 10.1159 11.9935 10.1009 12.0281C10.0859 12.0628 10.0782 12.1002 10.0782 12.1379V14.3448H4.83683V12.1379C4.83683 12.1017 4.82969 12.0658 4.81583 12.0324C4.80196 11.9989 4.78163 11.9685 4.756 11.9429L0.756 7.9429C0.623862 7.81062 0.551103 7.63497 0.551103 7.44828C0.551103 7.26159 0.623862 7.08593 0.756 6.95366C1.02028 6.68966 1.48093 6.68966 1.74521 6.95366L5.19348 10.4019C5.24522 10.4537 5.31538 10.4827 5.38855 10.4828H7.31959V13.2414C7.31959 13.3939 7.4431 13.5172 7.59545 13.5172C7.74779 13.5172 7.87131 13.3939 7.87131 13.2414V10.4828H9.80234C9.83857 10.4828 9.87444 10.4756 9.90791 10.4618C9.94137 10.4479 9.97178 10.4276 9.99738 10.4019L13.4457 6.95366C13.7102 6.68966 14.1703 6.68966 14.4349 6.95366C14.5669 7.08593 14.6396 7.26159 14.6396 7.44828C14.6396 7.63497 14.5669 7.81062 14.4413 7.93641H14.4413ZM11.8753 5.20662C11.9162 5.22948 11.9622 5.24145 12.009 5.24138C12.0582 5.24144 12.1066 5.2283 12.149 5.20334C12.1915 5.17837 12.2265 5.14248 12.2503 5.09941L13.6297 2.61666C13.7037 2.48355 13.6558 2.31572 13.5224 2.24166C13.3896 2.16703 13.2212 2.21552 13.1474 2.3489L11.7681 4.83166C11.694 4.96472 11.742 5.13255 11.8753 5.20662ZM2.94052 5.09941C2.9644 5.14248 2.99938 5.17837 3.04183 5.20334C3.08428 5.2283 3.13265 5.24144 3.1819 5.24138C3.22874 5.24144 3.2748 5.22947 3.31569 5.20662C3.44876 5.13255 3.49683 4.96472 3.42276 4.83162L2.04345 2.34886C1.96966 2.21552 1.80152 2.16703 1.66828 2.24162C1.53521 2.31576 1.48714 2.48355 1.56121 2.61666L2.94052 5.09941ZM1.25062 0.551724C1.25062 0.856414 1.00355 1.10345 0.698897 1.10345C0.394069 1.10345 0.147172 0.856414 0.147172 0.551724C0.147172 0.247034 0.394069 0 0.698897 0C1.00355 0 1.25062 0.247034 1.25062 0.551724ZM15.0437 0.551724C15.0437 0.856414 14.7967 1.10345 14.492 1.10345C14.1872 1.10345 13.9403 0.856414 13.9403 0.551724C13.9403 0.247034 14.1872 0 14.492 0C14.7967 0 15.0437 0.247034 15.0437 0.551724ZM7.87131 2.48276C8.02376 2.48276 8.14717 2.35938 8.14717 2.2069V0.275862C8.14717 0.123379 8.02376 0 7.87131 0C7.71897 0 7.59545 0.123379 7.59545 0.275862V2.2069C7.59545 2.35938 7.71897 2.48276 7.87131 2.48276Z" fill="#111111" fill-opacity="0.5"></path>
                                                                </svg>