<svg width="20" height="20" viewBox="0 0 20 20" fill="none" xmlns="http://www.w3.org/2000/svg">
                                        <path d="M19.6094 0.00010496C19.8006 0.0888986 19.9137 0.198314 20 0.39073C20.0439 0.846241 19.957 1.30172 19.8887 1.75048C19.8767 1.83173 19.8646 1.91299 19.8526 1.99425C19.8199 2.21521 19.7867 2.4361 19.7534 2.65698C19.7179 2.89302 19.6829 3.12912 19.6478 3.36522C19.5839 3.79503 19.5196 4.22479 19.4551 4.65452C19.3962 5.04746 19.3373 5.44042 19.2787 5.8334C19.2748 5.85936 19.2709 5.88532 19.2669 5.91207C19.2473 6.04334 19.2277 6.17461 19.2082 6.30588C19.1689 6.56876 19.1297 6.83164 19.0904 7.09451C19.0865 7.12052 19.0826 7.14652 19.0786 7.17331C19.0237 7.54133 18.9686 7.90934 18.9135 8.27734C18.7397 9.43812 18.567 10.599 18.3966 11.7603C18.3591 12.0155 18.3216 12.2707 18.284 12.5259C18.2789 12.5605 18.2737 12.5952 18.2685 12.6309C18.2484 12.7674 18.2282 12.9038 18.2081 13.0402C18.1512 13.4259 18.0946 13.8116 18.0385 14.1973C18.0041 14.4336 17.9693 14.6698 17.9342 14.906C17.9144 15.0391 17.8948 15.1722 17.8756 15.3055C17.8552 15.4473 17.8341 15.5889 17.8129 15.7306C17.8043 15.7916 17.8043 15.7916 17.7956 15.8538C17.7523 16.1355 17.6892 16.3788 17.478 16.5797C17.297 16.6957 17.123 16.7046 16.914 16.6798C16.7067 16.6259 16.5057 16.5552 16.3037 16.4845C16.2421 16.4634 16.1806 16.4423 16.119 16.4214C15.9858 16.3759 15.8527 16.3301 15.7197 16.2841C15.5021 16.2089 15.2841 16.1351 15.0661 16.0614C14.2933 15.7999 13.5217 15.535 12.7514 15.2662C12.7167 15.2541 12.682 15.242 12.6463 15.2295C12.2454 15.0895 11.8449 14.9483 11.4453 14.8048C11.4345 14.8276 11.4236 14.8505 11.4124 14.874C11.3694 14.9567 11.3225 15.0287 11.2677 15.104C11.2478 15.1314 11.228 15.1588 11.2076 15.187C11.1861 15.2164 11.1647 15.2457 11.1426 15.276C11.1201 15.3069 11.0976 15.3379 11.0744 15.3698C10.8449 15.6852 10.6133 15.9992 10.3815 16.313C10.2672 16.4677 10.1531 16.6226 10.039 16.7774C9.99347 16.8393 9.9479 16.9011 9.90233 16.963C9.87977 16.9936 9.85721 17.0242 9.83397 17.0558C9.76561 17.1485 9.69725 17.2413 9.62889 17.3341C9.60631 17.3647 9.58373 17.3954 9.56046 17.427C9.51512 17.4885 9.46977 17.55 9.42441 17.6116C9.30693 17.7709 9.18957 17.9304 9.0724 18.09C9.03618 18.1393 9.03618 18.1393 8.99923 18.1896C8.95362 18.2516 8.90805 18.3137 8.86252 18.3759C8.3317 19.0979 8.3317 19.0979 8.08592 19.1798C7.86337 19.2018 7.6903 19.191 7.49998 19.0626C7.32218 18.8749 7.25574 18.7036 7.25621 18.4468C7.25605 18.3794 7.25605 18.3794 7.25589 18.3105C7.25631 18.2371 7.25631 18.2371 7.25674 18.1621C7.25676 18.1098 7.25675 18.0574 7.2567 18.005C7.25668 17.8632 7.25714 17.7213 7.25769 17.5794C7.25817 17.4311 7.25822 17.2827 7.25831 17.1343C7.25855 16.8535 7.2592 16.5726 7.25998 16.2918C7.26085 15.972 7.26128 15.6523 7.26167 15.3325C7.26249 14.6748 7.26387 14.0172 7.26561 13.3595C7.23742 13.3519 7.20924 13.3444 7.18021 13.3366C6.98225 13.2832 6.78572 13.2288 6.59147 13.163C6.54837 13.1484 6.50527 13.1339 6.46087 13.1189C6.39273 13.0957 6.39273 13.0957 6.32322 13.072C6.27466 13.0556 6.2261 13.0391 6.17607 13.0222C6.04545 12.9779 5.91488 12.9335 5.78433 12.8891C5.70239 12.8612 5.62044 12.8334 5.53848 12.8055C4.81564 12.5602 4.0938 12.3122 3.3738 12.0586C2.98681 11.9225 2.59875 11.79 2.20972 11.6599C2.13028 11.6333 2.05085 11.6067 1.97143 11.58C1.91846 11.5623 1.86549 11.5445 1.81253 11.5268C1.7863 11.518 1.76007 11.5092 1.73305 11.5001C1.57746 11.448 1.42176 11.3962 1.26595 11.3447C1.14562 11.3048 1.02547 11.2645 0.905285 11.2242C0.861824 11.2099 0.818362 11.1957 0.773583 11.1811C0.500531 11.0889 0.225995 10.9942 0.0401121 10.7641C-0.0345665 10.5781 -0.0240189 10.392 -1.85147e-05 10.1954C0.137748 9.90968 0.388286 9.77772 0.660687 9.64091C0.690486 9.62572 0.720286 9.61052 0.750988 9.59486C0.847233 9.54583 0.943627 9.49709 1.04002 9.44835C1.13945 9.39775 1.23883 9.34708 1.33822 9.2964C1.40321 9.26326 1.46821 9.23015 1.53323 9.19707C1.7571 9.08313 1.98018 8.96783 2.20213 8.8502C2.22969 8.83561 2.25726 8.82102 2.28565 8.80599C2.34073 8.77683 2.39581 8.74767 2.45089 8.7185C2.62643 8.62587 2.80249 8.53424 2.9785 8.44249C3.01621 8.42283 3.05391 8.40317 3.09277 8.38291C3.1694 8.34297 3.24603 8.30302 3.32266 8.26308C3.5107 8.16506 3.6987 8.06695 3.8867 7.96885C3.96157 7.92979 4.03644 7.89073 4.11131 7.85167C4.1669 7.82266 4.1669 7.82266 4.22361 7.79307C4.56053 7.61729 4.56053 7.61729 4.67287 7.55868C4.74761 7.51968 4.82236 7.48068 4.8971 7.44168C5.0862 7.34301 5.27531 7.24437 5.46446 7.1458C5.80803 6.9667 6.15145 6.78736 6.49412 6.60655C6.84184 6.4231 7.19093 6.24236 7.54006 6.06161C7.82493 5.91404 8.10922 5.76543 8.39293 5.61564C8.69026 5.4588 8.98864 5.304 9.28698 5.14909C9.52993 5.02286 9.77252 4.896 10.0146 4.76817C10.3607 4.58549 10.7082 4.40558 11.0557 4.22566C11.3406 4.07809 11.6248 3.92949 11.9086 3.77971C12.2059 3.62287 12.5043 3.46806 12.8026 3.31315C13.0456 3.18693 13.2881 3.06006 13.5303 2.93223C13.8306 2.77369 14.132 2.61719 14.4336 2.46104C14.7663 2.28876 15.0986 2.11572 15.43 1.94085C15.7816 1.75538 16.1342 1.57181 16.4867 1.38808C16.6748 1.29006 16.8628 1.19196 17.0508 1.09385C17.2772 0.975707 17.5036 0.85758 17.7301 0.739546C17.768 0.719769 17.8059 0.699993 17.8449 0.679617C17.9204 0.640305 17.9959 0.601114 18.0715 0.562048C18.2507 0.469225 18.4282 0.374654 18.6033 0.274458C19.2472 -0.0900001 19.2472 -0.0900001 19.6094 0.00010496ZM18.2882 2.72227C18.119 2.89207 17.956 3.06431 17.8 3.24626C17.714 3.34345 17.6218 3.43338 17.5293 3.52427C17.4577 3.59713 17.3909 3.67273 17.3242 3.7501C17.2166 3.87495 17.1036 3.99121 16.9861 4.10656C16.9166 4.17715 16.8518 4.24985 16.7872 4.3249C16.644 4.48967 16.4954 4.64881 16.3452 4.80723C16.2899 4.86577 16.2346 4.92431 16.1793 4.98286C16.1518 5.01196 16.1244 5.04106 16.096 5.07104C15.976 5.19835 15.8566 5.32622 15.7373 5.45421C15.7151 5.47805 15.6928 5.5019 15.6699 5.52647C15.6252 5.57441 15.5805 5.62236 15.5358 5.67031C15.4224 5.79202 15.3088 5.91363 15.1953 6.03526C15.1728 6.05938 15.1503 6.0835 15.1271 6.10835C15.0122 6.23143 14.8973 6.35447 14.7824 6.47746C14.5686 6.70624 14.3552 6.93529 14.143 7.16563C13.9197 7.40817 13.6941 7.64865 13.4685 7.88905C13.3268 8.03992 13.1856 8.19109 13.0444 8.34239C13.022 8.3664 12.9996 8.39042 12.9765 8.41516C12.9314 8.46354 12.8863 8.51192 12.8411 8.5603C12.7503 8.65775 12.6593 8.75516 12.5684 8.85258C12.5229 8.90137 12.4773 8.95017 12.4318 8.99897C12.3169 9.12205 12.202 9.2451 12.0871 9.36809C11.8733 9.59687 11.6598 9.82592 11.4477 10.0563C11.2244 10.2988 10.9988 10.5393 10.7731 10.7797C10.5637 11.0028 10.3551 11.2266 10.1464 11.4504C10.0768 11.525 10.0071 11.5995 9.93742 11.674C9.65706 11.9738 9.37824 12.275 9.10154 12.5782C9.15892 12.693 9.24838 12.7003 9.36422 12.7396C9.39627 12.7501 9.42832 12.7607 9.46135 12.7716C9.49479 12.7828 9.52823 12.7941 9.56269 12.8057C9.63561 12.8303 9.70857 12.8547 9.78157 12.879C9.98066 12.9453 10.1794 13.0125 10.3782 13.0796C10.4191 13.0934 10.46 13.1072 10.5022 13.1214C10.8434 13.2364 11.1832 13.355 11.5228 13.4747C12.4745 13.8097 13.4309 14.1308 14.3871 14.4525C14.514 14.4952 14.6408 14.5379 14.7677 14.5806C14.8291 14.6013 14.8905 14.6219 14.9519 14.6426C15.3657 14.7818 15.7787 14.9228 16.1897 15.0702C16.2386 15.0876 16.2386 15.0876 16.2885 15.1052C16.3301 15.1202 16.3301 15.1202 16.3726 15.1355C16.4515 15.1618 16.4515 15.1618 16.5625 15.1564C16.7301 14.1893 16.8741 13.219 17.0171 12.2481C17.0504 12.0229 17.0837 11.7978 17.117 11.5727C17.1803 11.1452 17.2434 10.7177 17.3065 10.2901C17.3976 9.67281 17.4889 9.0555 17.5802 8.43819C17.594 8.34515 17.6077 8.25211 17.6215 8.15906C17.6316 8.09039 17.6316 8.09039 17.642 8.02032C17.6825 7.7461 17.723 7.47188 17.7635 7.19765C17.8814 6.39897 17.9993 5.60029 18.1199 4.802C18.1344 4.70577 18.1489 4.60954 18.1634 4.5133C18.1726 4.45232 18.1818 4.39133 18.191 4.33034C18.1954 4.30112 18.1998 4.27189 18.2043 4.24178C18.2294 4.07533 18.2547 3.90891 18.2801 3.74251C18.2987 3.62087 18.317 3.49919 18.3354 3.37751C18.3419 3.33538 18.3484 3.29324 18.3551 3.24982C18.3851 3.04951 18.4058 2.85892 18.3984 2.65635C18.348 2.65193 18.348 2.65193 18.2882 2.72227ZM16.1719 3.00792C16.0648 3.05203 16.0648 3.05203 15.9425 3.11854C15.9195 3.13054 15.8965 3.14254 15.8728 3.1549C15.7973 3.19431 15.7222 3.23417 15.647 3.27403C15.5948 3.30139 15.5426 3.32872 15.4904 3.35603C15.3624 3.42312 15.2345 3.49054 15.1067 3.55811C15.0156 3.60624 14.9244 3.65415 14.8332 3.70204C14.7168 3.76319 14.6005 3.82451 14.4842 3.88591C14.2595 4.00437 14.034 4.12133 13.8086 4.23839C13.5233 4.38651 13.2383 4.53509 12.9541 4.68516C12.608 4.86787 12.2604 5.04782 11.9128 5.22776C11.6589 5.35932 11.4052 5.49152 11.1523 5.6251C10.8536 5.78287 10.5539 5.93855 10.2539 6.09385C9.92114 6.26613 9.58884 6.43918 9.25745 6.61405C8.90585 6.79952 8.55326 6.98309 8.20074 7.16681C8.0127 7.26483 7.8247 7.36294 7.6367 7.46104C7.56183 7.5001 7.48696 7.53917 7.41209 7.57823C7.37503 7.59757 7.33797 7.6169 7.29979 7.63682C6.96287 7.8126 6.96287 7.8126 6.85053 7.87122C6.77579 7.91021 6.70104 7.94921 6.6263 7.98821C6.4372 8.08688 6.24809 8.18552 6.05894 8.2841C5.71537 8.4632 5.37195 8.64253 5.02928 8.82335C4.72729 8.98267 4.42428 9.13999 4.12108 9.29698C3.50038 9.6184 2.88189 9.94375 2.26561 10.2735C2.37455 10.3462 2.45818 10.3818 2.58101 10.423C2.62178 10.4367 2.66255 10.4505 2.70456 10.4647C2.74904 10.4795 2.79351 10.4943 2.83934 10.5096C2.88578 10.5252 2.93222 10.5409 2.98007 10.557C3.08023 10.5907 3.18041 10.6244 3.28062 10.658C3.54453 10.7464 3.80823 10.8355 4.07194 10.9245C4.09837 10.9334 4.12479 10.9423 4.15202 10.9515C4.5986 11.1022 5.04407 11.2559 5.48877 11.412C5.999 11.5912 6.50935 11.7701 7.02149 11.9437C7.07769 11.9628 7.13384 11.9821 7.18993 12.0015C7.26584 12.0277 7.34191 12.0534 7.41804 12.079C7.48179 12.1007 7.48179 12.1007 7.54682 12.1228C7.65701 12.1487 7.70913 12.1523 7.81248 12.1095C7.88668 12.0423 7.88668 12.0423 7.95897 11.9532C8.12465 11.7624 8.29547 11.5776 8.46922 11.3941C8.65584 11.1965 8.8419 10.9985 9.02586 10.7984C9.24752 10.5575 9.47147 10.3186 9.69557 10.0799C9.90505 9.85673 10.1138 9.63285 10.3225 9.409C10.3916 9.33495 10.4608 9.26095 10.5299 9.18696C10.7438 8.95813 10.9573 8.72903 11.1694 8.49864C11.3928 8.25611 11.6183 8.01562 11.844 7.77522C12.0535 7.55205 12.2622 7.32816 12.471 7.10431C12.5401 7.03026 12.6092 6.95626 12.6784 6.88228C12.8922 6.65345 13.1057 6.42434 13.3179 6.19395C13.5412 5.95142 13.7668 5.71093 13.9924 5.47053C14.2019 5.24736 14.4106 5.02347 14.6194 4.79962C14.6885 4.72558 14.7576 4.65158 14.8268 4.57759C15.0602 4.32777 15.2931 4.07745 15.5248 3.82597C15.7653 3.56513 16.0077 3.30612 16.25 3.04698C16.2242 3.03409 16.1984 3.0212 16.1719 3.00792ZM8.55467 13.8282C8.55467 14.7306 8.55467 15.6329 8.55467 16.5626C8.68373 16.4335 8.77832 16.3177 8.88182 16.1695C9.04091 15.9436 9.20327 15.7203 9.36766 15.4982C9.46131 15.3712 9.55489 15.2443 9.64842 15.1173C9.68506 15.0675 9.68506 15.0675 9.72244 15.0168C9.79401 14.9194 9.86529 14.8219 9.93651 14.7242C9.9586 14.6942 9.9807 14.6642 10.0035 14.6333C10.0236 14.6057 10.0437 14.578 10.0644 14.5495C10.0822 14.5252 10.1 14.5009 10.1183 14.4758C10.1631 14.4151 10.1631 14.4151 10.1562 14.336C9.94706 14.2635 9.73781 14.1912 9.52848 14.1191C9.45726 14.0945 9.38606 14.0699 9.31489 14.0452C9.21265 14.0097 9.11034 13.9745 9.00801 13.9393C8.97614 13.9282 8.94428 13.9171 8.91145 13.9057C8.88174 13.8955 8.85203 13.8853 8.82142 13.8748C8.79531 13.8658 8.7692 13.8568 8.7423 13.8475C8.66519 13.8231 8.66519 13.8231 8.55467 13.8282Z" fill="#F38035"></path>
                                    </svg>