<svg width="28" height="28" viewBox="0 0 28 28" fill="none" xmlns="http://www.w3.org/2000/svg">
                                        <path d="M27.4531 -0.000438996C27.7209 0.123872 27.8793 0.277054 28 0.546436C28.0615 1.18415 27.9399 1.82183 27.8443 2.45008C27.8274 2.56384 27.8106 2.6776 27.7938 2.79136C27.7479 3.10071 27.7015 3.40996 27.6548 3.71919C27.6051 4.04964 27.5561 4.38019 27.507 4.71072C27.4175 5.31246 27.3275 5.91412 27.2372 6.51575C27.1547 7.06586 27.0723 7.616 26.9902 8.16618C26.9848 8.20252 26.9793 8.23886 26.9738 8.27631C26.9463 8.46009 26.9189 8.64387 26.8915 8.82765C26.8365 9.19568 26.7816 9.56371 26.7266 9.93173C26.7212 9.96814 26.7157 10.0045 26.7101 10.042C26.6332 10.5573 26.5561 11.0725 26.479 11.5877C26.2357 13.2128 25.9938 14.8381 25.7552 16.4639C25.7028 16.8211 25.6503 17.1784 25.5976 17.5356C25.5904 17.5842 25.5833 17.6327 25.5759 17.6827C25.5478 17.8737 25.5196 18.0647 25.4914 18.2557C25.4118 18.7956 25.3325 19.3356 25.2539 19.8757C25.2057 20.2064 25.157 20.5371 25.1079 20.8678C25.0802 21.0541 25.0527 21.2406 25.026 21.4271C24.9974 21.6256 24.9678 21.8239 24.9381 22.0222C24.9261 22.1076 24.9261 22.1076 24.9139 22.1947C24.8533 22.5892 24.7649 22.9298 24.4693 23.211C24.2159 23.3734 23.9722 23.3859 23.6797 23.3511C23.3895 23.2756 23.1081 23.1766 22.8252 23.0777C22.7391 23.0482 22.6529 23.0187 22.5666 22.9893C22.3802 22.9256 22.1939 22.8615 22.0077 22.7971C21.703 22.6919 21.3978 22.5885 21.0925 22.4853C20.0106 22.1193 18.9304 21.7485 17.8521 21.3721C17.8035 21.3552 17.7549 21.3382 17.7048 21.3207C17.1436 21.1247 16.583 20.927 16.0235 20.7261C16.0083 20.7581 15.9931 20.7901 15.9775 20.823C15.9172 20.9389 15.8515 21.0395 15.7748 21.145C15.747 21.1834 15.7193 21.2217 15.6906 21.2612C15.6606 21.3023 15.6306 21.3434 15.5996 21.3858C15.5682 21.4291 15.5367 21.4724 15.5042 21.5171C15.1829 21.9587 14.8587 22.3983 14.5341 22.8375C14.3741 23.0542 14.2144 23.271 14.0547 23.4878C13.9909 23.5744 13.9271 23.661 13.8633 23.7476C13.8317 23.7905 13.8001 23.8333 13.7676 23.8775C13.6719 24.0074 13.5762 24.1373 13.4805 24.2671C13.4489 24.31 13.4173 24.3529 13.3847 24.3972C13.3212 24.4833 13.2577 24.5694 13.1942 24.6556C13.0298 24.8787 12.8654 25.102 12.7014 25.3254C12.6507 25.3944 12.6507 25.3944 12.599 25.4648C12.5351 25.5517 12.4713 25.6387 12.4076 25.7257C11.6644 26.7364 11.6644 26.7364 11.3203 26.8511C11.0088 26.882 10.7665 26.8668 10.5 26.6871C10.2511 26.4243 10.1581 26.1845 10.1587 25.8249C10.1585 25.7305 10.1585 25.7305 10.1583 25.6342C10.1589 25.5313 10.1589 25.5313 10.1595 25.4264C10.1595 25.3531 10.1595 25.2798 10.1594 25.2065C10.1594 25.0078 10.16 24.8092 10.1608 24.6106C10.1615 24.4029 10.1616 24.1952 10.1617 23.9874C10.162 23.5943 10.1629 23.2011 10.164 22.808C10.1652 22.3603 10.1658 21.9126 10.1664 21.4649C10.1675 20.5442 10.1695 19.6234 10.1719 18.7027C10.1324 18.6921 10.093 18.6816 10.0523 18.6707C9.7752 18.596 9.50006 18.5198 9.22811 18.4276C9.16777 18.4072 9.10743 18.3869 9.04526 18.3659C8.94988 18.3334 8.94987 18.3334 8.85256 18.3002C8.78458 18.2772 8.71659 18.2542 8.64655 18.2305C8.46367 18.1685 8.28088 18.1064 8.0981 18.0441C7.98339 18.0051 7.86866 17.9661 7.75392 17.9272C6.74194 17.5837 5.73137 17.2364 4.72338 16.8814C4.18158 16.691 3.63831 16.5053 3.09366 16.3232C2.98244 16.286 2.87124 16.2488 2.76005 16.2115C2.68589 16.1866 2.61174 16.1617 2.53758 16.1369C2.50087 16.1246 2.46415 16.1122 2.42632 16.0996C2.2085 16.0266 1.99051 15.9541 1.77238 15.882C1.60392 15.8262 1.43571 15.7697 1.26745 15.7132C1.2066 15.6933 1.14576 15.6734 1.08307 15.6529C0.700793 15.5239 0.316443 15.3912 0.0562058 15.0692C-0.0483443 14.8088 -0.0335776 14.5481 2.29087e-05 14.273C0.192896 13.873 0.543649 13.6882 0.925011 13.4967C0.96673 13.4754 1.00845 13.4541 1.05143 13.4322C1.18617 13.3636 1.32113 13.2953 1.45608 13.2271C1.59528 13.1563 1.73441 13.0853 1.87355 13.0144C1.96454 12.968 2.05555 12.9216 2.14657 12.8753C2.45998 12.7158 2.7723 12.5544 3.08303 12.3897C3.12162 12.3693 3.16021 12.3488 3.19996 12.3278C3.27708 12.287 3.35418 12.2462 3.43129 12.2053C3.67705 12.0756 3.92354 11.9473 4.16994 11.8189C4.22274 11.7914 4.27553 11.7638 4.32992 11.7355C4.4372 11.6796 4.54449 11.6236 4.65177 11.5677C4.91503 11.4305 5.17823 11.2932 5.44143 11.1558C5.54625 11.1011 5.65106 11.0464 5.75588 10.9917C5.83371 10.9511 5.83371 10.9511 5.91311 10.9097C6.38479 10.6636 6.38479 10.6636 6.54207 10.5816C6.64671 10.527 6.75135 10.4724 6.85599 10.4178C7.12073 10.2796 7.38549 10.1415 7.65029 10.0035C8.13129 9.75279 8.61209 9.50173 9.09182 9.24858C9.57862 8.99176 10.0674 8.73872 10.5561 8.48567C10.9549 8.27907 11.353 8.07102 11.7501 7.86132C12.1664 7.64174 12.5841 7.42501 13.0018 7.20814C13.3419 7.03142 13.6816 6.85381 14.0205 6.67485C14.505 6.4191 14.9915 6.16723 15.478 5.91534C15.8768 5.70875 16.2748 5.50071 16.672 5.291C17.0883 5.07143 17.506 4.8547 17.9237 4.63782C18.2638 4.46111 18.6035 4.2835 18.9424 4.10454C19.3629 3.88258 19.7848 3.66348 20.2071 3.44487C20.6729 3.20369 21.1381 2.96142 21.6021 2.71661C22.0943 2.45695 22.5879 2.19994 23.0815 1.94273C23.3447 1.8055 23.6079 1.66815 23.8711 1.53081C24.1881 1.3654 24.5051 1.20003 24.8222 1.03478C24.8752 1.00709 24.9283 0.979404 24.983 0.950878C25.0886 0.895841 25.1944 0.840973 25.3002 0.786281C25.551 0.656329 25.7995 0.52393 26.0447 0.383655C26.9461 -0.126586 26.9461 -0.126586 27.4531 -0.000438996ZM25.6036 3.8106C25.3667 4.04832 25.1385 4.28945 24.92 4.54418C24.7996 4.68024 24.6706 4.80615 24.541 4.9334C24.4408 5.0354 24.3473 5.14124 24.2539 5.24956C24.1034 5.42434 23.9451 5.58711 23.7805 5.7486C23.6834 5.84742 23.5925 5.9492 23.5022 6.05428C23.3016 6.28496 23.0936 6.50775 22.8833 6.72954C22.8059 6.81149 22.7285 6.89345 22.6511 6.97542C22.6126 7.01616 22.5742 7.0569 22.5345 7.09887C22.3665 7.27711 22.1993 7.45613 22.0323 7.6353C22.0011 7.66869 21.97 7.70207 21.9379 7.73647C21.8753 7.80359 21.8128 7.87071 21.7502 7.93785C21.5914 8.10824 21.4324 8.2785 21.2735 8.44878C21.242 8.48255 21.2104 8.51631 21.178 8.5511C21.0172 8.72341 20.8563 8.89568 20.6954 9.06786C20.3961 9.38816 20.0973 9.70883 19.8003 10.0313C19.4876 10.3708 19.1718 10.7075 18.8559 11.0441C18.6576 11.2553 18.4598 11.4669 18.2622 11.6788C18.2309 11.7124 18.1995 11.746 18.1672 11.7806C18.104 11.8484 18.0408 11.9161 17.9777 11.9838C17.8504 12.1203 17.7231 12.2566 17.5958 12.393C17.5321 12.4613 17.4683 12.5296 17.4045 12.598C17.2437 12.7703 17.0829 12.9425 16.922 13.1147C16.6227 13.435 16.3238 13.7557 16.0269 14.0782C15.7141 14.4177 15.3984 14.7544 15.0825 15.091C14.7893 15.4033 14.4971 15.7167 14.2049 16.03C14.1075 16.1344 14.01 16.2387 13.9124 16.343C13.5199 16.7628 13.1296 17.1844 12.7422 17.6089C12.8225 17.7696 12.9478 17.7798 13.11 17.8348C13.1548 17.8496 13.1997 17.8644 13.2459 17.8796C13.2928 17.8954 13.3396 17.9112 13.3878 17.9274C13.4899 17.9618 13.592 17.996 13.6942 18.03C13.973 18.1228 14.2512 18.217 14.5296 18.3109C14.5868 18.3302 14.6441 18.3494 14.7031 18.3693C15.1808 18.5304 15.6566 18.6964 16.132 18.864C17.4643 19.3331 18.8033 19.7825 20.142 20.2329C20.3196 20.2927 20.4972 20.3525 20.6748 20.4123C20.7607 20.4412 20.8467 20.4701 20.9326 20.499C21.512 20.6939 22.0903 20.8913 22.6656 21.0978C22.7341 21.122 22.7341 21.122 22.8039 21.1468C22.8622 21.1677 22.8622 21.1677 22.9217 21.1891C23.0321 21.2259 23.0321 21.2259 23.1875 21.2183C23.4222 19.8644 23.6237 18.506 23.8241 17.1467C23.8705 16.8315 23.9172 16.5163 23.9639 16.2011C24.0524 15.6027 24.1408 15.0041 24.2292 14.4056C24.3567 13.5414 24.4845 12.6771 24.6123 11.8129C24.6316 11.6826 24.6508 11.5524 24.6701 11.4221C24.6843 11.326 24.6843 11.326 24.6988 11.2279C24.7556 10.844 24.8123 10.46 24.869 10.0761C25.034 8.95797 25.1991 7.83982 25.3679 6.72221C25.3882 6.58749 25.4085 6.45277 25.4288 6.31804C25.4417 6.23266 25.4545 6.14727 25.4674 6.06189C25.4736 6.02098 25.4797 5.98006 25.4861 5.9379C25.5212 5.70487 25.5566 5.47189 25.5923 5.23893C25.6182 5.06863 25.6439 4.89828 25.6696 4.72793C25.6787 4.66894 25.6878 4.60995 25.6972 4.54917C25.7392 4.26872 25.7681 4.00191 25.7578 3.71831C25.6872 3.71211 25.6872 3.71211 25.6036 3.8106ZM22.6406 4.2105C22.4907 4.27225 22.4907 4.27225 22.3196 4.36538C22.2874 4.38217 22.2551 4.39896 22.222 4.41627C22.1163 4.47145 22.0111 4.52725 21.9058 4.58306C21.8328 4.62136 21.7597 4.65963 21.6867 4.69785C21.5074 4.79178 21.3284 4.88617 21.1494 4.98077C21.0219 5.04814 20.8942 5.11522 20.7665 5.18227C20.6036 5.26789 20.4408 5.35373 20.278 5.43969C19.9634 5.60554 19.6477 5.76927 19.3321 5.93315C18.9327 6.14052 18.5337 6.34854 18.1358 6.55864C17.6512 6.81444 17.1646 7.06636 16.678 7.31827C16.3225 7.50246 15.9674 7.68754 15.6133 7.87456C15.1951 8.09543 14.7755 8.31339 14.3555 8.53081C13.8896 8.772 13.4244 9.01427 12.9605 9.25908C12.4682 9.51874 11.9746 9.77574 11.4811 10.033C11.2178 10.1702 10.9546 10.3075 10.6914 10.4449C10.5866 10.4996 10.4818 10.5542 10.377 10.6089C10.3251 10.636 10.2732 10.6631 10.2198 10.691C9.74807 10.9371 9.74807 10.9371 9.59079 11.0191C9.48615 11.0737 9.38151 11.1283 9.27687 11.1829C9.01213 11.3211 8.74737 11.4591 8.48257 11.5972C8.00157 11.8479 7.52077 12.099 7.04104 12.3521C6.61825 12.5752 6.19405 12.7954 5.76955 13.0152C4.90059 13.4652 4.03469 13.9207 3.1719 14.3824C3.32441 14.4841 3.44151 14.5339 3.61346 14.5915C3.67054 14.6108 3.72762 14.6301 3.78644 14.65C3.8487 14.6707 3.91097 14.6915 3.97512 14.7128C4.04014 14.7347 4.10516 14.7567 4.17215 14.7792C4.31237 14.8264 4.45262 14.8736 4.59292 14.9206C4.9624 15.0444 5.33158 15.1691 5.70077 15.2937C5.73776 15.3062 5.77476 15.3187 5.81288 15.3315C6.43808 15.5425 7.06175 15.7576 7.68432 15.9763C8.39865 16.2271 9.11313 16.4776 9.83014 16.7206C9.90881 16.7474 9.98742 16.7743 10.066 16.8015C10.1722 16.8382 10.2787 16.8742 10.3853 16.91C10.4745 16.9404 10.4745 16.9404 10.5656 16.9714C10.7199 17.0076 10.7928 17.0126 10.9375 16.9527C11.0414 16.8587 11.0414 16.8587 11.1426 16.7339C11.3746 16.4668 11.6137 16.2081 11.857 15.9512C12.1182 15.6746 12.3787 15.3973 12.6363 15.1172C12.9466 14.7798 13.2601 14.4455 13.5738 14.1113C13.8671 13.7988 14.1593 13.4854 14.4516 13.172C14.5483 13.0683 14.6451 12.9647 14.7419 12.8612C15.0413 12.5408 15.3402 12.2201 15.6372 11.8975C15.95 11.558 16.2657 11.2213 16.5817 10.8847C16.8749 10.5723 17.1671 10.2588 17.4594 9.94545C17.5561 9.84178 17.6529 9.73818 17.7498 9.6346C18.0491 9.31424 18.348 8.99349 18.645 8.67095C18.9578 8.3314 19.2735 7.99472 19.5895 7.65816C19.8827 7.34572 20.175 7.03227 20.4672 6.71889C20.5639 6.61522 20.6607 6.51162 20.7576 6.40804C21.0844 6.05829 21.4104 5.70785 21.7348 5.35577C22.0714 4.9906 22.4108 4.62798 22.75 4.26519C22.7139 4.24714 22.6778 4.22909 22.6406 4.2105ZM11.9766 19.3589C11.9766 20.6222 11.9766 21.8855 11.9766 23.1871C12.1573 23.0064 12.2897 22.8442 12.4346 22.6368C12.6573 22.3204 12.8846 22.0078 13.1148 21.6968C13.2459 21.5192 13.3769 21.3414 13.5078 21.1636C13.5591 21.094 13.5591 21.094 13.6115 21.0229C13.7117 20.8866 13.8115 20.75 13.9112 20.6133C13.9421 20.5713 13.973 20.5293 14.0049 20.4861C14.033 20.4473 14.0612 20.4086 14.0902 20.3687C14.1151 20.3347 14.14 20.3006 14.1657 20.2655C14.2283 20.1806 14.2283 20.1806 14.2188 20.0699C13.9259 19.9683 13.633 19.8671 13.3399 19.7661C13.2402 19.7317 13.1405 19.6973 13.0409 19.6627C12.8978 19.613 12.7545 19.5637 12.6113 19.5145C12.5667 19.4989 12.522 19.4834 12.4761 19.4673C12.4345 19.4531 12.3929 19.4389 12.35 19.4242C12.3135 19.4116 12.2769 19.3989 12.2393 19.3859C12.1313 19.3517 12.1313 19.3517 11.9766 19.3589Z" fill="white"></path>
                                    </svg>