<svg width="12" height="12" viewBox="0 0 12 12" fill="none" xmlns="http://www.w3.org/2000/svg">
                            <path d="M5.71161 -0.0047586C5.73275 -0.00492299 5.7539 -0.00508739 5.77568 -0.00525677C5.84362 -0.00566519 5.91155 -0.00581583 5.9795 -0.00585723C6.01429 -0.00588095 6.01429 -0.00588095 6.04978 -0.00590515C6.38932 -0.00553676 6.72083 0.00272564 7.05469 0.0703146C7.0762 0.0745859 7.09771 0.0788572 7.11988 0.0832579C7.27109 0.113998 7.42085 0.149216 7.57032 0.187502C7.58776 0.191906 7.6052 0.196309 7.62317 0.200846C8.05451 0.3119 8.46761 0.492859 8.85938 0.703127C8.87313 0.710454 8.88687 0.71778 8.90104 0.725329C9.39922 0.993282 9.83689 1.34242 10.2422 1.73438C10.2553 1.74699 10.2685 1.75961 10.282 1.77261C10.4375 1.92253 10.5813 2.07672 10.7109 2.25C10.7209 2.26327 10.7309 2.27654 10.7412 2.29022C11.1591 2.84589 11.5115 3.45858 11.7188 4.125C11.7247 4.14384 11.7306 4.16268 11.7367 4.18209C11.8312 4.48706 11.903 4.79404 11.9531 5.10938C11.9573 5.13403 11.9615 5.15868 11.9658 5.18408C12.0067 5.45003 12.0093 5.71384 12.0088 5.98242C12.0088 6.00622 12.0088 6.03001 12.0088 6.05452C12.008 6.43482 11.9857 6.79887 11.9063 7.17188C11.9019 7.19353 11.8975 7.21518 11.893 7.23749C11.7416 7.97419 11.4446 8.70814 11.0156 9.32813C10.9906 9.36488 10.9906 9.36488 10.9651 9.40238C10.6329 9.88349 10.2396 10.3321 9.77344 10.6875C9.75057 10.7058 9.7277 10.7241 9.70414 10.743C9.50253 10.9035 9.28977 11.0448 9.07032 11.1797C9.04772 11.1936 9.04772 11.1936 9.02467 11.2078C8.22418 11.694 7.22867 11.9999 6.2884 12.0048C6.26726 12.0049 6.24611 12.0051 6.22433 12.0053C6.15639 12.0057 6.08846 12.0058 6.02051 12.0059C5.99732 12.0059 5.97413 12.0059 5.95023 12.0059C5.61069 12.0055 5.27918 11.9973 4.94532 11.9297C4.92381 11.9254 4.9023 11.9211 4.88013 11.9167C4.72892 11.886 4.57916 11.8508 4.42969 11.8125C4.40353 11.8059 4.40353 11.8059 4.37684 11.7992C3.9455 11.6881 3.5324 11.5071 3.14063 11.2969C3.12688 11.2896 3.11314 11.2822 3.09897 11.2747C2.60079 11.0067 2.16312 10.6576 1.75782 10.2656C1.73812 10.2467 1.73812 10.2467 1.71803 10.2274C1.56253 10.0775 1.41866 9.92329 1.28907 9.75C1.27907 9.73673 1.26907 9.72346 1.25876 9.70979C0.840914 9.15412 0.48853 8.54143 0.281255 7.875C0.275341 7.85616 0.269427 7.83733 0.263334 7.81792C0.168804 7.51295 0.0969823 7.20597 0.0468803 6.89063C0.0427072 6.86597 0.0385342 6.84132 0.0342346 6.81592C-0.00664375 6.54997 -0.0093 6.28617 -0.00878373 6.01758C-0.00877878 5.99379 -0.00877382 5.97 -0.00876871 5.94548C-0.00797911 5.56518 0.0143199 5.20114 0.0937553 4.82813C0.0981437 4.80648 0.102532 4.78483 0.107053 4.76252C0.258447 4.02582 0.555377 3.29186 0.98438 2.67188C1.00106 2.64737 1.01773 2.62287 1.03492 2.59763C1.36714 2.11651 1.76042 1.66786 2.22657 1.3125C2.24944 1.29419 2.27231 1.27588 2.29587 1.25702C2.49748 1.09646 2.71024 0.955237 2.92969 0.820315C2.94476 0.811039 2.95982 0.801764 2.97534 0.792208C3.77583 0.305982 4.77134 0.000144417 5.71161 -0.0047586ZM5.74814 0.992342C5.38455 1.32235 5.2072 1.86699 5.06251 2.32031C5.05641 2.33939 5.05031 2.35847 5.04402 2.37812C4.90885 2.80851 4.80763 3.25484 4.75782 3.70313C5.57766 3.70313 6.3975 3.70313 7.24219 3.70313C7.20996 3.4614 7.1746 3.23432 7.12061 2.99854C7.11526 2.97506 7.11526 2.97506 7.10981 2.95112C6.84985 1.80524 6.84985 1.80524 6.14063 0.914065C5.97654 0.836496 5.88227 0.88942 5.74814 0.992342ZM4.41715 1.11173C4.39648 1.11909 4.3758 1.12646 4.35451 1.13405C4.33243 1.14218 4.31035 1.15031 4.2876 1.15869C4.26465 1.16714 4.2417 1.17559 4.21805 1.1843C3.5906 1.41987 3.05879 1.76503 2.55469 2.20313C2.53306 2.22183 2.51143 2.24053 2.48914 2.2598C2.36785 2.36657 2.25938 2.47734 2.15626 2.60156C2.12956 2.63261 2.12956 2.63261 2.10233 2.66428C1.89134 2.91202 1.70772 3.16974 1.54395 3.45117C1.53256 3.47074 1.52117 3.4903 1.50944 3.51046C1.45128 3.60135 1.45128 3.60135 1.42969 3.70313C2.23407 3.70313 3.03844 3.70313 3.86719 3.70313C3.92133 3.41696 3.97547 3.13078 4.03126 2.83594C4.17173 2.22461 4.3595 1.64949 4.61719 1.07813C4.53378 1.07813 4.49291 1.08473 4.41715 1.11173ZM7.38282 1.07813C7.38881 1.09185 7.39481 1.10558 7.40098 1.11972C7.76714 1.96369 7.96709 2.7916 8.13282 3.70313C8.93719 3.70313 9.74157 3.70313 10.5703 3.70313C10.5297 3.57959 10.5297 3.57959 10.4724 3.46967C10.4623 3.45301 10.4523 3.43635 10.442 3.41919C10.4311 3.40171 10.4203 3.38423 10.4092 3.36621C10.3978 3.34778 10.3864 3.32934 10.3747 3.31035C10.1501 2.95203 9.88461 2.64194 9.58594 2.34375C9.56905 2.32605 9.55217 2.30834 9.53476 2.2901C9.00193 1.73787 8.22391 1.26144 7.47657 1.07813C7.44563 1.07813 7.41469 1.07813 7.38282 1.07813ZM1.07813 4.59375C0.781593 5.48336 0.781593 6.51664 1.07813 7.40625C1.95985 7.40625 2.84157 7.40625 3.75001 7.40625C3.75071 7.12633 3.75071 7.12633 3.73847 6.84815C3.72311 6.59201 3.72303 6.33606 3.72351 6.07954C3.72364 6.00011 3.72351 5.92068 3.72336 5.84125C3.7233 5.59492 3.72479 5.34936 3.74182 5.10352C3.75311 4.93258 3.75001 4.76684 3.75001 4.59375C2.86829 4.59375 1.98657 4.59375 1.07813 4.59375ZM4.64063 4.59375C4.60063 5.09235 4.60063 5.09235 4.58753 5.58985C4.5875 5.62325 4.58745 5.65665 4.58739 5.69005C4.58733 5.75888 4.58742 5.82771 4.58764 5.89655C4.58791 5.9827 4.58776 6.06885 4.58748 6.155C4.5873 6.22363 4.58736 6.29225 4.58748 6.36087C4.58753 6.40741 4.58739 6.45394 4.58724 6.50047C4.58875 6.80551 4.61701 7.09922 4.64063 7.40625C5.53782 7.40625 6.43501 7.40625 7.35938 7.40625C7.39939 6.90765 7.39939 6.90765 7.41248 6.41016C7.41251 6.37676 7.41256 6.34336 7.41262 6.30995C7.41268 6.24112 7.41259 6.17229 7.41237 6.10346C7.4121 6.0173 7.41225 5.93115 7.41253 5.845C7.41271 5.77638 7.41265 5.70775 7.41253 5.63913C7.41248 5.5926 7.41262 5.54606 7.41277 5.49953C7.41126 5.1945 7.383 4.90079 7.35938 4.59375C6.46219 4.59375 5.56501 4.59375 4.64063 4.59375ZM8.25 4.59375C8.2493 4.87367 8.2493 4.87367 8.26154 5.15186C8.2769 5.40799 8.27698 5.66395 8.2765 5.92047C8.27637 5.9999 8.2765 6.07932 8.27665 6.15875C8.27671 6.40509 8.27522 6.65065 8.25819 6.89648C8.2469 7.06742 8.25 7.23316 8.25 7.40625C9.13172 7.40625 10.0134 7.40625 10.9219 7.40625C11.2184 6.51664 11.2184 5.48336 10.9219 4.59375C10.0402 4.59375 9.15844 4.59375 8.25 4.59375ZM1.42969 8.29688C1.47033 8.42042 1.47033 8.42042 1.52765 8.53034C1.53768 8.54699 1.54771 8.56365 1.55804 8.58081C1.57427 8.60704 1.57427 8.60704 1.59083 8.63379C1.6022 8.65223 1.61358 8.67066 1.6253 8.68966C1.84993 9.04797 2.1154 9.35806 2.41407 9.65625C2.43096 9.67396 2.44785 9.69166 2.46525 9.7099C2.98281 10.2463 3.78607 10.7726 4.52344 10.9219C4.5549 10.915 4.58621 10.9073 4.61719 10.8984C4.60468 10.8728 4.59218 10.8471 4.57929 10.8206C4.19815 10.0178 4.02582 9.16933 3.86719 8.29688C3.06282 8.29688 2.25844 8.29688 1.42969 8.29688ZM4.75782 8.29688C4.79005 8.5386 4.82541 8.76568 4.8794 9.00147C4.88297 9.01712 4.88653 9.03277 4.8902 9.04889C5.15016 10.1948 5.15016 10.1948 5.85938 11.0859C5.93613 11.1222 5.98606 11.143 6.06968 11.1203C6.45008 10.951 6.65207 10.4576 6.79523 10.0929C6.84674 9.95651 6.89317 9.8186 6.9375 9.67969C6.9436 9.66061 6.9497 9.64154 6.95599 9.62189C7.09117 9.19149 7.19238 8.74516 7.24219 8.29688C6.42235 8.29688 5.60251 8.29688 4.75782 8.29688ZM8.13282 8.29688C8.07868 8.58305 8.02454 8.86922 7.96875 9.16406C7.82828 9.7754 7.64051 10.3505 7.38282 10.9219C7.93522 10.8711 8.51172 10.5152 8.95313 10.1953C8.96628 10.1858 8.97944 10.1763 8.99299 10.1665C9.16335 10.0421 9.32097 9.90731 9.47452 9.76273C9.51991 9.72082 9.56507 9.68118 9.61277 9.64215C9.66605 9.5974 9.71105 9.55515 9.75586 9.50244C9.76961 9.48628 9.78336 9.47012 9.79752 9.45346C9.81278 9.43531 9.82804 9.41715 9.84375 9.39844C9.86167 9.37762 9.87959 9.35681 9.89805 9.33536C10.1088 9.08765 10.2924 8.83012 10.4561 8.54883C10.4674 8.52927 10.4788 8.5097 10.4906 8.48954C10.5487 8.39865 10.5487 8.39865 10.5703 8.29688C9.76594 8.29688 8.96157 8.29688 8.13282 8.29688Z" fill="white"></path>
                        </svg>