<svg width="16" height="16" viewBox="0 0 16 16" fill="none" xmlns="http://www.w3.org/2000/svg">
                                                        <path d="M11.0142 6.875C11.0142 6.52981 10.7343 6.25 10.3892 6.25H3.95166C3.60647 6.25 3.32666 6.52981 3.32666 6.875C3.32666 7.22019 3.60647 7.5 3.95166 7.5H10.3892C10.7343 7.5 11.0142 7.22019 11.0142 6.875ZM3.95166 8.75C3.60647 8.75 3.32666 9.02981 3.32666 9.375C3.32666 9.72019 3.60647 10 3.95166 10H7.86138C8.20657 10 8.48638 9.72019 8.48638 9.375C8.48638 9.02981 8.20657 8.75 7.86138 8.75H3.95166Z" fill="#111111" fill-opacity="0.5"></path>
                                                        <path d="M5.42036 14.75H3.33008C2.64083 14.75 2.08008 14.1892 2.08008 13.5V2.5C2.08008 1.81075 2.64083 1.25 3.33008 1.25H11.0141C11.7034 1.25 12.2641 1.81075 12.2641 2.5V6.34375C12.2641 6.68894 12.5439 6.96875 12.8891 6.96875C13.2343 6.96875 13.5141 6.68894 13.5141 6.34375V2.5C13.5141 1.1215 12.3926 0 11.0141 0H3.33008C1.95158 0 0.830078 1.1215 0.830078 2.5V13.5C0.830078 14.8785 1.95158 16 3.33008 16H5.42036C5.76555 16 6.04536 15.7202 6.04536 15.375C6.04536 15.0298 5.76555 14.75 5.42036 14.75Z" fill="#111111" fill-opacity="0.5"></path>
                                                        <path d="M14.6212 9.04912C13.8901 8.31806 12.7006 8.31803 11.97 9.04862L8.53869 12.4724C8.46583 12.5451 8.41205 12.6347 8.38213 12.7332L7.63485 15.1933C7.60232 15.3004 7.59914 15.4142 7.62565 15.523C7.65215 15.6317 7.70736 15.7313 7.78551 15.8114C7.86366 15.8915 7.96189 15.9492 8.06993 15.9784C8.17798 16.0075 8.29187 16.0072 8.39972 15.9773L10.9224 15.2785C11.0262 15.2498 11.1208 15.1946 11.1971 15.1185L14.6212 11.7008C15.3523 10.9697 15.3523 9.78025 14.6212 9.04912ZM10.4303 14.1178L9.16119 14.4693L9.5326 13.2465L11.8479 10.9364L12.7319 11.8204L10.4303 14.1178ZM13.7378 10.8166L13.6167 10.9374L12.7328 10.0535L12.8535 9.93306C13.0972 9.68937 13.4937 9.68937 13.7373 9.93306C13.981 10.1768 13.981 10.5733 13.7378 10.8166ZM10.3892 3.75H3.95166C3.60647 3.75 3.32666 4.02981 3.32666 4.375C3.32666 4.72019 3.60647 5 3.95166 5H10.3892C10.7343 5 11.0142 4.72019 11.0142 4.375C11.0142 4.02981 10.7343 3.75 10.3892 3.75Z" fill="#111111" fill-opacity="0.5"></path>
                                                    </svg>