<svg width="30" height="30" viewBox="0 0 30 30" fill="none" xmlns="http://www.w3.org/2000/svg">
                                    <path d="M8.49609 2.98828C12.7887 2.98828 17.0812 2.98828 21.5039 2.98828C21.5039 3.33633 21.5039 3.68437 21.5039 4.04297C21.1752 4.04297 20.8465 4.04297 20.5078 4.04297C20.5078 4.35234 20.5078 4.66172 20.5078 4.98047C22.1707 4.98047 23.8336 4.98047 25.5469 4.98047C25.5469 5.32852 25.5469 5.67656 25.5469 6.03516C25.2182 6.03516 24.8895 6.03516 24.5508 6.03516C24.5508 12.6094 24.5508 19.1836 24.5508 25.957C25.3436 25.957 26.1363 25.957 26.9531 25.957C26.9531 23.8687 26.9531 21.7805 26.9531 19.6289C26.5857 19.8996 26.2184 20.1703 25.8398 20.4492C25.5026 20.1119 25.5026 20.1119 25.3528 19.9146C25.3228 19.8757 25.2928 19.8369 25.2619 19.7969C25.1953 19.6875 25.1953 19.6875 25.1953 19.5117C25.2938 19.4193 25.2938 19.4193 25.4306 19.3213C25.4798 19.2856 25.5289 19.25 25.5796 19.2133C25.6316 19.1764 25.6837 19.1395 25.7373 19.1016C25.7884 19.0647 25.8396 19.0278 25.8923 18.9899C25.9879 18.9209 26.0837 18.8522 26.1798 18.7839C26.3021 18.6961 26.4228 18.6064 26.543 18.5156C26.1034 18.1496 25.6554 17.8006 25.1953 17.4609C25.2305 17.2261 25.3515 17.0769 25.4919 16.8896C25.5349 16.8319 25.5779 16.7742 25.6222 16.7148C25.6553 16.671 25.6885 16.6272 25.7227 16.582C25.9133 16.6178 26.0316 16.6826 26.185 16.8002C26.2412 16.8428 26.2412 16.8428 26.2986 16.8862C26.3454 16.9224 26.3922 16.9586 26.4404 16.9958C26.5903 17.1107 26.7401 17.2255 26.8945 17.3438C26.9139 16.899 26.9332 16.4543 26.9531 15.9961C27.3012 15.9961 27.6492 15.9961 28.0078 15.9961C28.0078 16.4602 28.0078 16.9242 28.0078 17.4023C28.3752 17.1316 28.7426 16.8609 29.1211 16.582C29.3701 16.7065 29.4478 16.797 29.6082 17.0178C29.6713 17.1029 29.6713 17.1029 29.7356 17.1897C29.7649 17.2405 29.7941 17.2914 29.8242 17.3438C29.755 17.5514 29.6972 17.5851 29.5226 17.71C29.4487 17.7634 29.4487 17.7634 29.3733 17.818C29.3215 17.8549 29.2697 17.8917 29.2163 17.9297C29.1144 18.0028 29.0127 18.076 28.911 18.1494C28.8656 18.1817 28.8203 18.2141 28.7736 18.2474C28.6647 18.3304 28.5704 18.4162 28.4766 18.5156C28.507 18.5392 28.5374 18.5629 28.5687 18.5872C28.7077 18.6952 28.8466 18.8031 28.9856 18.9111C29.0334 18.9483 29.0813 18.9855 29.1306 19.0237C29.363 19.2044 29.595 19.3855 29.8242 19.5703C29.7292 19.7804 29.602 19.9564 29.4653 20.1416C29.4229 20.1993 29.3804 20.257 29.3367 20.3165C29.3042 20.3603 29.2717 20.4041 29.2383 20.4492C28.8281 20.2148 28.8281 20.2148 28.0664 19.6289C28.0471 21.7172 28.0277 23.8055 28.0078 25.957C28.6652 25.957 29.3227 25.957 30 25.957C30 26.3051 30 26.6531 30 27.0117C20.1 27.0117 10.2 27.0117 0 27.0117C0 26.6637 0 26.3156 0 25.957C0.657422 25.957 1.31484 25.957 1.99219 25.957C1.97285 23.8687 1.95352 21.7805 1.93359 19.6289C1.56621 19.8996 1.19883 20.1703 0.820312 20.4492C0.634143 20.2631 0.483935 20.1103 0.333252 19.9036C0.303266 19.8627 0.27328 19.8218 0.242386 19.7797C0.220406 19.7493 0.198427 19.7189 0.175781 19.6875C0.263475 19.4676 0.385687 19.3655 0.573578 19.2252C0.628716 19.1836 0.683853 19.1421 0.740662 19.0993C0.82722 19.0351 0.82722 19.0351 0.915527 18.9697C0.973686 18.9261 1.03185 18.8824 1.09177 18.8374C1.23535 18.7297 1.37924 18.6225 1.52344 18.5156C1.36633 18.3523 1.20565 18.2125 1.02264 18.0789C0.973171 18.0427 0.923698 18.0064 0.872726 17.9691C0.821592 17.9319 0.770457 17.8947 0.717773 17.8564C0.665733 17.8184 0.613692 17.7803 0.560074 17.7411C0.432108 17.6475 0.304008 17.5541 0.175781 17.4609C0.265545 17.2226 0.37181 17.0537 0.534668 16.8567C0.577116 16.805 0.619565 16.7532 0.6633 16.6999C0.695778 16.661 0.728256 16.6221 0.761719 16.582C1.06581 16.6768 1.29311 16.8666 1.54175 17.0581C1.69039 17.1717 1.83904 17.2853 1.99219 17.4023C1.99219 16.9383 1.99219 16.4742 1.99219 15.9961C2.34023 15.9961 2.68828 15.9961 3.04688 15.9961C3.07588 16.6632 3.07588 16.6632 3.10547 17.3438C3.42573 17.0935 3.42573 17.0935 3.74527 16.8424C3.78527 16.8115 3.82528 16.7805 3.8665 16.7487C3.90731 16.7167 3.94812 16.6848 3.99017 16.652C4.10156 16.582 4.10156 16.582 4.27734 16.582C4.37934 16.6924 4.46703 16.7987 4.55566 16.9189C4.58051 16.9505 4.60536 16.9821 4.63097 17.0146C4.80648 17.249 4.80648 17.249 4.79904 17.3994C4.72468 17.5681 4.6197 17.6353 4.47121 17.7434C4.41588 17.7844 4.36055 17.8254 4.30355 17.8677C4.24535 17.9099 4.18716 17.9521 4.1272 17.9956C4.01213 18.0797 3.8973 18.164 3.78273 18.2487C3.73155 18.2859 3.68038 18.3231 3.62765 18.3614C3.59068 18.393 3.55371 18.4245 3.51562 18.457C3.51562 18.4957 3.51562 18.5344 3.51562 18.5742C3.61863 18.6667 3.61863 18.6667 3.75298 18.761C3.80241 18.7971 3.85185 18.8332 3.90278 18.8704C3.95508 18.908 4.00739 18.9456 4.06128 18.9844C4.1129 19.022 4.16453 19.0596 4.21772 19.0984C4.41155 19.2393 4.60528 19.3788 4.80469 19.5117C4.77663 19.7908 4.6585 19.9351 4.47876 20.1453C4.40614 20.231 4.40614 20.231 4.33205 20.3185C4.29466 20.3617 4.25727 20.4048 4.21875 20.4492C3.81804 20.188 3.43441 19.9107 3.04688 19.6289C3.04688 21.7172 3.04688 23.8055 3.04688 25.957C3.83965 25.957 4.63242 25.957 5.44922 25.957C5.44922 19.3828 5.44922 12.8086 5.44922 6.03516C5.12051 6.03516 4.7918 6.03516 4.45312 6.03516C4.45312 5.68711 4.45312 5.33906 4.45312 4.98047C6.11602 4.98047 7.77891 4.98047 9.49219 4.98047C9.49219 4.67109 9.49219 4.36172 9.49219 4.04297C9.16348 4.04297 8.83477 4.04297 8.49609 4.04297C8.49609 3.69492 8.49609 3.34687 8.49609 2.98828ZM10.5469 4.04297C10.5469 11.2746 10.5469 18.5062 10.5469 25.957C11.0109 25.957 11.475 25.957 11.9531 25.957C11.956 25.7356 11.9589 25.5141 11.9618 25.2859C11.965 25.0717 11.9683 24.8574 11.9717 24.6431C11.974 24.4941 11.976 24.3451 11.9778 24.196C11.9805 23.9819 11.9839 23.7679 11.9875 23.5538C11.9881 23.4871 11.9888 23.4203 11.9895 23.3516C11.9907 23.2894 11.9918 23.2273 11.993 23.1632C11.9938 23.1086 11.9946 23.0539 11.9954 22.9976C12.0126 22.8435 12.0457 22.7474 12.1289 22.6172C12.3252 22.5191 12.5464 22.5494 12.7622 22.5492C12.8157 22.5489 12.8691 22.5486 12.9242 22.5483C13.1015 22.5474 13.2789 22.547 13.4562 22.5467C13.5791 22.5464 13.702 22.546 13.8249 22.5457C14.0827 22.5451 14.3406 22.5447 14.5985 22.5445C14.9294 22.5442 15.2603 22.5428 15.5912 22.5411C15.845 22.54 16.0989 22.5397 16.3528 22.5396C16.4748 22.5395 16.5969 22.539 16.7189 22.5382C16.8893 22.5372 17.0598 22.5373 17.2302 22.5377C17.2809 22.5372 17.3316 22.5366 17.3838 22.5361C17.7297 22.5385 17.7297 22.5385 17.8525 22.6405C17.9937 22.8122 17.9967 22.9318 18.0003 23.1499C18.0021 23.2432 18.0021 23.2432 18.0039 23.3383C18.0048 23.4056 18.0058 23.473 18.0068 23.5423C18.008 23.6111 18.0093 23.6799 18.0105 23.7507C18.0144 23.971 18.0178 24.1913 18.0212 24.4116C18.0238 24.5607 18.0263 24.7098 18.0289 24.8589C18.0352 25.2249 18.041 25.591 18.0469 25.957C18.5109 25.957 18.975 25.957 19.4531 25.957C19.4531 18.7254 19.4531 11.4938 19.4531 4.04297C16.5141 4.04297 13.575 4.04297 10.5469 4.04297ZM6.50391 6.03516C6.50391 12.6094 6.50391 19.1836 6.50391 25.957C7.49004 25.957 8.47617 25.957 9.49219 25.957C9.49219 19.3828 9.49219 12.8086 9.49219 6.03516C8.50605 6.03516 7.51992 6.03516 6.50391 6.03516ZM20.5078 6.03516C20.5078 12.6094 20.5078 19.1836 20.5078 25.957C21.4939 25.957 22.4801 25.957 23.4961 25.957C23.4961 19.3828 23.4961 12.8086 23.4961 6.03516C22.51 6.03516 21.5238 6.03516 20.5078 6.03516ZM13.0078 23.5547C13.0078 24.3475 13.0078 25.1402 13.0078 25.957C13.4912 25.957 13.9746 25.957 14.4727 25.957C14.4727 25.1643 14.4727 24.3715 14.4727 23.5547C13.9893 23.5547 13.5059 23.5547 13.0078 23.5547ZM15.5273 23.5547C15.5273 24.3475 15.5273 25.1402 15.5273 25.957C16.0107 25.957 16.4941 25.957 16.9922 25.957C16.9922 25.1643 16.9922 24.3715 16.9922 23.5547C16.5088 23.5547 16.0254 23.5547 15.5273 23.5547Z" fill="#111111" fill-opacity="0.7"></path>
                                    <path d="M21.4453 17.4609C21.7934 17.4609 22.1414 17.4609 22.5 17.4609C22.5 17.983 22.5 18.5051 22.5 19.043C22.152 19.043 21.8039 19.043 21.4453 19.043C21.4453 18.5209 21.4453 17.9988 21.4453 17.4609Z" fill="#111111" fill-opacity="0.7"></path>
                                    <path d="M17.4609 17.4609C17.809 17.4609 18.157 17.4609 18.5156 17.4609C18.5156 17.983 18.5156 18.5051 18.5156 19.043C18.1676 19.043 17.8195 19.043 17.4609 19.043C17.4609 18.5209 17.4609 17.9988 17.4609 17.4609Z" fill="#111111" fill-opacity="0.7"></path>
                                    <path d="M15.4688 17.4609C15.8168 17.4609 16.1648 17.4609 16.5234 17.4609C16.5234 17.983 16.5234 18.5051 16.5234 19.043C16.1754 19.043 15.8273 19.043 15.4688 19.043C15.4688 18.5209 15.4688 17.9988 15.4688 17.4609Z" fill="#111111" fill-opacity="0.7"></path>
                                    <path d="M13.4766 17.4609C13.8246 17.4609 14.1727 17.4609 14.5312 17.4609C14.5312 17.983 14.5312 18.5051 14.5312 19.043C14.1832 19.043 13.8352 19.043 13.4766 19.043C13.4766 18.5209 13.4766 17.9988 13.4766 17.4609Z" fill="#111111" fill-opacity="0.7"></path>
                                    <path d="M11.4844 17.4609C11.8324 17.4609 12.1805 17.4609 12.5391 17.4609C12.5391 17.983 12.5391 18.5051 12.5391 19.043C12.191 19.043 11.843 19.043 11.4844 19.043C11.4844 18.5209 11.4844 17.9988 11.4844 17.4609Z" fill="#111111" fill-opacity="0.7"></path>
                                    <path d="M7.5 17.4609C7.84805 17.4609 8.19609 17.4609 8.55469 17.4609C8.55469 17.983 8.55469 18.5051 8.55469 19.043C8.20664 19.043 7.85859 19.043 7.5 19.043C7.5 18.5209 7.5 17.9988 7.5 17.4609Z" fill="#111111" fill-opacity="0.7"></path>
                                    <path d="M21.4453 9.96094C21.7934 9.96094 22.1414 9.96094 22.5 9.96094C22.5 10.483 22.5 11.0051 22.5 11.543C22.152 11.543 21.8039 11.543 21.4453 11.543C21.4453 11.0209 21.4453 10.4988 21.4453 9.96094Z" fill="#111111" fill-opacity="0.7"></path>
                                    <path d="M17.4609 9.96094C17.809 9.96094 18.157 9.96094 18.5156 9.96094C18.5156 10.483 18.5156 11.0051 18.5156 11.543C18.1676 11.543 17.8195 11.543 17.4609 11.543C17.4609 11.0209 17.4609 10.4988 17.4609 9.96094Z" fill="#111111" fill-opacity="0.7"></path>
                                    <path d="M15.4688 9.96094C15.8168 9.96094 16.1648 9.96094 16.5234 9.96094C16.5234 10.483 16.5234 11.0051 16.5234 11.543C16.1754 11.543 15.8273 11.543 15.4688 11.543C15.4688 11.0209 15.4688 10.4988 15.4688 9.96094Z" fill="#111111" fill-opacity="0.7"></path>
                                    <path d="M13.4766 9.96094C13.8246 9.96094 14.1727 9.96094 14.5312 9.96094C14.5312 10.483 14.5312 11.0051 14.5312 11.543C14.1832 11.543 13.8352 11.543 13.4766 11.543C13.4766 11.0209 13.4766 10.4988 13.4766 9.96094Z" fill="#111111" fill-opacity="0.7"></path>
                                    <path d="M11.4844 9.96094C11.8324 9.96094 12.1805 9.96094 12.5391 9.96094C12.5391 10.483 12.5391 11.0051 12.5391 11.543C12.191 11.543 11.843 11.543 11.4844 11.543C11.4844 11.0209 11.4844 10.4988 11.4844 9.96094Z" fill="#111111" fill-opacity="0.7"></path>
                                    <path d="M7.5 9.96094C7.84805 9.96094 8.19609 9.96094 8.55469 9.96094C8.55469 10.483 8.55469 11.0051 8.55469 11.543C8.20664 11.543 7.85859 11.543 7.5 11.543C7.5 11.0209 7.5 10.4988 7.5 9.96094Z" fill="#111111" fill-opacity="0.7"></path>
                                    <path d="M21.4453 22.5C21.7934 22.5 22.1414 22.5 22.5 22.5C22.5 23.0027 22.5 23.5055 22.5 24.0234C22.152 24.0234 21.8039 24.0234 21.4453 24.0234C21.4453 23.5207 21.4453 23.018 21.4453 22.5Z" fill="#111111" fill-opacity="0.7"></path>
                                    <path d="M7.5 22.5C7.84805 22.5 8.19609 22.5 8.55469 22.5C8.55469 23.0027 8.55469 23.5055 8.55469 24.0234C8.20664 24.0234 7.85859 24.0234 7.5 24.0234C7.5 23.5207 7.5 23.018 7.5 22.5Z" fill="#111111" fill-opacity="0.7"></path>
                                    <path d="M21.4453 19.9805C21.7934 19.9805 22.1414 19.9805 22.5 19.9805C22.5 20.4832 22.5 20.9859 22.5 21.5039C22.152 21.5039 21.8039 21.5039 21.4453 21.5039C21.4453 21.0012 21.4453 20.4984 21.4453 19.9805Z" fill="#111111" fill-opacity="0.7"></path>
                                    <path d="M17.4609 19.9805C17.809 19.9805 18.157 19.9805 18.5156 19.9805C18.5156 20.4832 18.5156 20.9859 18.5156 21.5039C18.1676 21.5039 17.8195 21.5039 17.4609 21.5039C17.4609 21.0012 17.4609 20.4984 17.4609 19.9805Z" fill="#111111" fill-opacity="0.7"></path>
                                    <path d="M15.4688 19.9805C15.8168 19.9805 16.1648 19.9805 16.5234 19.9805C16.5234 20.4832 16.5234 20.9859 16.5234 21.5039C16.1754 21.5039 15.8273 21.5039 15.4688 21.5039C15.4688 21.0012 15.4688 20.4984 15.4688 19.9805Z" fill="#111111" fill-opacity="0.7"></path>
                                    <path d="M13.4766 19.9805C13.8246 19.9805 14.1727 19.9805 14.5312 19.9805C14.5312 20.4832 14.5312 20.9859 14.5312 21.5039C14.1832 21.5039 13.8352 21.5039 13.4766 21.5039C13.4766 21.0012 13.4766 20.4984 13.4766 19.9805Z" fill="#111111" fill-opacity="0.7"></path>
                                    <path d="M11.4844 19.9805C11.8324 19.9805 12.1805 19.9805 12.5391 19.9805C12.5391 20.4832 12.5391 20.9859 12.5391 21.5039C12.191 21.5039 11.843 21.5039 11.4844 21.5039C11.4844 21.0012 11.4844 20.4984 11.4844 19.9805Z" fill="#111111" fill-opacity="0.7"></path>
                                    <path d="M7.5 19.9805C7.84805 19.9805 8.19609 19.9805 8.55469 19.9805C8.55469 20.4832 8.55469 20.9859 8.55469 21.5039C8.20664 21.5039 7.85859 21.5039 7.5 21.5039C7.5 21.0012 7.5 20.4984 7.5 19.9805Z" fill="#111111" fill-opacity="0.7"></path>
                                    <path d="M21.4453 15C21.7934 15 22.1414 15 22.5 15C22.5 15.5027 22.5 16.0055 22.5 16.5234C22.152 16.5234 21.8039 16.5234 21.4453 16.5234C21.4453 16.0207 21.4453 15.518 21.4453 15Z" fill="#111111" fill-opacity="0.7"></path>
                                    <path d="M17.4609 15C17.809 15 18.157 15 18.5156 15C18.5156 15.5027 18.5156 16.0055 18.5156 16.5234C18.1676 16.5234 17.8195 16.5234 17.4609 16.5234C17.4609 16.0207 17.4609 15.518 17.4609 15Z" fill="#111111" fill-opacity="0.7"></path>
                                    <path d="M15.4688 15C15.8168 15 16.1648 15 16.5234 15C16.5234 15.5027 16.5234 16.0055 16.5234 16.5234C16.1754 16.5234 15.8273 16.5234 15.4688 16.5234C15.4688 16.0207 15.4688 15.518 15.4688 15Z" fill="#111111" fill-opacity="0.7"></path>
                                    <path d="M13.4766 15C13.8246 15 14.1727 15 14.5312 15C14.5312 15.5027 14.5312 16.0055 14.5312 16.5234C14.1832 16.5234 13.8352 16.5234 13.4766 16.5234C13.4766 16.0207 13.4766 15.518 13.4766 15Z" fill="#111111" fill-opacity="0.7"></path>
                                    <path d="M11.4844 15C11.8324 15 12.1805 15 12.5391 15C12.5391 15.5027 12.5391 16.0055 12.5391 16.5234C12.191 16.5234 11.843 16.5234 11.4844 16.5234C11.4844 16.0207 11.4844 15.518 11.4844 15Z" fill="#111111" fill-opacity="0.7"></path>
                                    <path d="M7.5 15C7.84805 15 8.19609 15 8.55469 15C8.55469 15.5027 8.55469 16.0055 8.55469 16.5234C8.20664 16.5234 7.85859 16.5234 7.5 16.5234C7.5 16.0207 7.5 15.518 7.5 15Z" fill="#111111" fill-opacity="0.7"></path>
                                    <path d="M21.4453 12.4805C21.7934 12.4805 22.1414 12.4805 22.5 12.4805C22.5 12.9832 22.5 13.4859 22.5 14.0039C22.152 14.0039 21.8039 14.0039 21.4453 14.0039C21.4453 13.5012 21.4453 12.9984 21.4453 12.4805Z" fill="#111111" fill-opacity="0.7"></path>
                                    <path d="M17.4609 12.4805C17.809 12.4805 18.157 12.4805 18.5156 12.4805C18.5156 12.9832 18.5156 13.4859 18.5156 14.0039C18.1676 14.0039 17.8195 14.0039 17.4609 14.0039C17.4609 13.5012 17.4609 12.9984 17.4609 12.4805Z" fill="#111111" fill-opacity="0.7"></path>
                                    <path d="M15.4688 12.4805C15.8168 12.4805 16.1648 12.4805 16.5234 12.4805C16.5234 12.9832 16.5234 13.4859 16.5234 14.0039C16.1754 14.0039 15.8273 14.0039 15.4688 14.0039C15.4688 13.5012 15.4688 12.9984 15.4688 12.4805Z" fill="#111111" fill-opacity="0.7"></path>
                                    <path d="M13.4766 12.4805C13.8246 12.4805 14.1727 12.4805 14.5312 12.4805C14.5312 12.9832 14.5312 13.4859 14.5312 14.0039C14.1832 14.0039 13.8352 14.0039 13.4766 14.0039C13.4766 13.5012 13.4766 12.9984 13.4766 12.4805Z" fill="#111111" fill-opacity="0.7"></path>
                                    <path d="M11.4844 12.4805C11.8324 12.4805 12.1805 12.4805 12.5391 12.4805C12.5391 12.9832 12.5391 13.4859 12.5391 14.0039C12.191 14.0039 11.843 14.0039 11.4844 14.0039C11.4844 13.5012 11.4844 12.9984 11.4844 12.4805Z" fill="#111111" fill-opacity="0.7"></path>
                                    <path d="M7.5 12.4805C7.84805 12.4805 8.19609 12.4805 8.55469 12.4805C8.55469 12.9832 8.55469 13.4859 8.55469 14.0039C8.20664 14.0039 7.85859 14.0039 7.5 14.0039C7.5 13.5012 7.5 12.9984 7.5 12.4805Z" fill="#111111" fill-opacity="0.7"></path>
                                    <path d="M21.4453 7.5C21.7934 7.5 22.1414 7.5 22.5 7.5C22.5 8.00273 22.5 8.50547 22.5 9.02344C22.152 9.02344 21.8039 9.02344 21.4453 9.02344C21.4453 8.5207 21.4453 8.01797 21.4453 7.5Z" fill="#111111" fill-opacity="0.7"></path>
                                    <path d="M17.4609 7.5C17.809 7.5 18.157 7.5 18.5156 7.5C18.5156 8.00273 18.5156 8.50547 18.5156 9.02344C18.1676 9.02344 17.8195 9.02344 17.4609 9.02344C17.4609 8.5207 17.4609 8.01797 17.4609 7.5Z" fill="#111111" fill-opacity="0.7"></path>
                                    <path d="M15.4688 7.5C15.8168 7.5 16.1648 7.5 16.5234 7.5C16.5234 8.00273 16.5234 8.50547 16.5234 9.02344C16.1754 9.02344 15.8273 9.02344 15.4688 9.02344C15.4688 8.5207 15.4688 8.01797 15.4688 7.5Z" fill="#111111" fill-opacity="0.7"></path>
                                    <path d="M13.4766 7.5C13.8246 7.5 14.1727 7.5 14.5312 7.5C14.5312 8.00273 14.5312 8.50547 14.5312 9.02344C14.1832 9.02344 13.8352 9.02344 13.4766 9.02344C13.4766 8.5207 13.4766 8.01797 13.4766 7.5Z" fill="#111111" fill-opacity="0.7"></path>
                                    <path d="M11.4844 7.5C11.8324 7.5 12.1805 7.5 12.5391 7.5C12.5391 8.00273 12.5391 8.50547 12.5391 9.02344C12.191 9.02344 11.843 9.02344 11.4844 9.02344C11.4844 8.5207 11.4844 8.01797 11.4844 7.5Z" fill="#111111" fill-opacity="0.7"></path>
                                    <path d="M7.5 7.5C7.84805 7.5 8.19609 7.5 8.55469 7.5C8.55469 8.00273 8.55469 8.50547 8.55469 9.02344C8.20664 9.02344 7.85859 9.02344 7.5 9.02344C7.5 8.5207 7.5 8.01797 7.5 7.5Z" fill="#111111" fill-opacity="0.7"></path>
                                    <path d="M17.4609 4.98047C17.809 4.98047 18.157 4.98047 18.5156 4.98047C18.5156 5.4832 18.5156 5.98594 18.5156 6.50391C18.1676 6.50391 17.8195 6.50391 17.4609 6.50391C17.4609 6.00117 17.4609 5.49844 17.4609 4.98047Z" fill="#111111" fill-opacity="0.7"></path>
                                    <path d="M15.4688 4.98047C15.8168 4.98047 16.1648 4.98047 16.5234 4.98047C16.5234 5.4832 16.5234 5.98594 16.5234 6.50391C16.1754 6.50391 15.8273 6.50391 15.4688 6.50391C15.4688 6.00117 15.4688 5.49844 15.4688 4.98047Z" fill="#111111" fill-opacity="0.7"></path>
                                    <path d="M13.4766 4.98047C13.8246 4.98047 14.1727 4.98047 14.5312 4.98047C14.5312 5.4832 14.5312 5.98594 14.5312 6.50391C14.1832 6.50391 13.8352 6.50391 13.4766 6.50391C13.4766 6.00117 13.4766 5.49844 13.4766 4.98047Z" fill="#111111" fill-opacity="0.7"></path>
                                    <path d="M11.4844 4.98047C11.8324 4.98047 12.1805 4.98047 12.5391 4.98047C12.5391 5.4832 12.5391 5.98594 12.5391 6.50391C12.191 6.50391 11.843 6.50391 11.4844 6.50391C11.4844 6.00117 11.4844 5.49844 11.4844 4.98047Z" fill="#111111" fill-opacity="0.7"></path>
                                </svg>