<svg width="24" height="24" viewBox="0 0 24 24" fill="none" xmlns="http://www.w3.org/2000/svg">
                            <path d="M11.9854 -0.0146408C12.0534 -0.0145126 12.0534 -0.0145126 12.1228 -0.0143819C12.7946 -0.0122525 13.4483 0.0116016 14.1094 0.140633C14.1725 0.151951 14.1725 0.151951 14.2368 0.163498C16.519 0.576466 18.6295 1.67537 20.2969 3.28126C20.3432 3.3257 20.3432 3.3257 20.3905 3.37105C20.8353 3.79969 21.245 4.23551 21.6094 4.73438C21.6496 4.78834 21.6898 4.84229 21.73 4.89625C22.0131 5.28014 22.2654 5.6787 22.5 6.09376C22.5189 6.12691 22.5377 6.16006 22.5571 6.19421C23.1673 7.27794 23.5767 8.45681 23.8272 9.67384C23.8341 9.70714 23.841 9.74045 23.8481 9.77476C23.9881 10.508 24.0176 11.2409 24.0147 11.9854C24.0145 12.0534 24.0145 12.0534 24.0144 12.1228C24.0123 12.7946 23.9884 13.4483 23.8594 14.1094C23.8518 14.1514 23.8443 14.1935 23.8365 14.2368C23.4235 16.519 22.3246 18.6295 20.7188 20.2969C20.6891 20.3278 20.6595 20.3587 20.629 20.3905C20.2003 20.8353 19.7645 21.245 19.2656 21.6094C19.2117 21.6496 19.1577 21.6898 19.1038 21.73C18.7199 22.0131 18.3213 22.2654 17.9063 22.5C17.8731 22.5189 17.84 22.5377 17.8058 22.5571C16.7221 23.1673 15.5432 23.5767 14.3262 23.8272C14.2929 23.8341 14.2596 23.841 14.2253 23.8481C13.492 23.9881 12.7591 24.0176 12.0147 24.0147C11.9693 24.0146 11.924 24.0145 11.8772 24.0144C11.2054 24.0123 10.5517 23.9884 9.89063 23.8594C9.84859 23.8518 9.80654 23.8443 9.76321 23.8365C7.48098 23.4235 5.37047 22.3246 3.70313 20.7188C3.67223 20.6891 3.64132 20.6595 3.60947 20.629C3.16471 20.2003 2.75503 19.7645 2.39063 19.2656C2.35041 19.2117 2.31019 19.1577 2.26997 19.1038C1.98696 18.7199 1.73464 18.3213 1.50001 17.9063C1.48116 17.8731 1.4623 17.84 1.44288 17.8058C0.83273 16.7221 0.423357 15.5432 0.172859 14.3262C0.162498 14.2762 0.162498 14.2762 0.151928 14.2253C0.0119401 13.492 -0.0175616 12.7591 -0.0146408 12.0147C-0.0145554 11.9693 -0.0144699 11.924 -0.0143819 11.8772C-0.0122525 11.2054 0.0116016 10.5517 0.140633 9.89063C0.151951 9.82756 0.151951 9.82756 0.163498 9.76321C0.576466 7.48098 1.67537 5.37047 3.28126 3.70313C3.31089 3.67223 3.34052 3.64132 3.37105 3.60947C3.79969 3.16471 4.23551 2.75503 4.73438 2.39063C4.78834 2.35041 4.84229 2.31019 4.89625 2.26997C5.28014 1.98696 5.6787 1.73464 6.09376 1.50001C6.12691 1.48116 6.16006 1.4623 6.19421 1.44288C7.27794 0.83273 8.45681 0.423357 9.67384 0.172859C9.72379 0.162498 9.72379 0.162498 9.77476 0.151928C10.508 0.0119401 11.2409 -0.0175616 11.9854 -0.0146408ZM9.79688 1.64063C9.75733 1.64916 9.71777 1.65769 9.67702 1.66647C7.35788 2.18107 5.15149 3.54505 3.70313 5.43751C3.68297 5.46372 3.6628 5.48993 3.64202 5.51693C3.31722 5.94131 3.02898 6.37892 2.76563 6.84376C2.74964 6.87152 2.73364 6.89927 2.71716 6.92787C2.12072 7.96807 1.73828 9.13135 1.54688 10.3125C1.53436 10.3875 1.53436 10.3875 1.52159 10.464C1.44538 10.9668 1.43448 11.463 1.43555 11.9707C1.43556 12.014 1.43557 12.0573 1.43558 12.1019C1.43718 12.8036 1.48443 13.47 1.64063 14.1563C1.64966 14.1978 1.65868 14.2394 1.66798 14.2823C2.04236 15.9881 2.84276 17.493 3.93751 18.8438C4.0398 18.8056 4.0398 18.8056 4.06889 18.7032C4.08724 18.6418 4.08724 18.6418 4.10596 18.5792C4.12016 18.5334 4.13436 18.4875 4.14899 18.4403C4.16428 18.3907 4.17957 18.3411 4.19532 18.29C4.44024 17.5273 4.77411 16.8185 5.25001 16.1719C5.3033 16.0986 5.3033 16.0986 5.35767 16.0239C6.30394 14.7466 7.56314 13.7935 9.04688 13.2188C9.04688 13.1724 9.04688 13.1259 9.04688 13.0781C8.95684 12.9921 8.95684 12.9921 8.83887 12.9082C8.41343 12.5788 8.07954 12.2134 7.78126 11.7656C7.75328 11.7239 7.7253 11.6821 7.69648 11.6391C7.01114 10.5447 6.79742 9.16951 7.06348 7.91016C7.25231 7.10041 7.6056 6.34403 8.15626 5.71876C8.18792 5.68039 8.21958 5.64202 8.2522 5.60249C9.00621 4.71502 10.1795 4.09013 11.3438 3.98438C12.7997 3.92175 14.0784 4.15977 15.2344 5.10938C15.2743 5.14159 15.3143 5.1738 15.3554 5.20698C16.1613 5.89105 16.6964 6.84755 16.9219 7.87501C16.9305 7.91394 16.9391 7.95287 16.9479 7.99298C17.2064 9.27198 16.9414 10.6025 16.2698 11.7123C15.9131 12.2477 15.4502 12.7745 14.9063 13.125C14.9809 13.2743 15.1362 13.3019 15.2842 13.3623C17.2322 14.189 18.7854 15.7567 19.6012 17.7112C19.7398 18.0672 19.8542 18.4326 19.9688 18.7969C20.1068 18.8129 20.1068 18.8129 20.1731 18.7371C20.1946 18.7091 20.2161 18.6811 20.2383 18.6522C20.2627 18.6206 20.2871 18.589 20.3122 18.5565C20.3381 18.5217 20.364 18.487 20.3906 18.4512C20.4176 18.4154 20.4445 18.3796 20.4722 18.3427C20.9207 17.7367 21.2906 17.0886 21.6094 16.4063C21.6236 16.3762 21.6379 16.3461 21.6525 16.3152C22.0048 15.5668 22.243 14.7787 22.4063 13.9688C22.4133 13.9362 22.4204 13.9036 22.4277 13.87C22.7002 12.5771 22.6444 11.0815 22.3594 9.79688C22.3509 9.75733 22.3423 9.71777 22.3335 9.67702C21.8189 7.35788 20.455 5.15149 18.5625 3.70313C18.5363 3.68297 18.5101 3.6628 18.4831 3.64202C18.0587 3.31722 17.6211 3.02898 17.1563 2.76563C17.1285 2.74964 17.1007 2.73364 17.0721 2.71716C16.0319 2.12072 14.8687 1.73826 13.6875 1.54688C13.6125 1.53436 13.6125 1.53436 13.536 1.52159C13.0341 1.44557 12.539 1.43448 12.0322 1.43555C11.9675 1.43557 11.9675 1.43557 11.9014 1.43558C11.1846 1.43722 10.4988 1.4849 9.79688 1.64063ZM9.20344 6.65699C8.54019 7.50294 8.27567 8.51098 8.4032 9.57345C8.51915 10.2692 8.85414 10.9195 9.32813 11.4375C9.35581 11.4695 9.38348 11.5014 9.41199 11.5344C10.0145 12.1894 10.9198 12.5685 11.7986 12.6195C12.8176 12.6533 13.6976 12.3143 14.4712 11.6574C15.1687 11.0019 15.5965 10.087 15.6283 9.12982C15.6414 8.11649 15.2868 7.17838 14.5911 6.43067C13.8208 5.69069 12.9046 5.35817 11.8521 5.36867C10.8154 5.4 9.87686 5.86932 9.20344 6.65699ZM10.5469 14.25C10.4984 14.2591 10.4498 14.2681 10.3998 14.2775C9.14991 14.5459 8.08313 15.2577 7.17188 16.125C7.14161 16.1528 7.11134 16.1806 7.08015 16.2092C6.06303 17.1716 5.39549 18.6423 5.23261 20.0224C5.23768 20.1617 5.23768 20.1617 5.3401 20.2546C5.38384 20.285 5.42759 20.3154 5.47266 20.3467C5.49725 20.364 5.52183 20.3813 5.54715 20.3991C5.63485 20.4599 5.7236 20.519 5.81251 20.5781C5.84743 20.6018 5.88234 20.6255 5.91832 20.6499C7.73622 21.8807 9.76642 22.5694 11.9707 22.5645C12.014 22.5644 12.0574 22.5644 12.102 22.5644C12.8034 22.5625 13.4708 22.5188 14.1563 22.3594C14.2258 22.3436 14.2258 22.3436 14.2968 22.3274C14.8759 22.1931 15.4355 22.025 15.9844 21.7969C16.0148 21.7845 16.0453 21.7721 16.0767 21.7594C16.7998 21.4643 17.464 21.0817 18.1037 20.6348C18.187 20.5785 18.272 20.5263 18.3582 20.4745C18.6318 20.3073 18.6318 20.3073 18.7841 20.0394C18.7782 19.881 18.7453 19.7469 18.7031 19.5938C18.6843 19.5176 18.6655 19.4414 18.6467 19.3652C18.3662 18.2778 17.8815 17.3107 17.1563 16.4531C17.1053 16.3922 17.1053 16.3922 17.0534 16.3301C15.9464 15.0452 14.2393 14.2482 12.5625 14.1094C11.8775 14.0699 11.2184 14.1124 10.5469 14.25Z" fill="#111111"></path>
                        </svg>