<svg width="40" height="40" viewBox="0 0 40 40" fill="none" xmlns="http://www.w3.org/2000/svg">
                                    <path d="M6.125 17.094C4.3125 16.5002 3.09375 14.8439 3.0625 12.9376V11.0001H6.125V10.5001C6.125 9.75003 6.4375 9.03126 6.96875 8.5H0.5625V12.9376C0.5625 16.219 2.875 19.0315 6.125 19.6878V17.094Z" fill="#FFDE55"></path>
                                    <path d="M10.375 14.7814V7.6875H8.9375C7.375 7.6875 6.125 8.93753 6.125 10.5001V23.8129L9.8125 21.3129L13.5 23.8129V20.5316C11.5313 19.2816 10.375 17.094 10.375 14.7814Z" fill="#FF415B"></path>
                                    <path d="M33.875 17.094C35.6875 16.5002 36.9062 14.8439 36.9375 12.9376V11.0001H33.875V10.5001C33.875 9.75003 33.5625 9.03126 33.0312 8.5H39.4063V12.9376C39.4063 16.219 37.0938 19.0315 33.8438 19.6878L33.875 17.094Z" fill="#FFDE55"></path>
                                    <path d="M29.625 14.7814V7.6875H31.0625C32.625 7.6875 33.875 8.93753 33.875 10.5001V23.8129L30.1875 21.3129L26.5 23.8129V20.5316C28.4688 19.2816 29.625 17.094 29.625 14.7814Z" fill="#FF415B"></path>
                                    <path d="M7.53125 3.375H32.5V5.87507H7.53125V3.375Z" fill="#603256"></path>
                                    <path d="M9.09375 34.125H30.9375C31.8125 34.125 32.5 34.8125 32.5 35.6875V36.6251H7.53125V35.6875C7.53125 34.8125 8.21875 34.125 9.09375 34.125Z" fill="#FFDE55"></path>
                                    <path d="M11.625 28.8125H28.4062C29.0938 28.8125 29.6562 29.375 29.6562 30.0625V34.1564H10.375V30.0625C10.375 29.3438 10.9062 28.8125 11.625 28.8125Z" fill="#603256"></path>
                                    <path d="M13.5 26.3125H26.5V28.8126H13.5V26.3125Z" fill="#FFDE55"></path>
                                    <path d="M10.375 5.875V14.7815C10.375 17.2191 11.6562 19.4691 13.75 20.6879L17.2812 22.7817V26.3131H22.75V22.7817L26.2812 20.6879C28.375 19.4379 29.6562 17.1878 29.6562 14.7815V5.875H10.375Z" fill="#FFB655"></path>
                                    <path d="M20 16.7815L16.6562 18.5315L17.3125 14.8127L14.5938 12.1876L18.3437 11.6563L20 8.28125L21.6562 11.6563L25.4062 12.1876L22.6875 14.8127L23.3437 18.5315L20 16.7815Z" fill="#FFDE55"></path>
                                    <path d="M18.375 34.125C18.375 34.4375 18.125 34.6562 17.8438 34.6875H16.6875C16.375 34.6875 16.125 34.4375 16.125 34.125C16.125 33.8125 16.375 33.5625 16.6875 33.5625H17.8438C18.125 33.5938 18.375 33.8125 18.375 34.125ZM12.3125 31.4687C12.3125 31.7812 12.5625 32 12.875 32.0312H27.1563C27.4688 32.0312 27.7188 31.7812 27.7188 31.4687C27.7188 31.1562 27.4688 30.9062 27.1563 30.9062H12.875C12.5625 30.9062 12.3125 31.1562 12.3125 31.4687ZM25.7813 12.5938L23.2813 15.0312L23.875 18.4687C23.9375 18.9062 23.4688 19.25 23.0938 19.0312L20 17.4063L16.9063 19.0312C16.5 19.25 16.0313 18.9062 16.125 18.4687L16.7188 15.0312L14.2188 12.5938C13.9063 12.2812 14.0625 11.7188 14.5313 11.6562L17.9688 11.1562L19.5 8.03125C19.6875 7.625 20.2813 7.625 20.4688 8.03125L22 11.1562L25.4375 11.6562C25.9375 11.7188 26.0938 12.25 25.7813 12.5938ZM24.2188 12.5625L21.5938 12.1875C21.4063 12.1562 21.25 12.0625 21.1875 11.875L20 9.5L18.8125 11.875C18.7188 12.0312 18.5938 12.1562 18.4063 12.1875L15.7813 12.5625L17.6875 14.4062C17.8125 14.5312 17.875 14.7187 17.8438 14.875L17.4063 17.5L19.75 16.25C19.9063 16.1562 20.0938 16.1562 20.25 16.25L22.5938 17.5L22.1563 14.875C22.125 14.6875 22.1875 14.5312 22.3125 14.4062L24.2188 12.5625ZM39.9688 8.5V12.9375C39.9688 16.3125 37.6875 19.25 34.4063 20.125V23.8125C34.4063 24.25 33.9063 24.5 33.5625 24.25L30.1875 21.9688L26.8125 24.25C26.4375 24.5 25.9688 24.2187 25.9688 23.8125V21.5312L23.3125 23.125V25.7812H26.5313C26.8438 25.7812 27.0625 26.0312 27.0938 26.3125V28.2812H28.4375C29.4375 28.2812 30.2188 29.0938 30.25 30.0938V33.625H31C32.1563 33.625 33.0938 34.5625 33.125 35.75V36.6875C33.125 37 32.875 37.25 32.5625 37.25H7.53125C7.21875 37.25 6.96875 37 6.96875 36.6875V35.75C6.96875 34.5938 7.90625 33.6562 9.09375 33.625H9.84375V30.0625C9.84375 29.0625 10.6563 28.2812 11.6563 28.25H13V26.2812C13 25.9688 13.25 25.75 13.5313 25.7188H16.75V23.0625L14.0625 21.5V23.7812C14.0625 24.2187 13.5625 24.4688 13.2188 24.2188L9.84375 21.9375L6.46875 24.2188C6.09375 24.4688 5.625 24.1875 5.625 23.7812V20.0938C2.3125 19.25 0.03125 16.3125 0.03125 12.9375V8.5C0.03125 8.1875 0.28125 7.9375 0.59375 7.9375H6.78125C7.375 7.40625 8.15625 7.125 8.96875 7.125H9.84375V6.40625H7.53125C7.21875 6.40625 6.96875 6.15625 6.96875 5.84375V3.34375C6.96875 3.03125 7.21875 2.78125 7.53125 2.78125H32.5C32.8125 2.78125 33.0625 3.03125 33.0625 3.34375V5.84375C33.0625 6.15625 32.8125 6.40625 32.5 6.40625H30.2188V7.125H31.0938C31.9063 7.125 32.6563 7.40625 33.2813 7.9375H39.4688C39.75 7.9375 39.9688 8.1875 39.9688 8.5ZM8.0625 5.3125H31.9375V3.90625H8.0625V5.3125ZM5.5625 11.5313H3.59375V12.9062C3.59375 14.2813 4.34375 15.5625 5.5625 16.25V11.5313ZM5.5625 18.9688V17.4688C3.71875 16.7188 2.5 14.9063 2.5 12.9062V10.9688C2.5 10.6562 2.75 10.4062 3.0625 10.4062H5.5625C5.5625 9.90625 5.6875 9.4375 5.90625 9H1.125V12.875C1.125 15.6875 2.90625 18.1563 5.5625 18.9688ZM12.9688 22.7812V20.8437C11 19.4375 9.84375 17.1875 9.8125 14.7812V8.21875H8.9375C7.6875 8.21875 6.6875 9.21875 6.65625 10.5V22.7812L9.5 20.8437C9.6875 20.7187 9.9375 20.7187 10.125 20.8437L12.9688 22.7812ZM28.375 29.3438H11.625C11.25 29.3438 10.9375 29.6562 10.9063 30.0625V33.5938H12.7188C13.0313 33.5938 13.2813 33.8438 13.2813 34.1562C13.2813 34.4688 13.0313 34.7188 12.7188 34.7188H9.0625C8.5 34.7188 8.0625 35.1875 8.03125 35.75V36.1562H31.9063V35.75C31.9063 35.1875 31.4375 34.75 30.875 34.7188H21.7813C21.4688 34.7188 21.2188 34.4688 21.2188 34.1562C21.2188 33.8438 21.4688 33.5938 21.7813 33.5938H29.0938V30.0625C29.0938 29.6562 28.7813 29.3438 28.375 29.3438ZM25.9375 26.8438H14.0625V28.25H25.9375V26.8438ZM26.1875 20.0938C28 18.9375 29.0938 16.9375 29.0938 14.7812V6.40625H10.9063V14.75C10.9063 16.9063 12 18.9062 13.8125 20.0625C14.2188 20.3125 13.5313 19.9062 17.5313 22.2812C17.6875 22.375 17.8125 22.5625 17.8125 22.75V25.7188H22.1875V22.75C22.1875 22.5625 22.2813 22.375 22.4688 22.2812C26.4688 19.9375 25.8125 20.3438 26.1875 20.0938ZM33.3438 19.6562V10.5C33.3438 9.25 32.3438 8.25 31.0625 8.21875H30.1875V14.75C30.1875 17.1563 29 19.4062 27.0313 20.8125V22.75L29.875 20.8125C30.0625 20.6875 30.3125 20.6875 30.5 20.8125L33.3438 22.75V19.6562ZM38.875 9.03125H34.0938C34.3125 9.46875 34.4063 9.9375 34.4375 10.4375H36.9375C37.25 10.4375 37.5 10.6875 37.5 11V12.9375C37.5 13.25 37.25 13.5 36.9375 13.5C36.625 13.5 36.375 13.25 36.375 12.9375V11.5625H34.4063V19C37.0625 18.1875 38.8438 15.7188 38.875 12.9688V9.03125Z" fill="black"></path>
                                </svg>