<svg width="16" height="16" viewBox="0 0 16 16" fill="none" xmlns="http://www.w3.org/2000/svg">
                                    <path d="M12.4531 8.78125H3.14062C2.70906 8.78125 2.35938 8.43156 2.35938 8C2.35938 7.56844 2.70906 7.21875 3.14062 7.21875H12.4531C12.8847 7.21875 13.2344 7.56844 13.2344 8C13.2344 8.43156 12.8847 8.78125 12.4531 8.78125Z" fill="#111111" fill-opacity="0.7"></path>
                                    <path d="M8.87533 12.4766C8.76772 12.4767 8.66125 12.4545 8.56262 12.4115C8.46398 12.3685 8.37532 12.3055 8.3022 12.2266C8.00877 11.9103 8.02751 11.416 8.34376 11.1225L11.7022 8.00783L8.2422 4.8847C7.92189 4.59564 7.89658 4.10158 8.18564 3.78126C8.4747 3.46095 8.96876 3.43564 9.28908 3.7247L13.3828 7.42002C13.5456 7.56689 13.6391 7.77533 13.6406 7.9947C13.6422 8.21408 13.5516 8.42376 13.3906 8.57283L9.40626 12.2681C9.26202 12.4023 9.0723 12.4768 8.87533 12.4766Z" fill="#111111" fill-opacity="0.7"></path>
                                </svg>