<svg width="16" height="16" viewBox="0 0 16 16" fill="none" xmlns="http://www.w3.org/2000/svg">
                                                        <path d="M12.4762 10.4994C13.4859 9.41003 14.1042 7.953 14.1042 6.35406C14.1041 2.98828 11.3659 0.25 8.00006 0.25C4.63425 0.25 1.896 2.98828 1.896 6.35406C1.896 8.07622 2.61312 9.63384 3.76412 10.7447L2.25971 13.976C2.24043 14.0174 2.23286 14.0633 2.23783 14.1087C2.2428 14.1541 2.26013 14.1973 2.28792 14.2336C2.31572 14.2699 2.35292 14.2978 2.39549 14.3144C2.43806 14.331 2.48436 14.3356 2.52937 14.3278L4.37556 14.0052L5.31718 15.6256C5.34013 15.6651 5.37347 15.6976 5.41358 15.7195C5.45369 15.7414 5.49903 15.7519 5.54468 15.7498C5.59033 15.7477 5.63454 15.7332 5.6725 15.7078C5.71046 15.6823 5.74072 15.647 5.76 15.6055L7.24696 12.4117C7.49381 12.4422 7.74509 12.4581 8.00006 12.4581C8.36678 12.4581 8.72603 12.4256 9.07512 12.3633L10.1974 14.9689C10.2155 15.0109 10.2447 15.0471 10.2819 15.0736C10.3191 15.1002 10.3629 15.116 10.4085 15.1194C10.454 15.1228 10.4996 15.1136 10.5404 15.0929C10.5811 15.0721 10.6154 15.0406 10.6394 15.0018L11.6277 13.4094L13.4637 13.7854C13.5084 13.7946 13.5548 13.7913 13.5979 13.776C13.6409 13.7606 13.6789 13.7337 13.7077 13.6983C13.7365 13.6628 13.7551 13.6202 13.7614 13.5749C13.7677 13.5297 13.7615 13.4836 13.7434 13.4416L12.4762 10.4994ZM5.50887 14.9603L4.72034 13.6033C4.69464 13.5591 4.65602 13.5239 4.60968 13.5023C4.56334 13.4807 4.51151 13.4739 4.46115 13.4827L2.91515 13.7528L4.15456 11.0907C4.89228 11.6908 5.77221 12.1223 6.73531 12.326L5.50887 14.9603ZM2.396 6.35406C2.396 3.26397 4.90996 0.75 8.00006 0.75C11.0902 0.75 13.6041 3.26397 13.6041 6.35406C13.6041 9.44416 11.0902 11.9581 8.00006 11.9581C4.90996 11.9581 2.396 9.44416 2.396 6.35406ZM11.5572 12.8847C11.5072 12.8744 11.4551 12.8797 11.4082 12.8999C11.3612 12.9201 11.3216 12.9543 11.2947 12.9978L10.4672 14.3313L9.57187 12.2526C10.5237 11.9987 11.3849 11.5203 12.0945 10.8773L13.0947 13.1995L11.5572 12.8847ZM12.2016 8.07447C12.1897 7.97441 12.1785 7.88538 12.1685 7.80544C12.1277 7.48063 12.1073 7.31766 12.13 7.18872C12.1528 7.05981 12.2277 6.91359 12.3771 6.62234C12.4138 6.55066 12.4548 6.47081 12.5002 6.38091C12.7372 5.91213 12.6391 5.35563 12.2561 4.99616C12.1826 4.92719 12.1168 4.86619 12.0577 4.81138C11.8178 4.58875 11.6973 4.47703 11.6319 4.36366C11.5664 4.25031 11.5299 4.09013 11.4571 3.771C11.4392 3.69244 11.4192 3.605 11.3962 3.50688C11.2764 2.99544 10.8435 2.63222 10.3191 2.60303C10.2185 2.59741 10.1289 2.59297 10.0484 2.58897C9.72147 2.57269 9.55737 2.56453 9.43434 2.51975C9.31134 2.47494 9.18037 2.37575 8.91946 2.17806C8.84751 2.12343 8.77539 2.06902 8.70309 2.01484C8.28256 1.70009 7.71753 1.70009 7.29697 2.01484C7.21628 2.07522 7.14478 2.12941 7.08056 2.17806C6.81965 2.37572 6.68868 2.47494 6.56568 2.51975C6.44265 2.56453 6.27856 2.57266 5.95165 2.58897C5.87118 2.59297 5.78159 2.59744 5.681 2.60303C5.15653 2.63222 4.72365 2.99544 4.60384 3.50688C4.58087 3.60497 4.5609 3.69244 4.543 3.77097C4.47018 4.09009 4.43362 4.25028 4.36818 4.36366C4.30275 4.47703 4.18228 4.58875 3.94234 4.81134C3.87603 4.87274 3.80992 4.93435 3.744 4.99616C3.361 5.35563 3.26287 5.91213 3.49984 6.38091C3.54531 6.47081 3.58621 6.55066 3.62296 6.62234C3.77234 6.91359 3.84731 7.05981 3.87003 7.18872C3.89278 7.31766 3.87231 7.48066 3.83159 7.80544C3.82156 7.88541 3.8104 7.97441 3.79843 8.07447C3.73609 8.596 4.01862 9.08538 4.5015 9.29219C4.59412 9.33188 4.67681 9.36672 4.75106 9.398C5.05268 9.52509 5.20409 9.58891 5.30437 9.67306C5.40465 9.75722 5.49378 9.89522 5.67134 10.1702C5.71503 10.2379 5.76371 10.3133 5.81887 10.3976C6.04096 10.7372 6.40834 10.9298 6.79581 10.9298C6.9099 10.9298 7.02581 10.913 7.14018 10.8785C7.23662 10.8493 7.32234 10.8229 7.39931 10.7991C7.71209 10.7026 7.86909 10.6542 8 10.6542C8.1309 10.6542 8.2879 10.7026 8.60072 10.7991C8.67768 10.8229 8.76343 10.8493 8.85984 10.8785C9.36262 11.0304 9.89365 10.8372 10.1812 10.3976C10.2363 10.3132 10.285 10.2379 10.3287 10.1702C10.5062 9.89519 10.5954 9.75716 10.6957 9.67303C10.7959 9.58891 10.9473 9.52509 11.249 9.39797C11.3232 9.36669 11.4059 9.33184 11.4985 9.29216C11.9814 9.08538 12.264 8.596 12.2016 8.07447ZM11.9322 6.39416C11.5883 7.06478 11.5786 7.11988 11.6724 7.86763C11.6823 7.94669 11.6933 8.03478 11.7052 8.13378C11.7415 8.43775 11.5831 8.71203 11.3017 8.83256C11.2101 8.87181 11.1283 8.90625 11.0548 8.93722C10.3603 9.22988 10.3175 9.26584 9.90868 9.89894C9.86028 9.97407 9.81163 10.0491 9.76275 10.1239C9.59521 10.3801 9.29759 10.4884 9.00453 10.3998C8.90912 10.371 8.82431 10.3448 8.74815 10.3213C8.02803 10.0991 7.97209 10.0991 7.25193 10.3213C7.17578 10.3448 7.09096 10.371 6.99556 10.3998C6.70247 10.4885 6.4049 10.3801 6.23734 10.1239C6.18278 10.0405 6.13462 9.96588 6.0914 9.89894C5.68259 9.26581 5.63975 9.22988 4.94528 8.93722C4.87181 8.90628 4.79003 8.87181 4.69837 8.83256C4.41696 8.71203 4.25859 8.43772 4.29493 8.13378C4.30675 8.03478 4.31781 7.94672 4.32775 7.86763C4.42153 7.11984 4.41181 7.06478 4.06793 6.39416C4.03156 6.32322 3.99109 6.24425 3.94612 6.15528C3.80803 5.88209 3.863 5.57019 4.08622 5.36069C4.15893 5.29244 4.224 5.23209 4.28243 5.17788C4.8349 4.66534 4.86287 4.61691 5.0305 3.88213C5.04821 3.80444 5.06796 3.71791 5.09068 3.62084C5.1605 3.32278 5.40312 3.11919 5.70878 3.10219C5.80831 3.09666 5.89693 3.09225 5.97653 3.08828C6.72925 3.05081 6.78181 3.03166 7.38253 2.57656C7.44606 2.52844 7.51681 2.47484 7.59662 2.41509C7.71915 2.32338 7.85962 2.27753 8.00006 2.27753C8.1405 2.27753 8.28093 2.32341 8.4035 2.41509C8.48331 2.47481 8.55403 2.52844 8.61756 2.57656C9.21828 3.03166 9.27084 3.05081 10.0236 3.08828C10.1032 3.09225 10.1918 3.09669 10.2913 3.10219C10.597 3.11919 10.8396 3.32278 10.9094 3.62084C10.9322 3.71791 10.9519 3.80447 10.9696 3.88216C11.1372 4.61691 11.1652 4.66534 11.7177 5.17788C11.7762 5.23209 11.8412 5.29247 11.9139 5.36069C12.1371 5.57019 12.1921 5.88209 12.054 6.15528C12.0137 6.23504 11.973 6.31466 11.9322 6.39416ZM10.1448 5.5205L8.8079 5.45531L8.33281 4.20397C8.27997 4.06475 8.14934 3.97478 8.00006 3.97478C7.85075 3.97478 7.72012 4.06475 7.66731 4.20397L7.19221 5.45531L5.85531 5.5205C5.70631 5.52772 5.58021 5.62406 5.53409 5.76597C5.48797 5.90788 5.53331 6.05994 5.64959 6.15344L6.69287 6.99197L6.34171 8.2836C6.30259 8.42753 6.35531 8.57722 6.476 8.66491C6.53666 8.70933 6.60987 8.73333 6.68506 8.73347C6.75259 8.73347 6.82028 8.71394 6.88012 8.67475L8.00006 7.94172L9.11997 8.67481C9.24481 8.75653 9.40343 8.75259 9.52415 8.66497C9.64484 8.57725 9.69753 8.42756 9.65837 8.28366L9.30725 6.99203L10.3506 6.1535C10.4668 6.06 10.5122 5.90794 10.466 5.76603C10.4199 5.62413 10.2938 5.52775 10.1448 5.5205ZM7.86537 4.38147C7.86537 4.38144 7.86537 4.38144 7.86537 4.38147V4.38147ZM8.9205 6.66138C8.8665 6.70474 8.82634 6.76293 8.80493 6.82879C8.78353 6.89465 8.78181 6.96533 8.8 7.03216L9.07634 8.04866L8.195 7.47175C8.13706 7.43381 8.06931 7.41359 8.00005 7.41359C7.93079 7.41358 7.86303 7.43378 7.80509 7.47172L6.92372 8.04866L7.20012 7.03203C7.21826 6.96522 7.21651 6.89457 7.1951 6.82874C7.1737 6.7629 7.13355 6.70474 7.07959 6.66138L6.25853 6.00144L7.31059 5.95013C7.37979 5.9468 7.44651 5.92334 7.50256 5.88263C7.55862 5.84193 7.60157 5.78574 7.62615 5.72097L8.00006 4.73619L8.37396 5.72103C8.39854 5.78578 8.44148 5.84194 8.49751 5.88264C8.55354 5.92334 8.62023 5.94681 8.6894 5.95016L9.74156 6.00147L8.9205 6.66138Z" fill="#111111" fill-opacity="0.5"></path>
                                                    </svg>