<svg width="32" height="32" viewBox="0 0 32 32" fill="none" xmlns="http://www.w3.org/2000/svg">
                                        <path d="M10.2982 0.00320952C10.4769 0.00303801 10.6556 0.00160658 10.8343 0.000116171C12.282 -0.0056295 13.5098 0.198983 14.6028 1.23269C14.6937 1.33252 14.6937 1.33252 14.7864 1.43436C14.8227 1.47098 14.8591 1.5076 14.8965 1.54533C15.4223 2.10845 15.6986 2.80036 15.7909 3.56412C15.8897 4.34292 16.2924 5.02208 16.6544 5.70297C16.702 5.79421 16.7497 5.88546 16.7988 5.97947C16.8426 6.06089 16.8865 6.1423 16.9317 6.22619C17.0438 6.51329 17.0613 6.71553 17.0273 7.02191C16.9413 7.17346 16.9413 7.17346 16.7955 7.258C16.57 7.28106 16.57 7.28106 16.3173 7.27276C16.2334 7.27063 16.1494 7.2685 16.0629 7.2663C15.9665 7.2622 15.9665 7.2622 15.8682 7.258C15.87 7.35959 15.87 7.35959 15.8719 7.46322C15.8759 7.72065 15.8788 7.97804 15.8809 8.23548C15.8821 8.34575 15.8836 8.45601 15.8857 8.56626C15.9041 9.59212 15.8408 10.6173 15.3466 11.5372C15.306 11.6159 15.306 11.6159 15.2646 11.6961C15.0429 12.1151 14.7924 12.4929 14.4773 12.8456C14.428 12.9012 14.3787 12.9567 14.3279 13.014C13.9304 13.4401 13.9304 13.4401 13.7045 13.5511C13.5238 13.643 13.386 13.7248 13.2409 13.8686C13.154 14.1526 13.1578 14.424 13.1636 14.7196C13.1623 14.8351 13.1623 14.8351 13.1609 14.953C13.1591 15.1426 13.1601 15.3317 13.1636 15.5213C13.2133 15.5257 13.263 15.53 13.3142 15.5345C15.5324 15.7427 17.517 16.9679 18.9591 18.6692C19.6437 19.5259 20.1729 20.5199 20.5287 21.5614C20.5465 21.6118 20.5643 21.6622 20.5827 21.7142C20.9873 22.9794 21.0033 24.3081 20.999 25.6238C20.9992 25.7956 20.9994 25.9674 20.9997 26.1392C21 26.4957 20.9995 26.8523 20.9984 27.2088C20.9971 27.6658 20.9979 28.1228 20.9993 28.5798C21.0001 28.9329 20.9998 29.2861 20.9992 29.6393C20.9991 29.8079 20.9993 29.9766 20.9998 30.1452C21.0004 30.3796 20.9995 30.614 20.9982 30.8485C20.9987 30.9178 20.9992 30.9872 20.9996 31.0587C20.9968 31.3374 20.9948 31.5247 20.8649 31.7736C20.6483 31.9706 20.442 31.9791 20.1646 31.9795C20.0946 31.9798 20.0247 31.9801 19.9526 31.9804C19.8757 31.9804 19.7988 31.9803 19.7195 31.9802C19.597 31.9806 19.597 31.9806 19.4721 31.9809C19.1971 31.9816 18.9222 31.9817 18.6472 31.9818C18.4506 31.9822 18.254 31.9826 18.0574 31.983C17.5224 31.9841 16.9874 31.9846 16.4524 31.9849C16.1185 31.9851 15.7845 31.9855 15.4505 31.9858C14.5261 31.9868 13.6016 31.9876 12.6771 31.9879C12.5884 31.9879 12.5884 31.9879 12.4978 31.9879C12.4385 31.9879 12.3792 31.9879 12.3181 31.988C12.1979 31.988 12.0777 31.988 11.9575 31.9881C11.8979 31.9881 11.8383 31.9881 11.7768 31.9881C10.8105 31.9884 9.8441 31.9898 8.87772 31.9916C7.88585 31.9935 6.89398 31.9945 5.9021 31.9946C5.34508 31.9946 4.78807 31.9951 4.23105 31.9965C3.70729 31.9979 3.18354 31.998 2.65977 31.9973C2.46729 31.9972 2.27481 31.9976 2.08233 31.9984C1.82004 31.9994 1.5578 31.9989 1.29552 31.9981C1.21893 31.9987 1.14234 31.9993 1.06343 32C0.399949 31.9951 0.399949 31.9951 0.104451 31.7331C0.00211014 31.4204 0.0151402 31.1204 0.0147264 30.7944C0.0143427 30.7224 0.013959 30.6505 0.0135638 30.5763C0.0124323 30.3373 0.0119076 30.0984 0.0114815 29.8594C0.0110366 29.6923 0.0105917 29.5253 0.0101467 29.3583C0.00933376 29.0069 0.00888302 28.6555 0.00861393 28.3042C0.00819378 27.8582 0.00634573 27.4122 0.00413454 26.9662C0.0026797 26.6203 0.00229242 26.2744 0.00217488 25.9285C0.00194381 25.7644 0.00133312 25.6003 0.000306016 25.4362C-0.0163751 22.562 0.646199 20.1449 2.65447 18.0396C3.71799 16.9531 4.98767 16.2095 6.42637 15.7672C6.47804 15.7512 6.52972 15.7352 6.58297 15.7187C6.99518 15.6 7.40532 15.5542 7.83177 15.5213C7.91241 14.5277 7.91241 14.5277 7.58184 13.6408C7.3625 13.4893 7.13921 13.364 6.90449 13.239C5.9098 12.4322 5.35046 11.1432 5.15653 9.88933C5.10205 9.38688 5.11122 8.8842 5.11755 8.37945C5.11833 8.27001 5.11903 8.16057 5.11966 8.05113C5.12147 7.78674 5.124 7.52238 5.12721 7.258C5.06296 7.26166 4.99871 7.26531 4.93252 7.26907C4.84855 7.27191 4.76458 7.27475 4.67806 7.27768C4.59469 7.28133 4.51131 7.28498 4.42541 7.28874C4.19993 7.258 4.19993 7.258 4.05414 7.12889C3.94199 6.88684 3.93724 6.7369 3.96811 6.47102C4.06251 6.23762 4.06251 6.23762 4.19389 5.99269C4.24115 5.90201 4.28841 5.81133 4.3371 5.7179C4.36209 5.6706 4.38707 5.6233 4.41281 5.57457C4.76616 4.90233 5.10914 4.24932 5.23829 3.49034C5.44191 2.29988 6.00606 1.41693 6.98358 0.715929C8.03969 0.0537104 9.08966 0.00308004 10.2982 0.00320952ZM6.80911 2.50139C6.52656 2.89928 6.36358 3.30424 6.36358 3.79529C9.1176 3.79529 11.8716 3.79529 14.7091 3.79529C14.4461 2.90238 14.1717 2.20156 13.3954 1.67045C12.9112 1.40713 12.4495 1.19167 11.8955 1.18433C11.8287 1.18332 11.7618 1.18231 11.693 1.18127C11.5853 1.1804 11.5853 1.1804 11.4754 1.17951C11.3633 1.17856 11.3633 1.17856 11.2489 1.17758C11.0906 1.1765 10.9324 1.17565 10.7741 1.17503C10.6133 1.17413 10.4526 1.17252 10.2919 1.17019C8.81429 1.14876 7.80974 1.31581 6.80911 2.50139ZM6.05449 4.89707C5.85049 5.31259 5.64649 5.72812 5.4363 6.15623C8.77682 6.15623 12.1173 6.15623 15.5591 6.15623C15.3954 5.61912 15.3954 5.61912 15.0182 4.89707C12.0602 4.89707 9.10214 4.89707 6.05449 4.89707ZM6.28631 7.258C6.24642 10.0679 6.24642 10.0679 7.56886 12.2695C8.40851 13.0954 9.50517 13.5128 10.6713 13.4967C11.87 13.3941 12.8598 12.9232 13.69 12.0275C14.8941 10.5669 14.7091 9.20617 14.7091 7.258C11.9296 7.258 9.15005 7.258 6.28631 7.258ZM8.99087 14.4195C8.98182 14.7212 8.97638 15.0228 8.97155 15.3245C8.96896 15.4094 8.96637 15.4942 8.96371 15.5815C8.95633 16.1976 9.03786 16.6222 9.43217 17.0971C9.81525 17.414 10.1315 17.5898 10.6378 17.5674C11.0533 17.5052 11.3999 17.3199 11.6954 17.0166C12.0668 16.5053 12.0418 15.9772 12.0238 15.3639C12.0225 15.2729 12.0211 15.1819 12.0196 15.0881C12.016 14.8652 12.0109 14.6424 12.0045 14.4195C11.9065 14.4323 11.8085 14.4451 11.7075 14.4583C11.3034 14.5038 10.9039 14.5099 10.4977 14.5081C10.4293 14.5084 10.3608 14.5087 10.2903 14.509C9.85128 14.5083 9.42639 14.4763 8.99087 14.4195ZM5.59085 17.3313C5.52142 17.3651 5.45199 17.3989 5.38046 17.4337C3.49953 18.4122 2.11468 20.1542 1.46639 22.1909C1.41876 22.3532 1.37788 22.5177 1.34082 22.6828C1.32788 22.7405 1.31493 22.7982 1.30159 22.8576C1.14512 23.6635 1.1668 24.4684 1.17118 25.286C1.17147 25.4452 1.17169 25.6044 1.17185 25.7636C1.17243 26.1797 1.17395 26.5958 1.17566 27.0118C1.17753 27.5126 1.17823 28.0134 1.17913 28.5143C1.18063 29.2724 1.18359 30.0305 1.18628 30.7887C2.53778 30.7887 3.88929 30.7887 5.28176 30.7887C5.28465 30.2404 5.28753 29.6921 5.29051 29.1271C5.29285 28.7803 5.29526 28.4335 5.29791 28.0867C5.30211 27.5359 5.30606 26.9851 5.30853 26.4343C5.31053 25.9903 5.31365 25.5464 5.31755 25.1025C5.31884 24.9329 5.31973 24.7633 5.32021 24.5937C5.32095 24.3566 5.32311 24.1196 5.32562 23.8825C5.32551 23.812 5.3254 23.7415 5.32528 23.6688C5.32625 23.6043 5.32722 23.5397 5.32822 23.4732C5.32875 23.3891 5.32875 23.3891 5.3293 23.3033C5.3683 23.1088 5.43743 23.0383 5.59085 22.9189C5.98932 22.8682 5.98932 22.8682 6.18296 23.0189C6.3086 23.1843 6.3158 23.2659 6.31712 23.4732C6.31809 23.5376 6.31906 23.602 6.32005 23.6684C6.31994 23.7391 6.31983 23.8097 6.31972 23.8825C6.32051 23.9582 6.32131 24.0339 6.32212 24.1119C6.32444 24.3573 6.32517 24.6026 6.32585 24.8479C6.32705 24.9993 6.32834 25.1506 6.32975 25.3019C6.33423 25.8635 6.33671 26.425 6.33943 26.9866C6.3474 28.2413 6.35537 29.496 6.36358 30.7887C9.0921 30.7887 11.8206 30.7887 14.6318 30.7887C14.645 28.2871 14.645 28.2871 14.6548 25.7854C14.6583 25.3019 14.6583 25.3019 14.6604 25.0757C14.6615 24.9175 14.662 24.7592 14.6621 24.601C14.6623 24.3615 14.6644 24.122 14.6669 23.8825C14.6665 23.8119 14.6661 23.7412 14.6657 23.6684C14.6736 23.1969 14.6736 23.1969 14.8485 22.9902C15.1021 22.8836 15.2968 22.9371 15.5591 22.9976C15.7253 23.1668 15.6508 23.5583 15.6522 23.7932C15.653 23.8684 15.6538 23.9437 15.6546 24.0212C15.657 24.2711 15.6589 24.5211 15.6608 24.7711C15.6624 24.9439 15.664 25.1167 15.6657 25.2895C15.67 25.7453 15.6738 26.2011 15.6775 26.6569C15.6821 27.2032 15.6872 27.7496 15.6922 28.2959C15.6998 29.1269 15.7066 29.9578 15.7136 30.7887C17.0652 30.7887 18.4167 30.7887 19.8091 30.7887C19.8181 29.5225 19.8181 29.5225 19.8242 28.2562C19.8261 27.7387 19.8282 27.2211 19.8324 26.7036C19.8358 26.2857 19.8377 25.8678 19.8384 25.4499C19.839 25.2916 19.8401 25.1333 19.8418 24.975C19.8668 22.5265 19.1317 20.5211 17.4426 18.743C16.9697 18.2603 16.4474 17.9051 15.8682 17.5674C15.7928 17.523 15.7174 17.4786 15.6397 17.4328C14.8533 17.0011 13.9724 16.7328 13.0864 16.6231C13.0574 16.6867 13.0284 16.7503 12.9985 16.8158C12.6049 17.653 12.6049 17.653 12.2363 17.9609C12.1806 18.0145 12.1248 18.0681 12.0673 18.1232C11.4156 18.5804 10.7777 18.6768 9.99542 18.5905C9.28874 18.4417 8.73339 18.0667 8.32379 17.4589C8.16866 17.1849 8.05213 16.9331 7.98632 16.6231C7.19263 16.6231 6.29138 16.9863 5.59085 17.3313Z" fill="white"></path>
                                        <path d="M21.6963 0.380222C21.8564 0.543715 21.9133 0.657265 22.0111 0.863773C22.2199 1.22119 22.4272 1.30843 22.802 1.41415C22.8764 1.43238 22.9509 1.4506 23.0275 1.46938C23.1067 1.49093 23.1858 1.51247 23.2674 1.53467C23.5288 1.60519 23.7908 1.67207 24.053 1.73899C24.2359 1.78766 24.4188 1.83658 24.6016 1.88572C25.0833 2.01459 25.5657 2.14045 26.0483 2.26562C26.6308 2.41725 27.2126 2.5722 27.7944 2.72686C28.248 2.84739 28.7017 2.96739 29.1558 3.08562C30.5691 3.45458 30.5691 3.45458 31.2672 3.66943C31.3605 3.69767 31.4537 3.72591 31.5497 3.755C31.8115 3.88499 31.8871 3.99069 32 4.26968C31.9898 4.49654 31.9634 4.6215 31.8298 4.79942C31.6594 4.94822 31.5148 4.99019 31.3016 5.05028C31.2191 5.07397 31.1367 5.09766 31.0518 5.12207C30.9605 5.1474 30.8693 5.17272 30.7753 5.19881C30.6262 5.2413 30.4771 5.2838 30.328 5.32632C30.1639 5.37297 29.9997 5.41922 29.8355 5.46539C29.4674 5.56902 29.0998 5.67444 28.7322 5.78007C28.0552 5.97451 27.3778 6.16785 26.7004 6.3608C26.3483 6.46109 25.9963 6.56164 25.6442 6.66224C25.3684 6.74103 25.0924 6.81966 24.8165 6.89824C24.6866 6.93525 24.5568 6.97232 24.427 7.00945C23.701 7.21704 22.9751 7.41578 22.2407 7.58787C22.2412 7.68562 22.2417 7.78336 22.2423 7.88407C22.2469 8.80687 22.2503 9.72966 22.2526 10.6525C22.2538 11.1268 22.2554 11.6012 22.258 12.0756C22.2605 12.5337 22.2618 12.9918 22.2624 13.4499C22.2628 13.6244 22.2637 13.7988 22.2649 13.9733C22.2666 14.2183 22.2668 14.4634 22.2667 14.7084C22.2675 14.7799 22.2683 14.8515 22.2692 14.9252C22.2667 15.4688 22.1983 16.0043 21.8669 16.4369C21.8157 16.4796 21.7645 16.5222 21.7118 16.5662C21.6608 16.6103 21.6098 16.6545 21.5572 16.6999C21.1106 17.0284 20.7169 17.0247 20.1821 16.9759C19.6843 16.7934 19.3527 16.4165 19.1147 15.9238C19.0213 15.626 19.0282 15.3373 19.0272 15.0253C19.027 14.9674 19.0267 14.9094 19.0264 14.8498C19.0255 14.6556 19.0253 14.4615 19.025 14.2673C19.0245 14.1281 19.024 13.9889 19.0234 13.8498C19.0218 13.3926 19.021 12.9354 19.0203 12.4782C19.02 12.3207 19.0197 12.1632 19.0193 12.0057C19.0179 11.2656 19.0168 10.5255 19.0162 9.78538C19.0154 8.93169 19.0134 8.07803 19.0103 7.22435C19.008 6.5641 19.0069 5.90385 19.0067 5.2436C19.0065 4.84945 19.0058 4.45532 19.0039 4.06118C19.0021 3.69017 19.0018 3.31919 19.0026 2.94818C19.0026 2.81237 19.0021 2.67655 19.0011 2.54074C18.9951 1.72305 18.9948 1.02362 19.5483 0.395081C20.3015 -0.117773 20.9461 -0.140323 21.6963 0.380222ZM20.1821 1.43707C20.1476 1.69616 20.1476 1.69616 20.1536 1.99925C20.1533 2.05679 20.153 2.11433 20.1527 2.17361C20.1519 2.36692 20.1528 2.56017 20.1537 2.75348C20.1536 2.89186 20.1533 3.03024 20.1529 3.16862C20.1522 3.54484 20.1529 3.92105 20.1539 4.29728C20.1548 4.69055 20.1545 5.08382 20.1543 5.47709C20.1542 6.13759 20.1551 6.79807 20.1565 7.45857C20.1581 8.22277 20.1584 8.98695 20.1579 9.75115C20.1575 10.4855 20.1579 11.2199 20.1587 11.9543C20.1591 12.2672 20.1592 12.5801 20.159 12.893C20.1589 13.2612 20.1595 13.6295 20.1607 13.9978C20.161 14.1331 20.1611 14.2685 20.1609 14.4039C20.1606 14.5883 20.1613 14.7726 20.1622 14.957C20.1624 15.0603 20.1626 15.1636 20.1627 15.27C20.1641 15.533 20.1641 15.533 20.3346 15.762C20.5109 15.8507 20.5109 15.8507 20.7158 15.8429C20.9264 15.723 20.9264 15.723 21.0971 15.5192C21.1542 15.2545 21.1542 15.2545 21.145 14.9509C21.1455 14.8936 21.146 14.8364 21.1466 14.7775C21.1479 14.5857 21.1465 14.3941 21.1452 14.2023C21.1456 14.0648 21.1461 13.9274 21.1468 13.7899C21.1482 13.4165 21.1472 13.0431 21.1458 12.6698C21.1445 12.2792 21.1452 11.8887 21.1456 11.4982C21.1459 10.8423 21.1447 10.1864 21.1426 9.53058C21.1401 8.77203 21.1401 8.01351 21.1414 7.25496C21.1426 6.52562 21.1421 5.79629 21.1408 5.06695C21.1403 4.7564 21.1404 4.44585 21.141 4.13529C21.1415 3.76966 21.1406 3.40407 21.1385 3.03844C21.138 2.90416 21.138 2.76987 21.1385 2.63558C21.1392 2.45244 21.138 2.26942 21.1363 2.08629C21.1361 1.98376 21.1359 1.88123 21.1356 1.7756C21.0902 1.4724 21.0212 1.37586 20.7921 1.19428C20.4965 1.14071 20.3574 1.17836 20.1821 1.43707ZM22.2407 2.48918C22.2407 3.77114 22.2407 5.05309 22.2407 6.3739C23.1839 6.12501 23.1839 6.12501 24.124 5.86483C24.208 5.84108 24.208 5.84108 24.2936 5.81685C24.4726 5.76616 24.6516 5.71532 24.8306 5.66448C24.9571 5.62864 25.0836 5.59282 25.21 5.557C25.5384 5.46396 25.8668 5.3708 26.1952 5.27761C26.5321 5.18203 26.8689 5.08657 27.2058 4.99111C27.8636 4.8047 28.5213 4.61816 29.179 4.43154C28.9675 4.20707 28.7258 4.17162 28.4437 4.09657C28.3836 4.0801 28.3234 4.06363 28.2615 4.04666C28.062 3.9922 27.8624 3.93855 27.6627 3.88494C27.524 3.8473 27.3853 3.80962 27.2467 3.7719C26.9556 3.69284 26.6644 3.61417 26.3731 3.53578C26.0006 3.4355 25.6282 3.33446 25.2559 3.23316C24.9692 3.15523 24.6825 3.07761 24.3958 3.00009C24.2585 2.96296 24.1213 2.92576 23.9841 2.88848C23.7916 2.83627 23.5991 2.78445 23.4065 2.73275C23.3221 2.70973 23.3221 2.70973 23.2359 2.68624C23.1828 2.67207 23.1297 2.65789 23.0749 2.64328C23.0068 2.62491 23.0068 2.62491 22.9373 2.60616C22.7072 2.55523 22.4734 2.52447 22.2407 2.48918Z" fill="white"></path>

                                    </svg>