<svg width="20" height="20" viewBox="0 0 20 20" fill="none" xmlns="http://www.w3.org/2000/svg">
                                        <path d="M5 1.52366C5.35064 1.82208 5.67463 2.15232 6.00052 2.47718C6.03685 2.51335 6.03685 2.51335 6.07393 2.55025C6.20174 2.67749 6.32946 2.80484 6.45707 2.93228C6.58778 3.06278 6.71885 3.1929 6.85 3.32295C6.95198 3.4242 7.05369 3.52571 7.15533 3.62729C7.20353 3.67537 7.25181 3.72335 7.30021 3.77122C7.84369 4.30929 8.24765 4.82902 8.28125 5.62522C8.23641 6.54445 7.5349 7.16032 6.92383 7.76878C6.86997 7.82286 6.86997 7.82286 6.81503 7.87803C6.78024 7.91277 6.74544 7.94752 6.70959 7.98331C6.67849 8.01438 6.64738 8.04544 6.61533 8.07744C6.52344 8.16428 6.42794 8.24301 6.32812 8.32053C6.35093 8.51694 6.44034 8.66868 6.53564 8.83811C6.55283 8.86883 6.57002 8.89954 6.58773 8.93119C6.86002 9.40781 7.18613 9.85369 7.53906 10.2737C7.56347 10.303 7.56347 10.303 7.58837 10.3328C8.06303 10.9015 8.56347 11.4699 9.12674 11.9526C9.19636 12.0123 9.26532 12.0727 9.33395 12.1336C9.85523 12.5928 10.4119 13.0144 11.0156 13.3596C11.0381 13.3728 11.0606 13.3859 11.0837 13.3995C11.1527 13.4397 11.222 13.4791 11.2915 13.5183C11.3322 13.5413 11.373 13.5643 11.4149 13.588C11.5356 13.6381 11.5615 13.6386 11.6797 13.594C11.7504 13.5393 11.7504 13.5393 11.8167 13.4684C11.8428 13.4419 11.8689 13.4154 11.8958 13.3881C11.9376 13.3448 11.9376 13.3448 11.9803 13.3007C12.0095 13.2711 12.0387 13.2414 12.0688 13.2109C12.1936 13.0841 12.3177 12.9568 12.4419 12.8294C12.5327 12.7364 12.6239 12.6438 12.7151 12.5512C12.7562 12.5086 12.7562 12.5086 12.7982 12.4652C13.0555 12.2042 13.3401 11.976 13.6841 11.841C13.7218 11.8258 13.7595 11.8106 13.7984 11.795C14.294 11.6253 14.8192 11.7044 15.2832 11.9265C15.4566 12.0294 15.6032 12.1495 15.7491 12.2877C15.7736 12.3108 15.7981 12.3338 15.8234 12.3576C16.2245 12.7382 16.6144 13.1307 17.0053 13.5217C17.123 13.6394 17.2409 13.7568 17.3589 13.8742C17.4511 13.9659 17.5432 14.0579 17.6351 14.1499C17.6785 14.1932 17.722 14.2365 17.7655 14.2797C18.3068 14.8176 18.7812 15.3506 18.8013 16.1452C18.7871 16.9885 18.2791 17.5523 17.7106 18.1245C17.6759 18.1595 17.6411 18.1946 17.6054 18.2307C17.5325 18.3042 17.4595 18.3775 17.3864 18.4508C17.3123 18.525 17.2387 18.5995 17.1653 18.6743C16.3793 19.4743 16.3793 19.4743 15.9375 19.6877C15.8972 19.7072 15.8569 19.7267 15.8154 19.7468C14.6552 20.2828 13.2355 19.9905 12.0703 19.6096C12.0364 19.5985 12.0025 19.5875 11.9676 19.5761C9.65543 18.8066 7.48218 17.3938 5.70312 15.7424C5.65964 15.7025 5.61615 15.6627 5.57266 15.6228C4.57745 14.7063 4.57745 14.7063 4.18335 14.2031C4.09105 14.0888 3.99206 13.9818 3.8916 13.8747C3.65857 13.6241 3.44948 13.3582 3.24219 13.0862C3.22003 13.0573 3.19786 13.0285 3.17503 12.9989C2.27336 11.8256 1.50167 10.5715 0.898437 9.21897C0.879907 9.17844 0.861377 9.1379 0.842285 9.09614C0.187695 7.62509 -0.355132 5.85229 0.205078 4.2678C0.446286 3.68129 0.871092 3.26638 1.31371 2.82787C1.43349 2.70886 1.55126 2.59037 1.66016 2.46116C2.52984 1.43906 3.71654 0.62737 5 1.52366ZM3.125 2.69553C2.89533 2.91338 2.67129 3.13705 2.44673 3.36013C2.37489 3.43132 2.30284 3.5023 2.23059 3.57307C2.12531 3.6762 2.02069 3.77996 1.9162 3.88389C1.88421 3.91499 1.85222 3.94609 1.81927 3.97814C1.34004 4.45913 1.16122 5.03203 1.16224 5.70033C1.17197 6.33441 1.33078 6.93884 1.52344 7.53928C1.53499 7.5758 1.54655 7.61232 1.55846 7.64995C1.98035 8.96031 2.65417 10.2007 3.4375 11.3283C3.4541 11.3523 3.4707 11.3763 3.4878 11.401C3.86323 11.9412 4.26422 12.4655 4.6875 12.969C4.71305 12.9995 4.71305 12.9995 4.73911 13.0306C5.27679 13.6716 5.84568 14.3142 6.48529 14.8559C6.58237 14.9391 6.67595 15.0259 6.77002 15.1125C6.9813 15.3045 7.19769 15.4876 7.42187 15.6643C7.44913 15.6859 7.47639 15.7076 7.50448 15.7299C9.4571 17.2728 12.1975 19.0454 14.8047 18.8283C15.328 18.7522 15.7936 18.434 16.1272 18.0334C16.2607 17.8793 16.403 17.736 16.5482 17.593C16.5717 17.5697 16.5953 17.5465 16.6196 17.5225C16.7181 17.4254 16.8168 17.3284 16.9158 17.2317C16.9888 17.1604 17.0615 17.0886 17.1341 17.0168C17.1562 16.9955 17.1782 16.9742 17.2009 16.9522C17.4194 16.7351 17.6027 16.4989 17.6294 16.1843C17.6149 15.6149 16.9112 15.1071 16.533 14.7257C16.5102 14.7027 16.4874 14.6797 16.4639 14.6559C16.3435 14.5345 16.223 14.4132 16.1024 14.2921C16.0035 14.1927 15.9049 14.093 15.8066 13.9931C15.6865 13.871 15.5659 13.7495 15.4449 13.6282C15.3994 13.5824 15.354 13.5365 15.3089 13.4904C14.9171 13.071 14.9171 13.071 14.3945 12.8847C14.0081 12.9015 13.765 13.1736 13.5124 13.435C13.4439 13.5046 13.3753 13.5742 13.3068 13.6439C13.2 13.7531 13.0933 13.8625 12.9867 13.972C12.8831 14.0782 12.7791 14.1838 12.675 14.2895C12.6281 14.3382 12.6281 14.3382 12.5802 14.3879C12.3524 14.6186 12.1072 14.8311 11.7882 14.9169C11.3874 14.918 11.0855 14.7586 10.7422 14.5705C10.6973 14.5464 10.6973 14.5464 10.6515 14.5217C9.82297 14.073 9.06738 13.4973 8.37524 12.8594C8.2962 12.7873 8.21596 12.7173 8.13492 12.6475C7.96084 12.4955 7.79718 12.3344 7.63428 12.1706C7.6063 12.1428 7.57833 12.115 7.54951 12.0863C7.36868 11.9052 7.19798 11.7178 7.03125 11.5237C6.99509 11.4827 6.95888 11.4418 6.92261 11.401C5.07153 9.29463 5.07153 9.29463 5.05737 8.1565C5.11155 7.87085 5.27233 7.67357 5.47851 7.47825C5.50986 7.44747 5.50986 7.44747 5.54184 7.41607C5.65513 7.30587 5.77171 7.20056 5.89142 7.09739C6.07908 6.9344 6.25489 6.76032 6.43066 6.58469C6.46269 6.55315 6.49471 6.5216 6.52771 6.4891C6.94712 6.08567 6.94712 6.08567 7.10937 5.5471C7.05366 5.03664 6.44619 4.60357 6.10184 4.25819C6.07659 4.23283 6.05135 4.20748 6.02534 4.18136C5.89221 4.04764 5.75896 3.91403 5.62562 3.78052C5.48836 3.64305 5.35148 3.50522 5.21467 3.36731C5.1088 3.26071 5.00268 3.15438 4.89647 3.04812C4.84587 2.9974 4.79537 2.94658 4.74496 2.89566C4.6746 2.82463 4.60388 2.75398 4.53305 2.68341C4.51253 2.66253 4.49201 2.64165 4.47087 2.62014C3.99851 2.15304 3.55837 2.29181 3.125 2.69553Z" fill="#F38035"></path>
                                        <path d="M11.7993 0.10288C11.8418 0.113568 11.8843 0.124256 11.9281 0.135267C13.5753 0.556451 15.0778 1.30683 16.3672 2.42222C16.4002 2.45021 16.4332 2.47821 16.4673 2.50706C16.9528 2.93027 17.4217 3.39395 17.8125 3.90659C17.843 3.94471 17.8735 3.98283 17.9049 4.0221C18.5235 4.79863 19.0059 5.6679 19.3766 6.58714C19.4098 6.66956 19.4439 6.75155 19.4783 6.83353C19.7339 7.47152 20.1069 8.40533 20 9.1019C19.9077 9.29007 19.7975 9.40022 19.6094 9.49253C19.3888 9.52777 19.2112 9.50197 19.0234 9.37534C18.8962 9.23742 18.8421 9.12883 18.8031 8.94611C18.7929 8.90045 18.7827 8.85479 18.7721 8.80774C18.7616 8.75899 18.7511 8.71024 18.7402 8.66001C18.4315 7.30436 17.9007 6.019 17.046 4.91382C16.9913 4.84296 16.9373 4.77154 16.8834 4.70005C16.6646 4.4129 16.4334 4.15607 16.1719 3.90659C16.08 3.81557 15.9888 3.72422 15.8998 3.63041C14.7241 2.40587 12.9804 1.58306 11.3315 1.24958C11.2998 1.24309 11.2682 1.23661 11.2357 1.22992C11.1756 1.2179 11.1154 1.20651 11.0551 1.19591C10.8483 1.15504 10.7362 1.08678 10.5859 0.937841C10.4821 0.760367 10.4495 0.626069 10.4854 0.426977C10.5341 0.263986 10.6165 0.151637 10.7536 0.053232C11.0679 -0.10399 11.4766 0.0194312 11.7993 0.10288Z" fill="#F38035"></path>
                                        <path d="M13.9182 4.86911C14.1783 5.07651 14.4135 5.31197 14.6485 5.5469C14.6723 5.56896 14.6962 5.59101 14.7208 5.61373C15.5902 6.42956 16.34 7.87939 16.3843 9.07961C16.3787 9.27228 16.3474 9.38744 16.211 9.53127C16.0629 9.64736 15.9291 9.67769 15.7422 9.68752C15.5529 9.6489 15.3946 9.56666 15.2735 9.41409C15.2172 9.288 15.1877 9.15757 15.1563 9.02346C14.8852 7.94975 14.4379 7.08549 13.6719 6.28909C13.6477 6.262 13.6236 6.23491 13.5987 6.207C12.9192 5.46994 11.9048 5.03124 10.943 4.82238C10.6994 4.76934 10.5307 4.72971 10.3847 4.51892C10.3064 4.36331 10.3009 4.2345 10.3125 4.06253C10.3865 3.85717 10.4893 3.75516 10.6641 3.63284C11.6562 3.34939 13.1676 4.29559 13.9182 4.86911Z" fill="#F38035"></path>
                                    </svg>