<svg width="28" height="28" viewBox="0 0 28 28" fill="none" xmlns="http://www.w3.org/2000/svg">
                                        <path d="M14 15.6756C14.9231 15.6756 15.6756 14.9231 15.6756 14C15.6756 13.2256 15.1463 12.5781 14.4331 12.3856V8.07188C14.4375 7.83125 14.245 7.63438 14 7.63438C13.7594 7.63438 13.5625 7.83125 13.5625 8.07188V12.3856C13.2802 12.4619 13.0227 12.6107 12.8155 12.8171C12.6083 13.0235 12.4586 13.2804 12.3813 13.5625H8.55314C8.31252 13.5625 8.11564 13.7594 8.11564 14C8.11564 14.2406 8.31252 14.4375 8.55314 14.4375H12.3813C12.5781 15.1462 13.2213 15.6756 13.9913 15.6756H14ZM14 13.195C14.1052 13.1951 14.2094 13.2158 14.3065 13.2561C14.4037 13.2965 14.492 13.3555 14.5663 13.4299C14.6407 13.5044 14.6996 13.5927 14.7398 13.6899C14.78 13.7871 14.8007 13.8913 14.8006 13.9965C14.8006 14.1017 14.7798 14.2059 14.7395 14.303C14.6992 14.4002 14.6401 14.4885 14.5657 14.5628C14.4913 14.6372 14.4029 14.6961 14.3057 14.7363C14.2085 14.7765 14.1043 14.7972 13.9991 14.7971C13.7867 14.797 13.583 14.7125 13.4328 14.5622C13.2827 14.4119 13.1984 14.2081 13.1985 13.9956C13.1986 13.7832 13.2831 13.5795 13.4335 13.4293C13.5838 13.2792 13.7876 13.1949 14 13.195ZM26.6831 13.9956C26.6831 7 20.9913 1.3125 14 1.3125C7.00877 1.3125 1.31689 7.00437 1.31689 14C1.31689 20.9956 7.00877 26.6831 14 26.6831C14.2888 26.6831 14.5906 26.67 14.9406 26.6438C15.015 26.6525 15.085 26.6656 15.1594 26.6656H23.8525C24.7406 26.6656 25.4581 25.9438 25.4581 25.06V19.4338C26.2675 17.7275 26.6831 15.8988 26.6831 13.9956ZM20.5013 20.8381H18.515C18.2744 20.8381 18.0775 21.035 18.0775 21.2756V21.6038L17.045 21.3106V17.8019H21.9713V21.3106L20.9388 21.6038V21.2756C20.9388 21.035 20.7419 20.8381 20.5013 20.8381ZM20.0638 21.7131V22.8463L19.5081 23.1875L18.9525 22.8463V21.7131H20.0638ZM8.55314 19.4338C8.51267 19.3932 8.46459 19.361 8.41167 19.3391C8.35874 19.3171 8.30201 19.3058 8.24471 19.3058C8.18741 19.3058 8.13067 19.3171 8.07775 19.3391C8.02482 19.361 7.97674 19.3932 7.93627 19.4338L7.07439 20.2956C5.60317 18.6859 4.74247 16.6116 4.64189 14.4331H5.86252C6.10314 14.4331 6.30002 14.2362 6.30002 13.9956C6.30002 13.755 6.10314 13.5581 5.86252 13.5581H4.64189C4.74689 11.305 5.64377 9.2575 7.07002 7.69125L7.93627 8.5575C8.02377 8.645 8.13314 8.68438 8.24689 8.68438C8.36064 8.68438 8.47002 8.64062 8.55752 8.5575C8.59808 8.51702 8.63025 8.46895 8.65221 8.41602C8.67416 8.3631 8.68546 8.30636 8.68546 8.24906C8.68546 8.19176 8.67416 8.13503 8.65221 8.0821C8.63025 8.02918 8.59808 7.9811 8.55752 7.94062L7.69127 7.07438C9.30069 5.59934 11.3773 4.7368 13.5581 4.6375V5.86687C13.5581 6.1075 13.755 6.30437 13.9956 6.30437C14.2363 6.30437 14.4331 6.1075 14.4331 5.86687V4.63313C16.6906 4.73813 18.7381 5.63937 20.3044 7.06562L19.4338 7.93625C19.3727 7.99735 19.3312 8.07521 19.3145 8.15995C19.2978 8.24469 19.3066 8.33249 19.3399 8.41219C19.3732 8.49189 19.4294 8.5599 19.5014 8.60758C19.5735 8.65527 19.658 8.68047 19.7444 8.68C19.8581 8.68 19.9675 8.63625 20.055 8.55312L20.9256 7.6825C22.3563 9.24875 23.2575 11.2962 23.3625 13.5538H22.1288C21.8881 13.5538 21.6913 13.7506 21.6913 13.9913C21.6913 14.2319 21.8881 14.4288 22.1288 14.4288H23.3669C23.3275 15.2819 23.1744 16.1131 22.9075 16.9225H21.8619V16.0825C21.8619 15.3519 21.2669 14.7613 20.5406 14.7613H18.4888C17.7581 14.7613 17.1675 15.3562 17.1675 16.0825V16.9225H15.1681C14.2844 16.9225 13.5625 17.6444 13.5625 18.5281V23.345C11.3094 23.24 9.26627 22.3388 7.70002 20.9081L8.56189 20.0462C8.60245 20.0058 8.63463 19.9577 8.65658 19.9048C8.67854 19.8518 8.68984 19.7951 8.68984 19.7378C8.68984 19.6805 8.67854 19.6238 8.65658 19.5709C8.63463 19.5179 8.60245 19.4699 8.56189 19.4294L8.55314 19.4338ZM20.9781 16.9269H18.0338V16.0869C18.0338 15.8419 18.235 15.6406 18.48 15.6406H20.5319C20.7769 15.6406 20.9781 15.8419 20.9781 16.0869V16.9269ZM14.4288 18.5325C14.4288 18.13 14.7569 17.8019 15.1594 17.8019H16.1656V21.0656L14.4288 20.5713V18.5325ZM22.8463 17.8019H23.8525C24.255 17.8019 24.5831 18.13 24.5831 18.5325V20.5713L22.8463 21.0656V17.8019ZM2.19189 14C2.19189 7.49 7.49002 2.19188 14 2.19188C20.51 2.19188 25.8081 7.49 25.8081 14C25.8081 15.2731 25.6069 16.5113 25.2131 17.6969C25.0706 17.4637 24.8707 17.271 24.6325 17.1369C24.3943 17.0029 24.1258 16.9321 23.8525 16.9313H23.8175C24.1019 15.9819 24.2506 15.0019 24.2506 14C24.2506 8.3475 19.6525 3.745 13.9956 3.745C8.33877 3.745 3.74064 8.34312 3.74064 14C3.74064 19.6569 8.10252 24.01 13.5494 24.2419V25.06C13.5494 25.3269 13.6238 25.5806 13.7375 25.8037C7.34127 25.6681 2.18314 20.4269 2.18314 14H2.19189ZM23.8569 25.795H15.1638C14.7613 25.795 14.4331 25.4669 14.4331 25.0644V21.49L18.0775 22.5225V23.1C18.0775 23.2531 18.1563 23.3931 18.2875 23.4719L19.2806 24.0844C19.3488 24.1271 19.4277 24.1497 19.5081 24.1497C19.5886 24.1497 19.6674 24.1271 19.7356 24.0844L20.7288 23.4719C20.86 23.3931 20.9388 23.2531 20.9388 23.1V22.5225L24.5831 21.49V25.0644C24.5831 25.4669 24.255 25.795 23.8525 25.795H23.8569Z" fill="white"></path>
                                    </svg>