<svg width="16" height="17" viewBox="0 0 16 17" fill="none" xmlns="http://www.w3.org/2000/svg">
                                        <path d="M9.70508 3.65687C9.51662 3.76702 9.38258 3.91976 9.3125 4.12759C9.302 4.20915 9.302 4.20915 9.30078 4.2934C9.29989 4.32096 9.29901 4.34852 9.2981 4.37691C9.34446 4.67945 9.56827 4.8683 9.77585 5.07269C9.81068 5.10745 9.84549 5.14223 9.88027 5.17704C9.97432 5.271 10.0687 5.36458 10.1632 5.45808C10.2621 5.55604 10.3606 5.65435 10.4591 5.75262C10.6456 5.93845 10.8324 6.12396 11.0193 6.30936C11.2321 6.52053 11.4446 6.73206 11.657 6.94362C12.0939 7.37862 12.5312 7.81316 12.9688 8.24742C12.944 8.24743 12.9193 8.24745 12.8938 8.24747C11.4272 8.24859 9.96063 8.25036 8.49407 8.25297C8.31797 8.25328 8.14187 8.25359 7.96577 8.25389C7.91319 8.25398 7.91319 8.25398 7.85954 8.25408C7.29191 8.25504 6.72428 8.25557 6.15665 8.25594C5.57419 8.25633 4.99174 8.25719 4.40929 8.25848C4.04989 8.25927 3.6905 8.25969 3.3311 8.25963C3.08464 8.25963 2.83818 8.26009 2.59172 8.2609C2.44954 8.26136 2.30735 8.26162 2.16516 8.26133C2.03488 8.26107 1.90461 8.26139 1.77433 8.26216C1.7273 8.26233 1.68027 8.2623 1.63325 8.26204C1.35338 8.26059 1.06503 8.25981 0.845883 8.45809C0.676364 8.64027 0.641674 8.81421 0.646484 9.05865C0.665885 9.24515 0.737737 9.35777 0.867188 9.49C1.13315 9.66878 1.38558 9.66544 1.69489 9.66435C1.74357 9.66452 1.79225 9.66473 1.84094 9.66497C1.97434 9.66554 2.10774 9.66552 2.24115 9.66541C2.38515 9.66539 2.52914 9.66591 2.67314 9.66636C2.92251 9.66707 3.17187 9.66744 3.42123 9.66758C3.78177 9.66778 4.14231 9.6685 4.50285 9.66934C5.08782 9.67069 5.67278 9.67163 6.25775 9.6723C6.82595 9.67296 7.39415 9.67381 7.96234 9.67492C8.01489 9.67502 8.01489 9.67502 8.0685 9.67513C8.24424 9.67547 8.41999 9.67582 8.59573 9.67617C10.0534 9.67908 11.5111 9.68132 12.9688 9.68311C12.9416 9.71012 12.9416 9.71012 12.9139 9.73767C12.4731 10.1758 12.0326 10.6142 11.5924 11.0529C11.3795 11.2651 11.1665 11.4771 10.9533 11.689C10.7675 11.8736 10.5818 12.0585 10.3963 12.2435C10.2981 12.3414 10.1999 12.4393 10.1014 12.537C10.0087 12.6289 9.91617 12.7211 9.82383 12.8135C9.78994 12.8473 9.75597 12.8811 9.72191 12.9147C9.67533 12.9608 9.62905 13.0071 9.58283 13.0535C9.5439 13.0923 9.5439 13.0923 9.50418 13.1318C9.36392 13.2961 9.30756 13.465 9.3125 13.6781C9.34761 13.8975 9.45688 14.0653 9.625 14.2087C9.78884 14.308 9.96872 14.33 10.1562 14.3023C10.4817 14.2043 10.7068 13.9302 10.9383 13.697C10.9849 13.6506 11.0315 13.6043 11.0782 13.5579C11.2043 13.4326 11.33 13.3067 11.4555 13.1807C11.5871 13.0487 11.7192 12.9171 11.8512 12.7854C12.0727 12.5643 12.2939 12.3429 12.5149 12.1213C12.7702 11.8653 13.026 11.6099 13.2821 11.3546C13.5287 11.1088 13.775 10.8626 14.0212 10.6162C14.1258 10.5115 14.2306 10.4069 14.3354 10.3024C14.4589 10.1794 14.582 10.056 14.7049 9.93237C14.75 9.88712 14.7952 9.84198 14.8405 9.79695C14.9025 9.73535 14.964 9.67337 15.0255 9.61129C15.0434 9.59367 15.0613 9.57604 15.0797 9.55788C15.2216 9.41327 15.3259 9.25712 15.3604 9.05499C15.36 9.02538 15.3597 8.99577 15.3594 8.96526C15.3597 8.93565 15.36 8.90604 15.3604 8.87553C15.3208 8.64291 15.1882 8.47938 15.0239 8.31784C15.0044 8.29821 14.985 8.27859 14.9649 8.25837C14.9001 8.19315 14.8349 8.12837 14.7696 8.06359C14.7229 8.01674 14.6762 7.96986 14.6295 7.92295C14.5029 7.79596 14.3759 7.66936 14.2488 7.54285C14.1158 7.41026 13.983 7.27736 13.8502 7.14451C13.6271 6.92149 13.4038 6.69874 13.1803 6.47613C12.9221 6.21894 12.6643 5.9613 12.4068 5.70342C12.1855 5.48184 11.964 5.26049 11.7423 5.03935C11.6099 4.90736 11.4776 4.77528 11.3456 4.64299C11.2214 4.51861 11.0969 4.39454 10.9722 4.27071C10.9266 4.22527 10.881 4.17973 10.8356 4.13407C10.7734 4.07165 10.7109 4.00962 10.6482 3.94768C10.6304 3.92964 10.6127 3.91159 10.5943 3.893C10.3512 3.6548 10.0422 3.53006 9.70508 3.65687Z" fill="#111111"></path>
                                    </svg>