<svg width="44" height="44" viewBox="0 0 44 44" fill="none" xmlns="http://www.w3.org/2000/svg">
                                            <path d="M13.4597 12.7187C13.8881 11.519 15.0651 12.1116 15.8543 12.709L15.8419 16.4648C15.8419 16.6945 15.8545 16.924 15.8797 17.1523C15.6441 17.0961 15.4116 17.0272 15.1833 16.9461C13.7347 16.4518 12.8506 14.4264 13.4597 12.7187ZM30.5744 12.7187C30.1461 11.519 28.9807 12.1102 28.1915 12.707L28.1551 16.4243C28.1543 16.6643 28.1407 16.9041 28.1145 17.1427C28.3632 17.0924 28.6088 17.0278 28.8501 16.9495C30.2994 16.4518 31.1835 14.4264 30.5744 12.7187Z" fill="#FFBBB7"></path>
                                            <path d="M37.0006 18.2866H6.99951C6.24012 18.2866 5.62451 18.9022 5.62451 19.6616V25.5624C5.62451 26.3218 6.24012 26.9374 6.99951 26.9374H37.0006C37.76 26.9374 38.3756 26.3218 38.3756 25.5624V19.6616C38.3756 18.9022 37.76 18.2866 37.0006 18.2866Z" fill="#C27E72"></path>
                                            <path d="M37.0007 18.2876H36.8054C36.8199 18.3647 36.8277 18.4429 36.8288 18.5213V24.4222C36.8288 24.7868 36.684 25.1366 36.4261 25.3944C36.1682 25.6523 35.8185 25.7972 35.4538 25.7972H5.64795C5.70295 26.116 5.86864 26.4053 6.11587 26.614C6.36309 26.8227 6.67601 26.9376 6.99957 26.9384H37.0007C37.3654 26.9384 37.7151 26.7935 37.973 26.5357C38.2308 26.2778 38.3757 25.9281 38.3757 25.5634V19.6626C38.3757 19.2979 38.2308 18.9482 37.973 18.6903C37.7151 18.4325 37.3654 18.2876 37.0007 18.2876Z" fill="#BB765C"></path>
                                            <path d="M37.0007 18.2876H36.8054C36.8199 18.3647 36.8277 18.4429 36.8288 18.5213V24.4222C36.8288 24.7868 36.684 25.1366 36.4261 25.3944C36.1682 25.6523 35.8185 25.7972 35.4538 25.7972H5.64795C5.70295 26.116 5.86864 26.4053 6.11587 26.614C6.36309 26.8227 6.67601 26.9376 6.99957 26.9384H37.0007C37.3654 26.9384 37.7151 26.7935 37.973 26.5357C38.2308 26.2778 38.3757 25.9281 38.3757 25.5634V19.6626C38.3757 19.2979 38.2308 18.9482 37.973 18.6903C37.7151 18.4325 37.3654 18.2876 37.0007 18.2876Z" fill="#BB765C"></path>
                                            <path d="M29.3115 15.2133C29.748 14.3674 29.6474 13.4471 29.0866 13.1577C28.5258 12.8682 27.7173 13.3193 27.2807 14.1652C26.8442 15.0111 26.9448 15.9314 27.5056 16.2208C28.0664 16.5103 28.8749 16.0592 29.3115 15.2133Z" fill="#FFB2AD"></path>
                                            <path d="M16.528 16.2369C17.0888 15.9474 17.1895 15.0271 16.7529 14.1812C16.3163 13.3353 15.5078 12.8843 14.947 13.1737C14.3862 13.4631 14.2856 14.3835 14.7222 15.2293C15.1587 16.0752 15.9673 16.5263 16.528 16.2369Z" fill="#FFB2AD"></path>
                                            <path d="M32.0466 27.115L27.5228 25.5097C26.833 26.3028 25.9799 26.9375 25.0219 27.3703C24.064 27.8031 23.0238 28.0238 21.9727 28.0173C20.9215 28.0108 19.8842 27.7772 18.9317 27.3325C17.9792 26.8878 17.134 26.2426 16.4541 25.4409L11.9386 27.0909C10.7996 27.5068 9.81612 28.2628 9.1213 29.2565C8.42648 30.2502 8.05395 31.4334 8.0542 32.6459V41.3538H35.9825V32.6913C35.9833 31.469 35.6053 30.2764 34.9005 29.2778C34.1956 28.2792 33.1986 27.5236 32.0466 27.115Z" fill="#FFE17F"></path>
                                            <path d="M14.754 41.3539L15.1741 25.4376C15.1755 25.3871 15.1653 25.337 15.1445 25.291C15.1236 25.2451 15.0926 25.2045 15.0537 25.1723C15.0148 25.1401 14.9691 25.1171 14.92 25.1052C14.871 25.0933 14.8199 25.0927 14.7705 25.1035L12.983 25.4912C12.7247 25.5469 12.4939 25.6912 12.3307 25.8991C12.1675 26.1071 12.0821 26.3655 12.0893 26.6297L12.4908 41.356L14.754 41.3539ZM31.5304 41.3539L31.9319 26.6276C31.9391 26.3634 31.8538 26.105 31.6905 25.8971C31.5273 25.6892 31.2965 25.5449 31.0382 25.4891L29.2507 25.1014C29.2013 25.0906 29.1502 25.0912 29.1012 25.1032C29.0521 25.1151 29.0064 25.138 28.9675 25.1702C28.9286 25.2024 28.8976 25.243 28.8767 25.289C28.8559 25.3349 28.8457 25.3851 28.8471 25.4355L29.2672 41.3539H31.5304Z" fill="#46B3CC"></path>
                                            <path d="M22.0172 28.019C23.0609 28.0193 24.0925 27.7955 25.0423 27.3625C25.992 26.9296 26.8376 26.2977 27.522 25.5096C27.093 25.3577 26.7217 25.0766 26.4591 24.7048C26.1966 24.3331 26.0559 23.8891 26.0562 23.434V20.5005C25.2284 21.3632 24.2262 22.0396 23.1165 22.4846C22.8514 22.5727 22.5753 22.6236 22.2963 22.6359C21.8326 22.6706 21.3665 22.6196 20.9213 22.4853C19.8109 22.0403 18.8083 21.3637 17.9802 20.5005V23.2615C17.9801 23.7376 17.8337 24.2022 17.5608 24.5924C17.2879 24.9826 16.9018 25.2795 16.4546 25.4429C17.1392 26.2504 17.9914 26.899 18.952 27.3439C19.9126 27.7888 20.9585 28.0191 22.0172 28.019Z" fill="#FFB09E"></path>
                                            <path d="M22.2966 22.6359C21.8329 22.6706 21.3668 22.6196 20.9216 22.4853C19.8113 22.0403 18.8086 21.3637 17.9805 20.5005V21.8755C18.9503 22.9212 20.144 23.7342 21.4723 24.2536C22.4003 24.5354 23.3912 24.5354 24.3192 24.2536C24.9372 24.0342 25.5218 23.7305 26.0565 23.3509V20.5005C25.2287 21.3632 24.2265 22.0396 23.1168 22.4846C22.8517 22.5727 22.5757 22.6236 22.2966 22.6359Z" fill="#FFA691"></path>
                                            <path d="M28.1808 17.1463C28.0358 18.4875 27.4536 19.7437 26.5239 20.7213C25.5898 21.7893 24.4233 22.6289 23.1139 23.1756C22.3981 23.3864 21.6367 23.3864 20.9208 23.1756C19.6115 22.6289 18.4449 21.7893 17.5108 20.7213C16.5812 19.7437 15.999 18.4874 15.8539 17.1463C15.7116 16.4313 15.7969 12.6844 15.79 12.6844C14.8756 10.4225 14.1971 7.68625 15.6614 6.68938C15.6614 6.68938 15.4827 2.43375 22.1446 2.65375C25.0733 2.75 26.5446 3.45813 27.7339 5.14938C28.2918 6.0063 28.6447 6.98025 28.7652 7.99563C28.9483 9.57553 28.76 11.1764 28.2152 12.6706L28.2221 12.6913C28.3246 14.1751 28.3108 15.6646 28.1808 17.1463Z" fill="#FFC6B7"></path>
                                            <path d="M28.215 12.6709C28.7598 11.1766 28.9481 9.57576 28.765 7.99586C28.6444 6.98048 28.2916 6.00653 27.7337 5.14961C27.4105 4.68216 27.0199 4.26514 26.5746 3.91211C26.6433 4.00355 26.7196 4.08742 26.7884 4.18711C27.3463 5.04403 27.6991 6.01798 27.8196 7.03336C27.8458 8.61564 27.6632 10.1945 27.2765 11.729C27.379 13.2128 27.3653 14.7023 27.2353 16.184C27.0903 17.5252 26.508 18.7814 25.5784 19.759C24.6443 20.827 23.4777 21.6666 22.1684 22.2134C21.4525 22.4242 20.6911 22.4242 19.9753 22.2134C18.9752 21.8229 18.0647 21.2338 17.2988 20.4815C17.3676 20.5627 17.4363 20.6452 17.5106 20.7229C18.4447 21.7909 19.6112 22.6305 20.9206 23.1772C21.6364 23.388 22.3979 23.388 23.1137 23.1772C24.423 22.6305 25.5896 21.7909 26.5237 20.7229C27.4534 19.7453 28.0356 18.4891 28.1806 17.1479C28.3106 15.6662 28.3244 14.1767 28.2218 12.6929L28.215 12.6709Z" fill="#FFB8A6"></path>
                                            <path d="M35.8794 14.732C34.8688 13.7007 33.1459 11.6279 33.0682 9.42035C33.0426 8.47838 33.3879 7.56403 34.0298 6.87416C34.6717 6.18429 35.5589 5.7741 36.5002 5.73191C36.9729 5.7184 37.4435 5.79982 37.8842 5.97136C38.3248 6.14289 38.7266 6.40106 39.0658 6.73059C39.4049 7.06012 39.6745 7.45432 39.8587 7.88987C40.0428 8.32542 40.1377 8.79348 40.1378 9.26635C40.1378 11.5351 38.3503 13.687 37.319 14.7395C37.2248 14.835 37.1125 14.9108 36.9886 14.9622C36.8647 15.0136 36.7318 15.0398 36.5976 15.0391C36.4635 15.0384 36.3308 15.0108 36.2075 14.9581C36.0842 14.9053 35.9726 14.8285 35.8794 14.732Z" fill="#FF4A4A"></path>
                                            <path d="M37.9324 5.9917C38.2827 6.32094 38.5619 6.71845 38.7527 7.15973C38.9436 7.601 39.042 8.07668 39.042 8.55745C39.042 10.8262 37.2545 12.9781 36.2232 14.0306C36.1296 14.1263 36.0175 14.202 35.8938 14.2532C35.7701 14.3044 35.6373 14.3299 35.5034 14.3283C35.6368 14.4748 35.7654 14.6123 35.8829 14.7319C35.9761 14.8279 36.0874 14.9043 36.2104 14.9567C36.3334 15.0091 36.4657 15.0365 36.5994 15.0372C36.7332 15.0379 36.8657 15.0119 36.9893 14.9608C37.1128 14.9097 37.225 14.8344 37.3191 14.7394C38.3504 13.6869 40.1379 11.5364 40.1379 9.26626C40.1376 8.563 39.9276 7.87579 39.5347 7.29249C39.1418 6.70919 38.5839 6.2563 37.9324 5.9917Z" fill="#E7343F"></path>
                                            <path d="M36.6017 10.8592C37.4693 10.8592 38.1726 10.1558 38.1726 9.28822C38.1726 8.42062 37.4693 7.71729 36.6017 7.71729C35.7341 7.71729 35.0308 8.42062 35.0308 9.28822C35.0308 10.1558 35.7341 10.8592 36.6017 10.8592Z" fill="white"></path>
                                            <path d="M15.8126 12.6904L16.6073 11.1263C16.3605 7.94731 17.4791 7.38287 18.6581 6.84456C19.8372 6.30624 22.0166 7.33199 22.0166 7.33199C22.0166 7.33199 24.1959 6.30624 25.375 6.84456C26.5541 7.38287 27.6733 7.94456 27.4258 11.1263L28.2116 12.6725C28.7564 11.1782 28.9448 9.57739 28.7616 7.99749C28.6415 6.98202 28.2886 6.00797 27.7304 5.15124C26.5465 3.45518 25.0732 2.74981 22.1458 2.65424C15.4771 2.43424 15.6592 6.68849 15.6592 6.68849C14.1901 7.69018 14.8892 10.4409 15.8132 12.7103L15.8126 12.6904Z" fill="#83718C"></path>
                                            <path d="M5.65967 39.9787V30.0312L13.064 32.7812L22.018 30.0312L30.972 32.7812L38.3764 30.0312V39.9787C38.3764 40.3434 38.2316 40.6931 37.9737 40.951C37.7158 41.2088 37.3661 41.3537 37.0014 41.3537H7.03467C6.67 41.3537 6.32026 41.2088 6.0624 40.951C5.80453 40.6931 5.65967 40.3434 5.65967 39.9787Z" fill="#BBEC6A"></path>
                                            <path d="M35.8662 41.3537H37.0006C37.3653 41.3537 37.715 41.2088 37.9729 40.951C38.2307 40.6931 38.3756 40.3434 38.3756 39.9787V30.0312L35.8662 30.9635V41.3537Z" fill="#66B373"></path>
                                            <path d="M21.9878 41.3537H30.9748V32.7799L30.9714 32.7812L22.018 30.0312L21.9878 30.0409V41.3537ZM13.0255 32.7675L5.65967 30.0312V39.9787C5.65967 40.3434 5.80453 40.6931 6.0624 40.951C6.32026 41.2088 6.67 41.3537 7.03467 41.3537H13.0255V32.7675Z" fill="#4CE166"></path>
                                            <path d="M33.7536 18.2866H36.0079V26.9374H33.7536V18.2866ZM8.01221 18.2866H10.2665V26.9374H8.01221V18.2866Z" fill="#FFE7CC"></path>
                                            <path d="M40.2916 38.9978H38.315C37.6655 38.9978 37.0427 38.7398 36.5834 38.2806C36.1241 37.8213 35.8661 37.1985 35.8661 36.549C35.8661 35.8995 36.1241 35.2766 36.5834 34.8174C37.0427 34.3581 37.6655 34.1001 38.315 34.1001H40.2916C40.7412 35.702 40.7412 37.396 40.2916 38.9978ZM3.70832 38.9978H5.68489C6.33437 38.9978 6.95725 38.7398 7.4165 38.2806C7.87576 37.8213 8.13376 37.1985 8.13376 36.549C8.13376 35.8995 7.87576 35.2766 7.4165 34.8174C6.95725 34.3581 6.33437 34.1001 5.68489 34.1001H3.70832C3.25868 35.702 3.25868 37.396 3.70832 38.9978Z" fill="#FFCEBF"></path>
                                            <path d="M40.2916 34.1001H39.4343C39.4911 34.5745 39.5106 35.0526 39.4927 35.5301C39.4686 36.0942 39.2272 36.6272 38.8191 37.0174C38.4109 37.4075 37.8677 37.6248 37.303 37.6235H37.1882C36.7694 37.621 36.3585 37.5099 35.9954 37.3011C36.1528 37.7929 36.462 38.2222 36.8787 38.5272C37.2953 38.8322 37.798 38.9972 38.3144 38.9985H40.2909C40.7408 37.3967 40.7411 35.702 40.2916 34.1001ZM3.70835 34.1001H4.56566C4.5089 34.5745 4.48936 35.0526 4.50723 35.5301C4.53137 36.0942 4.77276 36.6272 5.1809 37.0174C5.58903 37.4075 6.13227 37.6248 6.69691 37.6235H6.81173C7.23052 37.621 7.64149 37.5099 8.00454 37.3011C7.8472 37.7929 7.53797 38.2222 7.1213 38.5272C6.70462 38.8322 6.20197 38.9972 5.6856 38.9985H3.70835C3.25867 37.3967 3.25867 35.7019 3.70835 34.1001Z" fill="#FFB8A6"></path>
                                            <path d="M15.8126 12.6914V12.7121C15.8057 12.7052 15.8057 12.6914 15.7988 12.6846C15.8057 12.6846 15.8057 12.6914 15.8126 12.6914Z" fill="#FFBAA8"></path>
                                            <path d="M15.8126 12.6914V12.7121C15.8057 12.7052 15.8057 12.6914 15.7988 12.6846C15.8057 12.6846 15.8057 12.6914 15.8126 12.6914Z" fill="#FFBAA8"></path>
                                            <path d="M35.4538 25.7965H33.7563V26.9377H36.0106V25.6782C35.8354 25.7563 35.6456 25.7966 35.4538 25.7965ZM8.01221 25.7965H10.2665V26.9377H8.01221V25.7965Z" fill="#FFD9AD"></path>
                                            <path d="M8.42285 20.3306V22.8248C8.42285 23.0072 8.49528 23.182 8.62422 23.311C8.75315 23.4399 8.92802 23.5123 9.11035 23.5123C9.29269 23.5123 9.46756 23.4399 9.59649 23.311C9.72542 23.182 9.79785 23.0072 9.79785 22.8248V20.3306C9.79785 20.1482 9.72542 19.9734 9.59649 19.8444C9.46756 19.7155 9.29269 19.6431 9.11035 19.6431C8.92802 19.6431 8.75315 19.7155 8.62422 19.8444C8.49528 19.9734 8.42285 20.1482 8.42285 20.3306Z" fill="#FFFDFA"></path>
                                            <path d="M9.13991 25.5811C9.53594 25.5811 9.85698 25.2601 9.85698 24.864C9.85698 24.468 9.53594 24.147 9.13991 24.147C8.74389 24.147 8.42285 24.468 8.42285 24.864C8.42285 25.2601 8.74389 25.5811 9.13991 25.5811Z" fill="#FFFDFA"></path>
                                            <path d="M36.6039 15.7252C36.8278 15.7261 37.0494 15.6819 37.2559 15.5955C37.4623 15.5091 37.6493 15.382 37.8057 15.222C38.9332 14.0731 40.8245 11.7721 40.8245 9.26683C40.8286 8.42159 40.5776 7.59477 40.1044 6.89443C39.6311 6.1941 38.9576 5.65283 38.1718 5.34138C37.386 5.02992 36.5245 4.96276 35.7 5.14867C34.8754 5.33459 34.1262 5.76493 33.5501 6.38345C32.7707 7.20878 32.3504 8.30947 32.3813 9.4442C32.4673 11.8807 34.3022 14.1041 35.3891 15.213C35.547 15.3753 35.7359 15.5043 35.9446 15.5923C36.1533 15.6803 36.3775 15.7255 36.6039 15.7252ZM34.549 7.32464C34.9377 6.90939 35.4423 6.62076 35.9973 6.49632C36.5523 6.37189 37.1319 6.41741 37.6606 6.62697C38.1894 6.83652 38.6428 7.2004 38.9619 7.67124C39.2809 8.14208 39.4508 8.69807 39.4495 9.26683C39.4495 11.2833 37.805 13.2598 36.8246 14.2581C36.7633 14.3172 36.681 14.3497 36.5959 14.3483C36.5107 14.3468 36.4295 14.3117 36.3702 14.2505C35.4235 13.2846 33.8264 11.3692 33.7577 9.39608C33.7372 8.62812 34.0217 7.88331 34.549 7.32464ZM38.8596 9.28814C38.8596 8.84146 38.7272 8.40482 38.479 8.03342C38.2309 7.66202 37.8781 7.37255 37.4655 7.20161C37.0528 7.03068 36.5987 6.98595 36.1606 7.0731C35.7225 7.16024 35.3201 7.37533 35.0042 7.69118C34.6884 8.00703 34.4733 8.40945 34.3862 8.84754C34.299 9.28563 34.3437 9.73973 34.5147 10.1524C34.6856 10.5651 34.9751 10.9178 35.3465 11.166C35.7179 11.4141 36.1545 11.5466 36.6012 11.5466C37.1999 11.5458 37.774 11.3077 38.1973 10.8843C38.6207 10.4609 38.8589 9.88689 38.8596 9.28814ZM35.7178 9.28814C35.7178 9.11341 35.7696 8.94261 35.8666 8.79733C35.9637 8.65205 36.1017 8.53881 36.2631 8.47195C36.4245 8.40508 36.6022 8.38759 36.7735 8.42168C36.9449 8.45576 37.1023 8.5399 37.2259 8.66345C37.3494 8.787 37.4336 8.94442 37.4677 9.11579C37.5017 9.28716 37.4843 9.46479 37.4174 9.62622C37.3505 9.78764 37.2373 9.92562 37.092 10.0227C36.9467 10.1198 36.7759 10.1716 36.6012 10.1716C36.3671 10.171 36.1428 10.0778 35.9774 9.91218C35.8119 9.7466 35.7181 9.52221 35.7178 9.28814ZM40.9538 33.9137C40.9133 33.7693 40.8266 33.6421 40.7071 33.5515C40.5876 33.4608 40.4417 33.4118 40.2917 33.4118H39.0631V30.0321C39.0631 29.9212 39.0362 29.812 38.9848 29.7138C38.9334 29.6155 38.8591 29.5312 38.768 29.4679C38.677 29.4046 38.572 29.3643 38.462 29.3504C38.352 29.3364 38.2403 29.3493 38.1364 29.3879L36.1426 30.1276C35.7328 29.1589 35.0987 28.3014 34.2926 27.6258H36.9999C37.547 27.6258 38.0716 27.4085 38.4584 27.0217C38.8451 26.6349 39.0624 26.1103 39.0624 25.5633V19.6625C39.0624 19.1155 38.8451 18.5909 38.4584 18.2041C38.0716 17.8173 37.547 17.6 36.9999 17.6H29.0813C29.5114 17.4374 29.9048 17.1911 30.2389 16.8753C30.573 16.5595 30.8411 16.1805 31.0276 15.7603C31.5237 14.7396 31.5942 13.5638 31.2236 12.4912C31.1512 12.2379 31.0182 12.0061 30.8361 11.8158C30.6541 11.6254 30.4284 11.4823 30.1786 11.3988C29.8888 11.3172 29.5828 11.3132 29.291 11.3871C29.5188 10.2537 29.5728 9.09231 29.4512 7.9427C29.3221 6.80586 28.9277 5.71526 28.2996 4.75889C26.9645 2.85245 25.2458 2.06939 22.1692 1.96764C19.4879 1.87895 17.488 2.47226 16.2409 3.73108C15.5397 4.43484 15.0988 5.3561 14.9903 6.34358C13.9866 7.26483 13.8676 8.95608 14.6101 11.3726C14.3593 11.3238 14.1005 11.3332 13.8539 11.4001C13.6058 11.4845 13.3817 11.6277 13.201 11.8175C13.0202 12.0072 12.888 12.2379 12.8158 12.4898C12.4452 13.5626 12.5157 14.7387 13.0117 15.7596C13.1978 16.1796 13.4653 16.5585 13.7988 16.8744C14.1323 17.1903 14.5251 17.4369 14.9546 17.6H6.99951C6.4525 17.6 5.9279 17.8173 5.5411 18.2041C5.15431 18.5909 4.93701 19.1155 4.93701 19.6625V25.5633C4.93701 26.1103 5.15431 26.6349 5.5411 27.0217C5.9279 27.4085 6.4525 27.6258 6.99951 27.6258H9.69382C8.89845 28.3051 8.2747 29.1625 7.87332 30.1283L5.90088 29.3879C5.79684 29.3489 5.68489 29.3357 5.57463 29.3494C5.46436 29.3631 5.35907 29.4034 5.26776 29.4667C5.17646 29.53 5.10186 29.6146 5.05036 29.713C4.99887 29.8115 4.972 29.921 4.97207 30.0321V33.4125H3.70845C3.55845 33.4125 3.41257 33.4615 3.29303 33.5521C3.1735 33.6427 3.08688 33.77 3.04638 33.9144C2.56266 35.6376 2.56266 37.4608 3.04638 39.1841C3.08688 39.3285 3.1735 39.4557 3.29303 39.5463C3.41257 39.6369 3.55845 39.686 3.70845 39.686H4.97207V41.3545C4.97207 41.5368 5.04451 41.7117 5.17344 41.8407C5.30237 41.9696 5.47724 42.042 5.65957 42.042H38.3756C38.558 42.042 38.7328 41.9696 38.8618 41.8407C38.9907 41.7117 39.0631 41.5368 39.0631 41.3545V39.6853H40.2917C40.4417 39.6853 40.5876 39.6363 40.7071 39.5456C40.8266 39.455 40.9133 39.3278 40.9538 39.1834C41.4375 37.4601 41.4375 35.637 40.9538 33.9137ZM34.8563 30.6054L32.4872 31.4875L32.5793 28.1188C33.5906 28.6754 34.3907 29.5492 34.8563 30.6054ZM22.2187 29.3748C22.0872 29.3345 21.9466 29.3345 21.8151 29.3748L15.7074 31.2503L15.8353 26.4014L16.2656 26.244C17.0025 27.0171 17.8877 27.6338 18.8684 28.057C19.849 28.4802 20.9049 28.7012 21.973 28.7069C23.041 28.7126 24.0992 28.5029 25.0844 28.0902C26.0695 27.6775 26.9612 27.0704 27.7063 26.3051L28.1876 26.475L28.3134 31.2462L22.2187 29.3748ZM17.0123 21.1936C17.1051 21.2912 17.1979 21.3813 17.2873 21.4741V23.2616C17.2865 23.5966 17.1832 23.9234 16.9912 24.198C16.7993 24.4725 16.5278 24.6817 16.2134 24.7975L15.7459 24.9686C15.6458 24.766 15.4807 24.6027 15.2769 24.505C15.0732 24.4073 14.8425 24.3808 14.6218 24.4296L12.8343 24.8174C12.4869 24.8937 12.1695 25.0701 11.9214 25.3249C11.6732 25.5796 11.5051 25.9016 11.438 26.2508H10.9568V18.975H15.5994C15.922 19.7993 16.4014 20.5529 17.0123 21.1936ZM18.9441 7.47039C19.6124 7.16651 21.1063 7.66495 21.7251 7.95164C21.8165 7.99456 21.9163 8.01682 22.0173 8.01682C22.1183 8.01682 22.218 7.99456 22.3094 7.95164C22.9282 7.6622 24.4235 7.16376 25.0904 7.47039C26.1326 7.94614 26.9549 8.32151 26.7404 11.0736C26.7306 11.1994 26.7555 11.3254 26.8126 11.438L27.5344 12.8563V16.4581C27.5396 17.868 26.9994 19.2254 26.0268 20.2462C25.1732 21.236 24.1024 22.015 22.8979 22.5225C22.3226 22.6871 21.7126 22.6871 21.1373 22.5225C19.9327 22.0148 18.8618 21.2358 18.0078 20.2462C17.0348 19.225 16.4946 17.8671 16.5001 16.4567V12.8563L17.2206 11.4386C17.2777 11.3259 17.3027 11.1996 17.2928 11.0736C17.0796 8.31876 17.9019 7.94614 18.9441 7.47039ZM31.1851 24.8188L29.3976 24.4317C29.1644 24.3802 28.9206 24.4126 28.709 24.5233C28.4975 24.634 28.3318 24.8158 28.2412 25.0367L27.7538 24.8635C27.4584 24.7587 27.2028 24.565 27.022 24.3091C26.8411 24.0532 26.744 23.7475 26.7438 23.4341V21.4741C26.8366 21.3813 26.9288 21.2912 27.0188 21.1936C27.6309 20.5532 28.1122 19.7996 28.4358 18.975H33.0688V26.2508H32.5876C32.5197 25.901 32.3506 25.5789 32.1013 25.3243C31.8519 25.0697 31.5334 24.8939 31.1851 24.8188ZM26.4118 25.6575C25.1909 26.7478 23.6083 27.3456 21.9715 27.3346C20.3346 27.3237 18.7603 26.7049 17.554 25.5984C17.9007 25.3153 18.1803 24.9588 18.3725 24.5545C18.5647 24.1503 18.6649 23.7085 18.6657 23.2609V22.6875C19.2782 23.1736 19.9654 23.5572 20.7007 23.8233C21.5592 24.0811 22.4746 24.0811 23.3331 23.8233C24.0687 23.5573 24.7562 23.1737 25.3688 22.6875V23.4328C25.3691 23.857 25.4627 24.2761 25.6429 24.6602C25.8232 25.0443 26.0856 25.3841 26.4118 25.6555V25.6575ZM12.9251 32.021L12.7759 26.6063C12.7732 26.5025 12.8069 26.4011 12.871 26.3195C12.9351 26.2379 13.0258 26.1813 13.1272 26.1594L14.4747 25.8672L14.3221 31.6738L13.0481 32.065L12.9251 32.021ZM29.7001 31.6718L29.5474 25.8693L30.8949 26.1608C30.9964 26.1829 31.0869 26.2397 31.151 26.3214C31.2151 26.4031 31.2488 26.5045 31.2463 26.6083L31.0991 32.0011L30.952 32.0554L29.7001 31.6718ZM37.6881 19.6625V25.5633C37.6881 25.7457 37.6157 25.9205 37.4868 26.0495C37.3578 26.1784 37.183 26.2508 37.0006 26.2508H36.6954V18.975H37.0006C37.183 18.975 37.3578 19.0474 37.4868 19.1764C37.6157 19.3053 37.6881 19.4802 37.6881 19.6625ZM35.3204 18.975V26.2508H34.4438V18.975H35.3204ZM29.7729 12.7133C29.8197 12.7277 29.8802 12.8219 29.9269 12.9539C30.172 13.6808 30.1226 14.4747 29.7894 15.1656C29.6016 15.5776 29.2965 15.925 28.9122 16.1645V13.057C29.3893 12.7449 29.6829 12.6865 29.7729 12.7126V12.7133ZM16.0463 7.25658C16.1429 7.19078 16.2211 7.10145 16.2735 6.99704C16.326 6.89263 16.3509 6.77657 16.3461 6.65983C16.3785 5.91952 16.6897 5.21887 17.2171 4.69839C18.1707 3.73589 19.8729 3.27045 22.1231 3.34126C24.7721 3.42858 26.0928 4.00608 27.1721 5.54676C27.661 6.3031 27.9713 7.16075 28.0796 8.05476C28.1263 8.58208 28.1406 9.11176 28.1223 9.64083C28.1271 8.88349 27.8915 8.14414 27.4495 7.52916C27.0075 6.91419 26.3818 6.45527 25.6624 6.21845C24.4792 5.67808 22.7274 6.2872 22.0186 6.58076C21.3084 6.28858 19.5567 5.67739 18.3749 6.21845C16.9167 6.88395 15.7246 7.70551 15.9068 10.9106C15.3361 9.02758 15.3698 7.71789 16.0463 7.25658ZM14.2478 15.1628C13.9147 14.4719 13.8654 13.678 14.1103 12.9511C14.1571 12.8198 14.2176 12.725 14.2643 12.7105C14.3516 12.6844 14.6452 12.7387 15.1285 13.0543V16.1625C14.7432 15.9238 14.4369 15.5768 14.2478 15.1649V15.1628ZM6.31201 25.5633V19.6625C6.31201 19.4802 6.38444 19.3053 6.51337 19.1764C6.6423 19.0474 6.81717 18.975 6.99951 18.975H7.32538V26.2508H6.99951C6.81717 26.2508 6.6423 26.1784 6.51337 26.0495C6.38444 25.9205 6.31201 25.7457 6.31201 25.5633ZM8.70038 26.2508V18.975H9.5797V26.2508H8.70038ZM11.4408 28.083L11.5343 31.4999L9.16101 30.6103C9.62016 29.5389 10.4217 28.6501 11.4401 28.083H11.4408ZM4.24607 34.7875H5.68501C5.91929 34.7829 6.15214 34.825 6.36994 34.9115C6.58773 34.9979 6.78609 35.127 6.95341 35.291C7.12074 35.4551 7.25366 35.6508 7.3444 35.8669C7.43514 36.0829 7.48188 36.3149 7.48188 36.5492C7.48188 36.7836 7.43514 37.0155 7.3444 37.2316C7.25366 37.4476 7.12074 37.6434 6.95341 37.8074C6.78609 37.9715 6.58773 38.1005 6.36994 38.187C6.15214 38.2734 5.91929 38.3156 5.68501 38.311H4.24607C3.99631 37.1497 3.99631 35.9487 4.24607 34.7875ZM13.0254 36.7455C12.8431 36.7455 12.6682 36.8179 12.5393 36.9469C12.4104 37.0758 12.3379 37.2507 12.3379 37.433V40.6643H6.34707V39.6117C7.04727 39.4606 7.67459 39.0743 8.12453 38.5169C8.57447 37.9595 8.81988 37.2649 8.81988 36.5485C8.81988 35.8322 8.57447 35.1375 8.12453 34.5802C7.67459 34.0228 7.04727 33.6364 6.34707 33.4854V31.0235L12.7841 33.4373C12.9265 33.4902 13.0822 33.495 13.2276 33.451L21.3304 30.9623V40.6663H13.7129V37.4351C13.7133 37.3446 13.6958 37.2549 13.6614 37.1711C13.627 37.0874 13.5764 37.0113 13.5126 36.9472C13.4487 36.883 13.3728 36.8321 13.2892 36.7974C13.2056 36.7627 13.116 36.7448 13.0254 36.7448V36.7455ZM22.7054 40.6643V30.9623L30.2879 33.2915V36.1508C30.2879 36.3332 30.3603 36.508 30.4892 36.637C30.6182 36.7659 30.793 36.8383 30.9754 36.8383C31.1577 36.8383 31.3326 36.7659 31.4615 36.637C31.5905 36.508 31.6629 36.3332 31.6629 36.1508V33.2585L37.6888 31.02V33.4751C36.9804 33.6195 36.3436 34.0043 35.8863 34.5644C35.4289 35.1244 35.1791 35.8252 35.1791 36.5482C35.1791 37.2712 35.4289 37.972 35.8863 38.532C36.3436 39.0921 36.9804 39.4769 37.6888 39.6213V40.6656L22.7054 40.6643ZM39.7554 38.3082H38.3151C37.8539 38.2991 37.4147 38.1095 37.0917 37.7801C36.7688 37.4507 36.5879 37.0078 36.5879 36.5465C36.5879 36.0852 36.7688 35.6423 37.0917 35.3129C37.4147 34.9835 37.8539 34.7939 38.3151 34.7848H39.7541C40.0041 35.9466 40.0041 37.1484 39.7541 38.3103L39.7554 38.3082ZM13.7129 35.2426C13.7129 35.3786 13.6726 35.5115 13.5971 35.6246C13.5215 35.7377 13.4142 35.8258 13.2885 35.8778C13.1629 35.9298 13.0247 35.9435 12.8913 35.9169C12.758 35.8904 12.6355 35.8249 12.5393 35.7288C12.4432 35.6326 12.3777 35.5101 12.3512 35.3768C12.3246 35.2434 12.3382 35.1052 12.3903 34.9795C12.4423 34.8539 12.5304 34.7465 12.6435 34.671C12.7566 34.5955 12.8895 34.5551 13.0254 34.5551C13.2078 34.5551 13.3827 34.6276 13.5116 34.7565C13.6405 34.8854 13.7129 35.0603 13.7129 35.2426ZM31.6629 38.3398C31.6629 38.4758 31.6226 38.6087 31.547 38.7218C31.4715 38.8348 31.3641 38.923 31.2385 38.975C31.1129 39.027 30.9746 39.0406 30.8413 39.0141C30.7079 38.9876 30.5854 38.9221 30.4892 38.826C30.3931 38.7298 30.3276 38.6073 30.3011 38.4739C30.2746 38.3406 30.2882 38.2024 30.3402 38.0767C30.3923 37.9511 30.4804 37.8437 30.5934 37.7682C30.7065 37.6926 30.8394 37.6523 30.9754 37.6523C31.0657 37.6524 31.1551 37.6703 31.2384 37.7049C31.3218 37.7396 31.3975 37.7903 31.4613 37.8542C31.5251 37.9181 31.5757 37.9939 31.6101 38.0774C31.6446 38.1608 31.6623 38.2502 31.6622 38.3405L31.6629 38.3398Z" fill="black"></path>
                                        </svg>