<svg width="20" height="20" viewBox="0 0 20 20" fill="none" xmlns="http://www.w3.org/2000/svg">
                                        <path d="M11.5625 0.15583C11.5917 0.163559 11.6208 0.171288 11.6509 0.179252C12.7591 0.483236 13.6936 1.05752 14.5313 1.83552C14.569 1.86936 14.569 1.86936 14.6074 1.90388C15.6572 2.88984 16.3891 4.4874 16.4517 5.9256C16.4665 7.32615 16.4665 7.32615 16.3282 7.8902C16.3165 7.93888 16.3165 7.93888 16.3047 7.98853C16.0816 8.89578 15.6701 9.69328 15.1479 10.4624C15.02 10.6516 14.8977 10.8443 14.7754 11.0372C14.7523 11.0737 14.7291 11.1102 14.7053 11.1477C14.6579 11.2225 14.6105 11.2973 14.5631 11.3721C14.4486 11.5528 14.3337 11.7332 14.2188 11.9136C14.1739 11.9841 14.1291 12.0546 14.0842 12.1251C13.8556 12.4843 13.6271 12.8435 13.3985 13.2027C13.4315 13.2069 13.4645 13.2112 13.4985 13.2155C13.8379 13.2611 14.1686 13.3242 14.502 13.4029C14.527 13.4088 14.552 13.4147 14.5778 13.4208C15.9151 13.7375 17.735 14.2122 18.5157 15.4683C18.7895 15.9588 18.8599 16.4155 18.7664 16.9704C18.5347 17.7616 17.8297 18.2639 17.1455 18.6499C15.8732 19.3369 14.4103 19.6362 12.9908 19.836C12.9637 19.8399 12.9366 19.8438 12.9087 19.8478C11.9776 19.9792 11.045 20.0144 10.1059 20.012C10.0207 20.0118 9.93549 20.0117 9.85031 20.0116C9.00973 20.0104 8.17845 19.9892 7.3438 19.8824C7.27294 19.8739 7.27294 19.8739 7.20065 19.8653C5.55176 19.6662 3.62889 19.3008 2.26567 18.2808C2.21046 18.24 2.21046 18.24 2.15413 18.1983C1.70487 17.8494 1.33314 17.4051 1.21098 16.8355C1.15089 16.1484 1.29945 15.6693 1.74077 15.1387C2.89258 13.8868 4.87425 13.4722 6.48442 13.2027C6.52309 13.2027 6.56176 13.2027 6.60161 13.2027C6.31058 12.7411 6.0185 12.2802 5.7253 11.82C5.63347 11.6758 5.54182 11.5316 5.45033 11.3872C5.40522 11.3161 5.36011 11.245 5.31499 11.1739C5.29265 11.1386 5.27031 11.1034 5.24729 11.0671C5.12937 10.8815 5.00999 10.6971 4.8882 10.5141C3.85165 8.95468 3.26129 7.19615 3.62065 5.3072C3.64756 5.17769 3.67807 5.04956 3.71098 4.92145C3.7183 4.89182 3.72561 4.86219 3.73315 4.83166C3.83843 4.41307 3.9919 4.02052 4.17973 3.63239C4.19177 3.60752 4.2038 3.58264 4.2162 3.55701C4.99502 1.97353 6.39661 0.839565 8.0483 0.265483C8.17676 0.223638 8.30661 0.18895 8.43755 0.15583C8.48095 0.144425 8.48095 0.144425 8.52523 0.132789C9.48488 -0.109349 10.6071 -0.0982493 11.5625 0.15583ZM8.75005 1.3277C8.70247 1.34093 8.70247 1.34093 8.65393 1.35443C7.2369 1.76256 6.08749 2.67781 5.36515 3.96668C5.08043 4.49288 4.91419 5.03847 4.80473 5.62458C4.79787 5.66093 4.791 5.69728 4.78392 5.73474C4.69171 6.36229 4.71189 7.12296 4.88286 7.73395C4.89577 7.78082 4.89577 7.78082 4.90895 7.82864C5.10637 8.5217 5.423 9.13264 5.83012 9.72431C5.95857 9.91151 6.07974 10.1032 6.20122 10.295C6.22442 10.3316 6.24763 10.3682 6.27154 10.4058C6.31901 10.4807 6.36646 10.5556 6.41389 10.6305C6.5267 10.8085 6.63982 10.9863 6.75298 11.1641C6.78649 11.2168 6.78649 11.2168 6.82069 11.2706C6.9946 11.5438 7.16912 11.8167 7.3438 12.0894C7.60865 12.503 7.8726 12.9171 8.13607 13.3315C8.24953 13.51 8.36307 13.6884 8.47661 13.8668C8.52218 13.9384 8.56775 14.01 8.61333 14.0816C8.63589 14.1171 8.65844 14.1525 8.68169 14.189C8.75005 14.2965 8.81841 14.4039 8.88676 14.5113C8.90936 14.5468 8.93195 14.5823 8.95523 14.6189C9.00046 14.69 9.04568 14.761 9.0909 14.8321C9.2101 15.0195 9.32938 15.2068 9.44875 15.394C9.4736 15.433 9.49845 15.472 9.52405 15.5122C9.57163 15.5869 9.61924 15.6615 9.66687 15.7362C9.69908 15.7868 9.69908 15.7868 9.73195 15.8384C9.75077 15.8679 9.76958 15.8974 9.78897 15.9278C9.82928 15.9921 9.86751 16.0577 9.9045 16.1239C9.92314 16.1525 9.94178 16.1811 9.96098 16.2105C9.98676 16.2105 10.0125 16.2105 10.0391 16.2105C10.0959 16.1368 10.0959 16.1368 10.1529 16.0398C10.1759 16.0025 10.1989 15.9653 10.2225 15.9269C10.2598 15.8655 10.2598 15.8655 10.2979 15.8028C10.3513 15.7161 10.4048 15.6294 10.4583 15.5428C10.4789 15.5092 10.4789 15.5092 10.5 15.475C10.6424 15.244 10.7885 15.0155 10.9351 14.7872C10.9609 14.7469 10.9868 14.7066 11.0134 14.6651C11.0659 14.5833 11.1184 14.5015 11.1709 14.4197C11.3033 14.2135 11.4354 14.0072 11.5674 13.8008C11.5934 13.7604 11.6193 13.7199 11.646 13.6781C11.9054 13.2727 12.1637 12.8667 12.4219 12.4605C12.734 11.9696 13.0467 11.4791 13.3605 10.9892C13.5568 10.6826 13.7526 10.3757 13.9474 10.068C14.0491 9.90754 14.1517 9.74781 14.2579 9.59019C14.8955 8.64055 15.2506 7.63261 15.2491 6.48151C15.249 6.45515 15.249 6.42878 15.249 6.40162C15.2439 5.02793 14.6954 3.82843 13.7891 2.81208C13.752 2.77001 13.752 2.77001 13.7142 2.72709C12.898 1.85684 11.6299 1.27067 10.446 1.20245C10.3005 1.19869 10.1553 1.19765 10.0098 1.19831C9.98413 1.19841 9.95845 1.1985 9.93199 1.1986C9.52574 1.20098 9.14259 1.21835 8.75005 1.3277ZM2.59129 16.0306C2.44961 16.2009 2.3919 16.3651 2.40147 16.5847C2.47912 16.9439 2.80325 17.1878 3.09518 17.3781C4.40548 18.2015 6.01131 18.5028 7.5269 18.6812C7.55446 18.6845 7.58202 18.6877 7.61042 18.6911C8.17541 18.7567 8.73843 18.7945 9.30745 18.7966C9.35854 18.7969 9.40962 18.7971 9.46226 18.7974C9.62606 18.7982 9.78986 18.7984 9.95366 18.7984C9.98159 18.7984 10.0095 18.7984 10.0383 18.7985C10.8902 18.7987 11.7326 18.7865 12.5782 18.6715C12.6311 18.6645 12.6841 18.6575 12.737 18.6505C13.436 18.557 14.1236 18.4259 14.8047 18.2418C14.8395 18.2325 14.8743 18.2231 14.9102 18.2136C15.7817 17.9769 16.7633 17.6411 17.3829 16.9527C17.401 16.9328 17.4192 16.9128 17.4379 16.8923C17.5656 16.7372 17.6075 16.6146 17.5942 16.4133C17.5322 16.0819 17.2497 15.8447 16.9909 15.6548C15.9003 14.91 13.9883 14.1918 12.6563 14.3355C12.5777 14.4059 12.5777 14.4059 12.521 14.5058C12.4865 14.5595 12.4865 14.5595 12.4514 14.6144C12.4288 14.6513 12.4062 14.6881 12.3829 14.7261C12.3405 14.7915 12.2982 14.8568 12.2558 14.9221C12.2126 14.9902 12.1695 15.0583 12.1265 15.1265C12.0784 15.2024 12.0304 15.2783 11.9823 15.3542C11.958 15.3926 11.9338 15.431 11.9087 15.4705C11.7937 15.6523 11.6781 15.8338 11.5625 16.0152C11.4229 16.2345 11.2834 16.4539 11.1441 16.6735C11.0106 16.884 10.8766 17.0942 10.7422 17.3043C10.7167 17.3444 10.7167 17.3444 10.6906 17.3853C10.6479 17.4521 10.6048 17.5186 10.5616 17.585C10.5282 17.6366 10.5282 17.6366 10.4941 17.6892C10.3963 17.8165 10.3082 17.8786 10.1563 17.9293C9.93066 17.9441 9.80859 17.9308 9.60942 17.8121C9.37628 17.5649 9.20906 17.2437 9.03411 16.9539C8.91263 16.7526 8.78807 16.5539 8.65971 16.357C8.4944 16.1034 8.33117 15.8485 8.16899 15.5928C7.98237 15.299 7.79455 15.0059 7.60503 14.7139C7.58325 14.6803 7.56148 14.6467 7.53905 14.6121C7.51908 14.5814 7.49911 14.5507 7.47853 14.5191C7.45215 14.4785 7.45215 14.4785 7.42523 14.4371C7.38659 14.3759 7.38659 14.3759 7.3438 14.3355C5.87033 14.2723 3.6165 14.9379 2.59129 16.0306Z" fill="#F38035"></path>
                                        <path d="M11.7477 4.07375C11.891 4.19097 12.0199 4.31969 12.1484 4.45281C12.1772 4.48041 12.206 4.508 12.2357 4.53643C12.7413 5.04985 12.9423 5.78244 12.9492 6.48406C12.9415 7.26214 12.6945 7.97687 12.1368 8.53057C12.102 8.56421 12.0672 8.59785 12.0312 8.6325C12.0037 8.6613 11.9761 8.69011 11.9476 8.71978C11.4342 9.22536 10.7016 9.42634 10 9.43328C9.22193 9.42558 8.5072 9.17853 7.95349 8.6209C7.91985 8.58606 7.88622 8.55122 7.85156 8.51531C7.82276 8.48772 7.79396 8.46013 7.76428 8.4317C7.2587 7.91828 7.05773 7.18568 7.05078 6.48406C7.05848 5.70599 7.30553 4.99126 7.86316 4.43756C7.898 4.40392 7.93285 4.37028 7.96875 4.33563C7.99634 4.30682 8.02394 4.27802 8.05237 4.24835C8.99751 3.31763 10.7073 3.29922 11.7477 4.07375ZM8.78906 5.23406C8.76419 5.25733 8.73931 5.28059 8.71368 5.30456C8.38215 5.64748 8.26811 6.09118 8.26621 6.55493C8.27448 7.00466 8.44396 7.36847 8.75 7.695C8.7849 7.73231 8.7849 7.73231 8.8205 7.77038C9.16342 8.10192 9.60712 8.21595 10.0709 8.21785C10.5206 8.20958 10.8844 8.04011 11.2109 7.73406C11.2483 7.69917 11.2483 7.69917 11.2863 7.66357C11.6179 7.32065 11.7319 6.87695 11.7338 6.4132C11.7255 5.96347 11.556 5.59966 11.25 5.27313C11.2151 5.23581 11.2151 5.23581 11.1795 5.19775C10.8366 4.86621 10.3929 4.75218 9.92913 4.75027C9.4794 4.75855 9.11559 4.92802 8.78906 5.23406Z" fill="#F38035"></path>
                                    </svg>