<svg width="16" height="17" viewBox="0 0 16 17" fill="none" xmlns="http://www.w3.org/2000/svg">
                                            <path d="M14.7385 6.73125C14.7629 6.75231 14.7873 6.77338 14.8125 6.79509C14.8337 6.81326 14.8549 6.83142 14.8767 6.85014C15.4695 7.39891 15.738 8.24188 15.8828 9.01188C15.8875 9.03675 15.8923 9.06161 15.8971 9.08723C15.991 9.62802 16.0091 10.1719 16.0071 10.7194C16.0071 10.7873 16.0071 10.8551 16.0071 10.9229C16.0071 11.1048 16.0068 11.2867 16.0063 11.4686C16.0059 11.6596 16.0059 11.8505 16.0058 12.0414C16.0056 12.402 16.0051 12.7625 16.0045 13.1231C16.0037 13.611 16.0033 14.099 16.003 14.5869C16.0024 15.3542 16.0011 16.1215 16 16.8888C14.8966 16.8888 13.7931 16.8888 12.6562 16.8888C12.6551 16.4513 12.6539 16.0138 12.6527 15.563C12.6518 15.2852 12.6508 15.0073 12.6497 14.7295C12.648 14.2889 12.6464 13.8482 12.6454 13.4076C12.6447 13.0866 12.6437 12.7657 12.6422 12.4447C12.6415 12.275 12.6409 12.1052 12.6407 11.9355C12.6405 11.7752 12.6399 11.615 12.6389 11.4548C12.6387 11.3964 12.6385 11.3381 12.6386 11.2797C12.639 10.6194 12.5982 9.82858 12.1218 9.31853C11.7872 9.00579 11.3977 8.90183 10.9453 8.90642C10.8963 8.90674 10.8963 8.90674 10.8463 8.90706C10.3517 8.91726 9.93957 9.05686 9.57581 9.39799C9.06152 9.9719 9.01701 10.8028 9.01774 11.5354C9.01746 11.5943 9.01713 11.6532 9.01677 11.7121C9.01592 11.8699 9.01562 12.0277 9.01543 12.1856C9.01514 12.3513 9.01432 12.517 9.01356 12.6827C9.0122 12.9955 9.0113 13.3084 9.01058 13.6212C9.00957 14.0446 9.00784 14.4681 9.00615 14.8915C9.00351 15.5573 9.00183 16.223 9 16.8888C7.89656 16.8888 6.79313 16.8888 5.65625 16.8888C5.65625 13.362 5.65625 9.83509 5.65625 6.20134C6.70812 6.20134 7.76 6.20134 8.84375 6.20134C8.85406 6.6654 8.86438 7.12946 8.875 7.60759C8.96781 7.47353 9.06063 7.33946 9.15625 7.20134C9.37401 6.92853 9.6216 6.71367 9.90625 6.51384C9.9425 6.48798 9.9425 6.48798 9.97949 6.46159C11.3225 5.58204 13.5125 5.71335 14.7385 6.73125Z" fill="#111111"></path>
                                            <path d="M0.25 6.20117C1.35344 6.20117 2.45687 6.20117 3.59375 6.20117C3.59375 9.72805 3.59375 13.2549 3.59375 16.8887C2.49031 16.8887 1.38688 16.8887 0.25 16.8887C0.25 13.3618 0.25 9.83492 0.25 6.20117Z" fill="#111111"></path>
                                            <path d="M2.68753 1.01339C2.73194 1.03327 2.73194 1.03327 2.77725 1.05355C2.99722 1.16308 3.1703 1.30959 3.34378 1.48214C3.3697 1.50643 3.3697 1.50643 3.39615 1.53121C3.5145 1.65308 3.58765 1.79886 3.66409 1.94894C3.67477 1.96983 3.68545 1.99072 3.69645 2.01224C3.89748 2.42285 3.91965 2.95765 3.793 3.3962C3.5922 3.93048 3.25436 4.35188 2.7344 4.60324C2.22091 4.81463 1.7095 4.82923 1.18753 4.63839C0.665914 4.41436 0.332183 4.02937 0.100857 3.52084C-0.0593515 3.09787 -0.074753 2.55726 0.0858425 2.13143C0.0987734 2.10279 0.111704 2.07415 0.125027 2.04464C0.13828 2.01503 0.151533 1.98543 0.165188 1.95492C0.274717 1.73495 0.421226 1.56186 0.593777 1.38839C0.609971 1.37111 0.626165 1.35383 0.642849 1.33602C0.764716 1.21767 0.910499 1.14452 1.06057 1.06808C1.08146 1.0574 1.10235 1.04672 1.12388 1.03572C1.58787 0.808558 2.21619 0.800594 2.68753 1.01339Z" fill="#111111"></path>
                                        </svg>