<svg width="16" height="16" viewBox="0 0 16 16" fill="none" xmlns="http://www.w3.org/2000/svg">
                                                                    <path d="M3.4518 6.16823C3.50989 6.11011 3.54299 6.02942 3.54299 5.94692C3.54299 5.86473 3.50989 5.78408 3.4518 5.72608C3.39305 5.66774 3.31366 5.63493 3.23086 5.63477C3.14833 5.63477 3.06764 5.66789 3.00952 5.72608C2.95128 5.78485 2.91852 5.86418 2.91833 5.94692C2.91833 6.02942 2.95143 6.10973 3.00952 6.16823C3.06841 6.22663 3.1479 6.25951 3.23083 6.2598C3.31364 6.25944 3.39302 6.22656 3.4518 6.16823ZM1.68093 13.8765L0.091082 15.4663C-0.0310117 15.5883 -0.0310117 15.7861 0.091082 15.9082C0.152113 15.9693 0.232051 15.9998 0.31202 15.9998C0.391988 15.9998 0.471926 15.9693 0.532957 15.9082L2.1228 14.3184C2.24489 14.1964 2.24489 13.9985 2.1228 13.8765C2.00071 13.7544 1.80299 13.7544 1.68093 13.8765ZM0.31202 9.31227C0.353064 9.31232 0.393715 9.30426 0.431633 9.28855C0.46955 9.27284 0.503986 9.24978 0.532957 9.2207L2.28005 7.47377C2.40199 7.3517 2.40199 7.15383 2.28005 7.03177C2.15796 6.9098 1.96008 6.9098 1.83802 7.03177L0.091082 8.7787C-0.0310117 8.90077 -0.0310117 9.09864 0.091082 9.2207C0.120061 9.24977 0.154498 9.27282 0.192413 9.28853C0.230329 9.30425 0.270977 9.31231 0.31202 9.31227ZM7.78261 14.7019L7.01821 15.4663C6.89611 15.5883 6.89611 15.7861 7.01821 15.9082C7.04719 15.9373 7.08162 15.9603 7.11954 15.976C7.15745 15.9917 7.1981 15.9998 7.23914 15.9998C7.28019 15.9998 7.32083 15.9917 7.35875 15.976C7.39667 15.9603 7.4311 15.9373 7.46008 15.9082L8.22449 15.1439C8.34655 15.0219 8.34655 14.824 8.22449 14.7019C8.10243 14.5799 7.90455 14.5798 7.78261 14.7019Z" fill="#111111" fill-opacity="0.5"></path>
                                                                    <path d="M15.8471 8.48621L12.39 6.43215L14.7315 4.09081C15.7184 3.10375 16.1705 1.6925 15.9408 0.315694C15.9302 0.251436 15.8997 0.192126 15.8536 0.146066C15.8075 0.100006 15.7482 0.0695 15.684 0.0588191C14.3072 -0.171024 12.8959 0.281131 11.9087 1.26819L9.69729 3.47975L8.69354 3.38403C8.79823 3.05297 8.71989 2.67603 8.45792 2.41419C8.08367 2.03991 7.47455 2.03991 7.10027 2.41419L6.3537 3.16075L5.36333 3.06628C5.39547 2.96906 5.41183 2.86731 5.41177 2.76491C5.41177 2.50844 5.31193 2.26735 5.13068 2.08607C4.94927 1.90466 4.70818 1.80482 4.45183 1.80482C4.19536 1.80482 3.95427 1.90466 3.77299 2.08607L3.01652 2.8425L1.73556 2.72031C1.64306 2.71163 1.55087 2.74447 1.48493 2.81053L0.0914981 4.20397C0.0568119 4.23864 0.0307811 4.281 0.0155142 4.32761C0.000247328 4.37422 -0.00382633 4.42377 0.00362323 4.47225C0.0110275 4.52076 0.029764 4.56685 0.0583126 4.60677C0.0868612 4.64668 0.124418 4.67931 0.167935 4.702L1.97715 5.64546C2.02161 5.66883 2.07108 5.68102 2.12131 5.681C2.17849 5.68105 2.2346 5.6654 2.2835 5.63576C2.33241 5.60612 2.37224 5.56362 2.39865 5.5129C2.47849 5.35996 2.41915 5.17122 2.26609 5.0914L0.834528 4.34469L1.82268 3.35656L9.12407 4.05294L6.09074 7.08627L4.49027 6.25143C4.33721 6.17159 4.14849 6.23106 4.06865 6.38399C3.98883 6.53709 4.04815 6.72581 4.20121 6.80562L5.62749 7.54952L5.13664 8.04024C4.64799 8.52899 4.22002 9.06393 3.85649 9.6363L1.13862 9.68636C1.05773 9.68787 0.980586 9.7207 0.923403 9.77793L0.196967 10.5044C0.159373 10.542 0.131994 10.5885 0.117421 10.6397C0.102848 10.6908 0.101563 10.7448 0.113687 10.7966C0.125811 10.8484 0.150943 10.8962 0.186706 10.9355C0.222468 10.9749 0.267679 11.0045 0.31806 11.0215L2.82768 11.8676C2.7033 12.2723 2.60644 12.685 2.53777 13.1027C2.52973 13.1517 2.53346 13.2019 2.54867 13.2491C2.56387 13.2964 2.5901 13.3393 2.6252 13.3744C2.66029 13.4095 2.70324 13.4358 2.75049 13.451C2.79773 13.4662 2.84792 13.4699 2.8969 13.4619C3.31467 13.3932 3.72732 13.2963 4.13202 13.1719L4.97833 15.6816C4.99529 15.732 5.02484 15.7772 5.06418 15.813C5.10351 15.8488 5.15133 15.8739 5.2031 15.8861C5.25488 15.8982 5.30889 15.8969 5.36003 15.8823C5.41116 15.8677 5.45772 15.8403 5.4953 15.8027L6.22186 15.0762C6.27907 15.019 6.31184 14.9417 6.31327 14.8608L6.36064 12.1449C6.85046 11.8338 7.31011 11.4776 7.73358 11.0809C8.0032 13.3371 9.54839 15.2579 11.7477 15.9839C11.8114 16.0049 11.88 16.0049 11.9437 15.9839C14.3698 15.1829 15.9999 12.9282 15.9999 10.3733V8.75486C15.9999 8.70068 15.9858 8.64742 15.959 8.60032C15.9323 8.55322 15.8937 8.51389 15.8471 8.48621ZM7.54223 2.85622C7.67286 2.72547 7.88536 2.72547 8.01598 2.85622C8.14345 2.98366 8.14614 3.18909 8.02454 3.32019L7.16055 3.23778L7.54223 2.85622ZM4.21499 2.5281C4.246 2.49687 4.2829 2.47211 4.32355 2.45526C4.3642 2.43841 4.4078 2.4298 4.4518 2.42994C4.54127 2.42994 4.6254 2.46472 4.68861 2.52806C4.71982 2.55909 4.74455 2.596 4.7614 2.63666C4.77824 2.67731 4.78685 2.7209 4.78674 2.76491C4.78674 2.85438 4.75196 2.93847 4.68861 3.00184L4.68836 3.00197L3.82349 2.91944L4.21499 2.5281ZM0.995028 10.59L1.27618 10.3089L3.48968 10.2681C3.31691 10.5949 3.16401 10.9318 3.0318 11.2769L0.995028 10.59ZM5.69061 14.7236L5.40946 15.0046L4.72271 12.9679C5.06706 12.836 5.40316 12.6835 5.72917 12.5112L5.69061 14.7236ZM5.90399 11.693C5.89458 11.698 5.88555 11.7035 5.87677 11.7094C5.06608 12.2009 4.17827 12.556 3.2393 12.7603C3.59283 11.1364 4.39593 9.66502 5.57867 8.48227L12.3508 1.71022C13.1414 0.919567 14.25 0.530162 15.355 0.644787C15.4696 1.74963 15.0801 2.85828 14.2895 3.64894L11.7687 6.16968C11.7397 6.17698 11.7119 6.18841 11.6861 6.20362L7.8443 8.48621C7.79769 8.51388 7.75909 8.5532 7.73227 8.6003C7.70545 8.6474 7.69134 8.70066 7.69133 8.75486V10.2469L7.51739 10.421C7.02614 10.9122 6.48502 11.3378 5.90396 11.693L5.90399 11.693ZM15.3749 10.3733C15.3749 12.6234 13.961 14.6131 11.8456 15.357C9.73942 14.6163 8.32876 12.6405 8.3167 10.4022C8.31845 10.3828 8.31837 10.3632 8.31645 10.3437V8.93261L11.8457 6.83568L15.3749 8.93261V10.3733Z" fill="#111111" fill-opacity="0.5"></path>
                                                                    <path d="M11.6857 7.65762L9.09389 9.19753C9.04728 9.22521 9.00867 9.26453 8.98185 9.31164C8.95504 9.35874 8.94093 9.41201 8.94092 9.46622V10.3733C8.94092 12.2201 10.0316 13.8933 11.7194 14.6359C11.7595 14.6535 11.8024 14.6624 11.8452 14.6624C11.8881 14.6624 11.931 14.6535 11.9711 14.6359C13.6589 13.8933 14.7495 12.2201 14.7495 10.3733V9.46622C14.7495 9.356 14.6914 9.25381 14.5967 9.19753L12.0049 7.65762C11.9566 7.62892 11.9015 7.61377 11.8453 7.61377C11.7891 7.61377 11.734 7.62892 11.6857 7.65762ZM14.1245 9.64394V10.3733C14.1245 11.9261 13.2345 13.3368 11.8452 14.0059C10.456 13.3368 9.56592 11.9261 9.56592 10.3733V9.64394L11.8452 8.28972L14.1245 9.64394Z" fill="#111111" fill-opacity="0.5"></path>
                                                                    <path d="M11.4604 10.917C11.3384 10.795 11.1406 10.795 11.0186 10.917C10.8965 11.039 10.8965 11.2369 11.0186 11.359L11.5275 11.8679C11.5565 11.897 11.5909 11.92 11.6288 11.9357C11.6667 11.9514 11.7074 11.9595 11.7484 11.9595C11.7895 11.9595 11.8301 11.9515 11.8681 11.9357C11.906 11.92 11.9405 11.897 11.9695 11.8679L13.2078 10.6296C13.3298 10.5075 13.3298 10.3097 13.2078 10.1876C13.0857 10.0657 12.8879 10.0657 12.7659 10.1876L11.7484 11.2051L11.4604 10.917ZM10.8473 5.46483C10.8883 5.46489 10.929 5.45683 10.967 5.44111C11.0049 5.4254 11.0394 5.40234 11.0683 5.37327L13.9198 2.5217C14.0419 2.39964 14.0419 2.20177 13.9198 2.07983C13.8908 2.05081 13.8563 2.02778 13.8184 2.01207C13.7805 1.99637 13.7399 1.98828 13.6988 1.98828C13.6578 1.98828 13.6172 1.99637 13.5793 2.01207C13.5414 2.02778 13.5069 2.05081 13.4779 2.07983L10.6263 4.93127C10.5043 5.05333 10.5043 5.2512 10.6263 5.37327C10.6553 5.40233 10.6898 5.42538 10.7277 5.4411C10.7656 5.45681 10.8062 5.46487 10.8473 5.46483ZM9.96338 6.34874C10.0455 6.34874 10.1261 6.3153 10.1846 6.25717C10.2429 6.19841 10.2758 6.11905 10.2761 6.03624C10.2761 5.95383 10.2427 5.87352 10.1846 5.8153C10.1258 5.75681 10.0463 5.72391 9.96338 5.72374C9.88053 5.72389 9.80111 5.7568 9.74244 5.8153C9.68398 5.87399 9.65107 5.9534 9.65088 6.03624C9.65088 6.11852 9.68419 6.19908 9.74244 6.25717C9.8012 6.31553 9.88056 6.34842 9.96338 6.34874Z" fill="#111111" fill-opacity="0.5"></path>
                                                                </svg>