<svg width="20" height="20" viewBox="0 0 20 20" fill="none" xmlns="http://www.w3.org/2000/svg">
                                                <path d="M5.66406 1.99219C8.52578 1.99219 11.3875 1.99219 14.3359 1.99219C14.3359 2.22422 14.3359 2.45625 14.3359 2.69531C14.1168 2.69531 13.8977 2.69531 13.6719 2.69531C13.6719 2.90156 13.6719 3.10781 13.6719 3.32031C14.7805 3.32031 15.8891 3.32031 17.0312 3.32031C17.0312 3.55234 17.0312 3.78437 17.0312 4.02344C16.8121 4.02344 16.593 4.02344 16.3672 4.02344C16.3672 8.40625 16.3672 12.7891 16.3672 17.3047C16.8957 17.3047 17.4242 17.3047 17.9688 17.3047C17.9688 15.9125 17.9688 14.5203 17.9688 13.0859C17.7238 13.2664 17.4789 13.4469 17.2266 13.6328C17.0017 13.408 17.0017 13.408 16.9019 13.2764C16.8819 13.2505 16.8619 13.2246 16.8413 13.1979C16.7969 13.125 16.7969 13.125 16.7969 13.0078C16.8625 12.9462 16.8625 12.9462 16.9537 12.8809C16.9865 12.8571 17.0193 12.8333 17.0531 12.8088C17.0878 12.7843 17.1225 12.7597 17.1582 12.7344C17.1923 12.7098 17.2264 12.6852 17.2615 12.6599C17.3253 12.614 17.3892 12.5682 17.4532 12.5226C17.5347 12.464 17.6152 12.4043 17.6953 12.3438C17.4023 12.0998 17.1036 11.867 16.7969 11.6406C16.8204 11.4841 16.901 11.3846 16.9946 11.2598C17.0233 11.2213 17.0519 11.1828 17.0815 11.1432C17.1036 11.114 17.1257 11.0848 17.1484 11.0547C17.2756 11.0786 17.3544 11.1218 17.4567 11.2001C17.4941 11.2285 17.4941 11.2285 17.5324 11.2575C17.5636 11.2816 17.5948 11.3057 17.627 11.3306C17.7269 11.4071 17.8268 11.4836 17.9297 11.5625C17.9426 11.266 17.9555 10.9695 17.9688 10.6641C18.2008 10.6641 18.4328 10.6641 18.6719 10.6641C18.6719 10.9734 18.6719 11.2828 18.6719 11.6016C18.9168 11.4211 19.1617 11.2406 19.4141 11.0547C19.5801 11.1377 19.6318 11.198 19.7388 11.3452C19.7808 11.4019 19.7808 11.4019 19.8238 11.4598C19.8432 11.4937 19.8627 11.5276 19.8828 11.5625C19.8367 11.7009 19.7981 11.7234 19.6817 11.8066C19.6325 11.8423 19.6325 11.8423 19.5822 11.8787C19.5477 11.9032 19.5131 11.9278 19.4775 11.9531C19.4096 12.0019 19.3418 12.0507 19.274 12.0996C19.2438 12.1212 19.2135 12.1427 19.1824 12.1649C19.1098 12.2203 19.0469 12.2775 18.9844 12.3438C19.0047 12.3595 19.0249 12.3752 19.0458 12.3915C19.1385 12.4634 19.2311 12.5354 19.3237 12.6074C19.3556 12.6322 19.3875 12.657 19.4204 12.6825C19.5754 12.803 19.73 12.9237 19.8828 13.0469C19.8195 13.1869 19.7347 13.3043 19.6436 13.4277C19.6153 13.4662 19.587 13.5047 19.5578 13.5443C19.5361 13.5735 19.5145 13.6027 19.4922 13.6328C19.2188 13.4766 19.2188 13.4766 18.7109 13.0859C18.698 14.4781 18.6852 15.8703 18.6719 17.3047C19.1102 17.3047 19.5484 17.3047 20 17.3047C20 17.5367 20 17.7688 20 18.0078C13.4 18.0078 6.8 18.0078 0 18.0078C0 17.7758 0 17.5437 0 17.3047C0.438281 17.3047 0.876562 17.3047 1.32812 17.3047C1.31523 15.9125 1.30234 14.5203 1.28906 13.0859C1.04414 13.2664 0.799219 13.4469 0.546875 13.6328C0.422762 13.5087 0.322623 13.4069 0.222168 13.269C0.202177 13.2418 0.182187 13.2146 0.161591 13.1865C0.146938 13.1662 0.132285 13.1459 0.117188 13.125C0.17565 12.9784 0.257125 12.9103 0.382385 12.8168C0.419144 12.7891 0.455902 12.7614 0.493774 12.7328C0.55148 12.6901 0.55148 12.6901 0.610352 12.6465C0.649124 12.6174 0.687897 12.5883 0.727844 12.5583C0.823567 12.4865 0.919497 12.415 1.01562 12.3438C0.910887 12.2348 0.803764 12.1416 0.681763 12.0526C0.648781 12.0284 0.615799 12.0043 0.581818 11.9794C0.547728 11.9546 0.513638 11.9298 0.478516 11.9043C0.443822 11.8789 0.409128 11.8535 0.373383 11.8274C0.288072 11.765 0.202672 11.7028 0.117188 11.6406C0.17703 11.4817 0.247873 11.3691 0.356445 11.2378C0.384744 11.2033 0.413043 11.1688 0.4422 11.1333C0.463852 11.1073 0.485504 11.0814 0.507812 11.0547C0.710542 11.1179 0.862072 11.2444 1.02783 11.3721C1.12693 11.4478 1.22603 11.5235 1.32812 11.6016C1.32812 11.2922 1.32812 10.9828 1.32812 10.6641C1.56016 10.6641 1.79219 10.6641 2.03125 10.6641C2.05059 11.1088 2.05059 11.1088 2.07031 11.5625C2.28382 11.3957 2.28382 11.3957 2.49684 11.2283C2.52352 11.2076 2.55019 11.187 2.57767 11.1658C2.60487 11.1445 2.63208 11.1232 2.66011 11.1013C2.73438 11.0547 2.73438 11.0547 2.85156 11.0547C2.91956 11.1282 2.97802 11.1991 3.03711 11.2793C3.05368 11.3003 3.07024 11.3214 3.08731 11.3431C3.20432 11.4993 3.20432 11.4993 3.19936 11.5996C3.14979 11.7121 3.0798 11.7569 2.9808 11.8289C2.94392 11.8563 2.90704 11.8836 2.86903 11.9118C2.83024 11.9399 2.79144 11.9681 2.75146 11.9971C2.67475 12.0531 2.5982 12.1093 2.52182 12.1658C2.4877 12.1906 2.45358 12.2154 2.41843 12.2409C2.39379 12.262 2.36914 12.283 2.34375 12.3047C2.34375 12.3305 2.34375 12.3562 2.34375 12.3828C2.41242 12.4445 2.41242 12.4445 2.50198 12.5073C2.53494 12.5314 2.5679 12.5555 2.60185 12.5803C2.63672 12.6053 2.67159 12.6304 2.70752 12.6562C2.74194 12.6813 2.77635 12.7064 2.81181 12.7322C2.94103 12.8262 3.07019 12.9192 3.20312 13.0078C3.18442 13.1939 3.10567 13.2901 2.98584 13.4302C2.93742 13.4874 2.93742 13.4874 2.88803 13.5457C2.86311 13.5744 2.83818 13.6032 2.8125 13.6328C2.54536 13.4587 2.28961 13.2738 2.03125 13.0859C2.03125 14.4781 2.03125 15.8703 2.03125 17.3047C2.55977 17.3047 3.08828 17.3047 3.63281 17.3047C3.63281 12.9219 3.63281 8.53906 3.63281 4.02344C3.41367 4.02344 3.19453 4.02344 2.96875 4.02344C2.96875 3.79141 2.96875 3.55938 2.96875 3.32031C4.07734 3.32031 5.18594 3.32031 6.32812 3.32031C6.32812 3.11406 6.32812 2.90781 6.32812 2.69531C6.10898 2.69531 5.88984 2.69531 5.66406 2.69531C5.66406 2.46328 5.66406 2.23125 5.66406 1.99219ZM7.03125 2.69531C7.03125 7.51641 7.03125 12.3375 7.03125 17.3047C7.34062 17.3047 7.65 17.3047 7.96875 17.3047C7.97066 17.157 7.97258 17.0094 7.97455 16.8573C7.97666 16.7144 7.9789 16.5716 7.98115 16.4287C7.98264 16.3294 7.98401 16.23 7.98523 16.1307C7.98701 15.988 7.98928 15.8452 7.99164 15.7025C7.99209 15.658 7.99254 15.6136 7.99301 15.5677C7.99378 15.5263 7.99456 15.4849 7.99536 15.4422C7.99588 15.4057 7.9964 15.3693 7.99693 15.3318C8.00841 15.229 8.03047 15.165 8.08594 15.0781C8.21677 15.0127 8.36424 15.033 8.50814 15.0328C8.54378 15.0326 8.57941 15.0324 8.61613 15.0322C8.73435 15.0316 8.85257 15.0313 8.97079 15.0311C9.05273 15.0309 9.13466 15.0307 9.21659 15.0305C9.3885 15.03 9.5604 15.0298 9.73231 15.0297C9.95291 15.0295 10.1735 15.0285 10.3941 15.0274C10.5634 15.0267 10.7326 15.0265 10.9019 15.0264C10.9832 15.0263 11.0646 15.026 11.1459 15.0255C11.2596 15.0248 11.3732 15.0249 11.4868 15.0251C11.5206 15.0248 11.5544 15.0244 11.5892 15.024C11.8198 15.0257 11.8198 15.0257 11.9017 15.0937C11.9958 15.2081 11.9978 15.2879 12.0002 15.4333C12.0014 15.4955 12.0014 15.4955 12.0026 15.5589C12.0032 15.6038 12.0039 15.6486 12.0045 15.6949C12.0054 15.7407 12.0062 15.7866 12.007 15.8338C12.0096 15.9807 12.0119 16.1275 12.0142 16.2744C12.0158 16.3738 12.0176 16.4732 12.0193 16.5726C12.0235 16.8166 12.0274 17.0606 12.0312 17.3047C12.3406 17.3047 12.65 17.3047 12.9688 17.3047C12.9688 12.4836 12.9688 7.6625 12.9688 2.69531C11.0094 2.69531 9.05 2.69531 7.03125 2.69531ZM4.33594 4.02344C4.33594 8.40625 4.33594 12.7891 4.33594 17.3047C4.99336 17.3047 5.65078 17.3047 6.32812 17.3047C6.32812 12.9219 6.32812 8.53906 6.32812 4.02344C5.6707 4.02344 5.01328 4.02344 4.33594 4.02344ZM13.6719 4.02344C13.6719 8.40625 13.6719 12.7891 13.6719 17.3047C14.3293 17.3047 14.9867 17.3047 15.6641 17.3047C15.6641 12.9219 15.6641 8.53906 15.6641 4.02344C15.0066 4.02344 14.3492 4.02344 13.6719 4.02344ZM8.67188 15.7031C8.67188 16.2316 8.67188 16.7602 8.67188 17.3047C8.99414 17.3047 9.31641 17.3047 9.64844 17.3047C9.64844 16.7762 9.64844 16.2477 9.64844 15.7031C9.32617 15.7031 9.00391 15.7031 8.67188 15.7031ZM10.3516 15.7031C10.3516 16.2316 10.3516 16.7602 10.3516 17.3047C10.6738 17.3047 10.9961 17.3047 11.3281 17.3047C11.3281 16.7762 11.3281 16.2477 11.3281 15.7031C11.0059 15.7031 10.6836 15.7031 10.3516 15.7031Z" fill="black"></path>
                                                <path d="M14.2969 11.6406C14.5289 11.6406 14.7609 11.6406 15 11.6406C15 11.9887 15 12.3367 15 12.6953C14.768 12.6953 14.5359 12.6953 14.2969 12.6953C14.2969 12.3473 14.2969 11.9992 14.2969 11.6406Z" fill="black"></path>
                                                <path d="M11.6406 11.6406C11.8727 11.6406 12.1047 11.6406 12.3438 11.6406C12.3438 11.9887 12.3438 12.3367 12.3438 12.6953C12.1117 12.6953 11.8797 12.6953 11.6406 12.6953C11.6406 12.3473 11.6406 11.9992 11.6406 11.6406Z" fill="black"></path>
                                                <path d="M10.3125 11.6406C10.5445 11.6406 10.7766 11.6406 11.0156 11.6406C11.0156 11.9887 11.0156 12.3367 11.0156 12.6953C10.7836 12.6953 10.5516 12.6953 10.3125 12.6953C10.3125 12.3473 10.3125 11.9992 10.3125 11.6406Z" fill="black"></path>
                                                <path d="M8.98438 11.6406C9.21641 11.6406 9.44844 11.6406 9.6875 11.6406C9.6875 11.9887 9.6875 12.3367 9.6875 12.6953C9.45547 12.6953 9.22344 12.6953 8.98438 12.6953C8.98438 12.3473 8.98438 11.9992 8.98438 11.6406Z" fill="black"></path>
                                                <path d="M7.65625 11.6406C7.88828 11.6406 8.12031 11.6406 8.35938 11.6406C8.35938 11.9887 8.35938 12.3367 8.35938 12.6953C8.12734 12.6953 7.89531 12.6953 7.65625 12.6953C7.65625 12.3473 7.65625 11.9992 7.65625 11.6406Z" fill="black"></path>
                                                <path d="M5 11.6406C5.23203 11.6406 5.46406 11.6406 5.70312 11.6406C5.70312 11.9887 5.70312 12.3367 5.70312 12.6953C5.47109 12.6953 5.23906 12.6953 5 12.6953C5 12.3473 5 11.9992 5 11.6406Z" fill="black"></path>
                                                <path d="M14.2969 6.64062C14.5289 6.64062 14.7609 6.64062 15 6.64062C15 6.98867 15 7.33672 15 7.69531C14.768 7.69531 14.5359 7.69531 14.2969 7.69531C14.2969 7.34727 14.2969 6.99922 14.2969 6.64062Z" fill="black"></path>
                                                <path d="M11.6406 6.64062C11.8727 6.64062 12.1047 6.64062 12.3438 6.64062C12.3438 6.98867 12.3438 7.33672 12.3438 7.69531C12.1117 7.69531 11.8797 7.69531 11.6406 7.69531C11.6406 7.34727 11.6406 6.99922 11.6406 6.64062Z" fill="black"></path>
                                                <path d="M10.3125 6.64062C10.5445 6.64062 10.7766 6.64062 11.0156 6.64062C11.0156 6.98867 11.0156 7.33672 11.0156 7.69531C10.7836 7.69531 10.5516 7.69531 10.3125 7.69531C10.3125 7.34727 10.3125 6.99922 10.3125 6.64062Z" fill="black"></path>
                                                <path d="M8.98438 6.64062C9.21641 6.64062 9.44844 6.64062 9.6875 6.64062C9.6875 6.98867 9.6875 7.33672 9.6875 7.69531C9.45547 7.69531 9.22344 7.69531 8.98438 7.69531C8.98438 7.34727 8.98438 6.99922 8.98438 6.64062Z" fill="black"></path>
                                                <path d="M7.65625 6.64062C7.88828 6.64062 8.12031 6.64062 8.35938 6.64062C8.35938 6.98867 8.35938 7.33672 8.35938 7.69531C8.12734 7.69531 7.89531 7.69531 7.65625 7.69531C7.65625 7.34727 7.65625 6.99922 7.65625 6.64062Z" fill="black"></path>
                                                <path d="M5 6.64062C5.23203 6.64062 5.46406 6.64062 5.70312 6.64062C5.70312 6.98867 5.70312 7.33672 5.70312 7.69531C5.47109 7.69531 5.23906 7.69531 5 7.69531C5 7.34727 5 6.99922 5 6.64062Z" fill="black"></path>
                                                <path d="M14.2969 15C14.5289 15 14.7609 15 15 15C15 15.3352 15 15.6703 15 16.0156C14.768 16.0156 14.5359 16.0156 14.2969 16.0156C14.2969 15.6805 14.2969 15.3453 14.2969 15Z" fill="black"></path>
                                                <path d="M5 15C5.23203 15 5.46406 15 5.70312 15C5.70312 15.3352 5.70312 15.6703 5.70312 16.0156C5.47109 16.0156 5.23906 16.0156 5 16.0156C5 15.6805 5 15.3453 5 15Z" fill="black"></path>
                                                <path d="M14.2969 13.3203C14.5289 13.3203 14.7609 13.3203 15 13.3203C15 13.6555 15 13.9906 15 14.3359C14.768 14.3359 14.5359 14.3359 14.2969 14.3359C14.2969 14.0008 14.2969 13.6656 14.2969 13.3203Z" fill="black"></path>
                                                <path d="M11.6406 13.3203C11.8727 13.3203 12.1047 13.3203 12.3438 13.3203C12.3438 13.6555 12.3438 13.9906 12.3438 14.3359C12.1117 14.3359 11.8797 14.3359 11.6406 14.3359C11.6406 14.0008 11.6406 13.6656 11.6406 13.3203Z" fill="black"></path>
                                                <path d="M10.3125 13.3203C10.5445 13.3203 10.7766 13.3203 11.0156 13.3203C11.0156 13.6555 11.0156 13.9906 11.0156 14.3359C10.7836 14.3359 10.5516 14.3359 10.3125 14.3359C10.3125 14.0008 10.3125 13.6656 10.3125 13.3203Z" fill="black"></path>
                                                <path d="M8.98438 13.3203C9.21641 13.3203 9.44844 13.3203 9.6875 13.3203C9.6875 13.6555 9.6875 13.9906 9.6875 14.3359C9.45547 14.3359 9.22344 14.3359 8.98438 14.3359C8.98438 14.0008 8.98438 13.6656 8.98438 13.3203Z" fill="black"></path>
                                                <path d="M7.65625 13.3203C7.88828 13.3203 8.12031 13.3203 8.35938 13.3203C8.35938 13.6555 8.35938 13.9906 8.35938 14.3359C8.12734 14.3359 7.89531 14.3359 7.65625 14.3359C7.65625 14.0008 7.65625 13.6656 7.65625 13.3203Z" fill="black"></path>
                                                <path d="M5 13.3203C5.23203 13.3203 5.46406 13.3203 5.70312 13.3203C5.70312 13.6555 5.70312 13.9906 5.70312 14.3359C5.47109 14.3359 5.23906 14.3359 5 14.3359C5 14.0008 5 13.6656 5 13.3203Z" fill="black"></path>
                                                <path d="M14.2969 10C14.5289 10 14.7609 10 15 10C15 10.3352 15 10.6703 15 11.0156C14.768 11.0156 14.5359 11.0156 14.2969 11.0156C14.2969 10.6805 14.2969 10.3453 14.2969 10Z" fill="black"></path>
                                                <path d="M11.6406 10C11.8727 10 12.1047 10 12.3438 10C12.3438 10.3352 12.3438 10.6703 12.3438 11.0156C12.1117 11.0156 11.8797 11.0156 11.6406 11.0156C11.6406 10.6805 11.6406 10.3453 11.6406 10Z" fill="black"></path>
                                                <path d="M10.3125 10C10.5445 10 10.7766 10 11.0156 10C11.0156 10.3352 11.0156 10.6703 11.0156 11.0156C10.7836 11.0156 10.5516 11.0156 10.3125 11.0156C10.3125 10.6805 10.3125 10.3453 10.3125 10Z" fill="black"></path>
                                                <path d="M8.98438 10C9.21641 10 9.44844 10 9.6875 10C9.6875 10.3352 9.6875 10.6703 9.6875 11.0156C9.45547 11.0156 9.22344 11.0156 8.98438 11.0156C8.98438 10.6805 8.98438 10.3453 8.98438 10Z" fill="black"></path>
                                                <path d="M7.65625 10C7.88828 10 8.12031 10 8.35938 10C8.35938 10.3352 8.35938 10.6703 8.35938 11.0156C8.12734 11.0156 7.89531 11.0156 7.65625 11.0156C7.65625 10.6805 7.65625 10.3453 7.65625 10Z" fill="black"></path>
                                                <path d="M5 10C5.23203 10 5.46406 10 5.70312 10C5.70312 10.3352 5.70312 10.6703 5.70312 11.0156C5.47109 11.0156 5.23906 11.0156 5 11.0156C5 10.6805 5 10.3453 5 10Z" fill="black"></path>
                                                <path d="M14.2969 8.32031C14.5289 8.32031 14.7609 8.32031 15 8.32031C15 8.65547 15 8.99063 15 9.33594C14.768 9.33594 14.5359 9.33594 14.2969 9.33594C14.2969 9.00078 14.2969 8.66563 14.2969 8.32031Z" fill="black"></path>
                                                <path d="M11.6406 8.32031C11.8727 8.32031 12.1047 8.32031 12.3438 8.32031C12.3438 8.65547 12.3438 8.99063 12.3438 9.33594C12.1117 9.33594 11.8797 9.33594 11.6406 9.33594C11.6406 9.00078 11.6406 8.66563 11.6406 8.32031Z" fill="black"></path>
                                                <path d="M10.3125 8.32031C10.5445 8.32031 10.7766 8.32031 11.0156 8.32031C11.0156 8.65547 11.0156 8.99063 11.0156 9.33594C10.7836 9.33594 10.5516 9.33594 10.3125 9.33594C10.3125 9.00078 10.3125 8.66563 10.3125 8.32031Z" fill="black"></path>
                                                <path d="M8.98438 8.32031C9.21641 8.32031 9.44844 8.32031 9.6875 8.32031C9.6875 8.65547 9.6875 8.99063 9.6875 9.33594C9.45547 9.33594 9.22344 9.33594 8.98438 9.33594C8.98438 9.00078 8.98438 8.66563 8.98438 8.32031Z" fill="black"></path>
                                                <path d="M7.65625 8.32031C7.88828 8.32031 8.12031 8.32031 8.35938 8.32031C8.35938 8.65547 8.35938 8.99063 8.35938 9.33594C8.12734 9.33594 7.89531 9.33594 7.65625 9.33594C7.65625 9.00078 7.65625 8.66563 7.65625 8.32031Z" fill="black"></path>
                                                <path d="M5 8.32031C5.23203 8.32031 5.46406 8.32031 5.70312 8.32031C5.70312 8.65547 5.70312 8.99063 5.70312 9.33594C5.47109 9.33594 5.23906 9.33594 5 9.33594C5 9.00078 5 8.66563 5 8.32031Z" fill="black"></path>
                                                <path d="M14.2969 5C14.5289 5 14.7609 5 15 5C15 5.33516 15 5.67031 15 6.01562C14.768 6.01562 14.5359 6.01562 14.2969 6.01562C14.2969 5.68047 14.2969 5.34531 14.2969 5Z" fill="black"></path>
                                                <path d="M11.6406 5C11.8727 5 12.1047 5 12.3438 5C12.3438 5.33516 12.3438 5.67031 12.3438 6.01562C12.1117 6.01562 11.8797 6.01562 11.6406 6.01562C11.6406 5.68047 11.6406 5.34531 11.6406 5Z" fill="black"></path>
                                                <path d="M10.3125 5C10.5445 5 10.7766 5 11.0156 5C11.0156 5.33516 11.0156 5.67031 11.0156 6.01562C10.7836 6.01562 10.5516 6.01562 10.3125 6.01562C10.3125 5.68047 10.3125 5.34531 10.3125 5Z" fill="black"></path>
                                                <path d="M8.98438 5C9.21641 5 9.44844 5 9.6875 5C9.6875 5.33516 9.6875 5.67031 9.6875 6.01562C9.45547 6.01562 9.22344 6.01562 8.98438 6.01562C8.98438 5.68047 8.98438 5.34531 8.98438 5Z" fill="black"></path>
                                                <path d="M7.65625 5C7.88828 5 8.12031 5 8.35938 5C8.35938 5.33516 8.35938 5.67031 8.35938 6.01562C8.12734 6.01562 7.89531 6.01562 7.65625 6.01562C7.65625 5.68047 7.65625 5.34531 7.65625 5Z" fill="black"></path>
                                                <path d="M5 5C5.23203 5 5.46406 5 5.70312 5C5.70312 5.33516 5.70312 5.67031 5.70312 6.01562C5.47109 6.01562 5.23906 6.01562 5 6.01562C5 5.68047 5 5.34531 5 5Z" fill="black"></path>
                                                <path d="M11.6406 3.32031C11.8727 3.32031 12.1047 3.32031 12.3438 3.32031C12.3438 3.65547 12.3438 3.99063 12.3438 4.33594C12.1117 4.33594 11.8797 4.33594 11.6406 4.33594C11.6406 4.00078 11.6406 3.66563 11.6406 3.32031Z" fill="black"></path>
                                                <path d="M10.3125 3.32031C10.5445 3.32031 10.7766 3.32031 11.0156 3.32031C11.0156 3.65547 11.0156 3.99063 11.0156 4.33594C10.7836 4.33594 10.5516 4.33594 10.3125 4.33594C10.3125 4.00078 10.3125 3.66563 10.3125 3.32031Z" fill="black"></path>
                                                <path d="M8.98438 3.32031C9.21641 3.32031 9.44844 3.32031 9.6875 3.32031C9.6875 3.65547 9.6875 3.99063 9.6875 4.33594C9.45547 4.33594 9.22344 4.33594 8.98438 4.33594C8.98438 4.00078 8.98438 3.66563 8.98438 3.32031Z" fill="black"></path>
                                                <path d="M7.65625 3.32031C7.88828 3.32031 8.12031 3.32031 8.35938 3.32031C8.35938 3.65547 8.35938 3.99063 8.35938 4.33594C8.12734 4.33594 7.89531 4.33594 7.65625 4.33594C7.65625 4.00078 7.65625 3.66563 7.65625 3.32031Z" fill="black"></path>
                                            </svg>