<svg width="12" height="12" viewBox="0 0 12 12" fill="none" xmlns="http://www.w3.org/2000/svg">
                            <path d="M6.27081 0.0221597C6.41388 0.108 6.49566 0.213597 6.53906 0.375004C6.54651 0.449618 6.54777 0.523996 6.54877 0.598942C6.54945 0.630637 6.54945 0.630637 6.55014 0.662972C6.55154 0.730067 6.55263 0.797162 6.55371 0.864262C6.55461 0.909917 6.55552 0.955571 6.55646 1.00122C6.5587 1.11279 6.56067 1.22436 6.5625 1.33594C6.57734 1.33772 6.59219 1.33951 6.60748 1.34134C7.4167 1.43908 8.40238 1.70574 8.95752 2.35703C9.07224 2.51105 9.08892 2.64776 9.07031 2.83594C9.04058 3.01437 8.94614 3.13895 8.8125 3.25782C8.64924 3.36499 8.48968 3.38997 8.29688 3.375C8.16842 3.34342 8.08317 3.28789 7.97608 3.21094C7.53755 2.89687 7.05835 2.73139 6.53906 2.60157C6.53906 3.47555 6.53906 4.34953 6.53906 5.25C6.61641 5.26547 6.69375 5.28094 6.77344 5.29688C7.66431 5.51912 8.64892 5.91658 9.14273 6.73664C9.49356 7.3421 9.52182 8.07935 9.35083 8.74668C9.16764 9.40487 8.7307 9.94855 8.13757 10.2844C7.69606 10.5223 7.15578 10.6896 6.65136 10.6879C6.63032 10.6878 6.60927 10.6878 6.58758 10.6877C6.57157 10.6876 6.55556 10.6876 6.53906 10.6875C6.53955 10.7156 6.54005 10.7438 6.54055 10.7727C6.54226 10.8777 6.54333 10.9827 6.54421 11.0878C6.54468 11.1331 6.54532 11.1784 6.54614 11.2237C6.54728 11.2891 6.54781 11.3545 6.54822 11.4199C6.5487 11.44 6.54919 11.46 6.54969 11.4807C6.54974 11.6403 6.50931 11.7634 6.40274 11.8842C6.38924 11.8949 6.37573 11.9055 6.36182 11.9165C6.34825 11.9276 6.33469 11.9387 6.32071 11.9501C6.20123 12.0302 6.0434 12.0117 5.90625 12C5.78131 11.964 5.69249 11.9015 5.625 11.7891C5.56538 11.6473 5.54472 11.5207 5.54782 11.3678C5.54792 11.3489 5.54802 11.3299 5.54812 11.3104C5.54851 11.2507 5.54939 11.191 5.55029 11.1314C5.55065 11.0905 5.55097 11.0497 5.55126 11.0089C5.55202 10.9096 5.55324 10.8103 5.55469 10.7109C5.52481 10.7115 5.49493 10.712 5.46414 10.7126C4.58871 10.7116 3.67797 10.3323 2.99341 9.79953C2.95313 9.76823 2.91217 9.73776 2.87036 9.70853C2.71539 9.59824 2.58937 9.45044 2.55469 9.25782C2.53529 9.03842 2.5823 8.86967 2.71875 8.69532C2.85528 8.55607 2.98753 8.48158 3.18604 8.47559C3.40003 8.47386 3.54138 8.56542 3.70166 8.69678C4.26137 9.13784 4.86627 9.33021 5.55469 9.49219C5.54695 8.50219 5.53922 7.51219 5.53125 6.49219C5.32242 6.43032 5.11359 6.36844 4.89844 6.30469C4.2988 6.11013 3.73724 5.88459 3.28125 5.4375C3.26173 5.41883 3.24222 5.40016 3.22211 5.38092C2.80882 4.96001 2.68623 4.39762 2.68822 3.82457C2.70053 3.15929 3.00069 2.57841 3.4725 2.12247C4.01701 1.63189 4.81686 1.3125 5.55469 1.3125C5.55432 1.28509 5.55395 1.25767 5.55357 1.22942C5.55229 1.12704 5.55149 1.02465 5.55083 0.92226C5.55047 0.87807 5.55 0.83388 5.54938 0.789692C5.54852 0.725924 5.54813 0.662166 5.54782 0.598393C5.54746 0.578854 5.5471 0.559315 5.54672 0.539184C5.54668 0.392255 5.56722 0.256951 5.66446 0.14008C5.67803 0.129626 5.69159 0.119173 5.70557 0.108402C5.71907 0.0975864 5.73258 0.0867703 5.74649 0.0756265C5.89904 -0.0273818 6.09677 -0.042243 6.27081 0.0221597ZM4.45834 2.99314C4.22021 3.2388 4.11561 3.50071 4.11631 3.84201C4.12348 4.10028 4.22447 4.29865 4.40735 4.47629C4.67128 4.70435 5.19977 4.99219 5.55469 4.99219C5.55469 4.18782 5.55469 3.38344 5.55469 2.55469C5.14658 2.55469 4.7543 2.71313 4.45834 2.99314ZM6.53906 6.79688C6.53906 7.69407 6.53906 8.59125 6.53906 9.51563C7.0617 9.41763 7.49861 9.27733 7.8252 8.83887C7.99586 8.57865 8.08004 8.23631 8.02817 7.92728C7.96319 7.62777 7.82469 7.39517 7.57324 7.2182C7.2882 7.03586 6.88487 6.79688 6.53906 6.79688Z" fill="white"></path>
                        </svg>