<svg width="12" height="12" viewBox="0 0 12 12" fill="none" xmlns="http://www.w3.org/2000/svg">
                            <path d="M6.89062 -7.45803e-06C6.98508 0.0446971 7.05638 0.0967798 7.10335 0.19147C7.22327 0.55896 7.09697 1.0727 7.06425 1.45536C7.05566 1.55618 7.04727 1.65701 7.03885 1.75785C7.02472 1.92678 7.01046 2.0957 6.99611 2.26461C6.97772 2.48112 6.95953 2.69764 6.94142 2.91417C6.92577 3.10112 6.91004 3.28806 6.8943 3.475C6.88926 3.53479 6.88424 3.59457 6.87922 3.65436C6.87132 3.74826 6.86337 3.84216 6.85538 3.93606C6.85247 3.97042 6.84957 4.00478 6.84668 4.03915C6.84273 4.08618 6.83872 4.13321 6.8347 4.18023C6.83247 4.2065 6.83025 4.23276 6.82796 4.25982C6.81987 4.34029 6.80884 4.42002 6.79688 4.49999C6.81076 4.49991 6.82464 4.49982 6.83894 4.49973C7.17697 4.49766 7.515 4.49611 7.85303 4.49514C8.0165 4.49465 8.17997 4.49399 8.34344 4.49292C8.50118 4.49188 8.65892 4.49134 8.81666 4.4911C8.87686 4.49092 8.93706 4.49059 8.99726 4.49008C9.08154 4.4894 9.1658 4.48931 9.25009 4.48935C9.275 4.48901 9.29992 4.48868 9.32559 4.48833C9.46731 4.48912 9.54822 4.49955 9.65625 4.59374C9.75929 4.70221 9.76151 4.79848 9.75921 4.94121C9.744 5.06407 9.68819 5.15096 9.62109 5.25292C9.60746 5.27478 9.59383 5.29663 9.57978 5.31915C9.55051 5.36599 9.52099 5.41267 9.49123 5.45919C9.4296 5.5559 9.36985 5.6537 9.31 5.75151C9.26289 5.82842 9.21551 5.90515 9.16809 5.98186C9.06825 6.14365 8.96958 6.30613 8.87109 6.46874C8.72772 6.70539 8.58321 6.94131 8.43796 7.17681C8.32373 7.36219 8.21049 7.54814 8.09766 7.73437C7.95427 7.97101 7.80977 8.20693 7.66452 8.44244C7.55029 8.62781 7.43705 8.81377 7.32422 8.99999C7.18084 9.23664 7.03634 9.47256 6.89108 9.70806C6.77685 9.89344 6.66362 10.0794 6.55078 10.2656C6.4076 10.5019 6.26356 10.7377 6.11816 10.9726C6.03406 11.1087 5.95112 11.2454 5.86945 11.383C5.84257 11.4281 5.81568 11.4731 5.78879 11.5181C5.77161 11.547 5.75453 11.576 5.73754 11.605C5.55403 11.9183 5.55403 11.9183 5.39062 12C5.26101 12.0118 5.14663 12.0173 5.02734 11.9619C4.93744 11.8765 4.88054 11.8064 4.86353 11.6812C4.86344 11.6471 4.86399 11.613 4.86503 11.579C4.86534 11.5592 4.86566 11.5393 4.86598 11.5189C4.87493 11.1643 4.90779 10.81 4.93575 10.4565C4.94435 10.3474 4.95274 10.2383 4.96115 10.1292C4.97528 9.94636 4.98954 9.76358 5.00389 9.5808C5.0241 9.32345 5.04405 9.06608 5.06397 8.80871C5.07784 8.62959 5.09176 8.45047 5.1057 8.27135C5.10907 8.22814 5.11243 8.18492 5.11579 8.14171C5.12535 8.01869 5.13496 7.89567 5.14462 7.77266C5.14753 7.73553 5.15043 7.69839 5.15332 7.66125C5.16725 7.48216 5.18172 7.30337 5.20312 7.12499C5.18924 7.12508 5.17536 7.12517 5.16106 7.12525C4.82303 7.12733 4.485 7.12888 4.14697 7.12985C3.9835 7.13033 3.82003 7.13099 3.65656 7.13207C3.49882 7.1331 3.34108 7.13364 3.18334 7.13389C3.12314 7.13406 3.06294 7.1344 3.00274 7.1349C2.91846 7.13558 2.8342 7.13568 2.74991 7.13564C2.725 7.13597 2.70008 7.13631 2.67441 7.13666C2.53269 7.13587 2.45178 7.12544 2.34375 7.03124C2.26691 6.95036 2.23992 6.87652 2.22803 6.76757C2.23549 6.54447 2.38642 6.36545 2.50781 6.18749C2.52657 6.15933 2.54528 6.13113 2.56393 6.1029C2.59108 6.06193 2.61831 6.02102 2.6458 5.98028C2.74042 5.83996 2.83138 5.69737 2.92236 5.55468C3.08961 5.2925 3.25906 5.03182 3.42921 4.77151C3.51854 4.63464 3.60717 4.49732 3.69585 4.36003C3.74901 4.27775 3.80224 4.19552 3.85547 4.11327C3.87695 4.08007 3.89844 4.04687 3.91992 4.01366C4.88672 2.51952 4.88672 2.51952 5.85352 1.02538C5.86416 1.00893 5.8748 0.992486 5.88577 0.975538C5.90717 0.942465 5.92858 0.909396 5.94999 0.87633C6.005 0.791365 6.0599 0.706332 6.11462 0.621178C6.16826 0.537762 6.22217 0.454528 6.27639 0.371491C6.30183 0.332504 6.32712 0.293421 6.35239 0.254326C6.49486 0.0407658 6.62709 -0.0458843 6.89062 -7.45803e-06ZM6.21094 1.89843C6.17775 1.94925 6.14582 2.00042 6.11426 2.05224C6.01268 2.21695 5.90821 2.37958 5.80225 2.5415C5.78714 2.56458 5.77204 2.58767 5.75648 2.61146C5.72659 2.65715 5.6967 2.70283 5.66681 2.74851C5.60768 2.839 5.5489 2.92971 5.49023 3.0205C5.47996 3.03639 5.46969 3.05228 5.45911 3.06865C5.43871 3.10023 5.4183 3.13181 5.3979 3.16339C5.34474 3.24567 5.29151 3.32791 5.23828 3.41015C5.2168 3.44335 5.19531 3.47655 5.17383 3.50976C4.78711 4.10741 4.40039 4.70507 4.01367 5.30273C3.99772 5.32739 3.99772 5.32739 3.98144 5.35254C3.95998 5.38571 3.93851 5.41888 3.91704 5.45204C3.86297 5.53558 3.80895 5.61916 3.75504 5.70281C3.73334 5.73645 3.71164 5.77008 3.68994 5.8037C3.67943 5.81999 3.66892 5.83627 3.6581 5.85305C3.57297 5.98461 3.48622 6.11504 3.39834 6.24477C3.34965 6.30499 3.34965 6.30499 3.32812 6.37499C3.35835 6.37508 3.38857 6.37516 3.41972 6.37525C3.70457 6.37612 3.98942 6.37747 4.27427 6.3793C4.42072 6.38023 4.56716 6.38098 4.7136 6.38134C4.85494 6.3817 4.99626 6.38251 5.13759 6.38363C5.19151 6.38397 5.24542 6.38416 5.29934 6.38418C5.37487 6.38423 5.45038 6.38487 5.52591 6.38564C5.54819 6.38552 5.57048 6.3854 5.59344 6.38528C5.72433 6.38734 5.8047 6.40138 5.90625 6.49218C5.98863 6.59038 5.98654 6.68827 5.98384 6.81113C5.9836 6.83151 5.98336 6.8519 5.98311 6.8729C5.97775 7.15498 5.95319 7.43607 5.93042 7.71716C5.92567 7.77752 5.92094 7.83788 5.91623 7.89824C5.90515 8.0397 5.89393 8.18115 5.88261 8.3226C5.86111 8.59146 5.83993 8.86035 5.81882 9.12924C5.81188 9.21716 5.80484 9.30508 5.79779 9.393C5.79352 9.44691 5.78925 9.50082 5.78499 9.55473C5.78203 9.59108 5.78203 9.59108 5.77901 9.62816C5.76906 9.7552 5.76363 9.88038 5.76562 10.0078C5.83086 9.94909 5.87179 9.88354 5.91678 9.80849C5.93259 9.78226 5.94841 9.75602 5.96471 9.72898C5.97725 9.70801 5.97725 9.70801 5.99005 9.68662C6.02561 9.62718 6.0614 9.56787 6.09718 9.50856C6.11568 9.47789 6.13417 9.44721 6.15265 9.41653C6.24141 9.26926 6.33152 9.12285 6.42188 8.97655C6.55167 8.76615 6.68048 8.55518 6.80859 8.34374C6.95198 8.1071 7.09648 7.87118 7.24173 7.63567C7.35596 7.4503 7.4692 7.26434 7.58203 7.07812C7.72523 6.84178 7.86952 6.60616 8.0146 6.37098C8.15139 6.14901 8.28678 5.92622 8.4218 5.70318C8.43746 5.67732 8.45313 5.65145 8.46927 5.62481C8.49127 5.58845 8.49127 5.58845 8.51371 5.55136C8.55002 5.49199 8.58718 5.43328 8.62473 5.37469C8.67592 5.30535 8.67592 5.30535 8.67188 5.24999C8.64165 5.24991 8.61143 5.24982 8.58028 5.24973C8.29543 5.24887 8.01058 5.24751 7.72573 5.24568C7.57929 5.24476 7.43284 5.244 7.2864 5.24364C7.14506 5.24329 7.00374 5.24248 6.86241 5.24136C6.80849 5.24101 6.75458 5.24083 6.70066 5.24081C6.62513 5.24075 6.54962 5.24012 6.47409 5.23935C6.44066 5.23953 6.44066 5.23953 6.40656 5.23971C6.27567 5.23765 6.1953 5.2236 6.09375 5.1328C6.01368 5.03634 6.01338 4.94313 6.01616 4.82265C6.0164 4.80329 6.01664 4.78393 6.01689 4.76398C6.02216 4.50126 6.04663 4.23968 6.06958 3.97805C6.07433 3.92227 6.07906 3.8665 6.08377 3.81072C6.09609 3.66531 6.10863 3.51992 6.12122 3.37453C6.14143 3.14084 6.1613 2.90712 6.18118 2.67339C6.18813 2.59209 6.19516 2.51079 6.20221 2.42949C6.20648 2.37977 6.21075 2.33004 6.21501 2.28031C6.21698 2.25785 6.21896 2.23539 6.22099 2.21224C6.22993 2.10726 6.23669 2.00392 6.23438 1.89843C6.22664 1.89843 6.21891 1.89843 6.21094 1.89843Z" fill="white"></path>
                        </svg>