<svg width="14" height="14" viewBox="0 0 14 14" fill="none" xmlns="http://www.w3.org/2000/svg">
                                                <path d="M8.09376 0.109423C8.11416 0.114833 8.13456 0.120244 8.15558 0.125818C8.93132 0.338607 9.58546 0.740602 10.1719 1.2852C10.1983 1.30889 10.1983 1.30889 10.2252 1.33306C10.96 2.02323 11.4724 3.14152 11.5161 4.14826C11.5265 5.12864 11.5265 5.12864 11.4297 5.52349C11.4215 5.55755 11.4215 5.55755 11.4132 5.59231C11.2571 6.22739 10.969 6.78564 10.6035 7.32401C10.514 7.45645 10.4284 7.59136 10.3428 7.72637C10.3266 7.75191 10.3104 7.77745 10.2937 7.80376C10.2605 7.85611 10.2273 7.90847 10.1942 7.96083C10.114 8.0873 10.0336 8.21359 9.95313 8.33989C9.92173 8.38924 9.89033 8.43858 9.85893 8.48793C9.69892 8.73937 9.53892 8.9908 9.37891 9.24224C9.40203 9.24519 9.42514 9.24815 9.44896 9.25119C9.68653 9.28314 9.918 9.32725 10.1514 9.38237C10.1689 9.3865 10.1864 9.39062 10.2044 9.39487C11.1405 9.61657 12.4144 9.94888 12.9609 10.8282C13.1526 11.1715 13.2019 11.4912 13.1364 11.8796C12.9743 12.4335 12.4808 12.7851 12.0018 13.0553C11.1112 13.5362 10.0872 13.7457 9.09351 13.8855C9.07455 13.8883 9.05558 13.891 9.03604 13.8938C8.3843 13.9858 7.73148 14.0104 7.07407 14.0087C7.01445 14.0086 6.95482 14.0085 6.89519 14.0085C6.30679 14.0076 5.72489 13.9928 5.14063 13.918C5.09103 13.9121 5.09103 13.9121 5.04043 13.906C3.88621 13.7667 2.5402 13.5109 1.58594 12.7969C1.5473 12.7683 1.5473 12.7683 1.50787 12.7391C1.19339 12.4949 0.933175 12.1839 0.847664 11.7852C0.805596 11.3042 0.909587 10.9688 1.21851 10.5975C2.02478 9.72108 3.41195 9.4309 4.53907 9.24224C4.56614 9.24224 4.59321 9.24224 4.6211 9.24224C4.41738 8.91911 4.21293 8.59647 4.00768 8.27431C3.94341 8.17341 3.87925 8.07244 3.81521 7.97139C3.78363 7.92162 3.75205 7.87184 3.72047 7.82207C3.70483 7.79739 3.68919 7.77271 3.67308 7.74729C3.59053 7.61741 3.50697 7.48834 3.42171 7.36022C2.69613 6.26862 2.28288 5.03765 2.53443 3.71538C2.55327 3.62473 2.57463 3.53503 2.59766 3.44536C2.60278 3.42462 2.6079 3.40387 2.61318 3.3825C2.68688 3.08949 2.79431 2.8147 2.92579 2.54302C2.93421 2.5256 2.94264 2.50819 2.95132 2.49025C3.49649 1.38181 4.47761 0.588038 5.63379 0.18618C5.72371 0.156889 5.8146 0.132607 5.90626 0.109423C5.93664 0.101439 5.93664 0.101439 5.96763 0.0932941C6.63939 -0.0762025 7.42494 -0.0684327 8.09376 0.109423ZM6.12501 0.929735C6.09171 0.938994 6.09171 0.938994 6.05773 0.948441C5.06581 1.23414 4.26122 1.87481 3.75558 2.77702C3.55628 3.14536 3.43991 3.52727 3.36329 3.93755C3.35848 3.96299 3.35367 3.98844 3.34872 4.01466C3.28417 4.45394 3.2983 4.98642 3.41798 5.41411C3.42702 5.44692 3.42702 5.44692 3.43624 5.48039C3.57444 5.96553 3.79608 6.39319 4.08106 6.80736C4.17098 6.9384 4.2558 7.0726 4.34083 7.20683C4.35707 7.23244 4.37332 7.25805 4.39005 7.28443C4.42328 7.33683 4.4565 7.38924 4.4897 7.44166C4.56866 7.56628 4.64785 7.69076 4.72706 7.81523C4.75052 7.85211 4.75052 7.85211 4.77446 7.88974C4.89619 8.08101 5.01836 8.27201 5.14063 8.46294C5.32603 8.75243 5.5108 9.04232 5.69523 9.33242C5.77465 9.45733 5.85413 9.5822 5.9336 9.70708C5.9655 9.75721 5.9974 9.80734 6.0293 9.85747C6.0451 9.88228 6.06089 9.9071 6.07716 9.93266C6.12501 10.0079 6.17286 10.0831 6.22071 10.1583C6.23653 10.1831 6.25234 10.208 6.26864 10.2336C6.30029 10.2833 6.33195 10.3331 6.36361 10.3828C6.44705 10.514 6.53054 10.6451 6.6141 10.7762C6.63149 10.8035 6.64889 10.8308 6.66681 10.8589C6.70012 10.9112 6.73344 10.9634 6.76679 11.0157C6.78933 11.0511 6.78933 11.0511 6.81234 11.0872C6.82551 11.1078 6.83868 11.1285 6.85225 11.1498C6.88047 11.1948 6.90723 11.2407 6.93312 11.2871C6.94617 11.3071 6.95922 11.3271 6.97266 11.3477C6.99071 11.3477 7.00876 11.3477 7.02735 11.3477C7.06711 11.2961 7.06711 11.2961 7.10703 11.2282C7.1231 11.2021 7.13917 11.176 7.15573 11.1491C7.18185 11.1062 7.18185 11.1062 7.2085 11.0623C7.24589 11.0016 7.28331 10.9409 7.32076 10.8803C7.33523 10.8568 7.33523 10.8568 7.34998 10.8328C7.44966 10.6712 7.5519 10.5112 7.65455 10.3514C7.67263 10.3232 7.69071 10.295 7.70934 10.2659C7.7461 10.2087 7.78286 10.1514 7.81964 10.0941C7.91228 9.9498 8.00473 9.80537 8.09718 9.66094C8.11532 9.63259 8.13347 9.60424 8.15216 9.57503C8.33375 9.29126 8.51459 9.00702 8.69532 8.7227C8.91377 8.37905 9.13268 8.03569 9.35233 7.69279C9.48976 7.47817 9.62683 7.26331 9.76314 7.04797C9.83438 6.93562 9.90615 6.82381 9.98048 6.71347C10.4268 6.04873 10.6754 5.34317 10.6743 4.5374C10.6743 4.51895 10.6743 4.50049 10.6743 4.48148C10.6707 3.51989 10.2867 2.68025 9.65235 1.9688C9.62639 1.93935 9.62639 1.93935 9.59991 1.9093C9.02857 1.30013 8.14089 0.88981 7.31215 0.842056C7.21031 0.839427 7.10872 0.838695 7.00684 0.839159C6.98887 0.839227 6.97089 0.839295 6.95237 0.839365C6.66799 0.841025 6.39979 0.853185 6.12501 0.929735ZM1.81388 11.2218C1.7147 11.341 1.6743 11.4559 1.68101 11.6096C1.73536 11.8611 1.96225 12.0318 2.1666 12.165C3.08381 12.7414 4.2079 12.9523 5.26881 13.0772C5.2881 13.0795 5.30739 13.0817 5.32727 13.0841C5.72276 13.1301 6.11688 13.1565 6.51519 13.1579C6.55095 13.1581 6.58671 13.1583 6.62356 13.1585C6.73822 13.1591 6.85288 13.1592 6.96754 13.1592C6.98709 13.1592 7.00663 13.1593 7.02677 13.1593C7.62313 13.1595 8.21278 13.1509 8.8047 13.0704C8.84176 13.0655 8.87883 13.0606 8.9159 13.0557C9.4052 12.9902 9.88649 12.8985 10.3633 12.7696C10.3877 12.7631 10.412 12.7565 10.4371 12.7498C11.0472 12.5842 11.7343 12.3491 12.168 11.8672C12.1807 11.8533 12.1934 11.8393 12.2065 11.8249C12.2959 11.7164 12.3252 11.6306 12.3159 11.4897C12.2725 11.2577 12.0748 11.0916 11.8936 10.9587C11.1302 10.4374 9.79177 9.93457 8.85938 10.0352C8.80436 10.0845 8.80436 10.0845 8.76464 10.1544C8.74054 10.192 8.74054 10.192 8.71595 10.2304C8.70012 10.2562 8.68429 10.282 8.66798 10.3086C8.63835 10.3544 8.60869 10.4001 8.579 10.4458C8.54878 10.4935 8.51863 10.5412 8.48853 10.5889C8.45489 10.642 8.42124 10.6952 8.3876 10.7483C8.3706 10.7752 8.35361 10.802 8.3361 10.8297C8.25557 10.957 8.17465 11.084 8.09376 11.211C7.99601 11.3645 7.89833 11.5181 7.80088 11.6718C7.70741 11.8192 7.61359 11.9663 7.51954 12.1133C7.50164 12.1414 7.50164 12.1414 7.48338 12.1701C7.4535 12.2168 7.4233 12.2633 7.39307 12.3099C7.36971 12.346 7.36971 12.346 7.34586 12.3828C7.27741 12.4719 7.21569 12.5154 7.10938 12.5508C6.95144 12.5612 6.86599 12.5519 6.72657 12.4688C6.56337 12.2958 6.44632 12.0709 6.32385 11.8681C6.23882 11.7272 6.15162 11.5881 6.06178 11.4502C5.94606 11.2727 5.8318 11.0943 5.71827 10.9153C5.58763 10.7096 5.45616 10.5045 5.32349 10.3001C5.30825 10.2766 5.29301 10.2531 5.27731 10.2288C5.26333 10.2073 5.24935 10.1858 5.23495 10.1637C5.21648 10.1353 5.21648 10.1353 5.19764 10.1063C5.17059 10.0634 5.17059 10.0634 5.14063 10.0352C4.10921 9.99094 2.53152 10.4569 1.81388 11.2218Z" fill="#4DA627"></path>
                                                <path d="M8.22338 2.85182C8.32372 2.93388 8.41395 3.02397 8.50391 3.11717C8.52407 3.13648 8.54423 3.1558 8.565 3.1757C8.91891 3.53509 9.05959 4.04791 9.06445 4.53904C9.05906 5.08369 8.88613 5.584 8.49579 5.9716C8.4714 5.99514 8.44701 6.01869 8.42188 6.04295C8.40256 6.06311 8.38324 6.08327 8.36334 6.10404C8.00395 6.45795 7.49113 6.59863 7 6.60349C6.45535 6.5981 5.95504 6.42517 5.56744 6.03483C5.5439 6.01044 5.52035 5.98605 5.49609 5.96092C5.47593 5.9416 5.45577 5.92228 5.435 5.90238C5.08109 5.54299 4.94041 5.03017 4.93555 4.53904C4.94094 3.99439 5.11387 3.49408 5.50421 3.10648C5.5286 3.08294 5.55299 3.05939 5.57812 3.03513C5.59744 3.01497 5.61676 2.99481 5.63666 2.97404C6.29826 2.32254 7.49511 2.30965 8.22338 2.85182ZM6.15234 3.66404C6.13493 3.68032 6.11752 3.69661 6.09958 3.71339C5.8675 3.95343 5.78768 4.26402 5.78635 4.58865C5.79214 4.90346 5.91077 5.15813 6.125 5.3867C6.14943 5.41281 6.14943 5.41281 6.17435 5.43946C6.41439 5.67154 6.72498 5.75136 7.04961 5.75269C7.36442 5.7469 7.61909 5.62827 7.84766 5.41404C7.87377 5.38961 7.87377 5.38961 7.90042 5.36469C8.1325 5.12465 8.21232 4.81406 8.21365 4.48943C8.20786 4.17462 8.08923 3.91995 7.875 3.69138C7.85057 3.66527 7.85057 3.66527 7.82565 3.63862C7.58561 3.40654 7.27502 3.32672 6.95039 3.32539C6.63558 3.33118 6.38091 3.44981 6.15234 3.66404Z" fill="#4DA627"></path>
                                            </svg>