<svg width="36" height="36" viewBox="0 0 36 36" fill="none" xmlns="http://www.w3.org/2000/svg">
                            <path d="M31.0909 0H4.90909C2.19788 0 0 2.19788 0 4.90909V31.0909C0 33.8021 2.19788 36 4.90909 36H31.0909C33.8021 36 36 33.8021 36 31.0909V4.90909C36 2.19788 33.8021 0 31.0909 0Z" fill="#29A71A"></path>
                            <path d="M25.9362 10.0636C24.0634 8.1722 21.5764 7.01224 18.9238 6.793C16.2711 6.57375 13.6274 7.30965 11.4695 8.86795C9.31165 10.4262 7.78166 12.7044 7.15553 15.2914C6.5294 17.8784 6.84834 20.604 8.05483 22.9766L6.87051 28.7264C6.85822 28.7836 6.85787 28.8427 6.86948 28.9001C6.8811 28.9575 6.90443 29.0118 6.93801 29.0598C6.9872 29.1325 7.05742 29.1885 7.13929 29.2203C7.22116 29.2521 7.31078 29.2582 7.39619 29.2377L13.0314 27.902C15.3973 29.078 18.1037 29.3764 20.669 28.7442C23.2343 28.1121 25.4921 26.5903 27.0406 24.4497C28.5892 22.309 29.3281 19.6884 29.1259 17.0542C28.9236 14.4199 27.7934 11.9428 25.9362 10.0636ZM24.1791 24.0873C22.8834 25.3794 21.2149 26.2323 19.4087 26.5259C17.6025 26.8195 15.7497 26.5389 14.1114 25.7236L13.326 25.335L9.87119 26.1532L9.88142 26.1102L10.5973 22.633L10.2128 21.8741C9.3757 20.2301 9.08041 18.3634 9.36921 16.5413C9.65801 14.7192 10.5161 13.0352 11.8205 11.7307C13.4595 10.0922 15.6822 9.17168 17.9998 9.17168C20.3174 9.17168 22.5401 10.0922 24.1791 11.7307C24.1931 11.7467 24.2081 11.7617 24.2241 11.7757C25.8429 13.4184 26.7465 15.6345 26.7381 17.9407C26.7296 20.247 25.8098 22.4564 24.1791 24.0873Z" fill="white"></path>
                            <path d="M23.8722 21.5366C23.4488 22.2034 22.78 23.0195 21.9393 23.222C20.4666 23.5779 18.2063 23.2343 15.3938 20.612L15.3591 20.5814C12.8861 18.2884 12.2438 16.38 12.3993 14.8664C12.4852 14.0073 13.2011 13.23 13.8045 12.7227C13.8999 12.6413 14.013 12.5833 14.1348 12.5535C14.2567 12.5236 14.3838 12.5226 14.506 12.5506C14.6283 12.5787 14.7422 12.6349 14.8389 12.7149C14.9355 12.7948 15.0121 12.8963 15.0625 13.0111L15.9727 15.0566C16.0318 15.1892 16.0538 15.3354 16.0361 15.4796C16.0185 15.6237 15.9619 15.7603 15.8725 15.8748L15.4122 16.472C15.3135 16.5954 15.2539 16.7454 15.2411 16.9029C15.2284 17.0604 15.263 17.2181 15.3407 17.3557C15.5984 17.8077 16.2161 18.4725 16.9013 19.0882C17.6704 19.7836 18.5234 20.4198 19.0634 20.6366C19.2079 20.6956 19.3667 20.71 19.5195 20.6779C19.6722 20.6459 19.8119 20.5688 19.9204 20.4566L20.4543 19.9186C20.5573 19.8171 20.6854 19.7446 20.8255 19.7087C20.9657 19.6727 21.1128 19.6746 21.252 19.7141L23.4141 20.3277C23.5333 20.3643 23.6426 20.4277 23.7337 20.513C23.8247 20.5983 23.895 20.7033 23.9392 20.82C23.9834 20.9366 24.0003 21.0618 23.9887 21.186C23.9771 21.3102 23.9373 21.4301 23.8722 21.5366Z" fill="white"></path>
                        </svg>