<svg width="16" height="17" viewBox="0 0 16 17" fill="none" xmlns="http://www.w3.org/2000/svg">
                                            <path d="M0.15625 0.888784C0.76554 0.877085 1.37481 0.868278 1.98419 0.862878C2.26716 0.860304 2.55007 0.856797 2.833 0.851065C3.07972 0.846068 3.32639 0.842852 3.57316 0.84174C3.70376 0.84109 3.83421 0.839573 3.96476 0.835919C4.75854 0.814546 4.75854 0.814546 4.95166 0.93765C5.06836 1.05146 5.13709 1.17849 5.19477 1.32967C5.22804 1.41168 5.27653 1.47915 5.3291 1.54992C5.36003 1.59516 5.39095 1.64041 5.42188 1.68566C5.58979 1.93122 5.75815 2.17648 5.92679 2.42155C5.9981 2.52519 6.06936 2.62886 6.14062 2.73253C6.16927 2.7742 6.19792 2.81587 6.22656 2.85753C8.11719 5.60753 8.11719 5.60753 8.1602 5.6701C8.18869 5.71154 8.21719 5.75298 8.24568 5.79442C8.31969 5.90204 8.39365 6.00971 8.46753 6.11742C8.48278 6.13964 8.49802 6.16185 8.51373 6.18474C8.5426 6.22681 8.57145 6.26888 8.60028 6.31096C8.69036 6.44217 8.78216 6.57201 8.875 6.70128C8.99712 6.58232 9.10969 6.45756 9.2207 6.32824C9.23839 6.30774 9.25607 6.28723 9.27428 6.26611C9.32876 6.2029 9.38315 6.1396 9.4375 6.07628C9.45377 6.05734 9.47005 6.0384 9.48682 6.01888C9.59553 5.89231 9.70404 5.76557 9.8125 5.63878C10.0215 5.39443 10.2312 5.15064 10.4419 4.90778C10.6184 4.7043 10.7937 4.49972 10.9688 4.29503C11.1778 4.05068 11.3874 3.80689 11.5982 3.56403C11.7747 3.36055 11.9499 3.15597 12.125 2.95128C12.334 2.70693 12.5437 2.46314 12.7544 2.22028C12.9639 1.9788 13.1716 1.73585 13.3793 1.49279C13.3956 1.47374 13.4119 1.45469 13.4286 1.43506C13.4591 1.39941 13.4896 1.36374 13.52 1.32805C13.5492 1.29391 13.579 1.26028 13.6094 1.22714C13.6594 1.16983 13.6594 1.16983 13.6973 1.09505C13.7596 0.996893 13.8053 0.948596 13.9062 0.888784C14.1461 0.840633 14.3977 0.862483 14.6406 0.871206C14.7087 0.872618 14.7769 0.873901 14.845 0.875052C15.0113 0.87814 15.1775 0.882836 15.3438 0.888784C15.3143 0.928524 15.2848 0.968216 15.2552 1.00789C15.2306 1.04105 15.2306 1.04105 15.2054 1.07488C15.1384 1.16202 15.0658 1.24043 14.9902 1.32043C14.854 1.4663 14.7266 1.61716 14.6014 1.7727C14.5285 1.86087 14.4525 1.94522 14.375 2.02941C14.2464 2.16909 14.1259 2.31349 14.0067 2.46117C13.9167 2.57021 13.8217 2.6741 13.7264 2.77856C13.6543 2.85971 13.5858 2.94297 13.5176 3.02746C13.397 3.1766 13.2696 3.31788 13.1398 3.45897C13.0392 3.57104 12.945 3.68775 12.8505 3.80492C12.7605 3.91396 12.6654 4.01785 12.5702 4.1223C12.4981 4.20346 12.4295 4.28672 12.3613 4.37121C12.2407 4.52035 12.1134 4.66163 11.9835 4.80272C11.8829 4.91479 11.7888 5.0315 11.6942 5.14867C11.6264 5.23088 11.5562 5.31002 11.4844 5.38878C11.387 5.49558 11.294 5.60457 11.2031 5.71691C11.0903 5.85642 10.9723 5.98972 10.8514 6.1223C10.7793 6.20346 10.7108 6.28672 10.6426 6.37121C10.522 6.52035 10.3946 6.66163 10.2648 6.80272C10.1644 6.91452 10.0704 7.03088 9.97632 7.14794C9.88292 7.2607 9.78346 7.36727 9.68274 7.4735C9.62043 7.5507 9.58343 7.60397 9.5625 7.70128C9.59779 7.7854 9.59779 7.7854 9.66211 7.8673C9.69728 7.91667 9.69728 7.91667 9.73315 7.96703C9.74603 7.98468 9.75891 8.00233 9.77219 8.02051C9.82815 8.09794 9.88187 8.17684 9.93571 8.25575C9.97928 8.3196 10.0231 8.38327 10.067 8.44689C10.1542 8.57326 10.2412 8.69976 10.3281 8.82628C10.3568 8.86795 10.3854 8.90962 10.4141 8.95128C11.0443 9.86795 11.6745 10.7846 12.3047 11.7013C12.3189 11.7219 12.333 11.7425 12.3476 11.7638C12.3763 11.8055 12.405 11.8472 12.4337 11.889C12.5045 11.992 12.5754 12.095 12.6462 12.198C12.8183 12.4481 12.9899 12.6984 13.1612 12.949C13.3119 13.1692 13.463 13.3892 13.6143 13.609C13.6856 13.7127 13.7569 13.8164 13.8281 13.92C13.8568 13.9617 13.8854 14.0034 13.9141 14.045C14.3151 14.6284 14.7161 15.2117 15.1172 15.795C15.1314 15.8157 15.1456 15.8363 15.1602 15.8576C15.1887 15.899 15.2172 15.9405 15.2456 15.9819C15.3197 16.0898 15.394 16.1975 15.4686 16.3049C15.484 16.3271 15.4994 16.3494 15.5153 16.3722C15.5444 16.4144 15.5737 16.4564 15.603 16.4985C15.6164 16.5177 15.6297 16.537 15.6434 16.5569C15.655 16.5735 15.6665 16.5901 15.6785 16.6072C15.7373 16.699 15.7899 16.794 15.8438 16.8888C15.2355 16.9027 14.6274 16.9131 14.0191 16.9195C13.7366 16.9226 13.4542 16.9268 13.1717 16.9336C12.9254 16.9395 12.6791 16.9433 12.4327 16.9446C12.3023 16.9454 12.1722 16.9472 12.0418 16.9516C11.2518 16.9769 11.2518 16.9769 11.043 16.8318C10.9106 16.6958 10.8283 16.5435 10.7537 16.3704C10.6978 16.25 10.6208 16.1462 10.543 16.0392C10.5148 15.9984 10.4867 15.9576 10.4587 15.9167C10.445 15.8967 10.4312 15.8767 10.417 15.856C10.3457 15.7524 10.2744 15.6487 10.2031 15.545C10.1745 15.5034 10.1458 15.4617 10.1172 15.42C9.48698 14.5034 8.85677 13.5867 8.22656 12.67C8.21239 12.6494 8.19821 12.6288 8.18361 12.6076C8.15491 12.5658 8.12621 12.5241 8.09752 12.4823C8.0267 12.3793 7.95587 12.2763 7.88501 12.1733C7.79828 12.0473 7.71162 11.9212 7.625 11.795C7.60863 11.7712 7.59226 11.7474 7.57539 11.7228C7.34983 11.3944 7.12624 11.0648 6.90625 10.7325C6.70218 10.9497 6.50375 11.1684 6.31702 11.4009C6.25004 11.4825 6.18051 11.5608 6.10938 11.6388C6.01264 11.7449 5.92027 11.8532 5.83008 11.965C5.70947 12.1141 5.58213 12.2554 5.45227 12.3965C5.35165 12.5085 5.25753 12.6253 5.16296 12.7424C5.07297 12.8515 4.97791 12.9553 4.88269 13.0598C4.81057 13.141 4.74201 13.2242 4.67383 13.3087C4.55322 13.4578 4.42588 13.5991 4.29602 13.7402C4.1954 13.8523 4.10128 13.969 4.00671 14.0862C3.91672 14.1952 3.82166 14.2991 3.72644 14.4036C3.65432 14.4847 3.58576 14.568 3.51758 14.6525C3.39697 14.8016 3.26962 14.9429 3.13977 15.084C3.03915 15.196 2.94503 15.3128 2.85046 15.4299C2.76047 15.539 2.66541 15.6428 2.57019 15.7473C2.49807 15.8285 2.42951 15.9117 2.36133 15.9962C2.24102 16.145 2.11405 16.2859 1.9845 16.4266C1.87829 16.5449 1.77836 16.6676 1.67859 16.7914C1.625 16.8575 1.625 16.8575 1.59375 16.8888C1.54866 16.8917 1.50343 16.8925 1.45824 16.8923C1.41508 16.8923 1.41508 16.8923 1.37104 16.8923C1.33976 16.8922 1.30848 16.892 1.27625 16.8918C1.24438 16.8918 1.21252 16.8917 1.17969 16.8917C1.07748 16.8915 0.975262 16.8911 0.873047 16.8907C0.803935 16.8906 0.734823 16.8904 0.66571 16.8903C0.49589 16.89 0.32607 16.8894 0.15625 16.8888C0.186005 16.8488 0.215807 16.8088 0.245628 16.7688C0.262219 16.7466 0.27881 16.7243 0.295904 16.7014C0.35307 16.6266 0.414442 16.5573 0.478516 16.4884C0.577901 16.3797 0.673041 16.269 0.765625 16.1544C0.878484 16.0149 0.996456 15.8816 1.11731 15.749C1.18943 15.6679 1.25799 15.5846 1.32617 15.5001C1.44678 15.351 1.57413 15.2097 1.70398 15.0686C1.8046 14.9565 1.89872 14.8398 1.99329 14.7226C2.08328 14.6136 2.17834 14.5097 2.27356 14.4053C2.34568 14.3241 2.41424 14.2408 2.48242 14.1564C2.60303 14.0072 2.73038 13.8659 2.86023 13.7248C2.96085 13.6128 3.05497 13.4961 3.14954 13.3789C3.23953 13.2699 3.33459 13.166 3.42981 13.0615C3.50193 12.9804 3.57049 12.8971 3.63867 12.8126C3.75928 12.6635 3.88663 12.5222 4.01648 12.3811C4.1171 12.269 4.21122 12.1523 4.30579 12.0351C4.39578 11.9261 4.49084 11.8222 4.58606 11.7178C4.65818 11.6366 4.72674 11.5533 4.79492 11.4689C4.91553 11.3197 5.04287 11.1784 5.17273 11.0373C5.27335 10.9253 5.36747 10.8086 5.46204 10.6914C5.55179 10.5827 5.64658 10.479 5.74158 10.3749C5.84161 10.2623 5.93582 10.1453 6.02991 10.0277C6.09375 9.95128 6.09375 9.95128 6.16638 9.88659C6.18366 9.86669 6.20094 9.84679 6.21875 9.82628C6.19968 9.68755 6.1142 9.58614 6.03516 9.47472C6.00366 9.42964 5.97216 9.38456 5.94067 9.33947C5.92453 9.31649 5.90839 9.2935 5.89175 9.26983C5.81774 9.16414 5.74483 9.0577 5.67188 8.95128C5.64324 8.90961 5.61459 8.86795 5.58594 8.82628C5.29948 8.40962 5.01302 7.99295 4.72656 7.57628C4.71239 7.55567 4.69821 7.53505 4.68361 7.51381C4.65491 7.47206 4.62621 7.43032 4.59752 7.38858C4.5267 7.28556 4.45587 7.18256 4.38501 7.07958C4.21296 6.82951 4.04136 6.57914 3.87003 6.32859C3.71936 6.10832 3.56824 5.88837 3.41696 5.66852C3.34565 5.56488 3.27439 5.46121 3.20312 5.35753C3.17448 5.31587 3.14583 5.2742 3.11719 5.23253C2.48698 4.31587 1.85677 3.3992 1.22656 2.48253C1.2053 2.45161 1.2053 2.45161 1.18361 2.42006C1.15491 2.37832 1.12621 2.33657 1.09752 2.29483C1.0267 2.19182 0.955872 2.08881 0.88501 1.98583C0.828695 1.90399 0.772425 1.82212 0.716187 1.74022C0.64934 1.64289 0.58232 1.54567 0.515259 1.44848C0.478268 1.39473 0.441281 1.34098 0.404297 1.28722C0.386779 1.26189 0.369261 1.23656 0.351212 1.21046C0.326672 1.17474 0.326672 1.17474 0.301636 1.1383C0.287131 1.11726 0.272627 1.09622 0.257683 1.07454C0.219082 1.0143 0.18775 0.952954 0.15625 0.888784ZM2.09375 1.95128C2.12834 2.00593 2.16298 2.06056 2.19762 2.11517C2.21691 2.14559 2.23619 2.17601 2.25605 2.20736C2.32963 2.32165 2.40717 2.43261 2.48633 2.54308C2.51902 2.58905 2.55169 2.63503 2.58435 2.68102C2.6012 2.70472 2.61806 2.72841 2.63542 2.75283C2.72497 2.87913 2.81364 3.00604 2.90234 3.13293C2.92975 3.17211 2.92975 3.17211 2.95771 3.21208C2.99491 3.26527 3.03211 3.31846 3.06931 3.37165C3.16074 3.50239 3.25225 3.63309 3.34375 3.76378C3.38021 3.81587 3.41667 3.86795 3.45312 3.92003C3.4802 3.95871 3.4802 3.95871 3.50781 3.99816C3.5625 4.07628 3.61719 4.15441 3.67188 4.23253C3.68992 4.25831 3.70796 4.28408 3.72655 4.31064C3.76306 4.3628 3.79957 4.41495 3.83607 4.46712C3.92641 4.59618 4.01677 4.72523 4.10718 4.85424C4.32241 5.16144 4.53697 5.46911 4.75107 5.77711C4.94056 6.04962 5.13083 6.3216 5.32132 6.59342C5.41218 6.72309 5.50296 6.85282 5.59375 6.98253C5.63021 7.03462 5.66667 7.0867 5.70312 7.13878C5.77604 7.24295 5.84896 7.34712 5.92188 7.45128C5.93992 7.47706 5.95796 7.50283 5.97655 7.52939C6.01306 7.58155 6.04957 7.6337 6.08607 7.68587C6.17641 7.81493 6.26677 7.94398 6.35718 8.07299C6.57241 8.38019 6.78697 8.68786 7.00107 8.99586C7.19056 9.26837 7.38083 9.54035 7.57132 9.81217C7.66218 9.94184 7.75296 10.0716 7.84375 10.2013C7.88021 10.2534 7.91667 10.3055 7.95312 10.3575C8.02604 10.4617 8.09896 10.5659 8.17188 10.67C8.18992 10.6958 8.20796 10.7216 8.22655 10.7481C8.26306 10.8003 8.29957 10.8525 8.33607 10.9046C8.42641 11.0337 8.51677 11.1627 8.60718 11.2917C8.82242 11.5989 9.03697 11.9066 9.25107 12.2146C9.44056 12.4871 9.63083 12.7591 9.82132 13.0309C9.91218 13.1606 10.003 13.2903 10.0938 13.42C10.1302 13.4721 10.1667 13.5242 10.2031 13.5763C10.4219 13.8888 10.6406 14.2013 10.8594 14.5138C10.8774 14.5396 10.8955 14.5654 10.9141 14.592C10.9504 14.6438 10.9866 14.6956 11.0229 14.7474C11.1171 14.882 11.2113 15.0165 11.3057 15.1509C11.3348 15.1925 11.3348 15.1925 11.3646 15.2349C11.4015 15.2874 11.4383 15.3399 11.4752 15.3924C11.4921 15.4165 11.509 15.4405 11.5264 15.4653C11.5482 15.4964 11.5482 15.4964 11.5705 15.5282C11.625 15.6075 11.625 15.6075 11.6561 15.6781C11.7004 15.7658 11.7384 15.8236 11.8125 15.8888C11.971 15.9287 12.1268 15.9216 12.2888 15.9163C12.3355 15.9157 12.3822 15.9153 12.4288 15.915C12.5513 15.914 12.6736 15.9112 12.796 15.9081C12.921 15.9052 13.0461 15.9039 13.1711 15.9025C13.4162 15.8995 13.6612 15.8947 13.9062 15.8888C13.8713 15.8336 13.8364 15.7785 13.8014 15.7234C13.7819 15.6927 13.7625 15.662 13.7424 15.6304C13.6806 15.5343 13.6161 15.442 13.5488 15.3497C13.4079 15.1547 13.27 14.9576 13.1328 14.7599C12.973 14.5298 12.8131 14.2999 12.6523 14.0704C12.6257 14.0323 12.6257 14.0323 12.5984 13.9934C12.5627 13.9424 12.5269 13.8914 12.4912 13.8404C12.4003 13.7107 12.3095 13.581 12.2188 13.4513C12.1823 13.3992 12.1458 13.3471 12.1094 13.295C12.0365 13.1909 11.9635 13.0867 11.8906 12.9825C11.8726 12.9568 11.8545 12.931 11.836 12.9044C11.7994 12.8523 11.7629 12.8001 11.7264 12.748C11.6361 12.6189 11.5457 12.4898 11.4553 12.3608C11.2401 12.0536 11.0255 11.746 10.8114 11.438C10.6219 11.1654 10.4317 10.8935 10.2412 10.6216C10.1503 10.492 10.0595 10.3623 9.96875 10.2325C9.93229 10.1805 9.89583 10.1284 9.85938 10.0763C9.78646 9.97212 9.71354 9.86795 9.64062 9.76378C9.62258 9.73801 9.60454 9.71224 9.58595 9.68568C9.54944 9.63352 9.51293 9.58136 9.47643 9.5292C9.38609 9.40014 9.29573 9.27109 9.20532 9.14208C8.99008 8.83488 8.77553 8.52721 8.56143 8.21921C8.37194 7.94669 8.18167 7.67472 7.99118 7.4029C7.90032 7.27323 7.80954 7.1435 7.71875 7.01378C7.68229 6.9617 7.64583 6.90962 7.60938 6.85753C7.39062 6.54503 7.17188 6.23253 6.95312 5.92003C6.92606 5.88137 6.92606 5.88137 6.89845 5.84193C6.86194 5.78977 6.82543 5.73761 6.78893 5.68545C6.69859 5.55639 6.60823 5.42734 6.51782 5.29833C6.30259 4.99113 6.08803 4.68346 5.87393 4.37546C5.68444 4.10294 5.49417 3.83097 5.30368 3.55915C5.19476 3.40369 5.08592 3.24817 4.9771 3.09264C4.88294 2.95809 4.7887 2.8236 4.69434 2.6892C4.66515 2.6476 4.66515 2.6476 4.63538 2.60515C4.59854 2.55265 4.56167 2.50015 4.52478 2.44768C4.49946 2.41158 4.49946 2.41158 4.47363 2.37475C4.45907 2.35401 4.44451 2.33328 4.4295 2.31192C4.375 2.23253 4.375 2.23253 4.34386 2.16202C4.29957 2.07427 4.26158 2.01643 4.1875 1.95128C4.02895 1.91137 3.87315 1.91847 3.71118 1.92382C3.66451 1.92434 3.61783 1.92474 3.57116 1.92502C3.44874 1.92609 3.32642 1.92885 3.20404 1.93197C3.07899 1.93486 2.95393 1.93614 2.82886 1.93755C2.58378 1.94056 2.33878 1.94536 2.09375 1.95128Z" fill="white"></path>
                                        </svg>