<svg width="18" height="18" viewBox="0 0 18 18" fill="none" xmlns="http://www.w3.org/2000/svg">
                                            <path d="M0.584511 17.2215H2.92454C3.24737 17.2215 3.50905 16.9598 3.50905 16.637V6.40873C3.50905 6.08586 3.24737 5.82422 2.92454 5.82422H0.584511C0.261646 5.82422 0 6.08586 0 6.40873V16.637C0 16.9598 0.261646 17.2215 0.584511 17.2215Z" fill="white"></path>
                                            <path d="M0.584511 4.02628H2.92454C3.24737 4.02628 3.50905 3.7646 3.50905 3.44177V1.36381C3.50905 1.04098 3.24737 0.779297 2.92454 0.779297H0.584511C0.261646 0.779297 0 1.04098 0 1.36381V3.44177C0 3.7646 0.261646 4.02628 0.584511 4.02628Z" fill="white"></path>
                                            <path d="M17.12 7.01148C16.7912 6.57865 16.3063 6.2227 15.6652 5.9437C15.0241 5.66489 14.3164 5.52539 13.5422 5.52539C11.9704 5.52539 10.6386 6.12524 9.54669 7.32516C9.32943 7.56392 9.17147 7.51172 9.17147 7.18885V6.40965C9.17147 6.08678 8.90975 5.82514 8.58692 5.82514H6.49662C6.17376 5.82514 5.91211 6.08678 5.91211 6.40965V16.6379C5.91211 16.9607 6.17379 17.2224 6.49662 17.2224H8.83665C9.15952 17.2224 9.42116 16.9607 9.42116 16.6379V13.0808C9.42116 11.5989 9.51065 10.5831 9.68961 10.0337C9.86852 9.48424 10.1996 9.04304 10.6824 8.71001C11.1653 8.37699 11.7106 8.2104 12.3184 8.2104C12.7929 8.2104 13.1988 8.32697 13.536 8.56016C13.8732 8.79331 14.1168 9.11992 14.2666 9.54044C14.4165 9.9609 14.4914 10.8871 14.4914 12.3191V16.6378C14.4914 16.9607 14.7531 17.2224 15.0759 17.2224H17.4159C17.7388 17.2224 18.0004 16.9607 18.0004 16.6378V10.8454C18.0004 9.82146 17.9359 9.03467 17.807 8.48523C17.678 7.93579 17.449 7.44454 17.12 7.01148Z"></path>
                                        </svg>