<svg width="40" height="40" viewBox="0 0 40 40" fill="none" xmlns="http://www.w3.org/2000/svg">
                                    <path d="M26.4383 21.3121C28.1449 20.738 29.2942 19.1381 29.2936 17.3375L29.2911 9.87752C29.2912 4.74597 25.1313 0.585938 19.9998 0.585938C14.8683 0.585938 10.7085 4.74597 10.7085 9.87752L10.7061 17.3375C10.7054 19.1381 11.8547 20.738 13.5613 21.3121L16.8625 22.4228H23.1371L26.4383 21.3121Z" fill="#756E78"></path>
                                    <path d="M24.154 9.33016V13.8848C24.1335 15.2463 23.7024 16.5081 22.9796 17.5525V22.259C22.9796 22.3142 22.9826 22.3688 22.9877 22.4229H23.1374L26.4386 21.3122C28.1452 20.7381 29.2945 19.1382 29.2938 17.3376L29.2914 9.8776C29.2914 4.74598 25.1315 0.58594 20 0.58594C19.2135 0.585373 18.4301 0.684526 17.6685 0.881026C21.4028 1.87676 24.154 5.28193 24.154 9.33016Z" fill="#665E66"></path>
                                    <path d="M26.8301 24.51L24.8017 23.9896C24.781 23.9856 24.761 23.9797 24.7405 23.975C23.9432 23.7917 23.3722 23.0824 23.3722 22.2587V17.4175H16.6276V22.2587C16.6276 23.0824 16.0566 23.7916 15.2593 23.975C15.2388 23.9797 15.2188 23.9856 15.1981 23.9896L13.1697 24.51C8.75416 25.3598 5.56299 29.2238 5.56299 33.7206V36.8633C5.56299 38.2725 6.70533 39.4148 8.11439 39.4148H31.8854C33.2946 39.4148 34.4368 38.2724 34.4368 36.8633V33.7206C34.4369 29.2238 31.2456 25.3598 26.8301 24.51Z" fill="#FFDDCE"></path>
                                    <path d="M27.214 24.5923L27.1679 24.6334C25.4946 26.7481 22.9058 28.1052 19.9999 28.1052C17.0939 28.1052 14.505 26.7481 12.8318 24.6334L12.7807 24.5935C8.56799 25.5893 5.56299 29.3569 5.56299 33.7204V36.8632C5.56299 38.2724 6.70533 39.4146 8.11439 39.4146H31.8853C33.2945 39.4146 34.4367 38.2723 34.4367 36.8632V33.7204C34.4368 29.3552 31.4293 25.5864 27.214 24.5923Z" fill="#DBE8F9"></path>
                                    <path d="M23.7478 24.3536L23.4811 22.8662C23.5826 23.141 23.7508 23.3861 23.9706 23.5796C24.1905 23.7731 24.455 23.9088 24.7404 23.9744C24.7609 23.9791 24.7809 23.9851 24.8017 23.9891L26.83 24.5095C31.2456 25.3592 34.4368 29.2233 34.4368 33.72V36.8628C34.4368 38.2719 33.2944 39.4142 31.8854 39.4142H23.3721C24.5154 34.4712 24.6432 29.3475 23.7478 24.3536Z" fill="#7FB2F9"></path>
                                    <path d="M26.8298 24.5099L24.8014 23.9895C24.7806 23.9856 24.7606 23.9796 24.7402 23.9749C24.4548 23.9092 24.1903 23.7735 23.9704 23.5801C23.7506 23.3866 23.5824 23.1414 23.481 22.8667L23.7476 24.354C23.7984 24.6379 23.8458 24.9224 23.89 25.2075C27.1449 26.713 29.3293 30.0001 29.3293 33.7204V39.4147H31.885C33.2942 39.4147 34.4364 38.2724 34.4364 36.8633V33.7204C34.4366 29.2237 31.2453 25.3597 26.8298 24.5099Z" fill="#60A0F7"></path>
                                    <path d="M16.252 24.3536L16.5186 22.8662C16.4172 23.141 16.249 23.3861 16.0291 23.5796C15.8093 23.7731 15.5447 23.9088 15.2593 23.9744C15.2388 23.9791 15.2188 23.9851 15.1981 23.9891L13.1697 24.5095C8.75416 25.3592 5.56299 29.2233 5.56299 33.72V36.8628C5.56299 38.2719 6.70533 39.4142 8.11439 39.4142H16.6276C15.4844 34.4712 15.3566 29.3475 16.252 24.3536Z" fill="#7FB2F9"></path>
                                    <path d="M25.9237 9.68709V14.9511H28.676C29.4067 14.9511 29.9992 14.3586 29.9992 13.6277V11.0103C29.9992 10.2795 29.4068 9.68701 28.676 9.68701L25.9237 9.68709ZM14.076 9.68709V14.9511H11.3238C10.593 14.9511 10.0005 14.3586 10.0005 13.6277V11.0103C10.0005 10.2795 10.5929 9.68701 11.3238 9.68701L14.076 9.68709Z" fill="#9BC4F9"></path>
                                    <path d="M27.9015 33.426H30.267C30.8609 33.426 31.3423 32.9446 31.3423 32.3506V31.7052C31.3423 31.1114 30.8609 30.6299 30.267 30.6299H27.9015C27.3077 30.6299 26.8262 31.1113 26.8262 31.7052V32.3506C26.8262 32.9446 27.3077 33.426 27.9015 33.426Z" fill="#EAF7F7"></path>
                                    <path d="M31.3424 32.351V31.7056C31.3424 31.1118 30.861 30.6304 30.2671 30.6304H28.8062C29.1204 31.5305 29.2951 32.4734 29.3244 33.4264H30.2671C30.861 33.4264 31.3424 32.945 31.3424 32.351Z" fill="#D8EFF1"></path>
                                    <path d="M26.6274 9.68758C24.6403 8.67904 23.8299 7.00649 23.5031 5.9892C23.4087 5.69552 23.0105 5.65809 22.8607 5.92779C21.4208 8.51919 18.5544 9.68758 15.2533 9.68758H13.3726V13.8849C13.4272 17.4994 16.3725 20.4132 19.9999 20.4132C23.6274 20.4132 26.5726 17.4994 26.6272 13.8849V9.68758H26.6274Z" fill="#FFDDCE"></path>
                                    <path d="M23.6508 6.40186C23.9762 7.31735 24.1538 8.30285 24.1538 9.32998V13.8846C24.1055 17.0779 21.8008 19.7226 18.7632 20.2961C19.1709 20.3735 19.5849 20.4127 19.9999 20.4129C23.6274 20.4129 26.5726 17.4992 26.6272 13.8846V9.68734C24.8903 8.80575 24.0525 7.41696 23.6508 6.40186Z" fill="#FFCBBE"></path>
                                    <path d="M24.3266 19.2765H22.7241C22.1127 19.2765 21.6172 18.7808 21.6172 18.1695C21.6172 17.5581 22.1128 17.0625 22.7241 17.0625H24.3266C24.938 17.0625 25.4335 17.5581 25.4335 18.1695C25.4336 18.7808 24.938 19.2765 24.3266 19.2765Z" fill="#DB636E"></path>
                                    <path d="M34.4368 35.5304C34.2814 35.5304 34.1324 35.5921 34.0225 35.702C33.9126 35.8119 33.8509 35.9609 33.8509 36.1163V36.8627C33.8509 37.9464 32.9692 38.8281 31.8854 38.8281H30.4426V36.1163C30.4426 35.7927 30.1803 35.5304 29.8567 35.5304C29.533 35.5304 29.2707 35.7927 29.2707 36.1163V38.8281H24.1011C25.1042 34.0838 25.1926 29.2596 24.3631 24.4734C24.5233 24.5288 24.3185 24.4691 26.6843 25.0772C26.6959 25.0802 26.7075 25.0827 26.7192 25.085C30.7747 25.8655 33.6924 29.3448 33.8445 33.3855C33.8524 33.5394 33.9205 33.6839 34.0342 33.7879C34.1478 33.8919 34.2978 33.9469 34.4518 33.9411C34.6057 33.9353 34.7511 33.8692 34.8567 33.757C34.9622 33.6447 35.0193 33.4955 35.0156 33.3415C34.8417 28.7231 31.5001 24.8205 26.9585 23.9377C26.0256 23.6988 24.9636 23.4248 24.8717 23.4037C24.4974 23.3176 24.2021 23.0632 24.0567 22.7311L26.6252 21.867C27.5741 21.5485 28.3988 20.9397 28.9828 20.1267C29.5668 19.3138 29.8805 18.3379 29.8795 17.337V15.1086C30.3097 14.7582 30.5851 14.2248 30.5851 13.6279V11.0105C30.5851 10.4094 30.3055 9.87258 29.8699 9.52234C29.6838 4.22875 25.341 0 19.9999 0C14.6588 0 10.3159 4.22875 10.1298 9.52227C9.69416 9.8725 9.41455 10.4093 9.41455 11.0105V13.6278C9.41455 14.2249 9.69033 14.7587 10.121 15.1091L10.1203 17.3369C10.1193 18.3378 10.4329 19.3137 11.0169 20.1267C11.6009 20.9396 12.4257 21.5484 13.3746 21.867L15.943 22.731C15.7977 23.0631 15.5024 23.3175 15.1282 23.4035C15.0412 23.4234 14.2328 23.6325 13.0412 23.9377C12.0248 24.1345 11.0454 24.4888 10.1383 24.9877C10.0055 25.0643 9.90798 25.19 9.86675 25.3377C9.82552 25.4854 9.84383 25.6434 9.91776 25.7778C9.99169 25.9122 10.1153 26.0122 10.2622 26.0564C10.409 26.1007 10.5674 26.0856 10.7032 26.0145C11.5084 25.5717 12.3781 25.258 13.2805 25.085C13.2883 25.0835 15.4106 24.5516 15.6367 24.4734C14.8072 29.2595 14.8956 34.0838 15.8987 38.8281H10.7291V36.1163C10.7291 35.7927 10.4668 35.5304 10.1431 35.5304C9.81947 35.5304 9.55721 35.7927 9.55721 36.1163V38.8281H8.11439C7.03064 38.8281 6.14893 37.9464 6.14893 36.8627V33.7199C6.14893 31.4062 7.04104 29.2207 8.6608 27.5662C8.76926 27.4552 8.8292 27.3056 8.82746 27.1503C8.82571 26.9951 8.76242 26.8469 8.65148 26.7382C8.54054 26.6296 8.39103 26.5695 8.23578 26.571C8.08053 26.5725 7.93223 26.6356 7.82346 26.7464C5.98799 28.6213 4.97705 31.0977 4.97705 33.7199V36.8627C4.97705 38.5927 6.38447 40 8.11439 40H31.8855C33.6155 40 35.0228 38.5926 35.0228 36.8627V36.1163C35.0228 35.9609 34.9611 35.8119 34.8512 35.702C34.7413 35.5921 34.5922 35.5304 34.4368 35.5304ZM27.3397 17.6884H26.0636C26.4942 17.0221 26.8091 16.2977 26.999 15.537C27.7361 15.5368 28.6177 15.5377 28.7071 15.5363L28.7073 16.327C28.7037 17.0783 28.0918 17.6884 27.3397 17.6884ZM29.4133 11.0105V13.6279C29.4133 14.0345 29.0826 14.3652 28.676 14.3652H27.1895C27.2024 14.2082 27.2103 14.0509 27.213 13.8934L27.2131 13.8845V10.2733H28.676C29.0826 10.2732 29.4133 10.6039 29.4133 11.0105ZM19.9999 1.17188C24.5311 1.17188 28.2752 4.66609 28.6699 9.10133H26.7719C25.1252 8.21813 24.3887 6.83047 24.0608 5.80984C23.8103 5.02953 22.7467 4.92602 22.3484 5.64297C21.1092 7.87313 18.5894 9.10133 15.2531 9.10133H11.3298C11.7246 4.66609 15.4686 1.17188 19.9999 1.17188ZM22.9149 23.0282L23.1711 24.4572C23.3085 25.2228 23.4219 25.9926 23.5111 26.7653C21.3006 27.7655 18.7255 27.7774 16.4885 26.7653C16.5778 25.9926 16.6912 25.2228 16.8285 24.4572L17.0847 23.0282C17.31 22.3738 17.1849 21.6185 17.2134 20.4413C18.9406 21.1645 20.9606 21.2051 22.786 20.4391C22.8131 21.55 22.6896 22.3737 22.9149 23.0282ZM22.7241 18.6907C22.4367 18.6907 22.203 18.457 22.203 18.1697C22.203 17.8824 22.4367 17.6487 22.7241 17.6487H24.3265C24.6167 17.6487 24.8476 17.8866 24.8476 18.1697C24.8474 18.3078 24.7925 18.4403 24.6948 18.5379C24.5971 18.6356 24.4646 18.6906 24.3265 18.6907H22.7241ZM24.3265 16.4767H22.7241C21.7906 16.4767 21.0311 17.2362 21.0311 18.1696C21.0311 18.7476 21.3224 19.2586 21.7657 19.5641C19.7228 20.188 17.3978 19.7043 15.7578 18.0867C14.8548 17.196 14.2671 16.0683 14.0513 14.8424C14.0504 14.8377 14.0496 14.833 14.0486 14.8283C13.8914 13.9227 13.9866 13.5673 13.9585 10.2732H15.2531C18.8228 10.2732 21.5928 8.98742 23.1158 6.63977C23.5201 7.64406 24.3587 9.06898 26.0413 10.0363C26.0141 13.5695 26.1064 13.9323 25.9539 14.8173C25.8786 15.1396 25.7833 15.8349 25.2591 16.7577C24.9827 16.5742 24.6583 16.4764 24.3265 16.4767ZM10.5864 13.6279V11.0105C10.5864 10.604 10.9171 10.2732 11.3238 10.2732H12.7867V13.8845L12.7867 13.8933C12.7892 14.0516 12.7985 14.2087 12.811 14.3652H11.3238C10.9171 14.3652 10.5864 14.0345 10.5864 13.6279ZM16.0417 21.5279L13.7482 20.7563C13.0321 20.5159 12.4096 20.0564 11.9689 19.4429C11.5281 18.8293 11.2914 18.0928 11.2921 17.3373L11.2928 15.5363C11.3875 15.5378 11.9353 15.5367 13.0016 15.5371C13.3185 16.8107 13.9783 17.9775 14.9351 18.9212C15.2738 19.2555 15.6445 19.5557 16.0418 19.8176V21.5279H16.0417ZM22.9033 38.8281H17.0964C16.3142 35.2454 16.0716 31.6145 16.3684 27.9894C18.6311 28.905 21.2677 28.9459 23.6313 27.9894C23.9281 31.6145 23.6855 35.2454 22.9033 38.8281ZM23.9581 19.8626H24.3265C25.0141 19.8626 25.6067 19.4504 25.8716 18.8603H27.3397C27.738 18.8606 28.1307 18.7666 28.4857 18.5859C28.2994 19.0918 28.002 19.5494 27.6153 19.925C27.2287 20.3006 26.7626 20.5847 26.2516 20.7562L23.9581 21.5278L23.9581 19.8626Z" fill="black"></path>
                                    <path d="M30.267 30.0444H27.9015C26.9855 30.0444 26.2402 30.7897 26.2402 31.7057V32.3511C26.2402 33.2672 26.9855 34.0124 27.9015 34.0124H30.267C31.183 34.0124 31.9283 33.2672 31.9283 32.3511V31.7057C31.9283 30.7897 31.183 30.0444 30.267 30.0444ZM30.7564 32.3511C30.7563 32.4808 30.7047 32.6052 30.6129 32.6969C30.5212 32.7887 30.3968 32.8403 30.267 32.8404H27.9015C27.7717 32.8403 27.6473 32.7887 27.5556 32.6969C27.4639 32.6052 27.4123 32.4808 27.4121 32.3511V31.7057C27.4123 31.5759 27.4639 31.4515 27.5556 31.3598C27.6473 31.268 27.7717 31.2164 27.9015 31.2163H30.267C30.3968 31.2164 30.5212 31.268 30.6129 31.3598C30.7047 31.4515 30.7563 31.5759 30.7564 31.7057V32.3511Z" fill="black"></path>
                                </svg>