<svg width="248" height="80" viewBox="0 0 248 80" fill="none" xmlns="http://www.w3.org/2000/svg">
                                <path d="M18.4207 14.2939H33.993V3.65548H18.4207V14.2939ZM35.892 17.9494H16.5691C15.5246 17.9494 14.7175 17.1527 14.7175 16.1216V1.82774C14.7175 0.843573 15.5246 0 16.5691 0H35.892C36.889 0 37.7436 0.843573 37.7436 1.82774V16.1216C37.7436 17.1527 36.889 17.9494 35.892 17.9494Z" fill="#4DA627"></path>
                                <path d="M9.68459 14.2949H42.7282C43.7727 14.2949 44.5798 15.0916 44.5798 16.1227C44.5798 19.3564 43.2505 22.3089 41.114 24.4178C38.9301 26.5736 35.9866 27.8858 32.7107 27.8858H19.7496C16.4737 27.8858 13.4827 26.5736 11.3463 24.4178C9.16235 22.3089 7.83301 19.3564 7.83301 16.1227C7.83301 15.0916 8.68758 14.2949 9.68459 14.2949Z" fill="#4DA627"></path>
                                <path d="M12.5811 0C11.5841 0 10.7295 0.843573 10.7295 1.82774C10.7295 2.85878 11.5841 3.65548 12.5811 3.65548H39.8326C40.8771 3.65548 41.7316 2.85878 41.7316 1.82774C41.7316 0.843573 40.8771 0 39.8326 0H12.5811Z" fill="#4DA627"></path>
                                <path d="M17.0912 73.2041V75.0787C17.0912 77.75 14.8598 79.9996 12.1061 79.9996C9.35249 79.9996 7.12109 77.75 7.12109 75.0787V73.2041H7.64333H17.0912Z" fill="#4DA627"></path>
                                <path d="M45.3419 73.2041V75.0787C45.3419 77.75 43.063 79.9996 40.3569 79.9996C37.6032 79.9996 35.3718 77.75 35.3718 75.0787V73.2041H44.8196H45.3419Z" fill="#4DA627"></path>
                                <path fill-rule="evenodd" clip-rule="evenodd" d="M8.54577 53.9888V43.2098C8.54577 42.1787 9.40034 41.382 10.4448 41.382H42.0167C43.0612 41.382 43.8683 42.1787 43.8683 43.2098V53.9888C43.8683 56.0508 43.0137 57.9723 41.6369 59.3314C40.2126 60.6905 38.3135 61.534 36.2246 61.534H16.237C14.148 61.534 12.2015 60.6905 10.8246 59.3314C9.44782 57.9723 8.54577 56.0508 8.54577 53.9888ZM32.7113 29.7126H19.7502C16.0945 29.7126 12.6287 28.2598 10.0175 25.7291C7.45381 23.1983 5.98204 19.7303 5.98204 16.1217C5.98204 15.5125 6.12447 14.9032 6.40932 14.3877C4.79512 14.622 3.32335 15.4187 2.23139 16.4966C0.854577 17.9026 0 19.7772 0 21.8393V63.7836C0 65.8925 0.854577 67.7671 2.23139 69.1262C3.51326 70.3916 5.22241 71.2351 7.12147 71.3289C7.31138 71.3757 7.45381 71.3757 7.64371 71.3757H10.8246H13.3409H17.0915H35.37H39.0731H41.5894H44.8178C44.9602 71.3757 45.1501 71.3757 45.34 71.3289C47.2391 71.2351 48.9482 70.3916 50.2301 69.1262C51.6069 67.7671 52.4615 65.8925 52.4615 63.7836V21.8393C52.4615 19.7772 51.6069 17.9026 50.2301 16.4966C49.0907 15.4187 47.6664 14.622 46.0047 14.3877C46.2896 14.9032 46.4795 15.5125 46.4795 16.1217C46.4795 19.7303 45.0077 23.1983 42.444 25.7291C39.8328 28.2598 36.367 29.7126 32.7113 29.7126Z" fill="#4DA627"></path>
                                <path d="M232.91 39.1632L229.934 35.8676L241.311 23.7553H247.218L232.91 39.1632ZM228.228 45.1552V15.1953H233.128V45.1552H228.228ZM242.142 45.1552L234.441 34.07L237.635 30.7316L247.961 45.1552H242.142Z" fill="white"></path>
                                <path d="M218.626 45.1557L218.407 41.1325V34.1561C218.407 32.7009 218.247 31.4883 217.926 30.5181C217.634 29.5195 217.138 28.7634 216.438 28.2498C215.767 27.7076 214.863 27.4366 213.725 27.4366C212.675 27.4366 211.756 27.6506 210.969 28.0786C210.181 28.5066 209.51 29.1771 208.956 30.0902L204.668 28.5494C205.134 27.6078 205.747 26.7375 206.505 25.9386C207.293 25.1111 208.27 24.4548 209.437 23.9698C210.633 23.4847 212.062 23.2422 213.725 23.2422C215.855 23.2422 217.634 23.6559 219.063 24.4834C220.493 25.2823 221.543 26.4379 222.214 27.9502C222.914 29.4624 223.264 31.2885 223.264 33.4285L223.133 45.1557H218.626ZM212.325 45.6693C209.7 45.6693 207.658 45.0986 206.199 43.9573C204.77 42.816 204.055 41.2038 204.055 39.1209C204.055 36.8953 204.814 35.1976 206.33 34.0277C207.876 32.8579 210.02 32.2729 212.762 32.2729H218.626V35.9537H214.338C212.383 35.9537 211.012 36.2248 210.225 36.7669C209.437 37.2805 209.043 38.0224 209.043 38.9925C209.043 39.82 209.379 40.4762 210.05 40.9613C210.75 41.4178 211.712 41.6461 212.938 41.6461C214.046 41.6461 215.009 41.4036 215.825 40.9185C216.642 40.4334 217.269 39.7914 217.707 38.9925C218.174 38.1936 218.407 37.2948 218.407 36.2961H219.851C219.851 39.2065 219.253 41.5034 218.057 43.1869C216.861 44.8418 214.95 45.6693 212.325 45.6693Z" fill="white"></path>
                                <path d="M190.938 45.6693C188.809 45.6693 186.913 45.1985 185.25 44.2569C183.617 43.2868 182.319 41.96 181.356 40.2765C180.423 38.593 179.956 36.6528 179.956 34.4557C179.956 32.2587 180.437 30.3184 181.4 28.635C182.362 26.9515 183.675 25.639 185.338 24.6974C187.03 23.7273 188.955 23.2422 191.113 23.2422C193.068 23.2422 194.833 23.7415 196.408 24.7402C197.983 25.7103 199.223 27.1227 200.127 28.9774C201.06 30.832 201.527 33.0433 201.527 35.6113H184.331L184.988 35.0121C184.988 36.3247 185.279 37.466 185.863 38.4361C186.446 39.3777 187.219 40.1053 188.182 40.6189C189.144 41.1325 190.209 41.3893 191.376 41.3893C192.718 41.3893 193.826 41.104 194.701 40.5333C195.576 39.9341 196.262 39.1637 196.758 38.2221L201.09 40.0197C200.477 41.161 199.689 42.1597 198.727 43.0157C197.793 43.8717 196.67 44.5279 195.358 44.9845C194.074 45.441 192.601 45.6693 190.938 45.6693ZM185.294 32.5297L184.594 31.9305H196.933L196.277 32.5297C196.277 31.3599 196.014 30.404 195.489 29.6622C194.964 28.8918 194.293 28.3211 193.476 27.9502C192.689 27.5507 191.857 27.351 190.982 27.351C190.107 27.351 189.232 27.5507 188.357 27.9502C187.482 28.3211 186.752 28.8918 186.169 29.6622C185.586 30.404 185.294 31.3599 185.294 32.5297Z" fill="white"></path>
                                <path d="M155.292 53.7156V23.7558H159.886L160.192 27.6934V53.7156H155.292ZM167.105 45.6693C165.268 45.6693 163.678 45.2127 162.336 44.2997C161.023 43.3581 160.017 42.0456 159.317 40.3621C158.617 38.6786 158.267 36.7099 158.267 34.4557C158.267 32.1731 158.617 30.2043 159.317 28.5494C160.017 26.8659 161.023 25.5676 162.336 24.6546C163.678 23.713 165.268 23.2422 167.105 23.2422C169.089 23.2422 170.81 23.713 172.269 24.6546C173.756 25.5676 174.908 26.8659 175.725 28.5494C176.571 30.2043 176.994 32.1731 176.994 34.4557C176.994 36.7099 176.571 38.6786 175.725 40.3621C174.908 42.0456 173.756 43.3581 172.269 44.2997C170.81 45.2127 169.089 45.6693 167.105 45.6693ZM165.88 41.3037C167.047 41.3037 168.083 41.0184 168.987 40.4477C169.891 39.8485 170.606 39.0353 171.131 38.0081C171.685 36.9809 171.962 35.7968 171.962 34.4557C171.962 33.1147 171.7 31.9305 171.175 30.9033C170.679 29.8762 169.979 29.0772 169.074 28.5066C168.17 27.9359 167.12 27.6506 165.924 27.6506C164.816 27.6506 163.824 27.9359 162.949 28.5066C162.074 29.0772 161.388 29.8762 160.892 30.9033C160.425 31.9305 160.192 33.1147 160.192 34.4557C160.192 35.7968 160.425 36.9809 160.892 38.0081C161.388 39.0353 162.059 39.8485 162.905 40.4477C163.78 41.0184 164.772 41.3037 165.88 41.3037Z" fill="white"></path>
                                <path d="M142.416 33.7687C142.416 31.4575 142.868 29.5601 143.772 28.0763C144.677 26.5926 145.843 25.4941 147.273 24.7808C148.731 24.0389 150.248 23.668 151.823 23.668V28.2475C150.481 28.2475 149.213 28.433 148.017 28.8039C146.85 29.1463 145.902 29.717 145.172 30.5159C144.443 31.3149 144.079 32.3706 144.079 33.6831L142.416 33.7687ZM139.178 45.1535V23.7536H144.079V45.1535H139.178Z" fill="white"></path>
                                <path d="M129.139 45.1548L128.876 41.2172V23.7549H133.733V45.1548H129.139ZM114 34.7116V23.7549H118.9V34.7116H114ZM118.9 34.7116C118.9 36.3951 119.104 37.7076 119.513 38.6492C119.921 39.5908 120.475 40.2471 121.175 40.618C121.905 40.9889 122.736 41.1744 123.669 41.1744C125.332 41.2029 126.616 40.6751 127.52 39.5908C128.424 38.5065 128.876 36.9515 128.876 34.9256H130.714C130.714 37.1797 130.364 39.12 129.664 40.7464C128.993 42.3443 128.03 43.5712 126.776 44.4272C125.551 45.2546 124.063 45.6684 122.313 45.6684C120.592 45.6684 119.104 45.326 117.85 44.6412C116.625 43.9564 115.677 42.8864 115.006 41.4312C114.335 39.976 114 38.1071 114 35.8244V34.7116H118.9Z" fill="white"></path>
                                <path d="M99.1192 45.6693C96.9314 45.6693 94.977 45.1985 93.256 44.2569C91.5641 43.2868 90.2369 41.96 89.2742 40.2765C88.3116 38.593 87.8303 36.6528 87.8303 34.4557C87.8303 32.2587 88.297 30.3184 89.2305 28.635C90.1931 26.9515 91.5204 25.639 93.2122 24.6974C94.9041 23.7273 96.8439 23.2422 99.0317 23.2422C101.219 23.2422 103.159 23.7273 104.851 24.6974C106.543 25.639 107.856 26.9515 108.789 28.635C109.752 30.3184 110.233 32.2587 110.233 34.4557C110.233 36.6528 109.766 38.593 108.833 40.2765C107.899 41.96 106.587 43.2868 104.895 44.2569C103.203 45.1985 101.278 45.6693 99.1192 45.6693ZM99.1192 41.2609C100.315 41.2609 101.38 40.9756 102.313 40.4049C103.247 39.8057 103.976 39.0068 104.501 38.0081C105.026 36.9809 105.289 35.7968 105.289 34.4557C105.289 33.1147 105.012 31.9448 104.457 30.9461C103.932 29.919 103.203 29.12 102.27 28.5494C101.336 27.9502 100.257 27.6506 99.0317 27.6506C97.8065 27.6506 96.7272 27.9359 95.7938 28.5066C94.8603 29.0772 94.1311 29.8762 93.606 30.9033C93.081 31.9305 92.8184 33.1147 92.8184 34.4557C92.8184 35.7968 93.081 36.9809 93.606 38.0081C94.1603 39.0068 94.9041 39.8057 95.8376 40.4049C96.8002 40.9756 97.8941 41.2609 99.1192 41.2609Z" fill="white"></path>
                                <path d="M74.0993 45.1552V19.7321H64.6919V15.1953H88.5823V19.7321H79.1749V45.1552H74.0993Z" fill="white"></path>
                                <rect x="154.552" y="16.6211" width="5.83405" height="5.70664" fill="#F38035"></rect>
                                <g opacity="0.7">
                                    <path d="M244.288 71.6652C243.489 71.6652 242.783 71.4885 242.17 71.1351C241.557 70.7709 241.075 70.2729 240.724 69.641C240.385 69.0091 240.215 68.2808 240.215 67.4561C240.215 66.6315 240.385 65.9032 240.724 65.2713C241.075 64.6394 241.551 64.1467 242.153 63.7933C242.766 63.4291 243.467 63.2471 244.256 63.2471C245.022 63.2471 245.684 63.4345 246.243 63.8094C246.801 64.1735 247.234 64.6876 247.54 65.3516C247.847 66.0156 248 66.7975 248 67.6971H241.217L241.546 67.424C241.546 68.0666 241.661 68.6182 241.891 69.0787C242.131 69.5393 242.465 69.8927 242.892 70.139C243.319 70.3746 243.807 70.4925 244.354 70.4925C244.934 70.4925 245.422 70.3586 245.816 70.0908C246.221 69.8231 246.533 69.4696 246.752 69.0305L247.885 69.5928C247.677 70.0105 247.398 70.3746 247.048 70.6852C246.708 70.9958 246.303 71.2368 245.832 71.4082C245.372 71.5795 244.858 71.6652 244.288 71.6652ZM241.628 66.8778L241.283 66.6208H246.949L246.604 66.8939C246.604 66.3798 246.5 65.9353 246.292 65.5605C246.084 65.1856 245.805 64.8964 245.455 64.6929C245.104 64.4894 244.699 64.3877 244.239 64.3877C243.79 64.3877 243.363 64.4894 242.958 64.6929C242.564 64.8964 242.241 65.1856 241.989 65.5605C241.748 65.9246 241.628 66.3637 241.628 66.8778Z" fill="white"></path>
                                    <path d="M235.864 67.1183C235.864 66.2508 236.034 65.5492 236.373 65.0137C236.713 64.4675 237.145 64.0659 237.671 63.8089C238.207 63.5411 238.771 63.4072 239.362 63.4072V64.6121C238.881 64.6121 238.415 64.6924 237.966 64.8531C237.528 65.003 237.167 65.2547 236.882 65.6082C236.598 65.9616 236.455 66.4435 236.455 67.054L235.864 67.1183ZM235.141 71.4719V63.4394H236.455V71.4719H235.141Z" fill="white"></path>
                                    <path d="M231.617 71.473L231.535 69.995V63.4404H232.848V71.473H231.617ZM225.77 67.5531V63.4404H227.084V67.5531H225.77ZM227.084 67.5531C227.084 68.3457 227.177 68.9508 227.363 69.3685C227.549 69.7862 227.806 70.0753 228.135 70.236C228.474 70.3859 228.852 70.4609 229.268 70.4609C229.98 70.4609 230.533 70.2092 230.927 69.7058C231.332 69.2025 231.535 68.5009 231.535 67.6013H232.175C232.175 68.4474 232.049 69.1757 231.797 69.7862C231.545 70.3966 231.179 70.8625 230.697 71.1838C230.226 71.5051 229.646 71.6658 228.956 71.6658C228.321 71.6658 227.763 71.5426 227.281 71.2963C226.799 71.0392 226.427 70.6376 226.164 70.0914C225.901 69.5345 225.77 68.8169 225.77 67.9387V67.5531H227.084Z" fill="white"></path>
                                    <path d="M222.864 71.6651C222.064 71.6651 221.446 71.4616 221.008 71.0546C220.57 70.6477 220.351 70.0747 220.351 69.3357V60.9336H221.665V69.2071C221.665 69.6141 221.774 69.9301 221.993 70.155C222.223 70.3692 222.541 70.4763 222.946 70.4763C223.077 70.4763 223.203 70.4602 223.323 70.4281C223.455 70.3853 223.625 70.2889 223.833 70.1389L224.342 71.1832C224.057 71.3652 223.8 71.4884 223.57 71.5527C223.34 71.6276 223.104 71.6651 222.864 71.6651ZM218.922 64.5804V63.4398H224.128V64.5804H218.922Z" fill="white"></path>
                                    <path d="M210.618 71.4724V63.4399H211.849L211.932 64.9178V71.4724H210.618ZM216.382 71.4724V67.3597H217.696V71.4724H216.382ZM216.382 67.3597C216.382 66.5672 216.289 65.9621 216.103 65.5444C215.917 65.1267 215.66 64.8429 215.331 64.6929C215.003 64.5323 214.631 64.452 214.215 64.452C213.492 64.452 212.928 64.7036 212.523 65.207C212.129 65.6997 211.932 66.4012 211.932 67.3116H211.291C211.291 66.4655 211.417 65.7372 211.669 65.1267C211.921 64.5162 212.287 64.0503 212.769 63.729C213.251 63.4077 213.831 63.2471 214.51 63.2471C215.156 63.2471 215.715 63.3756 216.185 63.6326C216.667 63.879 217.039 64.2752 217.302 64.8215C217.576 65.3677 217.707 66.0852 217.696 66.9742V67.3597H216.382Z" fill="white"></path>
                                    <path d="M205.25 71.6652C204.451 71.6652 203.745 71.4885 203.131 71.1351C202.518 70.7709 202.037 70.2729 201.686 69.641C201.347 69.0091 201.177 68.2808 201.177 67.4561C201.177 66.6315 201.347 65.9032 201.686 65.2713C202.037 64.6394 202.513 64.1467 203.115 63.7933C203.728 63.4291 204.429 63.2471 205.217 63.2471C205.984 63.2471 206.646 63.4345 207.205 63.8094C207.763 64.1735 208.195 64.6876 208.502 65.3516C208.809 66.0156 208.962 66.7975 208.962 67.6971H202.179L202.507 67.424C202.507 68.0666 202.622 68.6182 202.852 69.0787C203.093 69.5393 203.427 69.8927 203.854 70.139C204.281 70.3746 204.768 70.4925 205.316 70.4925C205.896 70.4925 206.383 70.3586 206.778 70.0908C207.183 69.8231 207.495 69.4696 207.714 69.0305L208.847 69.5928C208.639 70.0105 208.36 70.3746 208.009 70.6852C207.67 70.9958 207.265 71.2368 206.794 71.4082C206.334 71.5795 205.819 71.6652 205.25 71.6652ZM202.589 66.8778L202.245 66.6208H207.911L207.566 66.8939C207.566 66.3798 207.462 65.9353 207.254 65.5605C207.046 65.1856 206.767 64.8964 206.416 64.6929C206.066 64.4894 205.661 64.3877 205.201 64.3877C204.752 64.3877 204.325 64.4894 203.92 64.6929C203.526 64.8964 203.203 65.1856 202.951 65.5605C202.71 65.9246 202.589 66.3637 202.589 66.8778Z" fill="white"></path>
                                    <path d="M195.825 71.473L199.176 63.4404H200.555L197.123 71.473H195.825ZM195.743 71.473L192.311 63.4404H193.674L197.024 71.473H195.743Z" fill="white"></path>
                                    <path d="M189.766 71.4722L189.7 69.9781V60.2266H191.014V71.4722H189.766ZM186.924 71.6649C186.191 71.6649 185.545 71.4882 184.986 71.1348C184.428 70.7814 183.99 70.2887 183.672 69.6568C183.366 69.0142 183.212 68.2806 183.212 67.4559C183.212 66.6205 183.366 65.8868 183.672 65.255C183.99 64.6231 184.428 64.1304 184.986 63.777C185.545 63.4235 186.191 63.2468 186.924 63.2468C187.614 63.2468 188.216 63.4235 188.731 63.777C189.256 64.1304 189.661 64.6231 189.946 65.255C190.231 65.8868 190.373 66.6205 190.373 67.4559C190.373 68.2806 190.231 69.0142 189.946 69.6568C189.661 70.2887 189.256 70.7814 188.731 71.1348C188.216 71.4882 187.614 71.6649 186.924 71.6649ZM187.22 70.4922C187.702 70.4922 188.129 70.3637 188.501 70.1066C188.873 69.8496 189.163 69.4908 189.371 69.0303C189.59 68.5697 189.7 68.0449 189.7 67.4559C189.7 66.8668 189.59 66.342 189.371 65.8815C189.163 65.421 188.873 65.0622 188.501 64.8051C188.129 64.5481 187.696 64.4196 187.203 64.4196C186.689 64.4196 186.229 64.5481 185.824 64.8051C185.43 65.0622 185.118 65.421 184.888 65.8815C184.658 66.342 184.543 66.8668 184.543 67.4559C184.543 68.0449 184.658 68.5697 184.888 69.0303C185.118 69.4908 185.435 69.8496 185.84 70.1066C186.245 70.3637 186.705 70.4922 187.22 70.4922Z" fill="white"></path>
                                    <path d="M181.031 71.4722L176.416 60.2266H177.812L182.492 71.4722H181.031ZM171.686 71.4722L176.366 60.2266H177.779L173.164 71.4722H171.686ZM173.903 68.2752V67.0543H180.292V68.2752H173.903Z" fill="white"></path>
                                    <path d="M164.779 65.2873L163.219 62.9578L163.941 62.4598L165.715 64.6286L164.779 65.2873ZM162.332 65.3355L161.379 64.6607L163.169 62.492L163.892 63.006L162.332 65.3355ZM163.383 63.1506L160.64 62.4116L161.001 61.3353L163.662 62.3313L163.383 63.1506ZM163.087 62.749L162.939 59.9697H164.089L163.958 62.749H163.087ZM163.646 63.1667L163.399 62.3474L166.06 61.3674L166.405 62.4277L163.646 63.1667Z" fill="white"></path>
                                    <path d="M153.055 71.4722V60.2266H154.367V71.4722H153.055Z" fill="white"></path>
                                    <path d="M147.686 71.6652C146.886 71.6652 146.18 71.4885 145.567 71.1351C144.954 70.7709 144.472 70.2729 144.122 69.641C143.782 69.0091 143.613 68.2808 143.613 67.4561C143.613 66.6315 143.782 65.9032 144.122 65.2713C144.472 64.6394 144.948 64.1467 145.551 63.7933C146.164 63.4291 146.864 63.2471 147.653 63.2471C148.419 63.2471 149.082 63.4345 149.64 63.8094C150.199 64.1735 150.631 64.6876 150.938 65.3516C151.244 66.0156 151.397 66.7975 151.397 67.6971H144.614L144.943 67.424C144.943 68.0666 145.058 68.6182 145.288 69.0787C145.529 69.5393 145.863 69.8927 146.29 70.139C146.717 70.3746 147.204 70.4925 147.751 70.4925C148.332 70.4925 148.819 70.3586 149.213 70.0908C149.618 69.8231 149.93 69.4696 150.149 69.0305L151.282 69.5928C151.074 70.0105 150.795 70.3746 150.445 70.6852C150.105 70.9958 149.7 71.2368 149.229 71.4082C148.77 71.5795 148.255 71.6652 147.686 71.6652ZM145.025 66.8778L144.68 66.6208H150.346L150.001 66.8939C150.001 66.3798 149.897 65.9353 149.689 65.5605C149.481 65.1856 149.202 64.8964 148.852 64.6929C148.501 64.4894 148.096 64.3877 147.636 64.3877C147.187 64.3877 146.76 64.4894 146.355 64.6929C145.961 64.8964 145.638 65.1856 145.386 65.5605C145.145 65.9246 145.025 66.3637 145.025 66.8778Z" fill="white"></path>
                                    <path d="M138.261 71.473L141.612 63.4404H142.991L139.559 71.473H138.261ZM138.179 71.473L134.747 63.4404H136.11L139.46 71.473H138.179Z" fill="white"></path>
                                    <path d="M132.563 71.4724L132.497 70.1551V67.2312C132.497 66.5993 132.426 66.0799 132.284 65.6729C132.142 65.2552 131.917 64.9393 131.611 64.7251C131.304 64.5109 130.904 64.4038 130.412 64.4038C129.963 64.4038 129.574 64.4948 129.246 64.6769C128.928 64.8482 128.665 65.1267 128.457 65.5123L127.275 65.0624C127.483 64.6876 127.735 64.3663 128.03 64.0985C128.326 63.8201 128.671 63.6112 129.065 63.472C129.459 63.322 129.908 63.2471 130.412 63.2471C131.178 63.2471 131.808 63.397 132.3 63.6969C132.804 63.9861 133.182 64.4198 133.434 64.9982C133.685 65.5658 133.806 66.2727 133.795 67.1188L133.779 71.4724H132.563ZM130.1 71.6652C129.136 71.6652 128.381 71.451 127.833 71.0226C127.297 70.5835 127.028 69.9784 127.028 69.2072C127.028 68.3933 127.302 67.7721 127.85 67.3437C128.408 66.9046 129.185 66.685 130.182 66.685H132.53V67.7614H130.477C129.711 67.7614 129.163 67.8845 128.835 68.1309C128.517 68.3772 128.359 68.7306 128.359 69.1912C128.359 69.6089 128.517 69.9409 128.835 70.1872C129.152 70.4228 129.596 70.5406 130.165 70.5406C130.636 70.5406 131.047 70.4443 131.397 70.2515C131.747 70.048 132.016 69.7642 132.202 69.4C132.399 69.0252 132.497 68.5861 132.497 68.0827H133.056C133.056 69.1751 132.804 70.048 132.3 70.7013C131.797 71.3439 131.063 71.6652 130.1 71.6652Z" fill="white"></path>
                                    <path d="M122.677 67.1183C122.677 66.2508 122.847 65.5492 123.186 65.0137C123.526 64.4675 123.958 64.0659 124.484 63.8089C125.02 63.5411 125.584 63.4072 126.176 63.4072V64.6121C125.694 64.6121 125.228 64.6924 124.779 64.8531C124.342 65.003 123.98 65.2547 123.696 65.6082C123.411 65.9616 123.268 66.4435 123.268 67.054L122.677 67.1183ZM121.955 71.4719V63.4394H123.268V71.4719H121.955Z" fill="white"></path>
                                    <path d="M116.356 71.4722V61.4636H112.694V60.2266H121.398V61.4636H117.736V71.4722H116.356Z" fill="white"></path>
                                    <path d="M105.756 65.2873L104.195 62.9578L104.918 62.4598L106.692 64.6286L105.756 65.2873ZM103.309 65.3355L102.356 64.6607L104.146 62.492L104.869 63.006L103.309 65.3355ZM104.36 63.1506L101.617 62.4116L101.978 61.3353L104.639 62.3313L104.36 63.1506ZM104.064 62.749L103.916 59.9697H105.066L104.935 62.749H104.064ZM104.623 63.1667L104.376 62.3474L107.037 61.3674L107.382 62.4277L104.623 63.1667Z" fill="white"></path>
                                    <path d="M92.8135 67.1183C92.8135 66.2508 92.9832 65.5492 93.3226 65.0137C93.662 64.4675 94.0945 64.0659 94.6201 63.8089C95.1566 63.5411 95.7205 63.4072 96.3117 63.4072V64.6121C95.83 64.6121 95.3646 64.6924 94.9157 64.8531C94.4777 65.003 94.1164 65.2547 93.8317 65.6082C93.5471 65.9616 93.4047 66.4435 93.4047 67.054L92.8135 67.1183ZM92.0908 71.4719V63.4394H93.4047V71.4719H92.0908Z" fill="white"></path>
                                    <path d="M88.5651 71.473L88.483 69.995V63.4404H89.7969V71.473H88.5651ZM82.7183 67.5531V63.4404H84.0322V67.5531H82.7183ZM84.0322 67.5531C84.0322 68.3457 84.1252 68.9508 84.3114 69.3685C84.4975 69.7862 84.7548 70.0753 85.0833 70.236C85.4227 70.3859 85.8005 70.4609 86.2165 70.4609C86.9282 70.4609 87.4812 70.2092 87.8753 69.7058C88.2805 69.2025 88.483 68.5009 88.483 67.6013H89.1236C89.1236 68.4474 88.9976 69.1757 88.7458 69.7862C88.494 70.3966 88.1272 70.8625 87.6454 71.1838C87.1746 71.5051 86.5943 71.6658 85.9045 71.6658C85.2694 71.6658 84.711 71.5426 84.2293 71.2963C83.7475 71.0392 83.3752 70.6376 83.1124 70.0914C82.8497 69.5345 82.7183 68.8169 82.7183 67.9387V67.5531H84.0322Z" fill="white"></path>
                                    <path d="M77.0352 71.6652C76.2359 71.6652 75.5242 71.4885 74.9001 71.1351C74.2869 70.7709 73.8051 70.2729 73.4548 69.641C73.1044 69.0091 72.9292 68.2808 72.9292 67.4561C72.9292 66.6315 73.0989 65.9032 73.4383 65.2713C73.7887 64.6394 74.2705 64.1467 74.8836 63.7933C75.5077 63.4291 76.214 63.2471 77.0023 63.2471C77.8126 63.2471 78.5242 63.4291 79.1374 63.7933C79.7615 64.1467 80.2433 64.6394 80.5827 65.2713C80.9331 65.9032 81.1083 66.6315 81.1083 67.4561C81.1083 68.2808 80.9331 69.0091 80.5827 69.641C80.2433 70.2729 79.767 70.7709 79.1538 71.1351C78.5407 71.4885 77.8344 71.6652 77.0352 71.6652ZM77.0352 70.4764C77.5826 70.4764 78.0589 70.3479 78.464 70.0908C78.8691 69.8338 79.1867 69.4803 79.4166 69.0305C79.6575 68.5807 79.7779 68.0559 79.7779 67.4561C79.7779 66.8564 79.6575 66.3316 79.4166 65.8818C79.1867 65.4319 78.8637 65.0785 78.4476 64.8215C78.0315 64.5644 77.5498 64.4359 77.0023 64.4359C76.4658 64.4359 75.9895 64.5644 75.5734 64.8215C75.1683 65.0785 74.8453 65.4319 74.6044 65.8818C74.3745 66.3316 74.2595 66.8564 74.2595 67.4561C74.2595 68.0452 74.3745 68.57 74.6044 69.0305C74.8453 69.4803 75.1738 69.8338 75.5899 70.0908C76.0169 70.3479 76.4986 70.4764 77.0352 70.4764Z" fill="white"></path>
                                    <path d="M68.047 71.4722V61.4636H64.3845V60.2266H73.0891V61.4636H69.4266V71.4722H68.047Z" fill="white"></path>
                                </g>
                            </svg>