<svg width="40" height="40" viewBox="0 0 40 40" fill="none" xmlns="http://www.w3.org/2000/svg">
                                    <path d="M39.2186 19.9999C39.2186 9.38575 30.6141 0.78125 19.9999 0.78125C9.38575 0.78125 0.78125 9.38575 0.78125 19.9999C0.78125 26.9511 4.47155 33.0403 9.99996 36.4153C12.9132 38.1938 16.3369 39.2186 19.9999 39.2186C30.6142 39.2186 39.2186 30.6141 39.2186 19.9999Z" fill="#78D2FA"></path>
                                    <path d="M15.0162 22.0737L2.31934 27.5447C3.89839 31.2403 6.60166 34.3407 9.99993 36.4153C11.8914 37.5705 13.9695 38.3878 16.1412 38.8303L16.337 38.691L17.7322 36.1575H18.8313C20.0578 36.1575 21.052 35.1633 21.052 33.9368V32.8585C21.052 32.3874 21.2018 31.9286 21.4797 31.5482L18.4365 27.0029L15.0162 22.0737ZM19.9999 0.78125C16.2985 0.78125 12.8422 1.82859 9.90923 3.64171V4.13155L14.6828 5.94764C14.8898 6.02638 15.0669 6.16796 15.1893 6.35251C15.3117 6.53706 15.3733 6.75531 15.3653 6.97662C15.7497 8.08255 17.0232 8.59325 18.0653 8.05935L19.1024 7.51138C22.1148 5.91982 25.6771 8.35903 25.2832 11.7432L25.2735 11.8256C25.1767 12.6577 24.5863 13.3214 23.7935 13.5085C23.2577 13.6352 22.7221 13.7626 22.1866 13.8907C21.8293 13.9762 21.5038 14.162 21.2487 14.4264C20.9935 14.6907 20.8193 15.0225 20.7466 15.3827L20.0761 18.7021C19.8406 19.8684 20.7074 20.9674 21.8964 21.0102L22.7568 21.0412C23.0044 21.0501 23.2481 21.1066 23.4743 21.2078L28.1149 26.5982L27.6212 32.4464C27.5074 34.241 28.6051 35.6404 30.0396 36.1851L30.3153 36.2178C35.6681 32.806 39.2186 26.8178 39.2186 19.9999C39.2186 9.38575 30.6141 0.78125 19.9999 0.78125Z" fill="#A5DC69"></path>
                                    <path d="M15 23.4445C15 19.518 11.817 16.335 7.89062 16.335C3.96422 16.335 0.78125 19.518 0.78125 23.4445C0.78125 25.1466 1.37969 26.7088 2.37719 27.9328H2.37672L7.89062 35.0004L13.3782 27.9698H13.3741C14.3898 26.7404 15 25.1638 15 23.4445Z" fill="#F5B955"></path>
                                    <path d="M7.89062 27.3078C9.96169 27.3078 11.6406 25.6288 11.6406 23.5577C11.6406 21.4866 9.96169 19.8076 7.89062 19.8076C5.81956 19.8076 4.14062 21.4866 4.14062 23.5577C4.14062 25.6288 5.81956 27.3078 7.89062 27.3078Z" fill="white"></path>
                                    <path d="M39.2185 6.54961C39.2185 3.36382 36.636 0.78125 33.4503 0.78125C30.2646 0.78125 27.6821 3.36382 27.6821 6.54961C27.6821 7.93067 28.1677 9.19812 28.9771 10.1912H28.9767L33.4504 15.9256L37.9028 10.2213H37.8995C38.7235 9.22375 39.2185 7.94449 39.2185 6.54961Z" fill="#FF5A5A"></path>
                                    <path d="M33.4506 9.1518C34.8369 9.1518 35.9607 8.02793 35.9607 6.64157C35.9607 5.25521 34.8369 4.13135 33.4506 4.13135C32.0643 4.13135 30.9404 5.25521 30.9404 6.64157C30.9404 8.02793 32.0643 9.1518 33.4506 9.1518Z" fill="white"></path>
                                    <path d="M1.17819 16.0164C1.24265 16.0327 1.30725 16.0406 1.37085 16.0406C1.71983 16.0406 2.0378 15.805 2.12756 15.4513L2.15444 15.3465C2.26342 14.9289 2.01327 14.5022 1.59577 14.3933C1.17827 14.2844 0.751554 14.5345 0.64257 14.9519C0.63257 14.9902 0.622726 15.0286 0.613039 15.067C0.506945 15.4853 0.759991 15.9102 1.17819 16.0164ZM2.27327 12.521C2.37723 12.5703 2.49082 12.5958 2.60584 12.5958C2.7541 12.5959 2.89932 12.5538 3.02455 12.4744C3.14977 12.3951 3.24983 12.2817 3.31303 12.1476C4.72701 9.14817 6.90684 6.64411 9.55121 4.82561C9.57699 4.83889 9.60355 4.85115 9.63128 4.8617L14.4048 6.67771C14.4593 6.69842 14.5059 6.73569 14.5381 6.78427C14.5703 6.83286 14.5865 6.89031 14.5844 6.94857C14.581 7.04527 14.5955 7.14176 14.6272 7.23317C14.7544 7.59916 14.9587 7.9336 15.2261 8.21392C15.4936 8.49424 15.8181 8.71391 16.1778 8.85812C16.5374 9.00233 16.9238 9.06772 17.3108 9.04987C17.6979 9.03202 18.0766 8.93135 18.4214 8.75465L18.4301 8.75012L19.4673 8.20216C20.6207 7.59278 21.952 7.6688 23.0285 8.4059C24.1051 9.14301 24.6579 10.3568 24.5069 11.6529L24.4973 11.7352C24.4388 12.2377 24.092 12.6353 23.6137 12.7482C23.0772 12.875 22.5409 13.0026 22.0048 13.1309C20.9831 13.3752 20.1886 14.1983 19.9806 15.228L19.3102 18.5474C19.232 18.9326 19.2388 19.3303 19.3301 19.7126C19.4213 20.0949 19.5948 20.4527 19.8384 20.7612C20.0816 21.07 20.3891 21.3221 20.7397 21.5C21.0902 21.6778 21.4753 21.7771 21.8681 21.7909L22.7285 21.8219C22.8765 21.8272 23.0201 21.8606 23.1553 21.9211C23.2554 21.966 23.364 21.9893 23.4737 21.9894C23.6246 21.9894 23.7723 21.9457 23.899 21.8636C24.0256 21.7816 24.1258 21.6646 24.1874 21.5268C24.3635 21.1329 24.187 20.6708 23.7931 20.4947C23.4753 20.3522 23.1328 20.2727 22.7847 20.2605L21.9244 20.2295C21.7581 20.2237 21.5951 20.1817 21.4467 20.1064C21.2984 20.0311 21.1682 19.9244 21.0653 19.7937C20.9622 19.6631 20.8888 19.5117 20.8502 19.3499C20.8116 19.1881 20.8087 19.0198 20.8418 18.8568L21.5123 15.5374C21.5559 15.3235 21.6596 15.1265 21.8112 14.9694C21.9628 14.8124 22.156 14.7018 22.3682 14.6506C22.9029 14.5226 23.4378 14.3954 23.9729 14.2689C25.0815 14.0071 25.9161 13.0616 26.0495 11.9158L26.0591 11.8335C26.2783 9.95074 25.4754 8.18747 23.9113 7.11661C22.3473 6.04591 20.4132 5.93521 18.7374 6.82068L17.7051 7.36607C17.4063 7.51778 17.0706 7.5327 16.7595 7.40778C16.4809 7.29607 16.2654 7.08989 16.1435 6.82107C16.1211 6.46842 15.9976 6.12969 15.7878 5.84533C15.578 5.56097 15.2909 5.34298 14.9606 5.2174L11.2289 3.79772C13.8797 2.36038 16.8864 1.56257 19.9998 1.56257C22.0318 1.56257 24.0281 1.8907 25.9333 2.53796C26.0305 2.57097 26.1332 2.58452 26.2356 2.57784C26.3379 2.57116 26.438 2.54437 26.53 2.49902C26.6221 2.45366 26.7043 2.39062 26.7719 2.3135C26.8396 2.23637 26.8914 2.14667 26.9244 2.04952C27.0632 1.64101 26.8445 1.19726 26.436 1.05843C24.3686 0.35617 22.2031 0 19.9998 0C16.1331 0 12.381 1.10539 9.14886 3.19671C6.00138 5.23326 3.49467 8.09801 1.89967 11.4813C1.71577 11.8716 1.88296 12.3371 2.27327 12.521ZM38.2563 13.9276C37.8416 14.0468 37.6022 14.4796 37.7214 14.8943C38.1964 16.5462 38.4373 18.2639 38.4373 19.9999C38.4373 21.8902 38.1524 23.754 37.5909 25.5394C37.4614 25.9511 37.6901 26.3897 38.1016 26.5191C38.1776 26.5431 38.2567 26.5553 38.3363 26.5554C38.6684 26.5554 38.9764 26.3419 39.0813 26.0083C39.6907 24.0709 39.9997 22.0494 39.9997 19.9999C39.9997 18.1178 39.7384 16.2548 39.223 14.4625C39.1037 14.0478 38.6709 13.8083 38.2563 13.9276ZM37.0393 28.9482C36.7097 28.7529 36.2158 28.8081 35.9597 29.2379C35.9582 29.2404 35.9567 29.2429 35.9552 29.2454C35.7039 29.6781 35.8957 30.1366 36.2263 30.3299C36.3435 30.3984 36.4811 30.4354 36.6213 30.4354C36.8767 30.4354 37.1406 30.3127 37.3044 30.0342C37.5581 29.6029 37.3688 29.1433 37.0393 28.9482ZM34.8456 32.2305C34.5242 31.9428 34.0303 31.97 33.7424 32.2916C32.6841 33.4733 31.4775 34.5135 30.1528 35.3863C29.2518 34.9795 28.308 34.015 28.4004 32.5035L28.8934 26.6639C28.9297 26.234 28.6106 25.856 28.1807 25.8197C27.751 25.7847 27.3728 26.1025 27.3365 26.5325L26.8428 32.3807L26.8415 32.3969C26.7432 33.947 27.4329 35.3905 28.6268 36.2898C25.9946 37.6833 23.036 38.4374 19.9998 38.4374C19.1518 38.4371 18.305 38.3785 17.4651 38.262L18.1938 36.9389H18.8312C20.4865 36.9389 21.8331 35.5923 21.8331 33.937V32.8586C21.8331 32.5512 21.929 32.2575 22.1104 32.0093C22.365 31.661 22.289 31.1721 21.9406 30.9175C21.5922 30.663 21.1034 30.7389 20.8489 31.0874C20.472 31.6009 20.2694 32.2216 20.2707 32.8586V33.937C20.2707 34.7306 19.625 35.3764 18.8312 35.3764H17.7322C17.5924 35.3764 17.4551 35.4139 17.3348 35.4851C17.2144 35.5562 17.1153 35.6583 17.0479 35.7808L15.8456 37.964C14.1593 37.5753 12.5314 36.9515 11.0193 36.1064C10.6425 35.8961 10.1667 36.0306 9.95621 36.4074C9.74574 36.7841 9.88042 37.2599 10.2571 37.4704C13.2184 39.1252 16.5874 39.9999 19.9998 39.9999C25.6815 39.9999 31.1149 37.5702 34.9067 33.3337C35.1945 33.0121 35.1671 32.5182 34.8456 32.2305ZM33.4503 9.93262C35.265 9.93262 36.7414 8.45622 36.7414 6.64138C36.7414 4.82662 35.265 3.35022 33.4503 3.35022C31.6355 3.35022 30.1591 4.82662 30.1591 6.64138C30.1591 8.45614 31.6355 9.93262 33.4503 9.93262ZM33.4503 4.91271C34.4035 4.91271 35.1789 5.68818 35.1789 6.64138C35.1789 7.59458 34.4035 8.37012 33.4503 8.37012C32.4971 8.37012 31.7216 7.59458 31.7216 6.64138C31.7216 5.68818 32.4971 4.91271 33.4503 4.91271Z" fill="black"></path>
                                    <path d="M14.0251 28.4078C14.9456 27.271 15.5295 25.8965 15.7162 24.4532L17.7946 27.4488C17.8665 27.5526 17.9626 27.6374 18.0745 27.6959C18.1864 27.7544 18.3109 27.7849 18.4372 27.7847C18.5962 27.7848 18.7514 27.7361 18.8819 27.6452C19.2364 27.3993 19.3244 26.9125 19.0784 26.558L15.658 21.6285C15.623 21.5784 15.5822 21.5327 15.5366 21.4921C14.6655 18.0824 11.5678 15.5537 7.89059 15.5537C3.53975 15.5537 0 19.0936 0 23.4445C0 25.2466 0.623201 27.0076 1.75523 28.4061L1.76077 28.4134L7.27466 35.481C7.34771 35.5746 7.44114 35.6503 7.54785 35.7024C7.65456 35.7545 7.77173 35.7816 7.89048 35.7816C8.00922 35.7816 8.12641 35.7546 8.23313 35.7025C8.33985 35.6504 8.4333 35.5747 8.50637 35.4811L13.9939 28.4506C14.0049 28.4365 14.0153 28.4223 14.0251 28.4078ZM12.7173 27.5469L7.89083 33.7304L3.00819 27.472C3.00005 27.4609 2.99161 27.4499 2.98288 27.4392C2.06695 26.3154 1.56249 24.8967 1.56249 23.4445C1.56249 19.9551 4.40123 17.1162 7.89059 17.1162C11.38 17.1162 14.2187 19.9551 14.2187 23.4445C14.2187 24.9124 13.7048 26.3428 12.7717 27.4722C12.7521 27.496 12.7339 27.5209 12.7173 27.5469Z" fill="black"></path>
                                    <path d="M7.89061 19.0266C5.3921 19.0266 3.35938 21.0594 3.35938 23.5579C3.35938 26.0564 5.3921 28.0891 7.89061 28.0891C10.3891 28.0891 12.4218 26.0564 12.4218 23.5579C12.4218 21.0594 10.3892 19.0266 7.89061 19.0266ZM7.89061 26.5266C6.25366 26.5266 4.92187 25.1948 4.92187 23.5579C4.92187 21.9209 6.25366 20.5891 7.89061 20.5891C9.52755 20.5891 10.8593 21.9209 10.8593 23.5579C10.8593 25.1948 9.52763 26.5266 7.89061 26.5266ZM28.3562 10.6656L28.3608 10.6714L32.8345 16.4056C32.9075 16.4992 33.001 16.575 33.1077 16.6271C33.2144 16.6792 33.3316 16.7063 33.4503 16.7063H33.4504C33.5692 16.7063 33.6864 16.6792 33.7931 16.6271C33.8998 16.575 33.9932 16.4993 34.0663 16.4057L38.5187 10.7016C38.5283 10.6893 38.5374 10.6769 38.5462 10.6642C39.4841 9.50348 39.9999 8.04505 39.9999 6.54943C39.9999 2.93804 37.0618 0 33.4504 0C29.839 0 26.901 2.93804 26.901 6.54943C26.901 8.04427 27.4176 9.50504 28.3562 10.6656ZM33.4504 1.56249C36.2003 1.56249 38.4374 3.79967 38.4374 6.54943C38.4374 7.70614 38.0324 8.83325 37.2971 9.72332C37.2789 9.74535 37.2619 9.76838 37.2463 9.79231L33.4506 14.6551L29.6069 9.72848C29.5991 9.71786 29.5911 9.70747 29.5827 9.69731C28.861 8.81176 28.4635 7.6938 28.4635 6.54943C28.4635 3.79967 30.7006 1.56249 33.4504 1.56249ZM14.8393 32.2284L14.4861 32.3953C14.3021 32.4858 14.1611 32.6451 14.0935 32.8386C14.0259 33.0322 14.0371 33.2446 14.1247 33.43C14.2123 33.6155 14.3692 33.759 14.5617 33.8297C14.7542 33.9004 14.9668 33.8926 15.1535 33.808L15.5067 33.6411C15.8969 33.4568 16.0637 32.9912 15.8795 32.601C15.6951 32.211 15.2295 32.0443 14.8393 32.2284ZM33.4504 19.8515C33.0189 19.8515 32.6692 20.2013 32.6692 20.6327C32.6692 20.7335 32.6635 20.8352 32.6522 20.9347C32.6037 21.3634 32.9121 21.7502 33.3407 21.7987C33.3706 21.8021 33.4001 21.8037 33.4294 21.8037C33.8216 21.8037 34.1597 21.5091 34.2047 21.1102C34.2226 20.9516 34.2316 20.7922 34.2316 20.6327C34.2317 20.2013 33.8819 19.8515 33.4504 19.8515ZM27.9887 23.2812C27.5572 23.2812 27.2075 23.6311 27.2075 24.0625C27.2075 24.4939 27.5572 24.8437 27.9887 24.8437H28.3794C28.8108 24.8437 29.1606 24.4939 29.1606 24.0625C29.1606 23.6311 28.8108 23.2812 28.3794 23.2812H27.9887ZM31.3962 22.8966C31.3103 22.9489 31.2214 22.9963 31.1301 23.0385C30.7386 23.2197 30.568 23.6841 30.7493 24.0756C30.8119 24.211 30.912 24.3257 31.0378 24.406C31.1635 24.4863 31.3096 24.529 31.4588 24.5289C31.572 24.5288 31.6838 24.5041 31.7864 24.4565C31.9314 24.3894 32.0724 24.3142 32.2088 24.2312C32.5773 24.0068 32.6942 23.5262 32.4698 23.1576C32.2454 22.7891 31.7648 22.6724 31.3962 22.8966ZM19.6143 28.0876L19.4047 28.4173C19.1732 28.7815 19.2807 29.2643 19.6449 29.4958C19.7698 29.5756 19.915 29.6179 20.0632 29.6179C20.1948 29.618 20.3244 29.5849 20.4398 29.5216C20.5552 29.4583 20.6527 29.3668 20.7232 29.2557L20.9328 28.926C21.1643 28.5618 21.0568 28.079 20.6927 27.8475C20.3287 27.616 19.8458 27.7236 19.6143 28.0876ZM22.5788 24.8808C22.2148 24.6494 21.732 24.7568 21.5004 25.1208L21.2909 25.4504C21.0594 25.8146 21.1669 26.2974 21.531 26.5289C21.6176 26.584 21.7141 26.6215 21.8152 26.6393C21.9163 26.657 22.0198 26.6547 22.12 26.6324C22.2202 26.6101 22.315 26.5683 22.3989 26.5093C22.4829 26.4504 22.5545 26.3754 22.6095 26.2888L22.819 25.9592C23.0504 25.595 22.9429 25.1122 22.5788 24.8808ZM18.0181 30.7268L17.6649 30.8937C17.481 30.9843 17.3399 31.1435 17.2723 31.3371C17.2047 31.5307 17.2159 31.7431 17.3035 31.9285C17.3911 32.1139 17.5481 32.2574 17.7405 32.3281C17.933 32.3988 18.1456 32.3911 18.3324 32.3064L18.6856 32.1396C19.0757 31.9553 19.2425 31.4896 19.0583 31.0995C18.8738 30.7093 18.4082 30.5426 18.0181 30.7268ZM24.4731 23.2812C24.0416 23.2812 23.6919 23.6311 23.6919 24.0625C23.6919 24.4939 24.0416 24.8437 24.4731 24.8437H24.8637C25.2952 24.8437 25.645 24.4939 25.645 24.0625C25.645 23.6311 25.2952 23.2812 24.8637 23.2812H24.4731Z" fill="black"></path>
                                </svg>