<svg width="44" height="44" viewBox="0 0 44 44" fill="none" xmlns="http://www.w3.org/2000/svg">
                                            <path d="M10.9346 19.2387C10.9346 19.2387 11.6436 17.1762 11.7209 16.0805C11.7982 14.9848 16.9957 15.882 16.9957 15.882C16.9957 15.882 17.4091 18.2882 17.813 19.2387C18.2169 20.1892 16.151 24.0512 16.151 24.0512L11.885 22.8395L10.9346 19.2387Z" fill="#FFE3B8"></path>
                                            <path d="M27.0882 30.4287C27.0882 33.1013 27.0272 38.3736 26.9541 43.6631H1.79422C1.72031 38.3762 1.66016 33.1039 1.66016 30.4287C1.66016 23.9172 5.64938 22.2242 5.64938 22.2242L10.9345 19.2388C10.9345 19.2388 12.4092 21.0606 14.372 21.1217C16.3374 21.0606 17.8095 19.2388 17.8095 19.2388L23.0947 22.2242C23.0947 22.2242 27.0882 23.9172 27.0882 30.4287Z" fill="#85DB58"></path>
                                            <path d="M18.4138 11.9025C18.4138 13.8601 16.3625 18.3366 14.4057 18.3366C12.4489 18.3366 10.5522 13.8593 10.5522 11.9025C10.5522 9.94566 12.4489 8.3584 14.4057 8.3584C16.3625 8.3584 18.4138 9.9448 18.4138 11.9025Z" fill="#FFE3B8"></path>
                                            <path d="M18.2523 13.1741C18.2523 13.1741 18.6012 11.7329 18.3322 11.2276C18.1114 10.778 17.9461 10.3033 17.8398 9.8139C14.8139 11.0067 12.3957 8.86859 12.3957 8.86859C11.9411 10.1757 11.6858 10.7781 10.615 11.3608C10.4698 12.759 10.7869 13.4018 10.7869 13.4018C8.59292 12.4496 8.34972 9.02843 9.66972 7.72992C10.1535 7.25468 11.1358 6.98226 11.1358 6.98226C10.9983 6.36695 11.7563 5.08476 14.2553 4.96961C16.7544 4.85445 19.0163 6.22773 19.66 8.49304C20.6121 11.8549 18.2523 13.1741 18.2523 13.1741Z" fill="#B8746B"></path>
                                            <path d="M39.0705 16.2776C39.0705 20.0142 36.0412 21.0583 32.3055 21.0583C28.5698 21.0583 25.5405 20.0142 25.5405 16.2776C25.5405 12.5411 29.6965 7.17256 32.3055 9.06319C35.285 7.11069 39.0705 12.5411 39.0705 16.2776Z" fill="#FFC96D"></path>
                                            <path d="M28.875 22.2112C28.875 22.2112 30.4073 21.8245 30.464 19.4431C30.5207 17.0618 34.1464 19.4431 34.1464 19.4431C34.1464 19.4431 33.8387 21.5056 35.5102 22.0384C37.1817 22.5713 34.3191 26.2202 34.3191 26.2202L28.875 24.6733V22.2112Z" fill="#FFE3B8"></path>
                                            <path d="M32.2987 11.8594C31.0363 13.4492 28.8036 13.8059 28.8036 13.8059C28.7579 14.0362 28.7348 14.2705 28.7349 14.5054C28.7349 16.4777 30.3333 20.6473 32.3056 20.6473C34.2779 20.6473 35.8763 16.4777 35.8763 14.5054C35.8763 14.2705 35.8533 14.0362 35.8075 13.8059C34.1335 13.8076 32.2987 11.8594 32.2987 11.8594ZM42.3397 43.6614H38.8248L37.7652 38.3281H26.7188C26.7188 38.3281 25.8964 42.0982 25.5758 43.6631H24.8943C24.2541 42.7049 23.4918 40.3408 23.3793 38.3273C23.3793 33.3824 23.2933 28.4161 23.4093 27.231C23.7024 24.3014 26.0476 23.4214 26.0476 23.4214L29.5625 21.8066C29.5625 21.8066 32.2007 24.4449 34.9834 21.8066L38.353 23.4738C38.8686 23.6887 40.5968 24.7388 40.8452 27.2276C40.9629 28.4023 41.0738 33.2234 41.6418 38.3255C41.8438 40.1182 42.0947 41.9444 42.3397 43.6614Z" fill="#FFE3B8"></path>
                                            <path d="M39.6173 43.6615H24.8945C25.3474 41.2381 26.4337 39.2504 26.719 38.3257H37.7654C38.5986 40.0219 39.2206 41.8139 39.6173 43.6615Z" fill="#FF758B"></path>
                                            <path d="M36.8672 22.7366L34.9852 21.8076C32.2016 24.445 29.5642 21.8076 29.5642 21.8076L27.103 22.936L26.2969 29.6804L26.7197 38.3282H37.7661L38.1262 29.6821L36.8672 22.7366Z" fill="#FF758B"></path>
                                            <path d="M19.7251 37.0527C17.1246 39.5157 14.6616 37.0527 14.6616 37.0527L15.1274 34.9043H15.1351C15.6808 35.5987 16.346 36.0722 17.0636 36.0722C17.7812 36.0722 18.4386 35.6013 18.9886 34.9103L19.7251 37.0527Z" fill="#FFE3B8"></path>
                                            <path d="M20.4335 30.917V30.9556C20.4237 31.2236 20.3982 31.4908 20.3571 31.7557C20.3166 31.991 20.2636 32.224 20.1981 32.4535C19.954 33.3275 19.5295 34.2273 18.9906 34.9105C18.4518 35.5937 17.7806 36.0724 17.0656 36.0724C16.3506 36.0724 15.6829 35.5997 15.1372 34.9045C14.5915 34.2092 14.173 33.3172 13.9298 32.4415C13.9298 32.4346 13.9255 32.4243 13.9221 32.4106C13.8314 32.0336 13.7611 31.6521 13.7115 31.2676V31.253C13.7023 31.1384 13.6978 31.0258 13.6978 30.9153C13.6978 30.9153 14.7935 30.0215 15.3306 29.3521C15.3306 29.3521 17.5735 29.9914 18.8067 29.3521C18.8007 29.3529 19.6953 30.422 20.4335 30.917Z" fill="#FFE3B8"></path>
                                            <path d="M21.7335 29.9468C21.3236 31.1353 20.1952 32.4535 20.1952 32.4535C20.2674 32.2257 20.3206 31.9923 20.3542 31.7557C20.4014 31.4916 20.427 31.224 20.4307 30.9557V30.917C19.6925 30.4254 18.7979 29.3538 18.7979 29.3538C17.5655 29.9932 15.3217 29.3538 15.3217 29.3538C14.788 30.0232 13.6889 30.917 13.6889 30.917C13.6845 31.0298 13.6891 31.1427 13.7026 31.2547V31.2693C13.7372 31.656 13.8077 32.0387 13.9132 32.4123C13.9132 32.426 13.9192 32.4364 13.9209 32.4432C13.9206 32.447 13.9206 32.4507 13.9209 32.4544C13.9209 32.4544 12.4557 31.1911 12.3276 29.7594C12.2348 28.7101 13.2592 27.4511 14.2664 26.3846C15.7608 24.8034 17.0473 25.9275 17.0473 25.9275C17.6137 25.3792 18.4859 25.4118 19.6126 26.2068C20.7392 27.0017 22.1451 28.76 21.7335 29.9468Z" fill="#B8746B"></path>
                                            <path d="M25.2949 43.6616H8.81982C8.84732 43.005 8.87826 42.4739 8.91436 42.1147C9.1885 39.3776 11.3765 38.556 11.3765 38.556L14.6619 37.0513C14.6619 37.0513 17.124 39.5134 19.7244 37.0513L22.8723 38.6067C23.3527 38.8087 24.9675 39.7884 25.2012 42.1138C25.2365 42.4731 25.2657 43.005 25.2949 43.6616Z" fill="#ABF5FF"></path>
                                            <path d="M25.0629 8.58274C27.3396 8.58274 29.1853 6.73706 29.1853 4.46031C29.1853 2.18356 27.3396 0.337891 25.0629 0.337891C22.7861 0.337891 20.9404 2.18356 20.9404 4.46031C20.9404 6.73706 22.7861 8.58274 25.0629 8.58274Z" fill="white"></path>
                                            <path d="M5.96344 43.9999C5.87393 43.9999 5.78807 43.9645 5.72462 43.9013C5.66117 43.8382 5.6253 43.7525 5.62484 43.663L5.57328 29.3115C5.5726 29.2667 5.5808 29.2223 5.5974 29.1807C5.614 29.1391 5.63868 29.1013 5.67001 29.0693C5.70133 29.0373 5.73869 29.0119 5.77991 28.9945C5.82113 28.977 5.8654 28.9679 5.91016 28.9677C5.95462 28.9675 5.9987 28.976 6.03986 28.9928C6.08103 29.0096 6.11848 29.0344 6.15008 29.0657C6.18168 29.097 6.20681 29.1342 6.22404 29.1751C6.24126 29.2161 6.25024 29.2601 6.25047 29.3046L6.30203 43.6562C6.30271 43.7009 6.29452 43.7453 6.27791 43.7869C6.26131 43.8285 6.23663 43.8663 6.2053 43.8983C6.17398 43.9303 6.13662 43.9557 6.0954 43.9731C6.05418 43.9906 6.00991 43.9997 5.96516 43.9999H5.96344ZM25.063 4.79865C24.9732 4.79865 24.8871 4.76298 24.8236 4.69948C24.7601 4.63598 24.7245 4.54986 24.7245 4.46006V1.85959C24.7245 1.76979 24.7601 1.68367 24.8236 1.62017C24.8871 1.55667 24.9732 1.521 25.063 1.521C25.1528 1.521 25.239 1.55667 25.3025 1.62017C25.366 1.68367 25.4016 1.76979 25.4016 1.85959V3.776L26.5549 2.89084C26.5901 2.86223 26.6307 2.84098 26.6742 2.82834C26.7177 2.81571 26.7634 2.81195 26.8084 2.81728C26.8534 2.82261 26.8969 2.83694 26.9363 2.8594C26.9757 2.88186 27.0102 2.912 27.0377 2.94804C27.0652 2.98407 27.0852 3.02526 27.0965 3.06917C27.1078 3.11308 27.1101 3.15881 27.1034 3.20365C27.0967 3.24849 27.0811 3.29153 27.0574 3.3302C27.0337 3.36888 27.0026 3.40241 26.9657 3.42881L25.2659 4.72646C25.2079 4.77201 25.1367 4.79736 25.063 4.79865ZM23.0641 4.79865H22.3019C22.2121 4.79865 22.126 4.76298 22.0625 4.69948C21.999 4.63598 21.9633 4.54986 21.9633 4.46006C21.9633 4.37026 21.999 4.28414 22.0625 4.22064C22.126 4.15714 22.2121 4.12146 22.3019 4.12146H23.065C23.1548 4.12146 23.2409 4.15714 23.3044 4.22064C23.3679 4.28414 23.4036 4.37026 23.4036 4.46006C23.4036 4.54986 23.3679 4.63598 23.3044 4.69948C23.2409 4.76298 23.1548 4.79865 23.065 4.79865H23.0641ZM25.063 7.7085C24.9732 7.7085 24.8871 7.67282 24.8236 7.60932C24.7601 7.54583 24.7245 7.4597 24.7245 7.3699V6.58787C24.7245 6.49807 24.7601 6.41195 24.8236 6.34845C24.8871 6.28495 24.9732 6.24928 25.063 6.24928C25.1528 6.24928 25.239 6.28495 25.3025 6.34845C25.366 6.41195 25.4016 6.49807 25.4016 6.58787V7.3699C25.4016 7.4597 25.366 7.54583 25.3025 7.60932C25.239 7.67282 25.1528 7.7085 25.063 7.7085ZM28.1018 4.79865H27.4727C27.3829 4.79865 27.2968 4.76298 27.2333 4.69948C27.1698 4.63598 27.1341 4.54986 27.1341 4.46006C27.1341 4.37026 27.1698 4.28414 27.2333 4.22064C27.2968 4.15714 27.3829 4.12146 27.4727 4.12146H28.1018C28.1916 4.12146 28.2777 4.15714 28.3412 4.22064C28.4047 4.28414 28.4404 4.37026 28.4404 4.46006C28.4404 4.54986 28.4047 4.63598 28.3412 4.69948C28.2777 4.76298 28.1916 4.79865 28.1018 4.79865Z" fill="black"></path>
                                            <path d="M1.7102 37.3913C1.62173 37.3904 1.53713 37.3549 1.47449 37.2925C1.41185 37.23 1.37616 37.1455 1.37504 37.057C1.34152 34.075 1.3252 31.8458 1.3252 30.4295C1.3252 26.9671 2.45098 24.8436 3.39457 23.6731C4.3648 22.4648 5.34277 21.9913 5.50004 21.9217L10.7706 18.9448C10.8408 18.9059 10.9225 18.8932 11.0012 18.9089C11.0799 18.9247 11.1505 18.9678 11.2003 19.0308C11.214 19.0471 12.5993 20.7263 14.38 20.7873C16.164 20.7255 17.5425 19.048 17.5596 19.0308C17.6095 18.9678 17.68 18.9247 17.7587 18.9089C17.8374 18.8932 17.9191 18.9059 17.9893 18.9448L23.2599 21.9226C23.4154 21.993 24.3925 22.4657 25.3662 23.6731C25.418 23.7434 25.4407 23.8309 25.4295 23.9175C25.4183 24.0041 25.3741 24.083 25.3062 24.1377C25.2382 24.1925 25.1517 24.2189 25.0647 24.2114C24.9778 24.204 24.897 24.1632 24.8394 24.0976C23.9061 22.9401 22.9849 22.5405 22.9763 22.5362L22.9419 22.519L17.8948 19.6676C17.4153 20.178 16.0901 21.4069 14.3937 21.4594H14.3731C12.6775 21.4069 11.3515 20.178 10.872 19.6676L5.81629 22.5155L5.78191 22.5327C5.77332 22.5327 4.82629 22.9547 3.89129 24.1269C3.02762 25.2114 2.00066 27.1845 2.00066 30.4261C2.00066 31.8398 2.01785 34.0673 2.05051 37.0433C2.05119 37.0878 2.04308 37.132 2.02663 37.1734C2.01019 37.2148 1.98574 37.2526 1.95469 37.2845C1.92364 37.3164 1.88659 37.3419 1.84566 37.3595C1.80474 37.3771 1.76075 37.3865 1.71621 37.387L1.7102 37.3913ZM1.79441 43.9999C1.7055 43.9999 1.62015 43.965 1.5568 43.9026C1.49344 43.8402 1.45717 43.7554 1.45582 43.6665C1.43262 42.0148 1.41113 40.3656 1.39223 38.7955C1.39154 38.751 1.39966 38.7068 1.4161 38.6654C1.43254 38.624 1.45699 38.5862 1.48804 38.5543C1.5191 38.5224 1.55615 38.4969 1.59707 38.4793C1.63799 38.4617 1.68198 38.4523 1.72652 38.4518C1.81558 38.4518 1.90106 38.4869 1.96444 38.5494C2.02782 38.612 2.06399 38.697 2.06512 38.7861C2.08402 40.3553 2.10551 42.0053 2.12871 43.6562C2.12939 43.7006 2.12131 43.7448 2.10492 43.7861C2.08853 43.8275 2.06416 43.8652 2.0332 43.8971C2.00223 43.929 1.96528 43.9545 1.92446 43.9722C1.88364 43.9898 1.83974 43.9992 1.79527 43.9999H1.79441ZM42.3389 43.9999C42.2576 43.9997 42.179 43.9702 42.1176 43.9169C42.0563 43.8636 42.0161 43.7899 42.0046 43.7094C41.8404 42.5587 41.629 41.0454 41.4451 39.5432C41.4337 39.4541 41.4582 39.3641 41.5131 39.293C41.5681 39.2219 41.649 39.1756 41.7382 39.1642C41.8273 39.1528 41.9173 39.1773 41.9883 39.2322C42.0594 39.2872 42.1058 39.3681 42.1171 39.4573C42.2993 40.9534 42.5107 42.4651 42.674 43.6098C42.6809 43.6578 42.6774 43.7068 42.6637 43.7533C42.6501 43.7999 42.6265 43.843 42.5947 43.8796C42.563 43.9163 42.5237 43.9457 42.4795 43.9659C42.4354 43.986 42.3874 43.9965 42.3389 43.9965V43.9999Z" fill="black"></path>
                                            <path d="M23.3794 39.087C23.2896 39.087 23.2035 39.0513 23.14 38.9878C23.0765 38.9243 23.0408 38.8382 23.0408 38.7484C23.0408 37.1731 23.0322 35.5781 23.0236 34.0356C23.0056 30.8077 22.9901 28.0199 23.0726 27.1949C23.3751 24.1717 25.6997 23.192 25.9154 23.1069L29.4216 21.499C29.4845 21.4702 29.5547 21.4614 29.6228 21.4737C29.6908 21.4859 29.7535 21.5188 29.8024 21.5678C29.9003 21.6649 32.2464 23.9362 34.7515 21.5617C34.8018 21.5141 34.8655 21.483 34.9341 21.4727C35.0026 21.4624 35.0727 21.4734 35.1348 21.5042L38.5001 23.167C38.7003 23.253 40.8952 24.2713 41.1873 27.1949C41.2234 27.5593 41.2552 28.2159 41.2999 29.1251C41.3962 31.118 41.5577 34.4532 41.9531 37.9999C41.959 38.0445 41.9559 38.09 41.9441 38.1335C41.9323 38.1769 41.9118 38.2176 41.8841 38.2531C41.8563 38.2886 41.8217 38.3182 41.7823 38.3402C41.743 38.3621 41.6996 38.376 41.6548 38.381C41.61 38.386 41.5647 38.3819 41.5214 38.3692C41.4782 38.3564 41.438 38.3351 41.4031 38.3066C41.3682 38.278 41.3393 38.2428 41.3182 38.203C41.2971 38.1632 41.2842 38.1195 41.2802 38.0746C40.8831 34.5065 40.7207 31.1584 40.6245 29.1578C40.5806 28.2588 40.5497 27.6109 40.5145 27.262C40.2566 24.6606 38.311 23.8245 38.2285 23.7867L38.2088 23.7781L35.0463 22.2131C34.107 23.0364 33.184 23.3166 32.3633 23.3166C31.0029 23.3166 29.9227 22.5483 29.5093 22.2063L26.193 23.7265L26.1706 23.736C26.0847 23.7695 24.0222 24.5885 23.7506 27.2594C23.6716 28.0492 23.687 30.8206 23.7051 34.0295C23.7137 35.5764 23.7223 37.168 23.7223 38.7458C23.7226 38.7908 23.714 38.8355 23.6968 38.8772C23.6797 38.9188 23.6544 38.9567 23.6225 38.9884C23.5906 39.0202 23.5526 39.0453 23.5109 39.0622C23.4691 39.0791 23.4244 39.0875 23.3794 39.087Z" fill="black"></path>
                                            <path d="M39.6172 43.9999C39.5398 43.9998 39.4648 43.9733 39.4046 43.9247C39.3444 43.876 39.3027 43.8083 39.2864 43.7326C38.9049 41.9822 38.3247 40.2811 37.5573 38.6623H26.9612C26.8692 38.9115 26.7446 39.2071 26.5968 39.5578C26.1882 40.4827 25.8366 41.4318 25.5441 42.3997C25.5327 42.4434 25.5126 42.4844 25.4851 42.5202C25.4576 42.556 25.4232 42.586 25.3839 42.6083C25.3447 42.6306 25.3014 42.6449 25.2565 42.6502C25.2117 42.6555 25.1662 42.6519 25.1228 42.6394C25.0794 42.6269 25.039 42.6058 25.0038 42.5774C24.9687 42.5491 24.9396 42.514 24.9182 42.4742C24.8968 42.4344 24.8837 42.3907 24.8794 42.3458C24.8752 42.3008 24.88 42.2554 24.8935 42.2124C25.1932 41.2186 25.5536 40.2443 25.9729 39.2948C26.1568 38.8608 26.3167 38.4861 26.3957 38.2249C26.4172 38.1559 26.4601 38.0956 26.5182 38.0528C26.5763 38.01 26.6466 37.9869 26.7189 37.9868H37.7653C37.8268 37.9869 37.8872 38.0037 37.9399 38.0355C37.9925 38.0673 38.0356 38.1129 38.0643 38.1673C38.9135 39.8901 39.5456 41.7115 39.9464 43.5899C39.957 43.6392 39.9565 43.6902 39.9449 43.7392C39.9333 43.7882 39.9109 43.834 39.8794 43.8733C39.8478 43.9125 39.8079 43.9443 39.7626 43.9662C39.7172 43.9881 39.6676 43.9996 39.6172 43.9999Z" fill="black"></path>
                                            <path d="M25.2947 43.9999C25.2074 43.9997 25.1235 43.9659 25.0606 43.9053C24.9977 43.8448 24.9606 43.7623 24.957 43.675C24.9295 42.9979 24.8986 42.4848 24.8651 42.1496C24.6227 39.7365 22.8189 38.9536 22.7424 38.921L22.7235 38.9124L19.7827 37.4583C17.4564 39.4839 15.2409 37.9739 14.605 37.4514L11.5155 38.8651L11.4932 38.8746C11.4133 38.9055 9.49771 39.6669 9.2485 42.1496C9.21498 42.4822 9.18404 42.9953 9.15568 43.675C9.15519 43.7203 9.14561 43.7651 9.12751 43.8066C9.1094 43.8482 9.08315 43.8857 9.05029 43.9169C9.01743 43.9481 8.97865 43.9724 8.93623 43.9883C8.89382 44.0043 8.84863 44.0115 8.80335 44.0097C8.75808 44.0078 8.71363 43.9969 8.67265 43.9776C8.63167 43.9583 8.59498 43.9309 8.56477 43.8971C8.53455 43.8634 8.51143 43.8239 8.49675 43.781C8.48208 43.7381 8.47617 43.6927 8.47936 43.6475C8.50857 42.9446 8.53951 42.4324 8.57475 42.0826C8.85834 39.2467 11.0351 38.328 11.2388 38.2464L14.5233 36.745C14.5862 36.7162 14.6564 36.7074 14.7245 36.7197C14.7925 36.732 14.8552 36.7648 14.904 36.8138C14.9951 36.8997 17.1702 39.0086 19.4948 36.8078C19.5451 36.7603 19.6086 36.7293 19.677 36.719C19.7454 36.7087 19.8152 36.7196 19.8772 36.7502L23.0157 38.3014C23.8527 38.6571 25.3154 39.8482 25.5405 42.0826C25.5749 42.4315 25.6067 42.9575 25.6351 43.6475C25.6388 43.7372 25.6068 43.8247 25.546 43.8908C25.4852 43.9568 25.4007 43.9961 25.3111 43.9999H25.2947ZM10.9346 19.5773C10.8807 19.5772 10.8277 19.5643 10.7798 19.5396C10.7319 19.5149 10.6907 19.4791 10.6594 19.4352C10.6281 19.3913 10.6078 19.3407 10.6 19.2873C10.5923 19.234 10.5974 19.1797 10.6149 19.1287C10.6218 19.1089 11.311 17.0971 11.384 16.0573C11.3865 16.0125 11.3979 15.9687 11.4175 15.9283C11.4371 15.8879 11.4645 15.8519 11.4982 15.8222C11.5318 15.7925 11.5711 15.7698 11.6136 15.7555C11.6561 15.7411 11.701 15.7353 11.7457 15.7384C11.7905 15.7415 11.8342 15.7535 11.8743 15.7737C11.9143 15.7939 11.95 15.8218 11.9792 15.8559C12.0084 15.8899 12.0305 15.9295 12.0443 15.9722C12.0581 16.0149 12.0633 16.0599 12.0595 16.1046C11.9796 17.2338 11.2861 19.2628 11.2551 19.3487C11.2322 19.4155 11.189 19.4734 11.1315 19.5144C11.074 19.5554 11.0052 19.5774 10.9346 19.5773ZM17.8139 19.5773C17.7474 19.5774 17.6823 19.5578 17.6269 19.5212C17.5714 19.4845 17.5279 19.4323 17.5019 19.3711C17.0826 18.3845 16.8385 16.0195 16.8282 15.9155C16.82 15.8266 16.8473 15.738 16.9041 15.6691C16.9609 15.6002 17.0426 15.5566 17.1314 15.5476C17.2202 15.5387 17.309 15.5652 17.3784 15.6213C17.4478 15.6775 17.4922 15.7589 17.5019 15.8476C17.5019 15.8708 17.7451 18.2135 18.125 19.1064C18.1468 19.1578 18.1556 19.2139 18.1505 19.2695C18.1454 19.3252 18.1266 19.3787 18.0958 19.4253C18.065 19.472 18.0232 19.5103 17.974 19.5368C17.9248 19.5633 17.8698 19.5772 17.8139 19.5773Z" fill="black"></path>
                                            <path d="M14.4057 18.6751C12.5306 18.6751 10.9906 15.4954 10.4603 13.4948C10.4479 13.4514 10.4443 13.406 10.4497 13.3612C10.4551 13.3165 10.4693 13.2732 10.4916 13.234C10.514 13.1949 10.5439 13.1605 10.5796 13.1331C10.6154 13.1056 10.6563 13.0856 10.6999 13.0741C10.7435 13.0627 10.789 13.0601 10.8336 13.0664C10.8783 13.0728 10.9212 13.088 10.9599 13.1112C10.9985 13.1343 11.0322 13.165 11.0589 13.2014C11.0855 13.2377 11.1047 13.279 11.1152 13.3229C11.7167 15.5813 13.1777 17.9996 14.4066 17.9996C15.6905 17.9996 17.3095 15.4051 17.8991 13.0857C17.9084 13.041 17.9267 12.9986 17.9529 12.9612C17.979 12.9237 18.0125 12.8919 18.0513 12.8677C18.09 12.8436 18.1333 12.8275 18.1784 12.8204C18.2236 12.8134 18.2697 12.8156 18.3139 12.8268C18.3582 12.8381 18.3998 12.8582 18.4361 12.8859C18.4724 12.9137 18.5027 12.9485 18.5252 12.9882C18.5477 13.028 18.5619 13.0719 18.567 13.1173C18.5721 13.1627 18.5679 13.2087 18.5548 13.2524C17.9979 15.4387 16.2955 18.6751 14.4057 18.6751Z" fill="black"></path>
                                            <path d="M10.7852 13.7499C10.7397 13.7499 10.6946 13.7405 10.6529 13.7224C9.59584 13.2634 8.84818 12.2434 8.60412 10.9225C8.35576 9.58274 8.68147 8.2404 9.43342 7.50134C9.81326 7.12837 10.4354 6.87399 10.7861 6.75196C10.8208 6.44353 10.9427 6.15139 11.1376 5.90977C11.4693 5.47149 12.314 4.72641 14.2408 4.64048C16.9564 4.51415 19.3214 6.06704 19.9865 8.41313C20.5116 10.2634 20.0656 11.5352 19.599 12.2803C19.3021 12.7641 18.8974 13.1726 18.4165 13.474C18.3649 13.5027 18.3068 13.5175 18.2478 13.5169C18.1888 13.5163 18.1309 13.5002 18.0801 13.4703C18.0292 13.4404 17.987 13.3978 17.9576 13.3466C17.9283 13.2954 17.9129 13.2374 17.9129 13.1784C17.9131 13.1512 17.9162 13.1241 17.9223 13.0976C18.0736 12.4539 18.1629 11.6366 18.0323 11.3917L18.0263 11.3797C17.8517 11.0201 17.708 10.6464 17.5966 10.2625C15.266 11.0084 13.3479 9.97118 12.5547 9.42462C12.192 10.4138 11.8569 11.0274 10.9304 11.5731C10.8394 12.7152 11.0851 13.2549 11.0877 13.26C11.112 13.3117 11.1231 13.3687 11.1198 13.4258C11.1165 13.4828 11.0991 13.5382 11.0691 13.5868C11.039 13.6355 10.9974 13.6758 10.9478 13.7043C10.8982 13.7328 10.8424 13.7484 10.7852 13.7499ZM14.5467 5.31337C14.4556 5.31337 14.3639 5.31537 14.2717 5.31938C12.5572 5.39845 11.8844 6.04555 11.6747 6.3197C11.4787 6.57751 11.4401 6.80266 11.4667 6.92126C11.4855 7.0059 11.4711 7.09453 11.4265 7.16887C11.3819 7.24322 11.3105 7.29762 11.2269 7.32087C10.9769 7.39048 10.2515 7.64657 9.90779 7.9843C9.32084 8.56095 9.06475 9.69188 9.27014 10.7988C9.41623 11.5868 9.76857 12.2416 10.2696 12.6842C10.2241 12.2358 10.227 11.7837 10.2782 11.3359C10.2842 11.2823 10.303 11.231 10.3329 11.1861C10.3628 11.1413 10.403 11.1042 10.4501 11.0781C11.4246 10.5444 11.6394 10.0167 12.0734 8.76805C12.0917 8.71555 12.1225 8.66835 12.1633 8.63061C12.2041 8.59287 12.2536 8.56576 12.3074 8.55166C12.3611 8.53756 12.4175 8.53691 12.4716 8.54977C12.5257 8.56263 12.5757 8.58861 12.6174 8.6254C12.7102 8.70618 14.924 10.6071 17.7135 9.50712C17.7603 9.48879 17.8106 9.4811 17.8607 9.48462C17.9108 9.48814 17.9595 9.50277 18.0033 9.52745C18.0471 9.55213 18.0848 9.58625 18.1138 9.62733C18.1427 9.6684 18.1622 9.71541 18.1707 9.76493C18.2719 10.2225 18.4271 10.6665 18.633 11.0875C18.7886 11.3866 18.792 11.8661 18.7447 12.3164C19.2836 11.6874 19.8731 10.5117 19.3343 8.60993C18.7783 6.63337 16.8309 5.30993 14.5467 5.30993V5.31337ZM30.1753 21.2591C30.1593 21.2602 30.1432 21.2602 30.1272 21.2591C26.8615 20.7916 25.2021 19.1166 25.2021 16.2807C25.2021 15.344 25.4487 14.2741 25.9154 13.187C25.9513 13.1052 26.0181 13.041 26.1012 13.0083C26.1843 12.9755 26.2769 12.977 26.3589 13.0122C26.441 13.0474 26.5058 13.1137 26.5392 13.1964C26.5727 13.2792 26.5721 13.3719 26.5376 13.4542C26.1079 14.4571 25.8793 15.4308 25.8793 16.2807C25.8793 18.7617 27.2998 20.1702 30.2234 20.5888C30.3081 20.6009 30.385 20.6447 30.4388 20.7113C30.4925 20.7778 30.5191 20.8623 30.5131 20.9476C30.5071 21.033 30.469 21.1129 30.4065 21.1713C30.344 21.2297 30.2617 21.2623 30.1762 21.2625L30.1753 21.2591ZM34.3244 21.2745C34.239 21.2737 34.1571 21.2407 34.0951 21.182C34.0331 21.1234 33.9955 21.0435 33.9898 20.9584C33.9842 20.8732 34.0109 20.7891 34.0646 20.7228C34.1184 20.6565 34.1952 20.6129 34.2797 20.6008C37.2754 20.2012 38.7321 18.7875 38.7321 16.2773C38.7321 13.7309 36.9094 10.4275 34.9087 9.34641C34.0296 8.87118 33.2158 8.87118 32.4904 9.34641C32.4331 9.38419 32.3657 9.4036 32.297 9.40207C32.2284 9.40053 32.1619 9.37812 32.1063 9.33782C31.9065 9.19191 31.6774 9.091 31.4348 9.04205C31.1923 8.99309 30.942 8.99725 30.7012 9.05423C29.5428 9.29313 28.1884 10.5057 27.1666 12.2202C27.1182 12.2912 27.0445 12.3412 26.9606 12.3599C26.8766 12.3786 26.7887 12.3646 26.7147 12.3209C26.6406 12.2771 26.586 12.2069 26.5619 12.1243C26.5378 12.0418 26.546 11.9531 26.5848 11.8764C27.7175 9.97548 29.2051 8.67352 30.5646 8.39423C31.1601 8.25492 31.7865 8.3513 32.3126 8.66321C33.202 8.16821 34.2032 8.19743 35.2344 8.74915C37.4602 9.95227 39.4136 13.4688 39.4136 16.2756C39.4136 19.1441 37.718 20.8242 34.3733 21.2702C34.3571 21.2729 34.3408 21.2743 34.3244 21.2745Z" fill="black"></path>
                                            <path d="M35.829 22.5628C35.7845 22.5629 35.7404 22.5543 35.6992 22.5373C35.6581 22.5203 35.6207 22.4954 35.5892 22.4639C35.5372 22.4156 35.4745 22.3803 35.4062 22.3608C33.8679 21.8701 33.6874 20.2055 33.812 19.3934C33.8278 19.3069 33.8765 19.2299 33.948 19.1788C34.0195 19.1276 34.1081 19.1062 34.195 19.1192C34.282 19.1321 34.3605 19.1784 34.4139 19.2481C34.4674 19.3179 34.4916 19.4058 34.4815 19.4931C34.4703 19.5687 34.2417 21.2789 35.6124 21.7163C35.7833 21.7683 35.9392 21.8606 36.067 21.9853C36.1142 22.0327 36.1463 22.093 36.1593 22.1586C36.1722 22.2242 36.1655 22.2922 36.1398 22.354C36.1142 22.4158 36.0708 22.4686 36.0152 22.5057C35.9595 22.5429 35.8942 22.5627 35.8273 22.5628H35.829ZM29.5521 22.1503C29.4836 22.1502 29.4168 22.1294 29.3604 22.0905C29.304 22.0517 29.2607 21.9967 29.2362 21.9327C29.2118 21.8688 29.2072 21.7989 29.2233 21.7324C29.2393 21.6658 29.2752 21.6057 29.3261 21.5599C29.6759 21.2462 30.0995 20.624 30.1262 19.4355C30.1283 19.3457 30.1661 19.2604 30.2311 19.1985C30.2633 19.1678 30.3012 19.1438 30.3427 19.1277C30.3842 19.1117 30.4285 19.104 30.4729 19.1051C30.5174 19.1062 30.5612 19.116 30.6019 19.134C30.6425 19.152 30.6793 19.1778 30.71 19.21C30.7406 19.2422 30.7647 19.2802 30.7807 19.3216C30.7967 19.3631 30.8044 19.4074 30.8034 19.4518C30.7698 20.8818 30.2276 21.6621 29.779 22.0643C29.7167 22.1202 29.6358 22.1508 29.5521 22.1503Z" fill="black"></path>
                                            <path d="M32.3059 20.9888C30.087 20.9888 28.3966 16.6696 28.3966 14.5083C28.3967 14.2512 28.422 13.9947 28.4722 13.7426C28.4857 13.6743 28.52 13.6118 28.5703 13.5637C28.6205 13.5156 28.6844 13.4841 28.7533 13.4736C28.8332 13.4598 30.8879 13.0955 32.0343 11.6517C32.0646 11.6137 32.1026 11.5827 32.1459 11.5607C32.1891 11.5387 32.2366 11.5263 32.2851 11.5242C32.3336 11.5222 32.382 11.5306 32.4269 11.5489C32.4719 11.5672 32.5124 11.5949 32.5457 11.6302C32.5629 11.6483 34.3014 13.4702 35.8113 13.4702C35.8896 13.4702 35.9654 13.4974 36.0258 13.5471C36.0863 13.5968 36.1277 13.6658 36.143 13.7426C36.1932 13.9947 36.2185 14.2512 36.2186 14.5083C36.2152 16.6722 34.5248 20.9888 32.3059 20.9888ZM29.1004 14.0898C29.0823 14.2285 29.0731 14.3683 29.0729 14.5083C29.0729 15.4768 29.488 16.9807 30.0827 18.1675C30.7702 19.5305 31.5763 20.3159 32.305 20.3159C33.0338 20.3159 33.8442 19.5339 34.5274 18.1675C35.1221 16.9816 35.5372 15.4768 35.5372 14.5083C35.5371 14.3819 35.5296 14.2557 35.5148 14.1302C34.1854 13.9815 32.8679 12.8738 32.3171 12.3564C31.242 13.5028 29.7347 13.948 29.1004 14.0898ZM37.7664 38.6653H26.72C26.6331 38.6652 26.5496 38.6317 26.4867 38.5717C26.4238 38.5117 26.3864 38.4298 26.3822 38.3431L25.9611 29.6969C25.9596 29.678 25.9596 29.659 25.9611 29.6402L26.7647 22.8958C26.7716 22.8383 26.7932 22.7835 26.8273 22.7367C26.8615 22.6899 26.9071 22.6527 26.9597 22.6285L29.421 21.5002C29.4839 21.4714 29.5541 21.4625 29.6221 21.4748C29.6902 21.4871 29.7528 21.5199 29.8017 21.5689C29.8997 21.666 32.2449 23.9365 34.7508 21.5629C34.8011 21.5154 34.8646 21.4844 34.933 21.4741C35.0014 21.4638 35.0713 21.4747 35.1333 21.5053L37.0136 22.43C37.0608 22.4534 37.102 22.4874 37.1338 22.5295C37.1656 22.5716 37.1871 22.6205 37.1966 22.6723L38.459 29.6161C38.4635 29.6407 38.4653 29.6658 38.4642 29.6909L38.1041 38.337C38.1014 38.4249 38.0647 38.5083 38.0017 38.5695C37.9386 38.6308 37.8543 38.6651 37.7664 38.6653ZM27.0422 37.9847H37.4407L37.7844 29.7003L36.559 22.9611L35.0404 22.21C32.5483 24.3963 30.1652 22.7505 29.5035 22.2031L27.4143 23.1648L26.6366 29.696L27.0422 37.9847ZM17.2737 38.4848C15.6409 38.4848 14.4378 37.3101 14.424 37.2929C14.384 37.2528 14.3548 37.2033 14.3388 37.149C14.3229 37.0946 14.3209 37.0371 14.3329 36.9818L14.7987 34.8334C14.8152 34.7579 14.857 34.6903 14.9172 34.6418C14.9774 34.5934 15.0523 34.5669 15.1296 34.567C15.182 34.5669 15.2338 34.5786 15.2813 34.601C15.3287 34.6234 15.3705 34.6561 15.4037 34.6967C15.7758 35.1702 16.3662 35.7348 17.0658 35.7348C17.7653 35.7348 18.3548 35.1728 18.7252 34.7036C18.7629 34.6558 18.8127 34.6191 18.8695 34.5973C18.9263 34.5754 18.9879 34.5693 19.0478 34.5795C19.1078 34.5897 19.1639 34.6158 19.2103 34.6552C19.2566 34.6946 19.2915 34.7458 19.3113 34.8033L20.0469 36.9457C20.0682 37.007 20.0714 37.0731 20.0562 37.1362C20.0409 37.1993 20.0079 37.2567 19.961 37.3015C19.0191 38.1884 18.0918 38.4848 17.2737 38.4848ZM15.0393 36.938C15.5421 37.3677 17.37 38.661 19.3362 36.956L18.861 35.5707C18.2981 36.125 17.6862 36.4146 17.0683 36.4146C16.4668 36.4146 15.8738 36.1413 15.3247 35.6171L15.0393 36.938Z" fill="black"></path>
                                            <path d="M17.0649 36.412C16.2957 36.412 15.5369 35.9634 14.87 35.1152C14.2856 34.3455 13.8555 33.47 13.6033 32.5371C13.6033 32.5276 13.5973 32.5156 13.5938 32.5027V32.4898C13.4997 32.0997 13.4271 31.7046 13.3764 31.3065C13.3764 31.3065 13.3764 31.2979 13.3764 31.2936V31.2772C13.367 31.1574 13.3621 31.0373 13.3618 30.9172C13.3619 30.867 13.3731 30.8174 13.3946 30.7721C13.4162 30.7267 13.4475 30.6868 13.4864 30.6551C13.4976 30.6465 14.5606 29.7759 15.0651 29.1434C15.1068 29.0912 15.1629 29.0525 15.2266 29.0322C15.2902 29.0119 15.3584 29.0108 15.4226 29.0291C15.4441 29.0351 17.5521 29.6229 18.6496 29.054C18.7183 29.0188 18.797 29.008 18.8727 29.0237C18.9483 29.0393 19.0164 29.0803 19.0655 29.14C19.0741 29.1503 19.9378 30.1807 20.6261 30.6387C20.6723 30.6699 20.7102 30.7119 20.7365 30.761C20.7629 30.8101 20.7769 30.8649 20.7774 30.9206C20.7774 30.9206 20.7774 30.9395 20.7774 30.9747C20.7673 31.2551 20.7406 31.5346 20.6974 31.8118C20.6535 32.0608 20.5962 32.3072 20.5256 32.55C20.2731 33.483 19.8427 34.3584 19.258 35.1281C18.5885 35.9651 17.8306 36.412 17.0649 36.412ZM14.2487 32.3334L14.2547 32.3523C14.4971 33.2237 14.9156 34.0779 15.402 34.6958C15.7741 35.1702 16.3645 35.7348 17.0649 35.7348C17.7653 35.7348 18.3539 35.1728 18.7243 34.7036C19.2099 34.0874 19.6284 33.2349 19.8716 32.3652C19.9339 32.1469 19.9844 31.9255 20.0228 31.7018C20.0606 31.4586 20.0796 31.2343 20.0881 31.089C19.5502 30.6894 18.983 30.0767 18.7088 29.7665C17.5917 30.185 16.0199 29.8739 15.4475 29.7372C15.0082 30.2148 14.537 30.6622 14.0373 31.0761C14.0373 31.1271 14.0404 31.1787 14.0467 31.2308V31.2429C14.0946 31.6112 14.1623 31.9767 14.2496 32.3377V32.3454L14.2487 32.3334Z" fill="black"></path>
                                            <path d="M20.1954 32.7921C20.1419 32.7921 20.0892 32.7794 20.0415 32.755C19.9939 32.7307 19.9527 32.6954 19.9213 32.652C19.89 32.6087 19.8693 32.5585 19.8611 32.5056C19.8529 32.4527 19.8573 32.3987 19.874 32.3478C19.9403 32.1383 19.9892 31.9235 20.0201 31.7059C20.0562 31.5019 20.0794 31.2958 20.0897 31.0889C19.5509 30.6893 18.982 30.0748 18.707 29.7637C17.5898 30.1822 16.018 29.8711 15.4456 29.7345C15.0058 30.2127 14.534 30.6606 14.0337 31.0751C14.0337 31.1146 14.0397 31.1611 14.0457 31.2178V31.2453C14.0783 31.6093 14.1448 31.9695 14.2442 32.3212V32.3418V32.3324C14.2496 32.3478 14.2539 32.3636 14.2571 32.3796C14.2726 32.4491 14.2658 32.5217 14.2377 32.5871C14.2096 32.6525 14.1615 32.7074 14.1004 32.7439C14.0394 32.7804 13.9683 32.7968 13.8974 32.7907C13.8265 32.7845 13.7593 32.7562 13.7054 32.7096C13.641 32.6546 12.1345 31.3389 11.9961 29.7878C11.8895 28.5889 12.962 27.2767 14.026 26.1509C15.327 24.7759 16.5336 25.2176 17.0338 25.5064C17.5227 25.1695 18.4139 24.9461 19.813 25.9292C21.0024 26.7645 22.5363 28.6543 22.0474 30.0542C21.6177 31.2882 20.4953 32.6143 20.4481 32.6701C20.4171 32.7073 20.3786 32.7375 20.335 32.7585C20.2914 32.7796 20.2438 32.791 20.1954 32.7921ZM15.9595 25.8776C15.566 25.8776 15.0692 26.0443 14.5244 26.621C13.6908 27.5036 12.5925 28.7857 12.6767 29.7336C12.73 30.3292 13.0497 30.9015 13.3788 31.345V31.2814C13.3638 31.153 13.3592 31.0237 13.3651 30.8946C13.3679 30.848 13.3803 30.8025 13.4016 30.7609C13.4229 30.7194 13.4526 30.6827 13.4888 30.6532C13.5 30.6446 14.5631 29.774 15.0675 29.1415C15.1092 29.0893 15.1654 29.0506 15.229 29.0303C15.2926 29.01 15.3608 29.0089 15.425 29.0272C15.4465 29.0332 17.5545 29.6211 18.652 29.0521C18.7207 29.0169 18.7994 29.0062 18.8751 29.0218C18.9507 29.0374 19.0188 29.0785 19.0679 29.1381C19.0765 29.1484 19.9402 30.1788 20.6285 30.6368C20.6747 30.668 20.7126 30.71 20.7389 30.7591C20.7653 30.8082 20.7793 30.863 20.7798 30.9187C20.7798 30.9187 20.7798 30.935 20.7798 30.966V31.1052C21.0428 30.7092 21.2599 30.2845 21.4269 29.8393C21.7646 28.8639 20.4979 27.2303 19.4409 26.4878C18.7903 26.0314 17.894 25.6061 17.3053 26.1741C17.2444 26.2331 17.1635 26.2671 17.0786 26.2694C16.9938 26.2716 16.9112 26.2419 16.8473 26.1861C16.5951 25.9831 16.2807 25.8729 15.957 25.8742L15.9595 25.8776ZM25.0629 8.92129C24.1808 8.92129 23.3184 8.65971 22.585 8.16962C21.8515 7.67953 21.2798 6.98295 20.9423 6.16796C20.6047 5.35297 20.5164 4.45619 20.6884 3.591C20.8605 2.72582 21.2853 1.93109 21.9091 1.30733C22.5329 0.683564 23.3276 0.258775 24.1928 0.0866792C25.058 -0.0854169 25.9547 0.00290909 26.7697 0.340488C27.5847 0.678066 28.2813 1.24974 28.7714 1.9832C29.2615 2.71667 29.5231 3.579 29.5231 4.46113C29.5208 5.64334 29.0502 6.77648 28.2142 7.61243C27.3783 8.44838 26.2451 8.91902 25.0629 8.92129ZM25.0629 0.677307C24.315 0.677307 23.584 0.899073 22.9622 1.31456C22.3403 1.73005 21.8557 2.3206 21.5695 3.01153C21.2833 3.70247 21.2084 4.46275 21.3543 5.19624C21.5002 5.92973 21.8603 6.60349 22.3892 7.1323C22.918 7.66112 23.5917 8.02125 24.3252 8.16715C25.0587 8.31305 25.819 8.23817 26.5099 7.95197C27.2009 7.66578 27.7914 7.18113 28.2069 6.55931C28.6224 5.93748 28.8442 5.20642 28.8442 4.45856C28.8423 3.45626 28.4434 2.49554 27.7346 1.78682C27.0259 1.07809 26.0652 0.679124 25.0629 0.677307Z" fill="black"></path>
                                        </svg>