<svg width="38" height="38" viewBox="0 0 38 38" fill="none" xmlns="http://www.w3.org/2000/svg">
                                    <path d="M12.6393 20.2639C15.6165 20.2639 18.03 17.8504 18.03 14.8732C18.03 11.8959 15.6165 9.48242 12.6393 9.48242C9.66205 9.48242 7.24854 11.8959 7.24854 14.8732C7.24854 17.8504 9.66205 20.2639 12.6393 20.2639Z" fill="#FFD89E"></path>
                                    <path d="M4.00526 30.7031H22.3332C23.1729 30.7031 23.7978 29.9273 23.6188 29.1068C22.4931 23.9445 17.923 20.2637 12.6394 20.2637H11.5795C6.91456 20.2637 2.87958 23.5135 1.88565 28.0713C1.59063 29.424 2.62086 30.7031 4.00526 30.7031Z" fill="#00DFFF"></path>
                                    <path d="M12.6392 9.48242C12.2651 9.48238 11.892 9.52118 11.5259 9.5982C13.9688 10.1113 15.8033 12.2777 15.8033 14.8732C15.8033 17.4686 13.9689 19.6351 11.5259 20.1481C11.892 20.2251 12.2651 20.2638 12.6392 20.2638C15.6164 20.2638 18.0299 17.8503 18.0299 14.8732C18.0299 11.896 15.6164 9.48242 12.6392 9.48242Z" fill="#FFC479"></path>
                                    <path d="M23.6186 29.1069C22.8069 25.3847 20.2044 22.433 16.835 21.0757C18.4526 22.5909 19.6308 24.5895 20.1304 26.8803C20.3093 27.7007 19.6844 28.4766 18.8447 28.4766H1.83633C1.80226 29.6687 2.76021 30.7031 4.00515 30.7031H22.3331C23.1727 30.7031 23.7976 29.9272 23.6186 29.1069Z" fill="#00CFFF"></path>
                                    <path d="M13.1986 0.184406L14.1518 1.78761C14.1779 1.83165 14.2128 1.8699 14.2543 1.90001C14.2957 1.93013 14.3429 1.95148 14.3929 1.96276L16.2122 2.37386C16.4913 2.43694 16.6013 2.77561 16.4126 2.99062L15.1824 4.39261C15.1486 4.43113 15.123 4.47612 15.1072 4.52485C15.0914 4.57358 15.0856 4.62503 15.0903 4.67605L15.2615 6.53337C15.2877 6.8183 14.9996 7.0276 14.7368 6.91456L13.0233 6.17787C12.9763 6.15763 12.9255 6.14719 12.8743 6.14719C12.8231 6.14719 12.7723 6.15763 12.7253 6.17787L11.0118 6.91464C10.7489 7.02767 10.4609 6.81837 10.4871 6.53345L10.6583 4.67612C10.663 4.6251 10.6572 4.57366 10.6414 4.52493C10.6256 4.4762 10.6 4.4312 10.5662 4.39268L9.336 2.99069C9.14726 2.77561 9.25732 2.43694 9.53639 2.37393L11.3557 1.96284C11.4057 1.95154 11.4528 1.93018 11.4943 1.90007C11.5358 1.86996 11.5706 1.83172 11.5968 1.78768L12.55 0.18448C12.6963 -0.0614809 13.0524 -0.061481 13.1986 0.184406ZM3.24048 1.40812L4.02119 2.7212C4.04264 2.75727 4.07122 2.7886 4.10517 2.81326C4.13913 2.83793 4.17775 2.85542 4.21869 2.86467L5.7087 3.2014C5.9373 3.25305 6.0274 3.53041 5.87287 3.70653L4.86528 4.85477C4.8376 4.88631 4.81663 4.92317 4.80367 4.96308C4.7907 5.003 4.78601 5.04514 4.78987 5.08693L4.93007 6.60811C4.9516 6.84146 4.71566 7.0129 4.50035 6.92035L3.09694 6.31695C3.05838 6.30039 3.01686 6.29185 2.97489 6.29185C2.93293 6.29185 2.8914 6.30039 2.85284 6.31695L1.44944 6.92035C1.23413 7.0129 0.998186 6.84153 1.01971 6.60811L1.15991 5.08693C1.16376 5.04514 1.15906 5.003 1.14609 4.96309C1.13313 4.92318 1.11217 4.88632 1.0845 4.85477L0.0769831 3.70653C-0.0776146 3.53041 0.0125612 3.25305 0.241155 3.2014L1.73117 2.86467C1.77211 2.85542 1.81073 2.83793 1.84468 2.81326C1.87864 2.7886 1.90721 2.75727 1.92867 2.7212L2.70937 1.40812C2.82909 1.20669 3.12077 1.20669 3.24048 1.40812ZM22.0211 1.40812L21.2404 2.7212C21.2189 2.75727 21.1904 2.7886 21.1564 2.81326C21.1224 2.83793 21.0838 2.85542 21.0429 2.86467L19.5529 3.2014C19.3243 3.25305 19.2342 3.53041 19.3887 3.70653L20.3962 4.85477C20.4239 4.88631 20.4449 4.92317 20.4578 4.96308C20.4708 5.003 20.4755 5.04514 20.4716 5.08693L20.3314 6.60811C20.3099 6.84146 20.5458 7.0129 20.7612 6.92035L22.1646 6.31695C22.2031 6.30039 22.2446 6.29185 22.2866 6.29185C22.3286 6.29185 22.3701 6.30039 22.4087 6.31695L23.8121 6.92035C24.0274 7.0129 24.2633 6.84153 24.2418 6.60811L24.1016 5.08693C24.0977 5.04514 24.1024 5.003 24.1154 4.96309C24.1284 4.92318 24.1493 4.88632 24.177 4.85477L25.1845 3.70653C25.3391 3.53041 25.2489 3.25305 25.0203 3.2014L23.5303 2.86467C23.4894 2.85542 23.4508 2.83793 23.4168 2.81326C23.3829 2.7886 23.3543 2.75727 23.3328 2.7212L22.5521 1.40812C22.4325 1.20669 22.1408 1.20669 22.0211 1.40812Z" fill="#FFD700"></path>
                                    <path d="M36.4964 26.1163C36.4964 25.2666 35.8075 24.5777 34.9578 24.5777L29.3656 24.5691C28.6329 24.568 28.0394 23.9736 28.0394 23.2409V19.2675C28.0394 18.8643 27.9373 18.4676 27.7424 18.1146C27.5476 17.7615 27.2665 17.4636 26.9254 17.2487C26.3719 16.8998 25.6378 17.1788 25.4539 17.8067L23.2315 25.3951C22.8754 26.611 21.7602 27.4465 20.4931 27.4465H18.9731V35.3842H21.3241C22.5675 35.3842 23.8043 35.6187 24.9446 36.1145C26.0798 36.6081 27.3045 36.8628 28.5424 36.8628L34.9577 36.8869C35.8075 36.8869 36.4963 36.1981 36.4963 35.3482C36.4963 34.4985 35.8074 33.8096 34.9577 33.8096C35.8075 33.8096 36.4963 33.1207 36.4963 32.271C36.4963 31.4212 35.8074 30.7324 34.9577 30.7324C35.8075 30.7324 36.4963 30.0435 36.4963 29.1937C36.4963 28.344 35.8074 27.6551 34.9577 27.6551C35.8075 27.655 36.4964 26.9661 36.4964 26.1163ZM36.4964 26.1163C36.4964 25.2666 35.8075 24.5777 34.9578 24.5777L29.3656 24.5691C28.6329 24.568 28.0394 23.9736 28.0394 23.2409V19.2675C28.0394 18.8643 27.9373 18.4676 27.7424 18.1146C27.5476 17.7615 27.2665 17.4636 26.9254 17.2487C26.3719 16.8998 25.6378 17.1788 25.4539 17.8067L23.2315 25.3951C22.8754 26.611 21.7602 27.4465 20.4931 27.4465H18.9731V35.3842H21.3241C22.5675 35.3842 23.8043 35.6187 24.9446 36.1145C26.0798 36.6081 27.3045 36.8628 28.5424 36.8628L34.9577 36.8869C35.8075 36.8869 36.4963 36.1981 36.4963 35.3482C36.4963 34.4985 35.8074 33.8096 34.9577 33.8096C35.8075 33.8096 36.4963 33.1207 36.4963 32.271C36.4963 31.4212 35.8074 30.7324 34.9577 30.7324C35.8075 30.7324 36.4963 30.0435 36.4963 29.1937C36.4963 28.344 35.8074 27.6551 34.9577 27.6551C35.8075 27.655 36.4964 26.9661 36.4964 26.1163ZM34.9577 27.655H33.1304H34.9577ZM34.9577 30.7323H33.1304H34.9577ZM34.9577 33.8095H33.1304H34.9577Z" fill="#FFD89E"></path>
                                    <path d="M32.7316 24.5776C33.5814 24.5776 34.2702 25.2665 34.2702 26.1163C34.2702 26.359 34.2139 26.5887 34.1138 26.7929C33.8454 27.3403 33.8454 27.9695 34.1138 28.5169C34.217 28.7275 34.2705 28.959 34.2702 29.1935C34.2702 29.4363 34.2139 29.666 34.1138 29.8702C33.8454 30.4175 33.8454 31.0468 34.1138 31.5941C34.2299 31.8308 34.2829 32.0934 34.2678 32.3566C34.2266 33.1064 33.5809 33.6811 32.83 33.6811H18.9736V35.384H21.3245C22.5679 35.384 23.8048 35.6185 24.945 36.1143C26.0802 36.6079 27.3048 36.8626 28.5427 36.8626L34.9581 36.8867C35.8079 36.8867 36.4967 36.1978 36.4967 35.348C36.4967 34.4983 35.8078 33.8095 34.9581 33.8095C35.8079 33.8095 36.4967 33.1206 36.4967 32.2709C36.4967 31.4211 35.8078 30.7322 34.9581 30.7322C35.8079 30.7322 36.4967 30.0433 36.4967 29.1936C36.4967 28.3439 35.8078 27.655 34.9581 27.655C35.8079 27.655 36.4967 26.9661 36.4967 26.1163C36.4967 25.2666 35.8078 24.5777 34.9581 24.5777" fill="#FFC479"></path>
                                    <path d="M32.7316 27.6548H30.9043H32.7316ZM32.7316 30.7321H30.9043H32.7316Z" fill="#FFD89E"></path>
                                    <path d="M18.3629 36.5686H14.6814C14.5195 36.5686 14.3641 36.5042 14.2496 36.3897C14.1351 36.2752 14.0708 36.1199 14.0708 35.958V26.5715C14.0708 26.4096 14.1351 26.2543 14.2496 26.1398C14.3641 26.0253 14.5195 25.9609 14.6814 25.9609H18.3629C18.5249 25.9609 18.6802 26.0253 18.7947 26.1398C18.9092 26.2543 18.9735 26.4096 18.9735 26.5715V35.958C18.9735 36.1199 18.9092 36.2752 18.7947 36.3897C18.6802 36.5042 18.5249 36.5686 18.3629 36.5686Z" fill="#00DC9B"></path>
                                    <path d="M7.77727 12.5419C7.43839 13.2475 7.24854 14.0381 7.24854 14.8732C7.24854 17.8504 9.66205 20.2639 12.6393 20.2639C15.6165 20.2639 18.03 17.8504 18.03 14.8732C18.03 11.8959 15.6165 9.48242 12.6393 9.48242C11.3514 9.48242 10.169 9.93404 9.24183 10.6876" stroke="black" stroke-miterlimit="10" stroke-linecap="round" stroke-linejoin="round"></path>
                                    <path d="M21.1062 24.1119C19.0264 21.731 15.975 20.2637 12.6391 20.2637H11.5793C6.91431 20.2637 2.87933 23.5135 1.8854 28.0714C1.59045 29.4239 2.62061 30.703 4.00501 30.703H13.7591M34.9579 27.6548H33.1307M34.9579 30.7322H33.1307M34.9579 33.8094H33.1307M13.1986 0.184406L14.1518 1.78761C14.1779 1.83165 14.2128 1.8699 14.2543 1.90001C14.2957 1.93013 14.3429 1.95148 14.3929 1.96276L16.2122 2.37386C16.4913 2.43695 16.6013 2.77561 16.4126 2.99062L15.1824 4.39261C15.1486 4.43113 15.123 4.47612 15.1072 4.52485C15.0914 4.57358 15.0856 4.62503 15.0903 4.67605L15.2615 6.53338C15.2877 6.8183 14.9996 7.0276 14.7368 6.91456L13.0233 6.17787C12.9763 6.15763 12.9255 6.1472 12.8743 6.1472C12.8231 6.1472 12.7723 6.15763 12.7253 6.17787L11.0118 6.91464C10.7489 7.02767 10.4609 6.81838 10.4871 6.53345L10.6583 4.67613C10.663 4.6251 10.6572 4.57366 10.6414 4.52493C10.6256 4.4762 10.6 4.4312 10.5662 4.39268L9.336 2.99069C9.14726 2.77561 9.25732 2.43695 9.53639 2.37393L11.3557 1.96284C11.4057 1.95154 11.4528 1.93018 11.4943 1.90007C11.5358 1.86996 11.5706 1.83172 11.5968 1.78768L12.55 0.18448C12.6963 -0.0614809 13.0524 -0.061481 13.1986 0.184406ZM3.24048 1.40812L4.02119 2.7212C4.04264 2.75727 4.07122 2.7886 4.10517 2.81326C4.13913 2.83793 4.17775 2.85542 4.21869 2.86467L5.7087 3.2014C5.9373 3.25305 6.0274 3.53041 5.87287 3.70653L4.86528 4.85477C4.8376 4.88631 4.81663 4.92317 4.80367 4.96308C4.7907 5.003 4.78601 5.04514 4.78987 5.08693L4.93007 6.60811C4.9516 6.84146 4.71566 7.0129 4.50035 6.92035L3.09694 6.31695C3.05838 6.30039 3.01686 6.29185 2.97489 6.29185C2.93293 6.29185 2.8914 6.30039 2.85284 6.31695L1.44944 6.92035C1.23413 7.0129 0.998186 6.84153 1.01971 6.60811L1.15991 5.08693C1.16376 5.04514 1.15906 5.003 1.14609 4.96309C1.13313 4.92318 1.11217 4.88632 1.0845 4.85477L0.0769831 3.70653C-0.0776146 3.53041 0.0125612 3.25305 0.241155 3.2014L1.73117 2.86467C1.77211 2.85542 1.81073 2.83793 1.84468 2.81326C1.87864 2.7886 1.90721 2.75727 1.92867 2.7212L2.70937 1.40812C2.82909 1.20669 3.12077 1.20669 3.24048 1.40812ZM22.0211 1.40812L21.2404 2.7212C21.2189 2.75727 21.1904 2.7886 21.1564 2.81326C21.1224 2.83793 21.0838 2.85542 21.0429 2.86467L19.5529 3.2014C19.3243 3.25305 19.2342 3.53041 19.3887 3.70653L20.3962 4.85477C20.4239 4.88631 20.4449 4.92317 20.4578 4.96308C20.4708 5.003 20.4755 5.04514 20.4716 5.08693L20.3314 6.60811C20.3099 6.84146 20.5458 7.0129 20.7612 6.92035L22.1646 6.31695C22.2031 6.30039 22.2446 6.29185 22.2866 6.29185C22.3286 6.29185 22.3701 6.30039 22.4087 6.31695L23.8121 6.92035C24.0274 7.0129 24.2633 6.84153 24.2418 6.60811L24.1016 5.08693C24.0977 5.04514 24.1024 5.003 24.1154 4.96309C24.1284 4.92318 24.1493 4.88632 24.177 4.85477L25.1845 3.70653C25.3391 3.53041 25.2489 3.25305 25.0203 3.2014L23.5303 2.86467C23.4894 2.85542 23.4508 2.83793 23.4168 2.81326C23.3829 2.7886 23.3543 2.75727 23.3328 2.7212L22.5521 1.40812C22.4325 1.20669 22.1408 1.20669 22.0211 1.40812ZM36.4966 26.1162C36.4966 25.2665 35.8077 24.5776 34.958 24.5776L29.3658 24.569C28.6331 24.5679 28.0396 23.9735 28.0396 23.2408V19.2674C28.0397 18.8642 27.9375 18.4675 27.7427 18.1145C27.5479 17.7614 27.2668 17.4635 26.9256 17.2486C26.3721 16.8997 25.638 17.1786 25.4541 17.8066L23.2317 25.395C22.8756 26.6109 21.7604 27.4464 20.4934 27.4464H18.9734V35.3841H21.3243C22.5677 35.3841 23.8045 35.6186 24.9448 36.1144C26.08 36.608 27.3047 36.8627 28.5426 36.8627L34.9579 36.8868C35.8077 36.8868 36.4966 36.1979 36.4966 35.3481C36.4966 34.4984 35.8077 33.8095 34.9579 33.8095C35.8077 33.8095 36.4966 33.1206 36.4966 32.2709C36.4966 31.4211 35.8077 30.7323 34.9579 30.7323C35.8077 30.7323 36.4966 30.0434 36.4966 29.1936C36.4966 28.3439 35.8077 27.655 34.9579 27.655C35.8077 27.6548 36.4966 26.9659 36.4966 26.1162Z" stroke="black" stroke-miterlimit="10" stroke-linecap="round" stroke-linejoin="round"></path>
                                    <path d="M18.3629 36.5686H14.6814C14.5195 36.5686 14.3641 36.5042 14.2496 36.3897C14.1351 36.2752 14.0708 36.1199 14.0708 35.958V26.5715C14.0708 26.4096 14.1351 26.2543 14.2496 26.1398C14.3641 26.0253 14.5195 25.9609 14.6814 25.9609H18.3629C18.5249 25.9609 18.6802 26.0253 18.7947 26.1398C18.9092 26.2543 18.9735 26.4096 18.9735 26.5715V35.958C18.9735 36.1199 18.9092 36.2752 18.7947 36.3897C18.6802 36.5042 18.5249 36.5686 18.3629 36.5686Z" stroke="black" stroke-miterlimit="10" stroke-linecap="round" stroke-linejoin="round"></path>
                                </svg>