<svg width="32" height="32" viewBox="0 0 32 32" fill="none" xmlns="http://www.w3.org/2000/svg">
                                        <path d="M16.9607 0.142121C17.3613 0.40528 17.7106 0.738638 18.0625 1.06253C20.3284 3.13538 23.2183 3.96408 26.2091 4.26477C27.3273 4.37799 28.1959 4.77811 28.937 5.6387C29.5144 6.43859 29.6346 7.33042 29.634 8.28723C29.6344 8.37185 29.6344 8.37185 29.6347 8.45818C29.6353 8.64319 29.6354 8.8282 29.6355 9.01322C29.6357 9.14405 29.6359 9.27489 29.6361 9.40573C29.6365 9.68006 29.6366 9.9544 29.6365 10.2287C29.6365 10.5065 29.637 10.7844 29.6378 11.0622C29.647 14.0703 29.647 14.0703 29.5 15.5C29.4926 15.5741 29.4926 15.5741 29.4852 15.6496C29.4574 15.9261 29.424 16.2013 29.3867 16.4766C29.376 16.5567 29.3653 16.6368 29.3543 16.7193C28.8968 20.0387 27.8517 23.2254 25.75 25.875C25.7019 25.9364 25.6538 25.9978 25.6042 26.0611C24.8238 27.0369 23.9372 27.9357 22.9375 28.6875C22.9005 28.7158 22.8635 28.7441 22.8255 28.7733C21.7713 29.577 20.627 30.2518 19.4293 30.8191C19.3104 30.876 19.1925 30.9349 19.0747 30.9942C16.419 32.3121 16.419 32.3121 15.0551 31.887C12.8789 31.1479 10.8118 30.0373 8.99996 28.625C8.9451 28.5823 8.89023 28.5396 8.8337 28.4956C5.0999 25.5152 3.24149 21.2161 2.61715 16.5586C2.60722 16.486 2.5973 16.4133 2.58707 16.3385C2.55411 16.0801 2.52594 15.8217 2.49996 15.5625C2.49436 15.5082 2.48875 15.4539 2.48298 15.398C2.34227 13.9722 2.35569 12.5428 2.35867 11.1117C2.35938 10.7626 2.35896 10.4136 2.35822 10.0645C2.35777 9.79202 2.35791 9.51952 2.35824 9.24702C2.35832 9.11831 2.35822 8.98959 2.35792 8.86088C2.35387 6.59296 2.35387 6.59296 3.06246 5.68753C3.09944 5.64016 3.13642 5.59278 3.17452 5.54398C3.84791 4.73443 4.70326 4.36653 5.73946 4.25809C5.88484 4.24574 6.03027 4.23395 6.17574 4.22269C8.74826 3.98722 11.1817 3.20098 13.25 1.62503C13.3049 1.58338 13.3599 1.54173 13.4165 1.49881C13.7108 1.26939 13.9855 1.02425 14.2578 0.769562C14.9891 0.0880188 15.9809 -0.318732 16.9607 0.142121ZM15.7764 2.00595C15.7448 2.03784 15.7132 2.06972 15.6806 2.10257C15.6443 2.1382 15.608 2.17383 15.5705 2.21054C15.5124 2.26876 15.5124 2.26876 15.4531 2.32816C13.1561 4.54484 9.99592 5.81697 6.84078 6.10843C6.71994 6.11965 6.71994 6.11965 6.59666 6.13109C6.43998 6.14491 6.28318 6.15751 6.12629 6.16866C5.58586 6.21456 5.06628 6.3228 4.69137 6.74612C4.34494 7.26052 4.30305 7.71977 4.30338 8.3237C4.30317 8.37958 4.30296 8.43545 4.30275 8.49302C4.30215 8.67732 4.30203 8.86162 4.30196 9.04593C4.30176 9.17578 4.30155 9.30564 4.30133 9.43549C4.30096 9.70827 4.30084 9.98104 4.30088 10.2538C4.30089 10.5303 4.30046 10.8068 4.2996 11.0833C4.28905 13.2636 4.28905 13.2636 4.43746 15.4375C4.44219 15.4847 4.44692 15.5318 4.4518 15.5804C4.4785 15.8447 4.51054 16.1079 4.54684 16.3711C4.5627 16.4868 4.5627 16.4868 4.57888 16.6048C5.08869 20.1608 6.47227 23.9514 9.311 26.3301C9.39867 26.4046 9.48418 26.4816 9.56783 26.5606C10.4209 27.3642 11.4217 27.987 12.4375 28.5625C12.4859 28.59 12.5342 28.6175 12.5841 28.6458C13.3458 29.0731 14.1364 29.4238 14.9489 29.7431C15.0676 29.7899 15.1856 29.8383 15.3029 29.8883C15.9896 30.1669 16.4451 29.9986 17.1093 29.7227C17.1778 29.6946 17.2463 29.6666 17.3168 29.6377C19.084 28.9052 20.7293 27.9967 22.1875 26.75C22.2357 26.7088 22.284 26.6675 22.3337 26.625C25.9328 23.4631 27.3488 19.0307 27.6571 14.3484C27.6974 13.6844 27.6977 13.0208 27.698 12.3557C27.6982 12.2242 27.6984 12.0927 27.6986 11.9612C27.699 11.6877 27.6991 11.4142 27.699 11.1407C27.699 10.7916 27.6999 10.4424 27.701 10.0932C27.7017 9.8225 27.7018 9.55177 27.7018 9.28105C27.7018 9.1523 27.7021 9.02356 27.7026 8.89481C27.7032 8.71484 27.703 8.53488 27.7026 8.35491C27.703 8.30272 27.7034 8.25053 27.7037 8.19676C27.7005 7.58986 27.6302 7.06876 27.1875 6.62503C26.6886 6.18741 26.0052 6.19043 25.3732 6.12582C22.6488 5.8454 20.0288 5.01846 17.8125 3.37503C17.7745 3.34691 17.7366 3.3188 17.6975 3.28983C17.2353 2.94357 16.801 2.57677 16.3913 2.16924C16.1191 1.90423 16.1191 1.90423 15.7764 2.00595Z" fill="white"></path>
                                        <path d="M21.3202 9.98442C22.8415 11.2963 23.8229 13.2504 23.9999 15.25C24.1381 17.5869 23.4522 19.6543 21.9198 21.4313C20.5822 22.9317 18.577 23.892 16.5719 24.0106C14.1975 24.1031 12.1057 23.3415 10.3527 21.7242C8.86992 20.2946 8.02349 18.2398 7.97776 16.1936C7.96201 13.9236 8.79587 11.8878 10.3749 10.25C13.4091 7.28991 18.1314 7.32123 21.3202 9.98442ZM11.7499 11.6875C11.7076 11.7251 11.6654 11.7626 11.6219 11.8013C10.6287 12.719 10.0069 14.1715 9.92945 15.5119C9.87497 17.1757 10.3266 18.6353 11.3749 19.9375C11.4238 20.0033 11.4728 20.069 11.5233 20.1368C12.5378 21.2238 14.0187 21.9844 15.5117 22.0704C17.2603 22.1279 18.8331 21.6284 20.1427 20.4415C21.142 19.5045 21.7578 18.3497 21.9999 17C22.0169 16.9138 22.0169 16.9138 22.0343 16.8257C22.2424 15.3382 21.875 13.7702 21.0062 12.5442C20.7894 12.2649 20.5565 12.0055 20.3124 11.75C20.256 11.6867 20.256 11.6867 20.1986 11.6221C19.2189 10.5618 17.7325 10.0023 16.3136 9.91386C14.5574 9.84957 13.0138 10.4795 11.7499 11.6875Z" fill="white"></path>
                                        <path d="M19.5273 13.3439C19.7655 13.5762 19.924 13.805 19.9475 14.1444C19.9097 14.691 19.5644 15.0167 19.1932 15.3855C19.1503 15.4287 19.1074 15.4718 19.0632 15.5163C18.922 15.658 18.7804 15.7993 18.6387 15.9405C18.5401 16.0392 18.4416 16.1378 18.3431 16.2365C18.1369 16.4428 17.9305 16.649 17.724 16.8549C17.4592 17.119 17.1949 17.3837 16.9308 17.6485C16.7276 17.8522 16.5241 18.0555 16.3205 18.2588C16.223 18.3563 16.1255 18.4539 16.0281 18.5515C15.8921 18.6878 15.7557 18.8237 15.6193 18.9595C15.559 19.0202 15.559 19.0202 15.4974 19.0821C15.4601 19.1191 15.4228 19.156 15.3843 19.1941C15.3522 19.2263 15.32 19.2584 15.2869 19.2915C15.0698 19.4742 14.8822 19.5196 14.6016 19.5235C14.5444 19.5253 14.4872 19.5271 14.4282 19.5289C14.0198 19.4629 13.7274 19.1217 13.4463 18.8402C13.3872 18.7815 13.3872 18.7815 13.3269 18.7216C13.2442 18.6392 13.1616 18.5567 13.0792 18.474C12.9532 18.3478 12.8264 18.2225 12.6995 18.0971C12.6189 18.0168 12.5384 17.9363 12.458 17.8558C12.4202 17.8186 12.3824 17.7813 12.3434 17.7429C12.0878 17.4846 11.9559 17.2878 11.9141 16.9181C11.947 16.5938 12.0384 16.3288 12.2795 16.1004C12.5368 15.9283 12.7881 15.9083 13.092 15.9044C13.5233 15.995 13.8219 16.3693 14.1172 16.672C14.1602 16.7156 14.2032 16.7592 14.2476 16.8041C14.3528 16.9108 14.4577 17.0179 14.5625 17.1251C14.9545 16.8047 15.3079 16.4486 15.6637 16.0892C15.7741 15.9777 15.8848 15.8664 15.9955 15.7551C16.3101 15.439 16.6243 15.1226 16.9382 14.8059C17.1309 14.6115 17.324 14.4174 17.5172 14.2235C17.5906 14.1497 17.6638 14.0759 17.7369 14.0019C17.8389 13.8987 17.9413 13.7959 18.0437 13.6932C18.1018 13.6346 18.1599 13.5761 18.2198 13.5157C18.596 13.1749 19.0648 13.142 19.5273 13.3439Z" fill="white"></path>
                                    </svg>