<svg width="40" height="40" viewBox="0 0 40 40" fill="none" xmlns="http://www.w3.org/2000/svg">
                                    <path d="M24.969 14.7857C24.8786 14.6395 24.7652 14.5088 24.633 14.3989C24.7651 14.5089 24.8785 14.6395 24.969 14.7857ZM10.9062 36.2071H25.2073V17.0507H10.9062V36.2071ZM18.057 22.0774C20.4484 22.0774 22.3873 24.0159 22.3873 26.4077C22.3873 28.7995 20.4484 30.7383 18.0571 30.7383C15.6655 30.7383 13.7266 28.7994 13.7266 26.4077C13.7266 24.016 15.6654 22.0774 18.057 22.0774Z" fill="#D7D7E6"></path>
                                    <path d="M5.31191 14.7092L8.98042 9.37765C10.1975 7.60854 9.97894 5.22285 8.46074 3.70461C6.72183 1.96565 3.9023 1.96565 2.16308 3.70461C0.644877 5.22293 0.426361 7.60854 1.64339 9.37765L5.31191 14.7092ZM5.31191 5.32942C6.22925 5.32942 6.97269 6.0728 6.97269 6.99024C6.97269 7.9073 6.22925 8.65076 5.31191 8.65076C4.39488 8.65076 3.65113 7.9073 3.65113 6.99024C3.65113 6.0728 4.39488 5.32942 5.31191 5.32942Z" fill="#FF5A5A"></path>
                                    <path d="M22.3872 26.4074C22.3872 28.7991 20.4484 30.738 18.057 30.738C15.6654 30.738 13.7266 28.7991 13.7266 26.4074C13.7266 24.0157 15.6654 22.0771 18.057 22.0771C20.4484 22.0771 22.3872 24.0156 22.3872 26.4074Z" fill="#89E6FF"></path>
                                    <path d="M29.2578 19.59V25.9653C29.2578 26.3636 29.7458 26.5565 30.018 26.2653L31.2915 24.9041C31.4515 24.7331 31.6449 24.5968 31.8598 24.5035C32.0746 24.4103 32.3063 24.3622 32.5405 24.3622H36.9827C37.9495 24.3622 38.7335 23.5785 38.7335 22.6113V19.59C38.7335 18.6229 37.9495 17.8389 36.9827 17.8389H31.0089C30.0418 17.8392 29.2578 18.6229 29.2578 19.59Z" fill="#88DC60"></path>
                                    <path d="M26.1342 10.8758C26.678 10.8758 27.1837 10.5981 27.4757 10.1394L29.2888 7.29018H31.9344C32.2431 7.2902 32.5487 7.22785 32.8328 7.10687C33.1168 6.9859 33.3735 6.80879 33.5875 6.58618H33.5878C33.9943 6.1632 33.9943 5.49419 33.5878 5.0709C33.3738 4.8483 33.117 4.67121 32.8329 4.55023C32.5488 4.42926 32.2432 4.3669 31.9344 4.3669H29.2888L27.4758 1.5176C27.3321 1.29191 27.1339 1.10611 26.8994 0.977401C26.6648 0.848689 26.4017 0.781223 26.1341 0.78125H25.2979C25.1151 0.78125 24.9891 0.964693 25.0547 1.13524L26.2949 4.3669L23.7592 4.60034C23.2888 4.64355 22.8169 4.53543 22.4122 4.29174L21.1585 3.53648C21.024 3.45545 20.8653 3.42412 20.7101 3.44793C20.5549 3.47174 20.4129 3.54918 20.3089 3.6668C20.2309 3.75514 20.1776 3.86242 20.1541 3.97789C20.1307 4.09335 20.138 4.21295 20.1753 4.32471L20.6794 5.82865L20.1752 7.33237C20.1379 7.44413 20.1306 7.56373 20.1541 7.6792C20.1775 7.79466 20.2309 7.90194 20.3089 7.99028C20.4129 8.10803 20.5548 8.18556 20.7101 8.20938C20.8654 8.23319 21.024 8.20177 21.1585 8.12059L22.4122 7.36526C22.8169 7.12172 23.2888 7.01364 23.7592 7.05674L26.2949 7.29026L25.0547 10.5218C24.9891 10.6927 25.1152 10.8758 25.298 10.8758H26.1342Z" fill="#13D2FB"></path>
                                    <path d="M24.9691 14.7855C24.8787 14.6393 24.7653 14.5087 24.6331 14.3988C24.5941 14.3665 24.5534 14.3363 24.5113 14.3079C24.4404 14.2605 24.3657 14.2191 24.2879 14.184C24.0814 14.0878 23.8563 14.038 23.6285 14.0381H12.4855C12.2577 14.0378 12.0326 14.0876 11.8261 14.184C11.7483 14.2197 11.6732 14.2603 11.6027 14.3079C11.5606 14.3363 11.5203 14.3665 11.4813 14.3989C11.3491 14.5087 11.2356 14.6393 11.1453 14.7855C11.1014 14.8548 11.063 14.9275 11.0305 15.0028C10.9483 15.1973 10.906 15.4063 10.9063 15.6174V17.0506H25.2074V15.6174C25.2074 15.3995 25.1635 15.1917 25.0835 15.0028C25.0511 14.9275 25.0128 14.8548 24.9691 14.7855ZM10.9063 37.6401C10.9063 37.9126 10.9755 38.1691 11.097 38.3931C11.1942 38.5714 11.3246 38.7294 11.4813 38.8587C11.5595 38.9234 11.6438 38.9804 11.733 39.0288C11.964 39.1544 12.2229 39.2199 12.4859 39.2192H23.6284C23.8914 39.2199 24.1503 39.1544 24.3813 39.0288C24.6502 38.8827 24.871 38.6619 25.017 38.3931C25.1426 38.162 25.2082 37.9031 25.2077 37.6401V36.207H10.9063V37.6401Z" fill="#FFC868"></path>
                                    <path d="M6.97293 6.99042C6.97293 7.90747 6.22949 8.65093 5.31215 8.65093C4.39512 8.65093 3.65137 7.90747 3.65137 6.99042C3.65137 6.07297 4.39512 5.32959 5.31215 5.32959C6.22949 5.32959 6.97293 6.07297 6.97293 6.99042Z" fill="#D7D7E6"></path>
                                    <path d="M4.53081 14.9518V26.3098C4.53081 28.2145 6.0805 29.7638 7.98511 29.7638H10.1253V37.6395C10.1253 38.9411 11.1839 40 12.4855 40H23.6285C24.93 40 25.9889 38.941 25.9889 37.6395V32.2791H32.0949C33.3482 32.2791 34.3678 31.2595 34.3678 30.0061V25.1434H36.9829C38.379 25.1434 39.5149 24.0075 39.5149 22.6111V19.5902C39.5149 18.1937 38.379 17.0578 36.9829 17.0578H31.0091C29.6129 17.0578 28.4771 18.1937 28.4771 19.5902V25.9652C28.4771 26.4695 28.7801 26.9152 29.2492 27.1005C29.3928 27.1573 29.5458 27.1865 29.7002 27.1866C30.0304 27.1866 30.3524 27.0517 30.5885 26.7991L31.8624 25.4379C31.9494 25.3451 32.0544 25.2711 32.1711 25.2205C32.2878 25.1698 32.4135 25.1436 32.5407 25.1434H32.8053V30.0061C32.8053 30.398 32.4867 30.7166 32.0949 30.7166H25.9889V15.6173C25.9889 14.3158 24.93 13.2569 23.6284 13.2569H21.8507V8.61563L22.8154 8.03461C23.077 7.87607 23.3827 7.80597 23.6873 7.83469L25.1958 7.97359L24.3251 10.242C24.2646 10.3998 24.2435 10.5699 24.2634 10.7377C24.2833 10.9056 24.3438 11.066 24.4395 11.2053C24.5352 11.3445 24.6634 11.4584 24.813 11.5371C24.9625 11.6158 25.129 11.657 25.298 11.657H26.1339C26.9493 11.657 27.697 11.2463 28.1346 10.5587L29.7173 8.07148H31.9341C32.766 8.07148 33.5741 7.72727 34.1505 7.12727C34.4873 6.77877 34.6756 6.31308 34.6756 5.82844C34.6756 5.34379 34.4873 4.8781 34.1505 4.52961C33.5741 3.92961 32.766 3.58547 31.9341 3.58547H29.7173L28.1346 1.09828C27.697 0.410469 26.949 0 26.1339 0H25.298C24.9547 0 24.6337 0.16875 24.4392 0.451641C24.3435 0.590923 24.2831 0.751416 24.2632 0.919268C24.2433 1.08712 24.2646 1.25729 24.3252 1.41508L25.1958 3.68344L23.6873 3.82234C23.3827 3.85098 23.0771 3.78088 22.8154 3.62242L21.5616 2.86719C21.2706 2.69178 20.9273 2.62397 20.5914 2.67555C20.2556 2.72714 19.9484 2.89487 19.7235 3.14953C19.555 3.3408 19.4396 3.57294 19.389 3.82276C19.3383 4.07259 19.3541 4.33133 19.4348 4.57312L19.8553 5.82859L19.4348 7.08383C19.3541 7.32564 19.3383 7.58439 19.3889 7.83423C19.4396 8.08407 19.5549 8.31623 19.7235 8.5075C19.8776 8.68154 20.0713 8.81592 20.2883 8.8993V13.257H12.486C11.1844 13.257 10.1253 14.3159 10.1253 15.6174V28.2016H7.98518C6.94206 28.2016 6.09339 27.3529 6.09339 26.3098V14.9518L9.62425 9.82023C11.0549 7.74109 10.798 4.93656 9.01331 3.15219C6.97261 1.11117 3.65198 1.11117 1.61128 3.15219C-0.173409 4.93656 -0.430362 7.74109 1.00034 9.82023L4.53081 14.9518ZM32.5407 23.5809C32.1996 23.5815 31.8623 23.6518 31.5494 23.7875C31.2365 23.9233 30.9547 24.1217 30.7213 24.3704L30.0396 25.0992V19.5902C30.0396 19.0555 30.4744 18.6203 31.0091 18.6203H36.9829C37.5176 18.6203 37.9524 19.0555 37.9524 19.5902V22.6114C37.9524 23.1461 37.5176 23.5809 36.9829 23.5809H32.5407ZM23.6284 14.8193C24.0685 14.8193 24.4264 15.1773 24.4264 15.6173V16.2692H21.8505V14.8193H23.6284ZM22.0089 4.96094C22.56 5.29266 23.1899 5.43703 23.8304 5.37812L26.3664 5.14469C26.4866 5.13363 26.6025 5.09489 26.7052 5.03151C26.8078 4.96812 26.8944 4.88183 26.9582 4.77938C27.022 4.67692 27.0612 4.56106 27.0726 4.44091C27.0841 4.32076 27.0676 4.19957 27.0244 4.08687L26.0555 1.5625H26.1339C26.4119 1.5625 26.6671 1.70258 26.8163 1.93695L28.6293 4.78609C28.6999 4.89702 28.7973 4.98834 28.9125 5.05161C29.0277 5.11488 29.1571 5.14805 29.2885 5.14805H31.9341C32.343 5.14805 32.7403 5.31711 33.0242 5.61211C33.0802 5.67019 33.1114 5.74774 33.1114 5.82842C33.1113 5.9091 33.0799 5.98661 33.0239 6.04461C32.8826 6.19105 32.7133 6.30761 32.5261 6.38736C32.3388 6.4671 32.1375 6.50841 31.934 6.50883H29.2885C29.1571 6.50882 29.0278 6.54197 28.9125 6.60523C28.7973 6.66849 28.6999 6.7598 28.6293 6.8707L26.8163 9.71953C26.7435 9.83461 26.6428 9.92936 26.5234 9.9949C26.4041 10.0604 26.2701 10.0946 26.1339 10.0943H26.0555L27.0244 7.56992C27.0676 7.45722 27.0841 7.33604 27.0726 7.21589C27.0612 7.09573 27.022 6.97988 26.9582 6.87742C26.8945 6.77493 26.8079 6.68859 26.7052 6.62521C26.6026 6.56182 26.4866 6.52311 26.3664 6.51211L23.8305 6.27867C23.1899 6.21977 22.56 6.36383 22.0089 6.69586L21.0109 7.29703L21.4199 6.07633C21.4739 5.91535 21.4739 5.74114 21.4199 5.58016L21.0108 4.35938L22.0089 4.96094ZM11.6878 15.6173C11.6878 15.1773 12.0458 14.8194 12.4855 14.8194H20.288V16.2692H11.6878V15.6173ZM11.6878 17.8317H20.288V19.1269C20.288 19.5584 20.638 19.9081 21.0692 19.9081C21.5007 19.9081 21.8505 19.5584 21.8505 19.1269V17.8317H24.4264V30.7166H22.5609C22.1294 30.7166 21.7796 31.0662 21.7796 31.4978C21.7796 31.9294 22.1294 32.2791 22.5609 32.2791H24.4265V35.4252H18.5204C18.0892 35.4252 17.7392 35.7752 17.7392 36.2064C17.7392 36.6379 18.0892 36.9877 18.5204 36.9877H24.4264V37.6395C24.4264 38.0795 24.0685 38.4375 23.6284 38.4375H12.4855C12.0458 38.4375 11.6878 38.0795 11.6878 37.6395V36.9876H12.2704C12.7019 36.9876 13.0517 36.6379 13.0517 36.2063C13.0517 35.7751 12.7019 35.4251 12.2704 35.4251H11.6878V29.7641H12.0617C12.4932 29.7641 12.8429 29.4144 12.8429 28.9829C12.8429 28.5513 12.4932 28.2016 12.0617 28.2016H11.6878V17.8317ZM2.71589 4.25688C3.43151 3.54125 4.37183 3.18328 5.31206 3.18328C6.25229 3.18328 7.19253 3.54125 7.90815 4.25688C9.16034 5.50875 9.34042 7.47586 8.33698 8.93461L5.31206 13.3307L2.28714 8.93461C1.28378 7.47586 1.4637 5.50875 2.71589 4.25688Z" fill="black"></path>
                                    <path d="M12.9464 26.4462C12.9675 29.2462 15.2505 31.518 18.0554 31.5191H18.0579C18.059 31.5191 18.06 31.5189 18.0612 31.5189C20.8657 31.5167 23.1485 29.2437 23.1677 26.4431C23.168 26.4371 23.168 26.431 23.1683 26.4251C23.1683 26.419 23.1686 26.4136 23.1686 26.4075C23.1686 23.5889 20.8755 21.2961 18.0572 21.2961C18.0511 21.2961 18.0456 21.2964 18.0395 21.2964C18.0343 21.2967 18.0289 21.2967 18.0233 21.2967C15.2346 21.315 12.9696 23.5772 12.9468 26.3647C12.9464 26.3681 12.9468 26.3712 12.9464 26.3742C12.9464 26.3851 12.9455 26.3962 12.9455 26.4075C12.9455 26.4166 12.9461 26.4254 12.9464 26.4346V26.4462ZM14.7076 27.579C15.2381 27.724 15.7779 27.8324 16.3232 27.9034C16.4122 28.5169 16.557 29.121 16.7557 29.7083C15.801 29.3304 15.0488 28.551 14.7076 27.579ZM18.5196 29.9255C18.3414 29.5318 18.0875 28.869 17.9303 28.0115C17.9458 28.0115 17.9611 28.0121 17.9769 28.0121C19.0075 28.0121 20.1696 27.8869 21.4181 27.5445C20.9909 28.8043 19.8746 29.7482 18.5196 29.9255ZM18.5397 22.8922C20.0925 23.1042 21.329 24.3237 21.5652 25.8688C20.1761 26.3214 18.8888 26.4584 17.7871 26.4383C17.7875 25.386 17.9806 24.179 18.5397 22.8922ZM16.7843 23.0954C16.3894 24.2434 16.2322 25.3247 16.2182 26.2997C15.4901 26.1835 14.9172 26.0175 14.5461 25.8899C14.7342 24.6087 15.6093 23.5483 16.7843 23.0954ZM5.31215 9.43232C6.65855 9.43232 7.75418 8.33678 7.75418 6.99037C7.75418 5.64396 6.65855 4.54834 5.31215 4.54834C3.96574 4.54834 2.87012 5.64365 2.87012 6.99037C2.87012 8.33678 3.96574 9.43232 5.31215 9.43232ZM5.31215 6.11084C5.79707 6.11084 6.19168 6.50537 6.19168 6.99037C6.19168 7.47529 5.79715 7.86959 5.31215 7.86959C4.82723 7.86959 4.43262 7.47529 4.43262 6.99037C4.43262 6.50545 4.82723 6.11084 5.31215 6.11084ZM15.8291 35.5572C15.7866 35.5289 15.7415 35.5049 15.6943 35.4855C15.6472 35.466 15.5982 35.4511 15.5481 35.441C15.4473 35.4206 15.3434 35.4206 15.2426 35.441C15.1925 35.4511 15.1434 35.466 15.0964 35.4855C15.0497 35.5051 15.0042 35.5292 14.9615 35.5572C14.8549 35.6288 14.7675 35.7254 14.7069 35.8386C14.6464 35.9519 14.6147 36.0783 14.6146 36.2067C14.6146 36.2573 14.6191 36.3089 14.6292 36.3595C14.6396 36.409 14.6542 36.4581 14.6737 36.5058C14.6932 36.5527 14.7177 36.5979 14.7457 36.64C14.774 36.683 14.8068 36.7229 14.8434 36.759C14.8794 36.7956 14.9191 36.8277 14.9612 36.8567C15.0042 36.8848 15.0497 36.9089 15.0964 36.9284C15.1434 36.9479 15.1925 36.9629 15.2425 36.9729C15.3942 37.003 15.5514 36.9875 15.6943 36.9284C15.7415 36.9089 15.787 36.8847 15.8291 36.8567C15.9149 36.7997 15.9883 36.726 16.0449 36.64C16.1304 36.5116 16.1762 36.3609 16.1768 36.2066C16.1768 36.001 16.0932 35.7996 15.9479 35.6543C15.9118 35.6178 15.872 35.5853 15.8291 35.5572Z" fill="black"></path>
                                </svg>