<svg width="30" height="30" viewBox="0 0 30 30" fill="none" xmlns="http://www.w3.org/2000/svg">
                                    <path d="M11.5428 10.2539C11.6333 10.3187 11.6333 10.3187 11.7257 10.3848C13.3201 11.5505 14.326 13.2129 14.6762 15.1533C15.0214 17.3839 14.3807 20.0073 13.0663 21.8555C12.9467 21.992 12.9009 22.0281 12.722 22.0825C12.5037 22.0912 12.4169 22.046 12.2459 21.914C12.1548 21.7317 12.1461 21.5828 12.1874 21.3867C12.2739 21.2182 12.3735 21.06 12.4728 20.8987C13.5031 19.1737 14.0867 16.923 13.6236 14.9357C13.1634 13.2047 12.1458 11.7627 10.6053 10.8398C9.0875 9.98778 7.39302 9.76875 5.70176 10.177C4.74573 10.4554 3.93647 10.9182 3.16392 11.543C3.10591 11.5865 3.0479 11.63 2.98814 11.6748C2.71513 11.9054 2.50277 12.1993 2.28501 12.4805C2.24921 12.5264 2.21341 12.5723 2.17652 12.6196C1.37909 13.6974 0.970357 15.0196 0.97764 16.355C0.977971 16.4191 0.978301 16.4833 0.978642 16.5494C0.997657 17.8317 1.37415 19.0667 1.93345 20.2148C1.95555 20.2608 1.97766 20.3067 2.00043 20.3541C2.69526 21.7835 3.63381 23.1257 4.72375 24.2839C4.83246 24.4006 4.93628 24.5189 5.03983 24.64C5.31223 24.9525 5.60492 25.2449 5.8979 25.5378C5.99424 25.6343 6.09011 25.7312 6.18596 25.8282C6.54669 26.1907 6.91449 26.5277 7.32407 26.8359C7.51905 26.7429 7.65893 26.6386 7.81846 26.4917C7.86959 26.4448 7.92073 26.3979 7.97341 26.3495C8.02983 26.2974 8.08626 26.2452 8.14439 26.1914C8.20806 26.1331 8.27177 26.0749 8.3355 26.0168C8.80146 25.5905 9.25815 25.162 9.66988 24.6821C9.78103 24.5553 9.89544 24.432 10.0107 24.3089C10.3368 23.9596 10.6358 23.5951 10.9271 23.2164C11.3794 22.6311 11.3794 22.6311 11.649 22.5952C11.8358 22.6172 11.8358 22.6172 12.0042 22.7417C12.1542 22.9446 12.1604 23.0146 12.1288 23.2617C12.0464 23.3957 11.9687 23.5052 11.8688 23.6243C11.8422 23.6573 11.8156 23.6902 11.7882 23.7242C11.7334 23.792 11.6783 23.8595 11.6227 23.9266C11.5499 24.0148 11.4784 24.1041 11.4071 24.1935C11.1358 24.5317 10.8511 24.8535 10.5563 25.1713C10.4476 25.2924 10.3487 25.4148 10.2538 25.5469C10.3146 25.5682 10.3755 25.5895 10.4382 25.6114C11.1899 25.8798 12.0659 26.2164 12.451 26.9714C12.6189 27.3841 12.6776 27.7348 12.506 28.1579C12.0992 28.9631 11.3419 29.3024 10.5248 29.5788C9.70764 29.8443 8.8651 30.0067 8.00431 30.0119C7.9587 30.0123 7.91308 30.0127 7.86609 30.0131C7.71959 30.0141 7.57311 30.0145 7.42661 30.0146C7.37666 30.0147 7.32671 30.0148 7.27525 30.0148C6.53634 30.0142 5.82059 29.99 5.09751 29.8242C5.03919 29.8115 5.03919 29.8115 4.9797 29.7985C3.94436 29.5682 2.92696 29.1913 2.28501 28.3008C2.10337 27.9393 2.10181 27.4968 2.20399 27.1087C2.55734 26.3208 3.39192 25.9636 4.14697 25.67C4.33579 25.6055 4.33579 25.6055 4.51158 25.6055C4.25178 25.281 3.9901 24.9639 3.70591 24.6606C1.68673 22.4573 -0.0337489 19.4518 -0.0184535 16.3916C-0.0180215 16.2881 -0.0180215 16.2881 -0.0175809 16.1825C-0.0102415 15.6335 0.0413105 15.1217 0.175638 14.5898C0.185382 14.5512 0.195125 14.5125 0.205164 14.4727C0.368404 13.846 0.627159 13.2815 0.937357 12.7148C0.967645 12.6592 0.997933 12.6036 1.02914 12.5464C1.23741 12.1832 1.48834 11.8627 1.75767 11.543C1.79219 11.5012 1.8267 11.4594 1.86227 11.4164C3.10189 9.95086 4.9672 9.15459 6.848 8.97948C8.48813 8.89442 10.2031 9.26825 11.5428 10.2539ZM3.25913 27.2204C3.14181 27.3545 3.10543 27.4215 3.05772 27.5976C3.15397 27.953 3.3473 28.1155 3.64984 28.3035C4.79204 28.9336 6.07903 29.0869 7.36436 29.0808C7.41079 29.0807 7.45722 29.0806 7.50506 29.0805C8.19948 29.0778 8.87346 29.0542 9.55064 28.8867C9.6154 28.8712 9.6154 28.8712 9.68147 28.8553C10.372 28.6845 11.1434 28.4509 11.5941 27.865C11.6696 27.7204 11.6696 27.7204 11.66 27.572C11.5084 27.1836 11.2301 26.9984 10.869 26.8286C10.828 26.8088 10.7871 26.789 10.7449 26.7686C10.0524 26.4184 10.0524 26.4184 9.31626 26.4258C9.19753 26.5184 9.19753 26.5184 9.09287 26.6382C8.86569 26.8763 8.63143 27.0938 8.37876 27.3047C8.33174 27.3446 8.33174 27.3446 8.28378 27.3853C8.17706 27.4754 8.06931 27.5641 7.96128 27.6526C7.92694 27.6817 7.89261 27.7109 7.85723 27.7409C7.68755 27.8776 7.59033 27.9447 7.37031 27.976C7.2029 27.9486 7.13097 27.9234 7.00181 27.8174C6.96246 27.7854 6.92311 27.7535 6.88256 27.7206C6.81107 27.6597 6.81107 27.6597 6.73814 27.5976C6.67353 27.5438 6.6089 27.4901 6.54427 27.4363C6.17598 27.127 5.82446 26.814 5.49989 26.4578C5.0238 26.0634 3.63475 26.8788 3.25913 27.2204Z" fill="#111111" fill-opacity="0.7"></path>
                                    <path d="M24.2177 -0.0182391C24.2877 -0.0179086 24.3576 -0.0175782 24.4297 -0.0172377C24.9236 -0.0104284 25.3678 0.0217212 25.84 0.175853C25.8772 0.187806 25.9143 0.199758 25.9526 0.212073C26.7543 0.475273 27.4196 0.862514 28.0666 1.40632C28.1153 1.44371 28.164 1.4811 28.2142 1.51962C29.2172 2.35518 29.8505 3.76157 30.0002 5.03913C30.1166 6.68089 29.7344 8.17358 28.9455 9.60945C28.9267 9.64452 28.9079 9.6796 28.8885 9.71573C28.2987 10.8148 27.5132 11.8084 26.6603 12.7149C26.7219 12.7433 26.7835 12.7717 26.8469 12.801C28.0614 13.3749 28.0614 13.3749 28.3248 14.0005C28.4417 14.4059 28.3662 14.731 28.1646 15.0964C27.6284 15.8518 26.5554 16.1216 25.6935 16.2745C24.1963 16.5113 22.229 16.4933 20.8998 15.6409C20.5488 15.377 20.2395 15.0735 20.0978 14.6485C20.0648 14.2649 20.1214 13.9787 20.3322 13.6524C20.6727 13.2587 21.0954 13.0444 21.5627 12.8321C21.641 12.7934 21.7192 12.7545 21.7971 12.7149C21.7594 12.6757 21.7217 12.6365 21.6828 12.5961C21.2134 12.0973 20.7942 11.569 20.3908 11.0157C20.3515 10.9619 20.3515 10.9619 20.3114 10.9071C19.2948 9.49831 18.464 7.76143 18.4426 5.99494C18.4411 5.91979 18.4395 5.84464 18.438 5.76721C18.4581 5.55677 18.4806 5.4754 18.633 5.3321C18.8339 5.28096 18.9783 5.25422 19.1786 5.31379C19.3052 5.41222 19.3365 5.47392 19.3947 5.62507C19.4145 5.79281 19.4297 5.95854 19.4423 6.12678C19.5994 7.81896 20.3723 9.32489 21.3869 10.6641C21.4124 10.6981 21.438 10.7321 21.4643 10.7671C21.8124 11.2284 22.1831 11.6603 22.5805 12.0798C22.7346 12.2462 22.7346 12.2462 22.8639 12.4082C22.9637 12.5438 22.9637 12.5438 23.1008 12.638C23.1346 12.6634 23.1684 12.6888 23.2033 12.7149C23.2033 12.7536 23.2033 12.7923 23.2033 12.8321C23.2366 12.8461 23.2699 12.86 23.3042 12.8744C23.5164 12.9934 23.6632 13.1729 23.8293 13.3482C23.9639 13.4756 24.096 13.5636 24.258 13.6524C24.3962 13.5283 24.5343 13.404 24.6723 13.2796C24.7851 13.178 24.8983 13.0768 25.0119 12.9761C25.29 12.7277 25.5536 12.4793 25.7936 12.1938C25.9173 12.0485 26.047 11.9098 26.1769 11.7701C27.3122 10.52 28.2845 9.06963 28.7697 7.44148C28.7881 7.38244 28.7881 7.38244 28.8068 7.3222C29.1925 6.05317 29.097 4.71752 28.48 3.5429C28.4214 3.43553 28.3616 3.32899 28.301 3.22273C28.2595 3.14795 28.2595 3.14795 28.2172 3.07167C27.5892 2.03864 26.5035 1.37345 25.3538 1.07885C24.9746 0.994247 24.6055 0.973569 24.2177 0.974193C24.1254 0.974334 24.1254 0.974334 24.0313 0.974479C23.3346 0.985399 22.7117 1.14731 22.09 1.46492C22.0411 1.48742 21.9921 1.50993 21.9417 1.53312C21.0104 1.99073 20.3394 2.82339 19.8719 3.72919C19.7169 4.02191 19.7169 4.02191 19.568 4.12956C19.3781 4.18035 19.2314 4.14954 19.0432 4.10163C18.8959 3.97338 18.8705 3.90122 18.8527 3.70727C18.9008 3.07812 19.4241 2.46403 19.8049 1.99226C19.8455 1.93912 19.8455 1.93912 19.887 1.88491C20.8913 0.603398 22.6415 -0.0260326 24.2177 -0.0182391ZM21.7971 13.7696C21.4531 13.9364 21.2181 14.0702 21.0353 14.4141C21.5328 15.0998 22.3869 15.2578 23.1848 15.3864C24.5376 15.5396 26.042 15.4697 27.2177 14.7195C27.3218 14.6419 27.3218 14.6419 27.4221 14.4727C27.41 14.3221 27.3805 14.2562 27.2758 14.1468C27.0143 13.9532 26.7592 13.8097 26.4511 13.7025C26.3088 13.6524 26.3088 13.6524 26.192 13.5895C26.0549 13.5266 25.9899 13.5084 25.84 13.5352C25.6138 13.6994 25.423 13.891 25.2273 14.0899C25.0884 14.2279 24.9425 14.3539 24.7927 14.4801C24.7433 14.5225 24.6939 14.5649 24.643 14.6087C24.4623 14.7267 24.3572 14.7652 24.1408 14.7657C23.796 14.6139 23.5508 14.3788 23.2839 14.1175C22.7409 13.5893 22.5328 13.4695 21.7971 13.7696Z" fill="#111111" fill-opacity="0.7"></path>
                                    <path d="M9.59114 13.9855C10.2049 14.5537 10.5592 15.351 10.6186 16.1777C10.6426 17.0534 10.3627 17.8962 9.79622 18.5704C9.12737 19.2624 8.28038 19.6081 7.32429 19.6288C6.40222 19.59 5.55928 19.2099 4.92104 18.5423C4.39317 17.8887 4.14987 17.2039 4.13826 16.3695C4.13743 16.3234 4.1366 16.2772 4.13574 16.2296C4.13852 15.8969 4.19473 15.5963 4.33601 15.2929C4.46785 15.1647 4.46785 15.1647 4.62898 15.1171C4.8541 15.159 4.99311 15.1882 5.15633 15.3515C5.16591 15.489 5.16591 15.489 5.15953 15.6607C5.1581 15.7235 5.15666 15.7863 5.15518 15.851C5.15113 15.9822 5.14656 16.1135 5.14145 16.2447C5.12737 16.9406 5.31775 17.4813 5.80086 17.9882C6.28177 18.4446 6.84566 18.6115 7.5004 18.6061C7.89514 18.5883 8.21218 18.4703 8.55476 18.2811C8.59434 18.26 8.63392 18.2388 8.6747 18.2171C9.07352 17.97 9.37897 17.508 9.52156 17.0651C9.67624 16.3703 9.61344 15.7522 9.25789 15.1317C8.88283 14.5842 8.35268 14.276 7.71133 14.1526C7.05546 14.0596 6.55498 14.2481 5.99197 14.5684C5.77477 14.6592 5.67228 14.6565 5.44929 14.5897C5.28991 14.4516 5.27475 14.3639 5.24422 14.1539C5.27289 13.9497 5.30035 13.8602 5.45639 13.7259C5.84976 13.4626 6.27266 13.2675 6.73836 13.1835C6.79727 13.1728 6.79727 13.1728 6.85738 13.162C7.87939 13.0101 8.80681 13.3376 9.59114 13.9855Z" fill="#111111" fill-opacity="0.7"></path>
                                    <path d="M25.7814 3.63273C26.3306 4.07582 26.6842 4.62877 26.8079 5.32829C26.8873 6.15856 26.7028 6.85709 26.1842 7.50724C25.754 7.97581 25.1536 8.30868 24.5129 8.34564C24.4206 8.34703 24.3283 8.34708 24.236 8.34587C24.1872 8.34534 24.1385 8.34481 24.0883 8.34427C23.4053 8.32509 22.8901 8.0751 22.3829 7.61711C21.8628 7.04118 21.6151 6.39996 21.6212 5.62492C21.6556 4.99668 21.94 4.35462 22.3719 3.8964C23.3542 3.0176 24.6761 2.92794 25.7814 3.63273ZM22.8704 4.8133C22.6204 5.1639 22.5236 5.54807 22.5823 5.9703C22.6824 6.44129 22.8342 6.79332 23.233 7.07718C23.6953 7.36224 24.0647 7.44373 24.6095 7.38273C25.1107 7.2262 25.4591 6.9577 25.7228 6.50383C25.9268 6.05477 25.94 5.63492 25.7777 5.17059C25.6048 4.75637 25.2933 4.41507 24.8906 4.21226C24.1132 3.92416 23.3872 4.17749 22.8704 4.8133Z" fill="#111111" fill-opacity="0.7"></path>
                                    <path d="M16.6405 14.707C16.7973 14.798 16.8127 14.8721 16.8713 15.0439C16.8773 15.3568 16.7357 15.541 16.5327 15.7616C16.3516 15.9341 16.2302 16.0434 15.9814 16.0912C15.7964 16.0492 15.711 16.0226 15.5858 15.8788C15.526 15.6633 15.501 15.5305 15.5895 15.3222C16.1117 14.6484 16.1117 14.6484 16.6405 14.707Z" fill="#111111" fill-opacity="0.7"></path>
                                    <path d="M27.8257 20.1131C28.1599 20.2295 28.4648 20.4406 28.6378 20.7494C28.6551 20.9482 28.6407 21.0412 28.5353 21.2109C28.3711 21.3476 28.2902 21.3906 28.0757 21.3729C27.7499 21.2939 27.4201 21.0963 27.235 20.8099C27.1711 20.6268 27.1825 20.5199 27.2572 20.3429C27.4303 20.1341 27.5559 20.0647 27.8257 20.1131Z" fill="#111111" fill-opacity="0.7"></path>
                                    <path d="M18.739 19.6069C18.7807 19.6047 18.8225 19.6025 18.8655 19.6003C19.1013 19.5963 19.2055 19.6185 19.3929 19.7657C19.5117 19.9218 19.5117 19.9218 19.5483 20.0976C19.4983 20.3377 19.4101 20.4149 19.2188 20.5664C19.0471 20.5944 18.9163 20.6051 18.7463 20.5993C18.7049 20.6 18.6635 20.6006 18.6208 20.6013C18.4178 20.5984 18.3016 20.5819 18.1384 20.4579C18.0188 20.2934 17.9924 20.1835 17.9883 19.9804C18.1628 19.6064 18.3557 19.6144 18.739 19.6069Z" fill="#111111" fill-opacity="0.7"></path>
                                    <path d="M25.6824 19.6142C25.7595 19.6127 25.8366 19.6112 25.9161 19.6096C26.1408 19.6296 26.2491 19.668 26.4258 19.8046C26.5104 19.9739 26.5065 20.0857 26.4844 20.2734C26.3214 20.4884 26.2354 20.5592 25.966 20.6032C25.8836 20.6034 25.8013 20.6021 25.719 20.5993C25.6776 20.5999 25.6361 20.6006 25.5935 20.6012C25.3905 20.5984 25.2743 20.5818 25.1111 20.4579C24.9915 20.2934 24.9651 20.1835 24.9609 19.9804C25.1314 19.6151 25.3076 19.6171 25.6824 19.6142Z" fill="#111111" fill-opacity="0.7"></path>
                                    <path d="M16.6993 18.9257C16.9763 19.1169 17.1891 19.289 17.3036 19.6105C17.281 19.8499 17.2293 19.9379 17.0509 20.0976C16.8981 20.1697 16.8105 20.1721 16.6494 20.1232C16.3222 19.9817 16.0597 19.7625 15.879 19.453C15.8717 19.2293 15.8858 19.1135 16.0182 18.933C16.2558 18.7685 16.4534 18.8075 16.6993 18.9257Z" fill="#111111" fill-opacity="0.7"></path>
                                    <path d="M15.6445 16.7578C15.8468 16.9062 15.925 17.0001 15.985 17.2449C15.9887 17.3162 15.9923 17.3875 15.996 17.461C15.9983 17.5013 16.0005 17.5416 16.0029 17.5832C16.0163 17.9853 16.0163 17.9853 15.8788 18.1641C15.7287 18.2767 15.6543 18.2819 15.465 18.2703C15.2824 18.2198 15.2208 18.2024 15.1171 18.0469C14.9997 17.7378 14.9588 17.4369 14.9999 17.1094C15.1487 16.7848 15.2895 16.7161 15.6445 16.7578Z" fill="#111111" fill-opacity="0.7"></path>
                                    <path d="M19.098 27.0995C19.1598 27.097 19.1598 27.097 19.2229 27.0945C19.4558 27.0936 19.5598 27.1205 19.7444 27.2659C19.8634 27.4218 19.8634 27.4218 19.8964 27.6012C19.8565 27.8095 19.793 27.8775 19.629 28.0077C19.4567 28.0939 19.3008 28.0763 19.109 28.0773C19.0005 28.0786 19.0005 28.0786 18.8897 28.0798C18.7053 28.0673 18.6084 28.0503 18.4571 27.9491C18.3352 27.7923 18.3402 27.7079 18.3473 27.506C18.3986 27.3046 18.3986 27.3046 18.4899 27.206C18.6895 27.0983 18.8767 27.0987 19.098 27.0995Z" fill="#111111" fill-opacity="0.7"></path>
                                    <path d="M24.4335 27.2462C24.524 27.4274 24.5092 27.574 24.492 27.7735C24.361 27.9529 24.285 28.0023 24.0656 28.0477C23.9595 28.0534 23.9595 28.0534 23.8512 28.0592C23.7806 28.0639 23.7099 28.0686 23.6372 28.0734C23.3747 28.0644 23.2136 28.0185 23.0272 27.8321C22.9697 27.655 22.9619 27.5614 23.0162 27.3817C23.0858 27.2462 23.0858 27.2462 23.203 27.129C23.6312 27.0246 24.0544 26.9998 24.4335 27.2462Z" fill="#111111" fill-opacity="0.7"></path>
                                    <path d="M29.7657 24.0821C29.9159 24.1993 29.9159 24.1993 30.0001 24.3751C29.9938 24.7514 29.914 25.2025 29.6595 25.492C29.4846 25.567 29.3682 25.5744 29.1798 25.547C29.0118 25.4289 28.9557 25.3517 28.9035 25.1528C28.8841 24.9299 28.9217 24.7782 28.9894 24.5655C29.0096 24.4994 29.0299 24.4332 29.0507 24.365C29.1862 24.0465 29.452 24.0223 29.7657 24.0821Z" fill="#111111" fill-opacity="0.7"></path>
                                    <path d="M29.2052 21.7603C29.4713 21.807 29.5456 21.8748 29.7069 22.0898C29.8698 22.3966 29.9286 22.6831 29.8827 23.0273C29.7318 23.2048 29.6393 23.2536 29.4102 23.291C29.1863 23.2529 29.1362 23.2127 29.0037 23.0273C28.8569 22.7317 28.7071 22.4247 28.7694 22.0898C28.8916 21.865 28.9511 21.8065 29.2052 21.7603Z" fill="#111111" fill-opacity="0.7"></path>
                                    <path d="M18.2739 13.9271C18.3161 13.9254 18.3584 13.9237 18.4019 13.922C18.6078 13.9195 18.7265 13.9283 18.8951 14.0509C19.0257 14.2394 19.0163 14.3662 18.9844 14.5899C18.875 14.7285 18.7898 14.8044 18.6328 14.8829C18.4879 14.8917 18.3457 14.8965 18.2007 14.8976C18.1613 14.8988 18.1218 14.9 18.0812 14.9012C17.9002 14.9026 17.7729 14.8932 17.6125 14.8065C17.4628 14.6465 17.4609 14.5112 17.4609 14.297C17.6848 13.9419 17.8785 13.9324 18.2739 13.9271Z" fill="#111111" fill-opacity="0.7"></path>
                                    <path d="M26.5429 27.0702C26.7443 27.1874 26.7443 27.1874 26.8359 27.3632C26.8554 27.5336 26.851 27.6759 26.7773 27.8319C26.5417 28.027 26.3064 28.0381 26.0119 28.037C25.9705 28.0387 25.929 28.0403 25.8863 28.042C25.6636 28.0429 25.5661 28.0255 25.4003 27.8727C25.2806 27.6575 25.3061 27.5383 25.371 27.3046C25.628 26.9541 26.1571 27.0315 26.5429 27.0702Z" fill="#111111" fill-opacity="0.7"></path>
                                    <path d="M16.7798 27.1068C16.8947 27.1043 16.8947 27.1043 17.0119 27.1018C17.2571 27.1327 17.3528 27.1832 17.5195 27.3632C17.5584 27.4804 17.5584 27.4804 17.5562 27.5976C17.5569 27.6362 17.5577 27.6749 17.5584 27.7148C17.4955 27.9042 17.3956 27.9648 17.2266 28.0663C17.0594 28.0894 16.9203 28.0993 16.7542 28.0956C16.7127 28.0965 16.6713 28.0974 16.6286 28.0984C16.424 28.0968 16.3101 28.0825 16.1462 27.9562C16.0374 27.8085 16.0006 27.7228 15.9961 27.539C16.1738 27.1568 16.3761 27.1108 16.7798 27.1068Z" fill="#111111" fill-opacity="0.7"></path>
                                    <path d="M14.4653 27.1106C14.5364 27.1085 14.6076 27.1063 14.6809 27.104C14.9173 27.1332 15.0095 27.1962 15.1757 27.3633C15.2614 27.5669 15.2409 27.6399 15.1574 27.8467C15.0585 28.0079 15.0585 28.0079 14.9413 28.0665C14.7769 28.0768 14.6152 28.0827 14.4506 28.0848C14.4056 28.0865 14.3606 28.0882 14.3142 28.0899C14.0937 28.0924 13.9813 28.0923 13.7981 27.9609C13.6713 27.7736 13.6832 27.643 13.7109 27.4219C13.8868 27.1036 14.1265 27.1174 14.4653 27.1106Z" fill="#111111" fill-opacity="0.7"></path>
                                    <path d="M21.0682 19.6032C21.1444 19.6044 21.2207 19.6057 21.2992 19.6071C21.4824 19.6265 21.5875 19.645 21.7384 19.746C21.851 19.8961 21.8562 19.9705 21.8446 20.1598C21.796 20.3354 21.7635 20.3995 21.6212 20.5077C21.4462 20.5952 21.2675 20.5842 21.0756 20.5883C20.9599 20.5926 20.9599 20.5926 20.8419 20.597C20.5756 20.5593 20.4944 20.4832 20.3322 20.2733C20.2955 20.0976 20.2955 20.0976 20.3322 19.9218C20.5569 19.6325 20.7076 19.5921 21.0682 19.6032Z" fill="#111111" fill-opacity="0.7"></path>
                                    <path d="M21.416 27.1033C21.4605 27.1029 21.505 27.1025 21.5509 27.102C21.7436 27.1042 21.8883 27.1149 22.059 27.2079C22.1926 27.3525 22.2032 27.4619 22.2071 27.6563C22.1361 27.8206 22.0804 27.9177 21.929 28.0149C21.5988 28.1437 21.2029 28.1071 20.8777 27.9859C20.7422 27.8907 20.7422 27.8907 20.6836 27.7735C20.6502 27.4127 20.6502 27.4127 20.7708 27.2345C20.9784 27.0856 21.1704 27.0968 21.416 27.1033Z" fill="#111111" fill-opacity="0.7"></path>
                                    <path d="M28.6524 26.0741C28.8237 26.2235 28.8779 26.3199 28.9197 26.5429C28.875 26.7816 28.7775 26.8559 28.5938 27.0116C28.5382 27.0648 28.4826 27.118 28.4254 27.1728C28.2136 27.3252 28.0925 27.3679 27.8321 27.3632C27.66 27.279 27.66 27.279 27.5391 27.1288C27.4999 26.9294 27.4838 26.8465 27.5391 26.6601C27.8105 26.2791 28.1715 26.0042 28.6524 26.0741Z" fill="#111111" fill-opacity="0.7"></path>
                                    <path d="M23.4081 19.5995C23.4836 19.5989 23.5591 19.5983 23.6369 19.5977C23.8773 19.6332 23.9757 19.6866 24.1405 19.8632C24.1794 19.9803 24.1794 19.9803 24.1771 20.0975C24.1778 20.1362 24.1786 20.1749 24.1794 20.2147C24.1169 20.403 24.0147 20.4647 23.8475 20.5663C23.6369 20.5974 23.6369 20.5974 23.4081 20.5956C23.3325 20.5962 23.257 20.5968 23.1792 20.5974C22.9388 20.5619 22.8404 20.5084 22.6756 20.3319C22.6367 20.2147 22.6367 20.2147 22.639 20.0975C22.6383 20.0589 22.6375 20.0202 22.6367 19.9803C22.7559 19.6214 23.0768 19.5968 23.4081 19.5995Z" fill="#111111" fill-opacity="0.7"></path>
                                </svg>