<svg width="12" height="12" viewBox="0 0 12 12" fill="none" xmlns="http://www.w3.org/2000/svg">
                                <path d="M0.992761 1.77804C1.01027 1.77798 1.02778 1.77792 1.04581 1.77785C1.10481 1.77767 1.1638 1.77766 1.2228 1.77765C1.26539 1.77755 1.30798 1.77745 1.35058 1.77734C1.46789 1.77706 1.5852 1.77692 1.70252 1.77682C1.82894 1.77668 1.95537 1.7764 2.0818 1.77615C2.38728 1.77558 2.69275 1.77524 2.99823 1.77493C3.08451 1.77485 3.17079 1.77475 3.25707 1.77466C3.79281 1.77407 4.32855 1.77355 4.86429 1.77326C4.9884 1.77319 5.11251 1.77312 5.23663 1.77305C5.26748 1.77303 5.29832 1.77301 5.33011 1.773C5.82974 1.7727 6.32937 1.77192 6.829 1.77094C7.34193 1.76995 7.85486 1.7694 8.3678 1.76927C8.6558 1.76919 8.9438 1.76892 9.2318 1.76815C9.4771 1.76749 9.7224 1.76723 9.9677 1.7675C10.0928 1.76762 10.2179 1.76755 10.343 1.76697C10.4577 1.76644 10.5724 1.76646 10.687 1.7669C10.7284 1.76697 10.7698 1.76684 10.8111 1.76649C11.1809 1.76353 11.4593 1.83916 11.7345 2.09958C11.8902 2.26454 12.0026 2.49035 12.0032 2.7184C12.0033 2.74208 12.0034 2.76575 12.0035 2.79014C12.0036 2.82909 12.0036 2.82909 12.0036 2.86883C12.0037 2.89645 12.0038 2.92407 12.0039 2.95252C12.0042 3.02922 12.0043 3.10591 12.0044 3.18261C12.0046 3.26532 12.0048 3.34804 12.0051 3.43075C12.0057 3.63056 12.006 3.83036 12.0063 4.03017C12.0064 4.08663 12.0065 4.14309 12.0066 4.19956C12.0072 4.5504 12.0077 4.90124 12.008 5.25209C12.008 5.33334 12.0081 5.41459 12.0082 5.49584C12.0082 5.51603 12.0082 5.53623 12.0082 5.55703C12.0085 5.88389 12.0093 6.21074 12.0103 6.53759C12.0113 6.8734 12.0118 7.2092 12.012 7.545C12.012 7.73345 12.0123 7.92189 12.0131 8.11034C12.0137 8.27089 12.014 8.43144 12.0137 8.592C12.0136 8.67383 12.0137 8.75564 12.0143 8.83747C12.0148 8.92646 12.0146 9.01541 12.0142 9.1044C12.0146 9.12989 12.0149 9.15539 12.0152 9.18165C12.0121 9.49014 11.8904 9.73259 11.6816 9.95325C11.4941 10.1303 11.2614 10.2224 11.0072 10.222C10.9897 10.222 10.9722 10.2221 10.9541 10.2222C10.8951 10.2223 10.8362 10.2223 10.7772 10.2224C10.7346 10.2225 10.692 10.2226 10.6494 10.2227C10.5321 10.223 10.4148 10.2231 10.2974 10.2232C10.171 10.2233 10.0446 10.2236 9.91816 10.2239C9.61268 10.2244 9.3072 10.2248 9.00172 10.2251C8.91544 10.2252 8.82916 10.2253 8.74289 10.2254C8.20715 10.2259 7.67141 10.2265 7.13567 10.2268C7.01155 10.2268 6.88744 10.2269 6.76333 10.227C6.71706 10.227 6.71705 10.227 6.66985 10.227C6.17022 10.2273 5.67059 10.2281 5.17096 10.2291C4.65802 10.2301 4.14509 10.2306 3.63216 10.2307C3.34415 10.2308 3.05615 10.2311 2.76815 10.2319C2.52285 10.2325 2.27755 10.2328 2.03225 10.2325C1.90714 10.2324 1.78203 10.2325 1.65691 10.233C1.54224 10.2336 1.42758 10.2335 1.31291 10.2331C1.27155 10.233 1.2302 10.2332 1.18884 10.2335C0.819033 10.2365 0.540698 10.1609 0.26548 9.90042C0.109754 9.73547 -0.00262484 9.50965 -0.00323409 9.28161C-0.00335302 9.25793 -0.00347195 9.23426 -0.00359449 9.20986C-0.00360615 9.1839 -0.00361787 9.15793 -0.00362989 9.13118C-0.0037326 9.10356 -0.0038353 9.07594 -0.00394112 9.04748C-0.00420028 8.97079 -0.00435389 8.89409 -0.00446102 8.8174C-0.00460076 8.73468 -0.00487282 8.65197 -0.00512406 8.56925C-0.00569856 8.36945 -0.00604164 8.16964 -0.0063442 7.96984C-0.00643123 7.91338 -0.00652436 7.85691 -0.00661966 7.80045C-0.00721125 7.44961 -0.00772795 7.09876 -0.00801951 6.74792C-0.00808817 6.66667 -0.00815763 6.58542 -0.00822827 6.50417C-0.00824576 6.48397 -0.00826319 6.46378 -0.0082812 6.44297C-0.00857753 6.11612 -0.00935594 5.78927 -0.010333 5.46241C-0.0113286 5.12661 -0.0118797 4.79081 -0.0120021 4.455C-0.0120819 4.26656 -0.0123557 4.07811 -0.0131295 3.88967C-0.0137876 3.72911 -0.0140427 3.56857 -0.0137812 3.40801C-0.0136601 3.32618 -0.0137241 3.24436 -0.0143077 3.16254C-0.0148411 3.07355 -0.0146443 2.9846 -0.0142729 2.89561C-0.0145983 2.87012 -0.0149236 2.84462 -0.0152588 2.81835C-0.0121035 2.50987 0.109508 2.26741 0.318306 2.04676C0.505866 1.86969 0.738545 1.7776 0.992761 1.77804ZM1.24216 2.48438C1.35261 2.61427 1.35261 2.61427 1.46858 2.73731C1.48414 2.75296 1.49969 2.7686 1.51572 2.78473C1.5407 2.80968 1.5407 2.80968 1.56619 2.83513C1.58422 2.85323 1.60225 2.87133 1.62083 2.88998C1.68095 2.95031 1.74116 3.01056 1.80137 3.0708C1.84462 3.11416 1.88786 3.15752 1.9311 3.20088C2.04831 3.31841 2.16562 3.43586 2.28294 3.55328C2.35622 3.62663 2.42948 3.69999 2.50275 3.77336C2.70572 3.97661 2.90871 4.17985 3.11178 4.383C3.12475 4.39597 3.13772 4.40895 3.15109 4.42232C3.16409 4.43533 3.17709 4.44833 3.19048 4.46173C3.21683 4.48809 3.24317 4.51444 3.26951 4.5408C3.28258 4.55387 3.29565 4.56694 3.30911 4.58041C3.52118 4.79257 3.7331 5.0049 3.94494 5.21729C4.1626 5.4355 4.38039 5.65358 4.59831 5.87153C4.7206 5.99384 4.84284 6.11621 4.96493 6.23873C5.07963 6.35383 5.19452 6.46876 5.30953 6.58356C5.35175 6.62577 5.39392 6.66804 5.43603 6.71038C5.4934 6.76804 5.55098 6.82549 5.60862 6.88288C5.62532 6.89978 5.64203 6.91667 5.65924 6.93408C5.78234 7.05595 5.86518 7.10533 6.0431 7.11008C6.20765 7.08241 6.31112 6.96433 6.42299 6.85123C6.44158 6.83271 6.46017 6.8142 6.47933 6.79512C6.54157 6.73305 6.60356 6.67073 6.66555 6.60841C6.71013 6.56385 6.75471 6.51931 6.79931 6.47479C6.90782 6.36642 7.01614 6.25786 7.12439 6.14924C7.2504 6.02282 7.3766 5.89659 7.5028 5.77037C7.72787 5.54526 7.95277 5.31999 8.17758 5.09462C8.39591 4.87575 8.61434 4.65698 8.83289 4.43834C8.84637 4.42486 8.85984 4.41138 8.87372 4.3975C8.90087 4.37034 8.92801 4.34319 8.95516 4.31603C8.96854 4.30264 8.98193 4.28925 8.99573 4.27545C9.00908 4.26209 9.02243 4.24873 9.03619 4.23497C9.24429 4.02678 9.4523 3.8185 9.6603 3.61022C9.73578 3.53463 9.81127 3.45906 9.88677 3.38349C10.0064 3.26372 10.1261 3.1439 10.2456 3.02401C10.3003 2.9692 10.355 2.91441 10.4097 2.85967C10.4688 2.80046 10.5279 2.74119 10.587 2.68189C10.6045 2.6644 10.622 2.64692 10.6401 2.62891C10.6636 2.60527 10.6636 2.60527 10.6875 2.58115C10.7012 2.56745 10.7149 2.55376 10.7289 2.53965C10.7604 2.51208 10.7604 2.51208 10.7578 2.48438C7.61763 2.48438 4.47748 2.48438 1.24216 2.48438ZM0.703102 3C0.703102 4.98 0.703102 6.96 0.703102 9C0.805015 8.91265 0.900422 8.82904 0.994557 8.7348C1.00628 8.7231 1.018 8.7114 1.03007 8.69935C1.06881 8.66065 1.10747 8.62187 1.14612 8.58308C1.17408 8.55512 1.20204 8.52716 1.23001 8.4992C1.30555 8.42367 1.38101 8.34807 1.45646 8.27246C1.53546 8.19331 1.61453 8.11423 1.69359 8.03514C1.84313 7.88553 1.9926 7.73586 2.14206 7.58617C2.31228 7.41569 2.48257 7.24527 2.65287 7.07486C3.00302 6.72446 3.35309 6.37398 3.7031 6.02344C3.66589 5.93303 3.60822 5.87585 3.53953 5.80719C3.52155 5.78913 3.52154 5.78913 3.5032 5.7707C3.46303 5.73039 3.42268 5.69025 3.38234 5.65011C3.3535 5.62124 3.32467 5.59237 3.29584 5.56348C3.21756 5.48508 3.13912 5.40682 3.06066 5.3286C2.97867 5.24681 2.8968 5.16491 2.81492 5.08302C2.67745 4.94557 2.5399 4.80822 2.40228 4.67092C2.24295 4.51196 2.08374 4.35287 1.9246 4.19371C1.77171 4.04081 1.61875 3.88797 1.46575 3.73517C1.40053 3.67003 1.33533 3.60488 1.27015 3.5397C1.19351 3.46308 1.11681 3.38652 1.04006 3.31001C1.01181 3.28184 0.98359 3.25364 0.955388 3.22543C0.917068 3.1871 0.878676 3.14884 0.840265 3.1106C0.818743 3.08911 0.797221 3.06763 0.775047 3.0455C0.734774 2.99733 0.734774 2.99733 0.703102 3ZM11.1925 3.07791C11.1752 3.09528 11.1752 3.09528 11.1576 3.11301C11.1454 3.12516 11.1332 3.13732 11.1207 3.14984C11.0796 3.19092 11.0385 3.23208 10.9975 3.27324C10.9682 3.30257 10.9389 3.3319 10.9095 3.36122C10.8296 3.44111 10.7498 3.52108 10.67 3.60106C10.5867 3.68452 10.5033 3.76793 10.4199 3.85133C10.2619 4.00941 10.1039 4.16755 9.94602 4.32571C9.76628 4.50572 9.58647 4.68565 9.40665 4.86559C9.03664 5.23584 8.66672 5.60618 8.29685 5.97657C8.33407 6.06697 8.39174 6.12416 8.46043 6.19281C8.47841 6.21088 8.47841 6.21088 8.49675 6.22931C8.53693 6.26962 8.57727 6.30975 8.61761 6.3499C8.64645 6.37876 8.67529 6.40764 8.70411 6.43653C8.7824 6.51493 8.86083 6.59318 8.9393 6.67141C9.02129 6.75319 9.10315 6.8351 9.18503 6.91699C9.3225 7.05444 9.46006 7.19179 9.59767 7.32909C9.75701 7.48805 9.91622 7.64714 10.0754 7.8063C10.2282 7.9592 10.3812 8.11204 10.5342 8.26484C10.5994 8.32998 10.6646 8.39513 10.7298 8.4603C10.8064 8.53692 10.8831 8.61348 10.9599 8.69C10.9881 8.71817 11.0164 8.74636 11.0446 8.77458C11.0829 8.81291 11.1213 8.85117 11.1597 8.88941C11.1812 8.91089 11.2027 8.93238 11.2249 8.95451C11.2652 9.00268 11.2652 9.00268 11.2969 9C11.2969 7.02 11.2969 5.04 11.2969 3C11.2501 3 11.2237 3.04687 11.1925 3.07791ZM4.1378 6.59343C4.12053 6.61077 4.12053 6.61077 4.10291 6.62847C4.09073 6.64061 4.07856 6.65275 4.06601 6.66526C4.02489 6.70628 3.98386 6.74739 3.94283 6.7885C3.9135 6.81779 3.88417 6.84707 3.85484 6.87636C3.77494 6.95615 3.69511 7.03602 3.6153 7.11591C3.53197 7.1993 3.44859 7.28263 3.36521 7.36596C3.22518 7.50596 3.08519 7.646 2.94523 7.78607C2.78316 7.94827 2.621 8.11038 2.4588 8.27245C2.31983 8.41132 2.1809 8.55024 2.042 8.68919C1.95893 8.77231 1.87583 8.85541 1.7927 8.93847C1.71456 9.01653 1.63648 9.09466 1.55845 9.17283C1.52971 9.2016 1.50094 9.23035 1.47216 9.25908C1.43306 9.29813 1.39402 9.33724 1.35501 9.37637C1.34344 9.38788 1.33188 9.3994 1.31996 9.41126C1.26556 9.45569 1.26556 9.45569 1.24216 9.51563C4.38232 9.51563 7.52248 9.51563 10.7578 9.51563C10.6704 9.41372 10.5868 9.31831 10.4926 9.22417C10.475 9.20659 10.475 9.20659 10.4571 9.18866C10.4184 9.14992 10.3797 9.11126 10.3409 9.07261C10.3129 9.04465 10.2849 9.01669 10.257 8.98872C10.1815 8.91318 10.1059 8.83772 10.0302 8.76227C9.9511 8.68327 9.87202 8.6042 9.79293 8.52514C9.64332 8.3756 9.49365 8.22613 9.34396 8.07667C9.17347 7.90645 9.00306 7.73616 8.83264 7.56586C8.48224 7.21571 8.13176 6.86564 7.78123 6.51563C7.75525 6.53772 7.7293 6.55984 7.70336 6.58197C7.68891 6.59428 7.67445 6.6066 7.65956 6.61929C7.59999 6.67123 7.54405 6.72627 7.48826 6.78223C7.46771 6.80271 7.44717 6.8232 7.426 6.8443C7.37579 6.8958 7.32838 6.94919 7.28135 7.0036C6.97585 7.35544 6.6452 7.72716 6.16404 7.80469C5.95757 7.81795 5.7727 7.80617 5.5781 7.73438C5.55973 7.72803 5.54136 7.72169 5.52244 7.71515C5.30978 7.62631 5.1533 7.44834 4.99216 7.28907C4.964 7.26154 4.93583 7.23401 4.90766 7.20649C4.78956 7.09031 4.67512 6.97291 4.56782 6.84659C4.50555 6.77688 4.43996 6.71073 4.374 6.64453C4.36142 6.63184 4.34883 6.61915 4.33586 6.60608C4.23718 6.5014 4.23718 6.5014 4.1378 6.59343Z" fill="white"></path>
                            </svg>