<svg width="28" height="28" viewBox="0 0 28 28" fill="none" xmlns="http://www.w3.org/2000/svg">
                                        <path d="M7.023 2.15782C7.51275 2.5743 7.96528 3.03521 8.42045 3.48861C8.4712 3.53909 8.47121 3.53909 8.52298 3.59059C8.70151 3.76818 8.87989 3.94591 9.05813 4.12378C9.24069 4.3059 9.42376 4.48751 9.60695 4.66901C9.74938 4.81032 9.89145 4.952 10.0334 5.09377C10.1007 5.16087 10.1682 5.22783 10.2358 5.29465C10.9949 6.04561 11.5591 6.77098 11.606 7.8822C11.5434 9.16513 10.5636 10.0247 9.71006 10.8739C9.63484 10.9494 9.63484 10.9494 9.5581 11.0264C9.50951 11.0748 9.46091 11.1233 9.41084 11.1733C9.36739 11.2167 9.32394 11.26 9.27918 11.3047C9.15083 11.4259 9.01744 11.5357 8.87803 11.6439C8.90989 11.9181 9.03476 12.1298 9.16788 12.3663C9.19188 12.4092 9.21589 12.452 9.24063 12.4962C9.62094 13.1614 10.0764 13.7837 10.5694 14.3698C10.6035 14.4107 10.6035 14.4107 10.6382 14.4524C11.3012 15.246 12.0002 16.0394 12.7869 16.713C12.8842 16.7964 12.9805 16.8807 13.0763 16.9656C13.8044 17.6065 14.582 18.195 15.4252 18.6768C15.4566 18.6951 15.488 18.7135 15.5203 18.7324C15.6166 18.7885 15.7134 18.8436 15.8105 18.8982C15.8674 18.9304 15.9243 18.9625 15.9829 18.9956C16.1515 19.0654 16.1877 19.0662 16.3527 19.0039C16.4515 18.9276 16.4515 18.9276 16.5441 18.8286C16.5805 18.7916 16.617 18.7546 16.6546 18.7166C16.713 18.6562 16.713 18.6562 16.7725 18.5946C16.8133 18.5532 16.8541 18.5118 16.8961 18.4692C17.0704 18.2923 17.2438 18.1145 17.4172 17.9368C17.5441 17.807 17.6715 17.6777 17.7989 17.5485C17.8563 17.4891 17.8563 17.4891 17.9149 17.4285C18.2743 17.0642 18.6718 16.7458 19.1523 16.5574C19.2049 16.5361 19.2576 16.5149 19.3119 16.4931C20.0042 16.2563 20.7377 16.3666 21.3858 16.6766C21.6281 16.8203 21.8328 16.9878 22.0365 17.1807C22.0707 17.2129 22.105 17.2452 22.1403 17.2783C22.7006 17.8096 23.2451 18.3573 23.7911 18.9031C23.9555 19.0673 24.1202 19.2312 24.285 19.3949C24.4138 19.523 24.5423 19.6513 24.6708 19.7797C24.7314 19.8402 24.7921 19.9006 24.8529 19.9609C25.6089 20.7116 26.2716 21.4555 26.2996 22.5646C26.2797 23.7414 25.5702 24.5284 24.7762 25.3269C24.7277 25.3758 24.6792 25.4248 24.6292 25.4752C24.5274 25.5777 24.4254 25.6801 24.3233 25.7823C24.2199 25.8859 24.117 25.9899 24.0145 26.0943C22.9168 27.2108 22.9168 27.2108 22.2997 27.5087C22.2434 27.5359 22.1871 27.5631 22.1291 27.5912C20.5086 28.3392 18.5258 27.9312 16.8983 27.3996C16.8509 27.3842 16.8036 27.3687 16.7548 27.3528C13.5254 26.2789 10.4899 24.3071 8.00508 22.0024C7.94434 21.9467 7.8836 21.891 7.82286 21.8354C6.43283 20.5564 6.43283 20.5564 5.88237 19.854C5.75345 19.6944 5.6152 19.5452 5.47488 19.3957C5.14939 19.046 4.85736 18.6748 4.56783 18.2951C4.53687 18.2549 4.50592 18.2147 4.47402 18.1733C3.21464 16.5359 2.1368 14.7856 1.29425 12.8979C1.26837 12.8413 1.24249 12.7847 1.21582 12.7264C0.301543 10.6733 -0.456637 8.19911 0.325822 5.9877C0.662724 5.16913 1.25606 4.59007 1.87427 3.97804C2.04158 3.81196 2.20606 3.64658 2.35816 3.46625C3.57287 2.03974 5.23036 0.9069 7.023 2.15782ZM4.40415 3.79335C4.08336 4.09739 3.77044 4.40956 3.45679 4.72091C3.35645 4.82026 3.25582 4.91933 3.1549 5.01809C3.00785 5.16203 2.86174 5.30685 2.71579 5.45189C2.67111 5.4953 2.62643 5.53871 2.5804 5.58343C1.91105 6.25473 1.66129 7.05431 1.66272 7.98703C1.67631 8.87199 1.89811 9.71557 2.16721 10.5536C2.18335 10.6046 2.19949 10.6555 2.21612 10.708C2.80539 12.5368 3.74652 14.268 4.84062 15.8418C4.86381 15.8753 4.88699 15.9088 4.91087 15.9432C5.43525 16.6971 5.99532 17.4289 6.58653 18.1316C6.62221 18.1742 6.62221 18.1742 6.65862 18.2176C7.40961 19.1123 8.20418 20.0091 9.09754 20.7651C9.23313 20.8813 9.36385 21.0023 9.49523 21.1233C9.79033 21.3912 10.0926 21.6467 10.4057 21.8933C10.4438 21.9235 10.4818 21.9537 10.5211 21.9848C13.2483 24.1383 17.076 26.6123 20.7174 26.3093C21.4484 26.203 22.0986 25.759 22.5646 25.1997C22.751 24.9847 22.9499 24.7847 23.1526 24.5851C23.1855 24.5527 23.2184 24.5202 23.2524 24.4868C23.39 24.3512 23.5278 24.2158 23.6661 24.081C23.7681 23.9813 23.8696 23.8812 23.971 23.781C24.0018 23.7512 24.0326 23.7215 24.0643 23.6908C24.3695 23.3878 24.6255 23.0582 24.6628 22.6191C24.6426 21.8244 23.6596 21.1157 23.1315 20.5834C23.0996 20.5513 23.0677 20.5191 23.0349 20.486C22.8668 20.3165 22.6984 20.1473 22.53 19.9781C22.3919 19.8394 22.2542 19.7003 22.1168 19.5609C21.9491 19.3905 21.7806 19.2209 21.6117 19.0517C21.5481 18.9878 21.4847 18.9236 21.4216 18.8593C20.8745 18.274 20.8745 18.274 20.1446 18.0139C19.6048 18.0374 19.2653 18.4171 18.9125 18.782C18.8168 18.8791 18.7211 18.9763 18.6253 19.0735C18.4761 19.226 18.3271 19.3786 18.1782 19.5315C18.0336 19.6796 17.8883 19.8271 17.7429 19.9745C17.6773 20.0425 17.6773 20.0425 17.6104 20.1119C17.2922 20.4339 16.9498 20.7304 16.5042 20.8502C15.9444 20.8518 15.5228 20.6293 15.0433 20.3668C14.9805 20.3331 14.9805 20.3331 14.9165 20.2987C13.7594 19.6725 12.704 18.869 11.7373 17.9787C11.6269 17.878 11.5148 17.7803 11.4016 17.6829C11.1585 17.4708 10.9299 17.246 10.7024 17.0174C10.6633 16.9785 10.6242 16.9397 10.584 16.8997C10.3314 16.6469 10.093 16.3854 9.8601 16.1144C9.8096 16.0573 9.75902 16.0002 9.70836 15.9432C7.12292 13.0034 7.12292 13.0034 7.10314 11.415C7.17882 11.0163 7.40338 10.741 7.69136 10.4684C7.73514 10.4254 7.73514 10.4254 7.7798 10.3816C7.93804 10.2278 8.10087 10.0808 8.26807 9.93685C8.53018 9.70937 8.77574 9.46642 9.02125 9.2213C9.06598 9.17727 9.11071 9.13324 9.15679 9.08788C9.7426 8.52484 9.7426 8.52484 9.96922 7.77317C9.8914 7.06075 9.04293 6.45632 8.56197 5.97429C8.52671 5.9389 8.49145 5.90352 8.45513 5.86706C8.26917 5.68044 8.08307 5.49396 7.89682 5.30763C7.70512 5.11576 7.51392 4.9234 7.32284 4.73092C7.17497 4.58215 7.02674 4.43375 6.87841 4.28544C6.80773 4.21465 6.73719 4.14373 6.66679 4.07267C6.56851 3.97353 6.46973 3.87493 6.37081 3.77644C6.34215 3.7473 6.31348 3.71815 6.28395 3.68813C5.6242 3.03622 5.00945 3.22989 4.40415 3.79335Z" fill="white"></path>
                                        <path d="M16.5199 0.174934C16.5793 0.18985 16.6386 0.204766 16.6998 0.220135C19.0004 0.807965 21.0991 1.85524 22.8999 3.41194C22.9461 3.45101 22.9922 3.49009 23.0397 3.53034C23.7179 4.121 24.3728 4.76815 24.9186 5.48362C24.9612 5.53682 25.0039 5.59002 25.0478 5.64483C25.9118 6.7286 26.5856 7.94182 27.1032 9.22476C27.1497 9.33979 27.1973 9.45422 27.2453 9.56863C27.6023 10.459 28.1233 11.7623 27.974 12.7345C27.845 12.9971 27.6912 13.1509 27.4284 13.2797C27.1203 13.3289 26.8722 13.2929 26.61 13.1161C26.4323 12.9236 26.3568 12.7721 26.3022 12.5171C26.288 12.4533 26.2737 12.3896 26.259 12.324C26.2443 12.2559 26.2296 12.1879 26.2144 12.1178C25.7833 10.2258 25.0419 8.43183 23.8481 6.88937C23.7716 6.79047 23.6963 6.69079 23.6209 6.59102C23.3153 6.19026 22.9924 5.83181 22.6271 5.48362C22.4988 5.35658 22.3715 5.22909 22.2471 5.09816C20.6051 3.38913 18.1695 2.24076 15.8664 1.77533C15.8223 1.76628 15.7781 1.75723 15.7326 1.7479C15.6487 1.73112 15.5647 1.71523 15.4804 1.70044C15.1917 1.6434 15.035 1.54812 14.8251 1.34026C14.6801 1.09256 14.6345 0.905128 14.6847 0.627262C14.7527 0.399782 14.8679 0.242982 15.0593 0.105642C15.4983 -0.113786 16.0691 0.0584671 16.5199 0.174934Z" fill="white"></path>
                                        <path d="M19.4797 6.82698C19.8429 7.11645 20.1715 7.44506 20.4996 7.77295C20.533 7.80373 20.5663 7.83451 20.6007 7.86623C21.815 9.00484 22.8622 11.0283 22.9241 12.7034C22.9163 12.9723 22.8726 13.133 22.682 13.3338C22.4751 13.4958 22.2884 13.5381 22.0273 13.5519C21.7629 13.4979 21.5418 13.3832 21.3726 13.1702C21.2941 12.9943 21.2529 12.8122 21.2089 12.625C20.8303 11.1265 20.2056 9.92029 19.1356 8.80879C19.1019 8.77098 19.0681 8.73317 19.0333 8.69422C18.0844 7.66554 16.6675 7.05326 15.3241 6.76176C14.9839 6.68774 14.7483 6.63243 14.5443 6.33823C14.4349 6.12106 14.4272 5.94129 14.4435 5.70127C14.5468 5.41466 14.6905 5.27229 14.9346 5.10157C16.3202 4.70597 18.4313 6.02654 19.4797 6.82698Z" fill="white"></path>
                                    </svg>