<svg width="38" height="39" viewBox="0 0 38 39" fill="none" xmlns="http://www.w3.org/2000/svg">
                                    <path d="M10.7192 28.5543V30.9957C10.7192 31.4583 11.0943 31.8334 11.5571 31.8334H26.4786C26.9416 31.8334 27.3165 31.4583 27.3165 30.9956V28.5543C27.3165 25.2665 24.6507 22.6011 21.3619 22.6011H16.6738C13.3853 22.6011 10.7192 25.2665 10.7192 28.5543Z" fill="#8CBAFA"></path>
                                    <path d="M21.3615 22.6011H19.4829C22.7714 22.6011 25.4375 25.2665 25.4375 28.5542V30.9957C25.4375 31.4582 25.0624 31.8333 24.5996 31.8333H26.4783C26.9413 31.8333 27.3162 31.4582 27.3162 30.9956V28.5542C27.3165 25.2665 24.6503 22.6011 21.3615 22.6011Z" fill="#5692D8"></path>
                                    <path d="M18.8139 19.6855C16.6291 19.7858 14.845 20.9016 14.7101 23.0839C14.5971 24.9178 15.6306 26.5235 17.1619 27.254C17.3159 27.327 17.4895 27.2114 17.4892 27.041V27.0372C17.4892 25.8807 18.1735 24.9433 19.0177 24.9433C19.8618 24.9433 20.5464 25.8807 20.5464 27.0372V27.041C20.5461 27.2114 20.7198 27.327 20.8737 27.2537C22.3283 26.5601 23.3337 25.0763 23.3337 23.3575C23.3337 20.9069 21.29 19.5713 18.8139 19.6855Z" fill="#E9E9EA"></path>
                                    <path d="M25.9651 5.50664C24.4373 2.09167 20.8883 0.78409 17.2699 2.09167C14.3516 3.14607 12.1195 2.1931 10.9534 1.5244C10.6111 1.32813 10.1974 1.56209 10.1333 1.98727C9.72154 4.71046 9.54965 11.4051 13.1724 14.3535H25.5351C26.9874 12.6236 30.2913 5.86407 25.9651 5.50664Z" fill="#575B7A"></path>
                                    <path d="M25.9652 5.50677C24.5646 2.37636 21.4656 1.01847 18.1719 1.82074C20.7406 1.74283 23.0106 3.12016 24.1392 5.72938C28.1613 6.07285 25.3636 12.3339 23.894 14.3536H25.5352C26.9874 12.6237 30.2913 5.8642 25.9652 5.50677Z" fill="#252D4C"></path>
                                    <path d="M15.7383 18.4517V21.4069C15.7383 23.2179 17.2068 24.686 19.0179 24.686C20.8293 24.686 22.2974 23.2179 22.2974 21.4069V18.4517H15.7383Z" fill="#FFD2C0"></path>
                                    <path d="M22.2974 21.4076V18.4517H15.7383V21.3874C16.6935 22.155 17.9066 22.6155 19.2275 22.6155H19.7388C20.6071 22.6163 21.4635 22.4134 22.2391 22.0232C22.2767 21.8237 22.2974 21.6181 22.2974 21.4076Z" fill="#EDAA9D"></path>
                                    <path d="M26.0178 12.3881H24.8488V11.4927C24.8488 10.1769 24.2397 9.00329 23.2884 8.23746C22.9904 7.99779 22.5764 7.97478 22.2485 8.17164C21.304 8.73802 20.1991 9.06406 19.0176 9.06406C17.8362 9.06406 16.7314 8.73802 15.7868 8.17164C15.4589 7.97486 15.0449 7.99741 14.7468 8.23746C13.7957 9.00321 13.1865 10.1768 13.1865 11.4927V12.3881H12.0176C11.2467 12.3881 10.5898 12.9875 10.5624 13.7576C10.5338 14.5666 11.1808 15.2315 11.9837 15.2315H13.1865V15.7791C13.1865 18.8575 15.6827 21.3531 18.762 21.3531H19.2733C22.3526 21.3531 24.8485 18.8575 24.8485 15.7791V15.2312H26.0516C26.8541 15.2312 27.5016 14.5666 27.4729 13.7576C27.4456 12.9872 26.7886 12.3881 26.0178 12.3881Z" fill="#FFD2C0"></path>
                                    <path d="M27.4833 38.3316H10.5524C7.90112 38.3316 5.75195 36.183 5.75195 33.5323C5.75195 30.8816 7.90112 28.7329 10.5524 28.7329H27.4831C30.1344 28.7329 32.2836 30.8816 32.2836 33.5323C32.2838 36.183 30.1344 38.3316 27.4834 38.3316H27.4833Z" fill="#ED5176"></path>
                                    <path d="M13.2806 34.6249L13.5648 35.8455C13.6618 36.264 13.2078 36.5942 12.8396 36.3722L11.7664 35.7249C11.6906 35.6792 11.6037 35.6551 11.5152 35.6551C11.4267 35.6551 11.3398 35.6792 11.264 35.7249L10.1907 36.3722C9.82248 36.5942 9.36841 36.2643 9.46586 35.8455L9.74967 34.6249C9.76973 34.5386 9.76585 34.4486 9.73846 34.3644C9.71107 34.2802 9.66121 34.2051 9.59426 34.1472L8.64714 33.3267C8.32206 33.0453 8.49551 32.5116 8.92398 32.4749L10.1726 32.3676C10.2609 32.3599 10.3453 32.3284 10.4169 32.2764C10.4886 32.2243 10.5446 32.1538 10.5791 32.0723L11.0671 30.918C11.2344 30.5221 11.7957 30.5221 11.9632 30.918L12.4508 32.0723C12.4853 32.1537 12.5414 32.2243 12.6131 32.2763C12.6847 32.3284 12.7691 32.3599 12.8573 32.3676L14.106 32.4748C14.5345 32.5116 14.7079 33.0453 14.3829 33.3266L13.436 34.1473C13.3691 34.2053 13.3194 34.2804 13.292 34.3645C13.2646 34.4487 13.2607 34.5387 13.2806 34.6249ZM20.7831 34.6249L21.067 35.8455C21.1644 36.264 20.7104 36.5942 20.3422 36.3722L19.2689 35.7249C19.193 35.6792 19.1062 35.6551 19.0176 35.6551C18.9291 35.6551 18.8422 35.6792 18.7664 35.7249L17.6932 36.3722C17.325 36.5942 16.8706 36.2643 16.9681 35.8455L17.2519 34.6249C17.2719 34.5387 17.2681 34.4486 17.2407 34.3645C17.2134 34.2803 17.1636 34.2052 17.0968 34.1472L16.1497 33.3267C15.8246 33.0453 15.998 32.5116 16.4265 32.4749L17.6752 32.3676C17.7634 32.3599 17.8478 32.3284 17.9195 32.2764C17.9911 32.2243 18.0472 32.1538 18.0817 32.0723L18.5693 30.918C18.7369 30.5221 19.2981 30.5221 19.4654 30.918L19.9534 32.0723C19.9879 32.1538 20.044 32.2243 20.1156 32.2764C20.1872 32.3284 20.2716 32.3599 20.3598 32.3676L21.6085 32.4748C22.037 32.5116 22.2104 33.0453 21.8853 33.3266L20.9383 34.1473C20.8714 34.2053 20.8217 34.2804 20.7943 34.3646C20.767 34.4487 20.7631 34.5387 20.7832 34.6249H20.7831ZM28.2854 34.6249L28.5694 35.8455C28.6667 36.264 28.2126 36.5942 27.8444 36.3722L26.7711 35.7249C26.6953 35.6792 26.6084 35.6551 26.5199 35.6551C26.4313 35.6551 26.3445 35.6792 26.2686 35.7249L25.1954 36.3722C24.8272 36.5942 24.3731 36.2643 24.4706 35.8455L24.7544 34.6249C24.7745 34.5386 24.7706 34.4486 24.7432 34.3644C24.7158 34.2802 24.666 34.2051 24.599 34.1472L23.6519 33.3267C23.3268 33.0453 23.5003 32.5116 23.9287 32.4749L25.1774 32.3676C25.2656 32.3599 25.35 32.3284 25.4217 32.2764C25.4933 32.2243 25.5494 32.1538 25.5839 32.0723L26.0718 30.918C26.2391 30.5221 26.8004 30.5221 26.9679 30.918L27.4555 32.0723C27.4901 32.1538 27.5461 32.2243 27.6178 32.2764C27.6894 32.3284 27.7738 32.3599 27.862 32.3676L29.1107 32.4748C29.5392 32.5116 29.7126 33.0453 29.3875 33.3266L28.4405 34.1473C28.3737 34.2053 28.324 34.2804 28.2966 34.3646C28.2693 34.4487 28.2654 34.5387 28.2854 34.6249Z" fill="#FFCD34"></path>
                                    <path d="M15.9193 12.4304C16.1025 12.1722 16.208 12.1408 16.2072 12.1394C16.213 12.1409 16.3186 12.1718 16.5017 12.4304C16.544 12.49 16.5976 12.5408 16.6595 12.5797C16.7214 12.6186 16.7903 12.645 16.8624 12.6572C16.9345 12.6695 17.0083 12.6674 17.0796 12.6512C17.1508 12.6349 17.2182 12.6048 17.2779 12.5625C17.3982 12.4772 17.4798 12.3475 17.5046 12.2021C17.5294 12.0566 17.4954 11.9073 17.41 11.7869C17.0523 11.2823 16.6487 11.0264 16.2107 11.0264C15.7723 11.0264 15.3687 11.2823 15.011 11.7869C14.9257 11.9074 14.8917 12.0568 14.9165 12.2023C14.9414 12.3478 15.023 12.4775 15.1435 12.5629C15.2373 12.6295 15.3496 12.6653 15.4647 12.6652C15.5537 12.6653 15.6415 12.6441 15.7206 12.6032C15.7997 12.5624 15.8679 12.5031 15.9193 12.4304ZM20.7584 12.5629C20.8789 12.6482 21.0283 12.6821 21.1738 12.6573C21.3194 12.6325 21.4491 12.5509 21.5345 12.4304C21.7176 12.1722 21.8232 12.1408 21.8223 12.1394C21.8279 12.1409 21.9334 12.1721 22.1169 12.4304C22.1683 12.5031 22.2364 12.5624 22.3155 12.6033C22.3946 12.6441 22.4824 12.6654 22.5715 12.6652C22.6735 12.6651 22.7736 12.6369 22.8607 12.5838C22.9478 12.5307 23.0186 12.4546 23.0655 12.364C23.1123 12.2733 23.1332 12.1716 23.1261 12.0698C23.119 11.968 23.084 11.8702 23.0249 11.7869C22.6674 11.2823 22.2636 11.0267 21.8256 11.0267C21.3875 11.0267 20.9836 11.2823 20.6262 11.7869C20.5408 11.9074 20.5068 12.0567 20.5316 12.2022C20.5563 12.3477 20.6379 12.4774 20.7583 12.5629H20.7584ZM16.5475 15.0246C16.4134 15.0864 16.3094 15.1989 16.2583 15.3374C16.2072 15.4759 16.2132 15.629 16.275 15.7631C16.7671 16.8294 17.8438 17.5184 19.0179 17.5184C20.1924 17.5184 21.2688 16.8294 21.7608 15.7631C21.7925 15.6966 21.8106 15.6245 21.8142 15.5509C21.8177 15.4774 21.8067 15.4038 21.7816 15.3346C21.7565 15.2653 21.718 15.2018 21.6681 15.1475C21.6183 15.0933 21.5582 15.0495 21.4913 15.0186C21.4244 14.9878 21.3521 14.9705 21.2785 14.9679C21.2049 14.9652 21.1315 14.9771 21.0625 15.003C20.9936 15.0289 20.9304 15.0682 20.8768 15.1187C20.8231 15.1691 20.78 15.2297 20.75 15.297C20.4394 15.9703 19.7595 16.4054 19.0179 16.4054C18.2766 16.4054 17.5968 15.97 17.2859 15.297C17.2554 15.2306 17.212 15.1709 17.1583 15.1213C17.1047 15.0717 17.0417 15.0331 16.9732 15.0079C16.9046 14.9826 16.8317 14.971 16.7587 14.9739C16.6857 14.9767 16.6139 14.994 16.5475 15.0246ZM14.1543 31.9205L12.9479 31.8167L12.4765 30.7016C12.313 30.3147 11.9358 30.0648 11.5157 30.0648C11.0956 30.0648 10.7184 30.3147 10.5549 30.7016L10.0835 31.8167L8.87691 31.9205C8.67253 31.9377 8.4778 32.0149 8.31718 32.1425C8.15656 32.27 8.0372 32.4421 7.9741 32.6372C7.91057 32.8321 7.906 33.0414 7.96098 33.2389C8.01596 33.4364 8.12804 33.6132 8.28315 33.7473L9.19842 34.5404L8.92411 35.7194C8.87737 35.9191 8.89069 36.1282 8.96239 36.3203C9.03409 36.5125 9.16098 36.6792 9.32712 36.7995C9.4929 36.9201 9.69061 36.9892 9.89547 36.9979C10.1003 37.0067 10.3032 36.9548 10.4787 36.8488L11.5157 36.2235L12.5528 36.8488C12.7282 36.9548 12.9311 37.0067 13.136 36.998C13.3409 36.9892 13.5386 36.9202 13.7043 36.7995C13.8705 36.6792 13.9974 36.5125 14.0691 36.3204C14.1408 36.1282 14.1541 35.9192 14.1074 35.7195L13.833 34.5404L14.7483 33.7474C14.9034 33.6133 15.0155 33.4364 15.0704 33.2389C15.1254 33.0414 15.1207 32.8321 15.0571 32.6372C14.994 32.4421 14.8746 32.27 14.714 32.1425C14.5534 32.015 14.3586 31.9377 14.1543 31.9205ZM13.072 33.7267C12.9282 33.8508 12.8212 34.0119 12.7625 34.1924C12.7037 34.373 12.6956 34.5662 12.7389 34.7511L12.9853 35.8099L12.0544 35.2485C11.8919 35.1502 11.7056 35.0982 11.5157 35.0982C11.3258 35.0982 11.1395 35.1502 10.977 35.2485L10.0461 35.8099L10.2925 34.7511C10.3358 34.5662 10.3277 34.373 10.269 34.1925C10.2103 34.0119 10.1032 33.8508 9.95947 33.7267L9.13786 33.0149L10.2209 32.9222C10.4102 32.9061 10.5914 32.8387 10.7451 32.7271C10.8987 32.6155 11.0189 32.464 11.0927 32.2891L11.5158 31.2877L11.939 32.2891C12.0127 32.464 12.1329 32.6155 12.2865 32.7271C12.4401 32.8387 12.6213 32.9061 12.8105 32.9222L13.8936 33.0152L13.072 33.7267ZM21.6568 31.9205L20.4501 31.8167L19.9788 30.7016C19.8992 30.5127 19.7655 30.3514 19.5946 30.2381C19.4236 30.1248 19.223 30.0645 19.0179 30.0648C18.8128 30.0645 18.6122 30.1248 18.4413 30.2381C18.2704 30.3514 18.1367 30.5127 18.0572 30.7016L17.5857 31.8167L16.3794 31.9205C16.175 31.9377 15.9802 32.0149 15.8196 32.1424C15.659 32.27 15.5396 32.4421 15.4766 32.6372C15.4129 32.8321 15.4082 33.0414 15.4632 33.2389C15.5181 33.4364 15.6302 33.6133 15.7853 33.7473L16.7006 34.5404L16.4263 35.7194C16.3797 35.9191 16.393 36.1282 16.4647 36.3203C16.5364 36.5124 16.6633 36.6791 16.8293 36.7995C16.9951 36.9202 17.1929 36.9893 17.3978 36.9981C17.6028 37.0068 17.8057 36.9549 17.9812 36.8488L19.0179 36.2235L20.055 36.8488C20.2305 36.955 20.4334 37.0069 20.6384 36.9982C20.8433 36.9894 21.0411 36.9203 21.2069 36.7995C21.3729 36.6792 21.4998 36.5125 21.5714 36.3203C21.643 36.1282 21.6563 35.9191 21.6095 35.7195L21.3353 34.5404L22.2505 33.7474C22.4057 33.6133 22.5178 33.4365 22.5728 33.239C22.6278 33.0415 22.6232 32.8321 22.5596 32.6372C22.4964 32.4422 22.377 32.2701 22.2164 32.1426C22.0558 32.0151 21.8611 31.9378 21.6568 31.9205ZM20.5742 33.7267C20.4306 33.8509 20.3236 34.012 20.265 34.1925C20.2063 34.3731 20.1982 34.5662 20.2414 34.7511L20.4875 35.8099L19.5566 35.2485C19.3941 35.1502 19.2078 35.0982 19.0179 35.0982C18.828 35.0982 18.6417 35.1502 18.4792 35.2485L17.5484 35.8099L17.7948 34.7511C17.8381 34.5662 17.8299 34.3731 17.7713 34.1925C17.7126 34.0119 17.6056 33.8509 17.4619 33.7267L16.64 33.0149L17.7235 32.9222C17.9127 32.9061 18.0939 32.8387 18.2475 32.7271C18.4011 32.6155 18.5212 32.464 18.5949 32.2891L19.0182 31.2877L19.4413 32.2891C19.515 32.464 19.6351 32.6155 19.7887 32.7271C19.9424 32.8387 20.1236 32.9061 20.3127 32.9222L21.3958 33.0149L20.5742 33.7267ZM29.159 31.9205L27.9526 31.8167L27.4813 30.7016C27.4016 30.5127 27.2679 30.3514 27.0969 30.2381C26.9259 30.1249 26.7253 30.0646 26.5201 30.0648C26.3151 30.0646 26.1146 30.1249 25.9437 30.2381C25.7728 30.3514 25.6392 30.5127 25.5597 30.7016L25.0882 31.8167L23.8817 31.9205C23.6773 31.9377 23.4825 32.0149 23.3219 32.1425C23.1612 32.27 23.0419 32.4421 22.9788 32.6372C22.9153 32.8321 22.9107 33.0415 22.9657 33.2389C23.0207 33.4364 23.1328 33.6132 23.2879 33.7473L24.2032 34.5404L23.9289 35.7194C23.8821 35.9191 23.8954 36.1281 23.9671 36.3203C24.0387 36.5124 24.1655 36.6791 24.3316 36.7995C24.4974 36.9202 24.6951 36.9893 24.9001 36.9981C25.105 37.0068 25.3079 36.9549 25.4834 36.8488L26.5204 36.2235L27.5575 36.8488C27.72 36.947 27.9063 36.999 28.0962 36.9989C28.3119 36.9989 28.5267 36.9319 28.7093 36.7995C28.8753 36.6791 29.0021 36.5124 29.0738 36.3203C29.1454 36.1282 29.1587 35.9192 29.112 35.7195L28.8378 34.5404L29.7531 33.7474C29.9082 33.6133 30.0202 33.4364 30.0752 33.239C30.1302 33.0415 30.1256 32.8321 30.0621 32.6372C29.9989 32.4421 29.8795 32.27 29.7188 32.1425C29.5581 32.015 29.3634 31.9378 29.159 31.9205ZM28.0764 33.7267C27.9328 33.8509 27.8258 34.012 27.7672 34.1925C27.7086 34.3731 27.7006 34.5663 27.7439 34.7511L27.9901 35.8099L27.0591 35.2485C26.8966 35.1502 26.7103 35.0982 26.5204 35.0982C26.3305 35.0982 26.1442 35.1502 25.9818 35.2485L25.0508 35.8097L25.297 34.7511C25.3403 34.5662 25.3321 34.3731 25.2734 34.1925C25.2148 34.012 25.1078 33.8509 24.9641 33.7267L24.1425 33.0149L25.2257 32.9219C25.4149 32.9059 25.5961 32.8385 25.7498 32.7269C25.9034 32.6154 26.0235 32.4639 26.0972 32.2889L26.5204 31.2877L26.9435 32.2889C27.0171 32.4638 27.1373 32.6153 27.2909 32.7269C27.4445 32.8385 27.6258 32.9059 27.815 32.9218L28.8983 33.0149L28.0764 33.7267Z" fill="black"></path>
                                    <path d="M27.8638 28.1897C27.8184 27.3464 27.6076 26.5202 27.2433 25.7581C27.2119 25.6921 27.1678 25.633 27.1135 25.584C27.0592 25.5351 26.9958 25.4973 26.9269 25.4729C26.858 25.4485 26.785 25.4378 26.712 25.4416C26.6389 25.4454 26.5674 25.4636 26.5014 25.495C26.224 25.6269 26.1063 25.9591 26.2382 26.2367C26.5291 26.8453 26.7019 27.5034 26.7473 28.1764H11.2889C11.4199 26.3032 12.5181 24.6394 14.1628 23.7756C14.308 25.4858 15.3387 27.0008 16.9222 27.7558C17.0278 27.8063 17.1433 27.8327 17.2603 27.833C17.4056 27.833 17.5502 27.7921 17.678 27.7109C17.9094 27.5646 18.0469 27.313 18.0457 27.037C18.0457 26.2179 18.4999 25.4996 19.0177 25.4996C19.5358 25.4996 19.9902 26.2179 19.9902 27.0385C19.989 27.1725 20.0221 27.3045 20.0863 27.4221C20.1505 27.5397 20.2436 27.639 20.3569 27.7106C20.4687 27.7819 20.5969 27.8235 20.7294 27.8314C20.8618 27.8394 20.9941 27.8133 21.1136 27.7559C22.6739 27.0118 23.7234 25.4784 23.8718 23.7744C24.3004 23.9998 24.6966 24.282 25.0497 24.6133C25.1526 24.71 25.2886 24.7637 25.4298 24.7635C25.5061 24.7636 25.5816 24.748 25.6515 24.7177C25.7215 24.6874 25.7845 24.643 25.8366 24.5872C26.0467 24.3629 26.0349 24.0107 25.8105 23.8006C25.2228 23.2507 24.5528 22.8218 23.8153 22.5226C23.6866 21.8284 23.3931 21.2076 22.9469 20.6885C24.4919 19.534 25.4031 17.732 25.4055 15.7874H26.0519C26.5938 15.7874 27.0992 15.5726 27.4755 15.1827C27.8515 14.7932 28.0481 14.2801 28.0289 13.7382C28.0104 13.2069 27.7712 12.726 27.4007 12.3799C28.0634 11.0243 29.2791 8.06607 28.2994 6.27833C27.8353 5.4317 27.0293 5.10588 26.3381 4.9919C25.522 3.33981 24.2356 2.13923 22.6016 1.50911C20.9065 0.855469 18.9974 0.875801 17.0808 1.56825C15.0728 2.29372 13.1045 2.1166 11.2308 1.04246C10.9174 0.862444 10.5517 0.848791 10.2277 1.00536C9.88329 1.17172 9.6423 1.50792 9.58256 1.90356C9.40688 3.06333 9.33266 4.49512 9.37845 5.83194C9.38922 6.13913 9.64861 6.37977 9.95395 6.36901C10.1015 6.3639 10.241 6.30042 10.3417 6.19253C10.4424 6.08463 10.4962 5.94116 10.4911 5.79365C10.4292 3.98818 10.6049 2.58852 10.6834 2.0697C10.6869 2.04707 10.6938 2.03112 10.6999 2.02125C12.8642 3.25403 15.1377 3.45371 17.4591 2.61516C20.8584 1.38683 24.0727 2.64009 25.4571 5.7337C25.4978 5.82465 25.5621 5.903 25.6435 5.96056C25.7248 6.01813 25.8201 6.05279 25.9195 6.06092C26.6182 6.11858 27.0771 6.3647 27.3229 6.81303C27.9364 7.93303 27.2549 10.1458 26.4112 11.8701C26.2816 11.8442 26.1499 11.8312 26.0178 11.8312H25.4055V11.4927C25.4055 10.053 24.761 8.70865 23.6381 7.80488C23.1639 7.42178 22.4907 7.37741 21.9621 7.69447C21.075 8.22664 20.0567 8.50779 19.0177 8.50779C17.9786 8.50779 16.9607 8.22634 16.0732 7.69454C15.545 7.3777 14.8716 7.42207 14.3981 7.80406C13.2744 8.70865 12.6299 10.053 12.6299 11.4926V11.8312H12.0176C11.9663 11.8312 11.9156 11.833 11.8651 11.837C11.2998 10.7646 10.9014 9.45096 10.6788 7.92494C10.6559 7.78028 10.5769 7.65047 10.4589 7.56365C10.341 7.47682 10.1935 7.43998 10.0486 7.46111C9.90362 7.48223 9.77284 7.55963 9.68457 7.67651C9.59631 7.79339 9.55768 7.94035 9.57706 8.08551C9.80959 9.67854 10.225 11.0695 10.815 12.2297C10.343 12.5788 10.0276 13.1248 10.0064 13.7373C9.98705 14.2795 10.1836 14.7929 10.5599 15.1827C10.9359 15.5726 11.4416 15.7874 11.9834 15.7874H12.6296C12.6322 17.7329 13.5443 19.5355 15.0904 20.6899C14.6425 21.2029 14.3465 21.8252 14.2184 22.5238C11.8903 23.4701 10.3123 25.681 10.1723 28.1894C7.39495 28.3851 5.19531 30.7065 5.19531 33.5319C5.19531 36.4852 7.59846 38.8878 10.5525 38.8878H27.4831C30.437 38.8878 32.8403 36.4852 32.8403 33.5319C32.8403 30.7071 30.6406 28.3854 27.8638 28.1897ZM16.9724 26.5115C15.8394 25.7791 15.1808 24.495 15.2659 23.118C15.2688 23.0694 15.2728 23.0209 15.2778 22.9725C15.2935 22.8229 15.3181 22.6789 15.3524 22.5403C15.7034 23.6736 16.5671 24.5838 17.6708 24.9988C17.3165 25.3759 17.0655 25.9028 16.9724 26.5115ZM21.7407 21.3928C21.7369 21.4122 21.8213 22.4539 20.9437 23.3324C20.4288 23.8466 19.7449 24.1298 19.0177 24.1298C17.5163 24.1298 16.2949 22.9084 16.2949 21.4073V21.3928C17.8398 22.0792 20.036 22.1385 21.7407 21.3928ZM21.0637 26.5104C20.9713 25.9034 20.7205 25.377 20.3665 25C20.8724 24.8104 21.3368 24.513 21.7308 24.1194C22.1781 23.6716 22.5014 23.133 22.6832 22.5455C22.7154 22.6771 22.7395 22.8134 22.7551 22.9539C22.7559 22.974 22.758 22.9936 22.7612 23.0131C22.7716 23.1252 22.7768 23.2397 22.7768 23.3574C22.7768 24.633 22.1179 25.8234 21.0637 26.5104ZM13.7433 15.7792V15.2309C13.7433 14.9237 13.4939 14.6747 13.1866 14.6747H11.9834C11.7468 14.6747 11.5256 14.5804 11.3609 14.41C11.1965 14.2396 11.1108 14.0149 11.1191 13.7767C11.1351 13.3176 11.5381 12.9442 12.0176 12.9442H13.1866C13.4938 12.9442 13.7432 12.695 13.7432 12.3877V11.4927C13.7432 10.3918 14.2363 9.36311 15.0971 8.67044C15.2107 8.5785 15.3694 8.57012 15.5007 8.64892C16.5634 9.28531 17.779 9.62123 19.0177 9.62081C20.2564 9.62126 21.472 9.28537 22.5347 8.649C22.6661 8.57012 22.8246 8.5785 22.9392 8.67126C23.799 9.36318 24.2925 10.3918 24.2925 11.4927V12.3877C24.2925 12.5353 24.3511 12.6769 24.4555 12.7812C24.5599 12.8856 24.7015 12.9442 24.8491 12.9442H26.0178C26.4973 12.9442 26.9003 13.3176 26.9162 13.7768V13.7773C26.9246 14.0149 26.8388 14.2396 26.6744 14.41C26.594 14.4939 26.4974 14.5606 26.3904 14.6061C26.2834 14.6515 26.1683 14.6747 26.052 14.6744H24.8488C24.5416 14.6744 24.2922 14.9237 24.2922 15.2309V15.7792C24.2922 18.5723 22.0259 20.7966 19.2737 20.7966C18.6431 20.7945 17.4043 20.8772 16.0402 19.9954C14.6019 19.0655 13.7431 17.4894 13.7431 15.7793L13.7433 15.7792ZM27.4833 37.7751H10.5525C8.21247 37.7751 6.3086 35.8719 6.3086 33.5322C6.3086 31.1929 8.21247 29.2894 10.5525 29.2894C10.5599 29.2894 27.2222 29.2898 27.4831 29.2894C29.8233 29.2894 31.727 31.1929 31.727 33.5322C31.727 35.8719 29.8233 37.7751 27.4834 37.7751H27.4833Z" fill="black"></path>
                                </svg>