<svg width="10" height="10" viewBox="0 0 10 10" fill="none" xmlns="http://www.w3.org/2000/svg">
                                <path d="M1.78276 2.59423C1.98793 2.7683 2.17277 2.96877 2.35907 3.16423C2.38781 3.19426 2.41655 3.22429 2.44529 3.25432C2.52243 3.33492 2.59948 3.41562 2.67652 3.49633C2.75737 3.581 2.8383 3.66559 2.91922 3.75019C3.07205 3.91 3.2248 4.06988 3.37754 4.22978C3.55159 4.412 3.72572 4.59414 3.89985 4.77626C4.2577 5.15054 4.61545 5.52491 4.97313 5.89936C5.07273 5.85523 5.1361 5.79399 5.21199 5.71411C5.23754 5.68736 5.26309 5.66061 5.28941 5.63306C5.31752 5.60333 5.34564 5.5736 5.37375 5.54387C5.4035 5.51262 5.43327 5.48138 5.46305 5.45015C5.52713 5.38291 5.59112 5.31557 5.65505 5.24817C5.75622 5.14152 5.85761 5.03511 5.95904 4.92873C6.211 4.66444 6.4627 4.39987 6.71426 4.13517C6.90968 3.92953 7.1052 3.72399 7.301 3.51875C7.40177 3.41311 7.50235 3.30727 7.60278 3.20128C7.66543 3.13524 7.72825 3.0694 7.79112 3.0036C7.82015 2.97315 7.8491 2.94262 7.87798 2.91202C8.24733 2.52074 8.24733 2.52074 8.54496 2.5C8.72961 2.50287 8.89261 2.5734 9.02352 2.71019C9.14191 2.8891 9.18088 3.0446 9.16223 3.26105C9.12662 3.43282 9.05801 3.52377 8.94386 3.65216C8.93037 3.66734 8.91688 3.68252 8.90299 3.69815C8.75011 3.86915 8.59238 4.03505 8.43413 4.20058C8.40132 4.235 8.36852 4.26943 8.33572 4.30386C8.2477 4.39622 8.15959 4.4885 8.07145 4.58074C8.01626 4.6385 7.96108 4.69628 7.90591 4.75407C7.73289 4.93528 7.55981 5.11643 7.38666 5.29751C7.18744 5.50583 6.9884 5.71435 6.78952 5.92303C6.63515 6.08498 6.48062 6.24677 6.32596 6.40843C6.23384 6.50473 6.14178 6.60111 6.04988 6.69767C5.96362 6.78829 5.87717 6.8787 5.79056 6.96896C5.7589 7.00203 5.7273 7.03517 5.69579 7.0684C5.65263 7.11387 5.60922 7.15906 5.56574 7.20419C5.54157 7.2295 5.51739 7.25481 5.49247 7.28089C5.32677 7.43038 5.16979 7.50525 4.94907 7.49971C4.57273 7.46298 4.29991 7.05575 4.04757 6.79227C4.01409 6.75743 3.98061 6.72258 3.94713 6.68775C3.85702 6.59396 3.76701 6.50008 3.67702 6.40616C3.6207 6.34739 3.56436 6.28863 3.50802 6.22988C3.33142 6.04572 3.15487 5.8615 2.97841 5.67719C2.77523 5.46499 2.57187 5.25298 2.36836 5.04114C2.21056 4.87686 2.05292 4.71241 1.89541 4.54784C1.80152 4.44974 1.70755 4.35172 1.61343 4.25387C1.52503 4.16196 1.43683 4.06985 1.34878 3.97758C1.31651 3.94384 1.28417 3.91016 1.25175 3.87657C1.20739 3.83058 1.16329 3.78433 1.11925 3.738C1.09455 3.71223 1.06985 3.68645 1.0444 3.6599C0.900457 3.48602 0.830147 3.32296 0.833447 3.09151C0.849951 2.92181 0.918562 2.77255 1.03371 2.65221C1.26473 2.48525 1.53138 2.44206 1.78276 2.59423Z" fill="white"></path>
                            </svg>